999
dxfrw 0.6.3
  0
SECTION
  2
HEADER
  9
$ACADVER
  1
AC1021
  9
$DWGCODEPAGE
  3
ANSI_1252
  9
$INSBASE
 10
0
 20
0
 30
0
  9
$EXTMIN
 10
0
 20
-10.88969022858965
 30
0
  9
$EXTMAX
 10
34.9853
 20
10.88969022858965
 30
0
  9
$LIMMIN
 10
0
 20
0
  9
$LIMMAX
 10
12
 20
9
  9
$ORTHOMODE
 70
    0
  9
$REGENMODE
 70
    1
  9
$FILLMODE
 70
    1
  9
$QTEXTMODE
 70
    0
  9
$MIRRTEXT
 70
    1
  9
$LTSCALE
 40
1
  9
$ATTMODE
 70
    1
  9
$TEXTSIZE
 40
0.2
  9
$TRACEWID
 40
0.05
  9
$TEXTSTYLE
  7
STANDARD
  9
$CLAYER
  8
MEASURES
  9
$CELTYPE
  6
BYLAYER
  9
$CECOLOR
 62
  256
  9
$CELTSCALE
 40
1
  9
$DISPSILH
 70
    0
  9
$DIMSCALE
 40
1
  9
$DIMASZ
 40
0.18
  9
$DIMEXO
 40
0.0625
  9
$DIMDLI
 40
0.38
  9
$DIMRND
 40
0
  9
$DIMDLE
 40
0
  9
$DIMEXE
 40
0.18
  9
$DIMTP
 40
0
  9
$DIMTM
 40
0
  9
$DIMTXT
 40
10
  9
$DIMCEN
 40
0.09
  9
$DIMTSZ
 40
0
  9
$DIMTOL
 70
    0
  9
$DIMLIM
 70
    0
  9
$DIMTIH
 70
    1
  9
$DIMTOH
 70
    1
  9
$DIMSE1
 70
    0
  9
$DIMSE2
 70
    0
  9
$DIMTAD
 70
    0
  9
$DIMZIN
 70
    0
  9
$DIMBLK
  1

  9
$DIMASO
 70
    1
  9
$DIMSHO
 70
    1
  9
$DIMPOST
  1

  9
$DIMAPOST
  1

  9
$DIMALT
 70
    0
  9
$DIMALTD
 70
    2
  9
$DIMALTF
 40
25.4
  9
$DIMLFAC
 40
1
  9
$DIMTOFL
 70
    0
  9
$DIMTVP
 40
0
  9
$DIMTIX
 70
    0
  9
$DIMSOXD
 70
    0
  9
$DIMSAH
 70
    0
  9
$DIMBLK1
  1

  9
$DIMBLK2
  1

  9
$DIMSTYLE
  2
STANDARD
  9
$DIMCLRD
 70
    0
  9
$DIMCLRE
 70
    0
  9
$DIMCLRT
 70
    0
  9
$DIMTFAC
 40
1
  9
$DIMGAP
 40
0.09
  9
$DIMJUST
 70
    0
  9
$DIMSD1
 70
    0
  9
$DIMSD2
 70
    0
  9
$DIMTOLJ
 70
    0
  9
$DIMTZIN
 70
    8
  9
$DIMALTZ
 70
    0
  9
$DIMALTTZ
 70
    0
  9
$DIMUPT
 70
    0
  9
$DIMDEC
 70
    4
  9
$DIMTDEC
 70
    2
  9
$DIMALTU
 70
    2
  9
$DIMALTTD
 70
    3
  9
$DIMTXSTY
  7
STANDARD
  9
$DIMAUNIT
 70
    0
  9
$DIMADEC
 70
    0
  9
$DIMALTRND
 40
0
  9
$DIMAZIN
 70
    0
  9
$DIMDSEP
 70
   44
  9
$DIMATFIT
 70
    3
  9
$DIMFRAC
 70
    0
  9
$DIMLDRBLK
  1
STANDARD
  9
$DIMLUNIT
 70
    2
  9
$DIMLWD
 70
   -2
  9
$DIMLWE
 70
   -2
  9
$DIMTMOVE
 70
    0
  9
$DIMFXL
 40
1
  9
$DIMFXLON
 70
    0
  9
$DIMJOGANG
 40
0.7854
  9
$DIMTFILL
 70
    0
  9
$DIMTFILLCLR
 70
    0
  9
$DIMARCSYM
 70
    0
  9
$DIMLTYPE
  6

  9
$DIMLTEX1
  6

  9
$DIMLTEX2
  6

  9
$LUNITS
 70
    2
  9
$LUPREC
 70
    3
  9
$SKETCHINC
 40
0.1
  9
$FILLETRAD
 40
0.5
  9
$AUNITS
 70
    0
  9
$AUPREC
 70
    0
  9
$MENU
  1
.
  9
$ELEVATION
 40
0
  9
$PELEVATION
 40
0
  9
$THICKNESS
 40
0
  9
$LIMCHECK
 70
    0
  9
$CHAMFERA
 40
0.5
  9
$CHAMFERB
 40
0.5
  9
$CHAMFERC
 40
0
  9
$CHAMFERD
 40
0
  9
$SKPOLY
 70
    0
  9
$USRTIMER
 70
    1
  9
$ANGBASE
 50
0
  9
$ANGDIR
 70
    0
  9
$PDMODE
 70
    0
  9
$PDSIZE
 40
0
  9
$PLINEWID
 40
0
  9
$SPLFRAME
 70
    0
  9
$SPLINETYPE
 70
    6
  9
$SPLINESEGS
 70
    8
  9
$HANDSEED
  5
20000
  9
$SURFTAB1
 70
    6
  9
$SURFTAB2
 70
    6
  9
$SURFTYPE
 70
    6
  9
$SURFU
 70
    6
  9
$SURFV
 70
    6
  9
$UCSBASE
  2

  9
$UCSNAME
  2

  9
$UCSORG
 10
0
 20
0
 30
0
  9
$UCSXDIR
 10
1
 20
0
 30
0
  9
$UCSYDIR
 10
0
 20
1
 30
0
  9
$UCSORTHOREF
  2

  9
$UCSORTHOVIEW
 70
    0
  9
$UCSORGTOP
 10
0
 20
0
 30
0
  9
$UCSORGBOTTOM
 10
0
 20
0
 30
0
  9
$UCSORGLEFT
 10
0
 20
0
 30
0
  9
$UCSORGRIGHT
 10
0
 20
0
 30
0
  9
$UCSORGFRONT
 10
0
 20
0
 30
0
  9
$UCSORGBACK
 10
0
 20
0
 30
0
  9
$PUCSBASE
  2

  9
$PUCSNAME
  2

  9
$PUCSORG
 10
0
 20
0
 30
0
  9
$PUCSXDIR
 10
1
 20
0
 30
0
  9
$PUCSYDIR
 10
0
 20
1
 30
0
  9
$PUCSORTHOREF
  2

  9
$PUCSORTHOVIEW
 70
    0
  9
$PUCSORGTOP
 10
0
 20
0
 30
0
  9
$PUCSORGBOTTOM
 10
0
 20
0
 30
0
  9
$PUCSORGLEFT
 10
0
 20
0
 30
0
  9
$PUCSORGRIGHT
 10
0
 20
0
 30
0
  9
$PUCSORGFRONT
 10
0
 20
0
 30
0
  9
$PUCSORGBACK
 10
0
 20
0
 30
0
  9
$USERI1
 70
    0
  9
$USERI2
 70
    0
  9
$USERI3
 70
    0
  9
$USERI4
 70
    0
  9
$USERI5
 70
    0
  9
$USERR1
 40
0
  9
$USERR2
 40
0
  9
$USERR3
 40
0
  9
$USERR4
 40
0
  9
$USERR5
 40
0
  9
$WORLDVIEW
 70
    1
  9
$SHADEDGE
 70
    3
  9
$SHADEDIF
 70
   70
  9
$TILEMODE
 70
    1
  9
$MAXACTVP
 70
   64
  9
$PINSBASE
 10
0
 20
0
 30
0
  9
$PLIMCHECK
 70
    0
  9
$PEXTMIN
 10
1e+20
 20
1e+20
 30
1e+20
  9
$PEXTMAX
 10
-1e+20
 20
-1e+20
 30
-1e+20
  9
$GRIDMODE
 70
    0
  9
$SNAPSTYLE
 70
    0
  9
$GRIDUNIT
 10
0
 20
0
  9
$PLIMMIN
 10
0
 20
0
  9
$PLIMMAX
 10
0
 20
0
  9
$UNITMODE
 70
    0
  9
$VISRETAIN
 70
    1
  9
$PLINEGEN
 70
    0
  9
$PSLTSCALE
 70
    1
  9
$TREEDEPTH
 70
 3020
  9
$CMLSTYLE
  2
Standard
  9
$CMLJUST
 70
    0
  9
$CMLSCALE
 40
20
  9
$PROXYGRAPHICS
 70
    1
  9
$MEASUREMENT
 70
    1
  9
$CELWEIGHT
370
   -1
  9
$ENDCAPS
280
    0
  9
$JOINSTYLE
280
    0
  9
$LWDISPLAY
290
    0
  9
$INSUNITS
 70
    4
  9
$HYPERLINKBASE
  1

  9
$STYLESHEET
  1

  9
$XEDIT
290
    1
  9
$CEPSNTYPE
380
    0
  9
$PSTYLEMODE
290
    1
  9
$EXTNAMES
290
    1
  9
$PSVPSCALE
 40
1
  9
$OLESTARTUP
290
    0
  9
$SORTENTS
280
  127
  9
$INDEXCTL
280
    0
  9
$HIDETEXT
280
    1
  9
$XCLIPFRAME
290
    0
  9
$HALOGAP
280
    0
  9
$OBSCOLOR
 70
  257
  9
$OBSLTYPE
280
    0
  9
$INTERSECTIONDISPLAY
280
    0
  9
$INTERSECTIONCOLOR
 70
  257
  9
$DIMASSOC
280
    1
  9
$PROJECTNAME
  1

  9
$CAMERADISPLAY
290
    0
  9
$LENSLENGTH
 40
50
  9
$CAMERAHEIGHT
 40
0
  9
$STEPSPERSEC
 40
2
  9
$STEPSIZE
 40
50
  9
$3DDWFPREC
 40
2
  9
$PSOLWIDTH
 40
5
  9
$PSOLHEIGHT
 40
80
  9
$LOFTANG1
 40
1.570796326794897
  9
$LOFTANG2
 40
1.570796326794897
  9
$LOFTMAG1
 40
0
  9
$LOFTMAG2
 40
0
  9
$LOFTPARAM
 70
    7
  9
$LOFTNORMALS
280
    1
  9
$LATITUDE
 40
1
  9
$LONGITUDE
 40
1
  9
$NORTHDIRECTION
 40
0
  9
$TIMEZONE
 70
-8000
  9
$LIGHTGLYPHDISPLAY
280
    1
  9
$TILEMODELIGHTSYNCH
280
    1
  9
$SOLIDHIST
280
    1
  9
$SHOWHIST
280
    1
  9
$DWFFRAME
280
    2
  9
$DGNFRAME
280
    0
  9
$REALWORLDSCALE
290
    1
  9
$INTERFERECOLOR
 62
    1
  9
$CSHADOW
280
    0
  9
$SHADOWPLANELOCATION
 40
0
  0
ENDSEC
  0
SECTION
  2
CLASSES
  0
ENDSEC
  0
SECTION
  2
TABLES
  0
TABLE
  2
VPORT
  5
8
330
0
100
AcDbSymbolTable
 70
    1
  0
VPORT
  5
31
330
2
100
AcDbSymbolTableRecord
100
AcDbViewportTableRecord
  2
*ACTIVE
 70
    0
 10
0
 20
0
 11
1
 21
1
 12
64.75328892632348
 22
42.87170192994382
 13
0
 23
0
 14
10
 24
10
 15
10
 25
10
 16
0
 26
0
 36
1
 17
0
 27
0
 37
0
 40
140.0421567768297
 41
1.703703703703704
 42
50
 43
0
 44
0
 50
0
 51
0
 71
    0
 72
  100
 73
    1
 74
    3
 75
    0
 76
    0
 77
    0
 78
    0
281
    0
 65
    1
110
0
120
0
130
0
111
1
121
0
131
0
112
0
122
1
132
0
 79
    0
146
0
348
10020
 60
    7
 61
    5
292
1
282
    1
141
0
142
0
 63
  250
421
3358443
  0
ENDTAB
  0
TABLE
  2
LTYPE
  5
5
330
0
100
AcDbSymbolTable
 70
    4
  0
LTYPE
  5
14
330
5
100
AcDbSymbolTableRecord
100
AcDbLinetypeTableRecord
  2
ByBlock
 70
    0
  3

 72
   65
 73
    0
 40
0
  0
LTYPE
  5
15
330
5
100
AcDbSymbolTableRecord
100
AcDbLinetypeTableRecord
  2
ByLayer
 70
    0
  3

 72
   65
 73
    0
 40
0
  0
LTYPE
  5
16
330
5
100
AcDbSymbolTableRecord
100
AcDbLinetypeTableRecord
  2
Continuous
 70
    0
  3
Solid line
 72
   65
 73
    0
 40
0
  0
LTYPE
  5
32
330
5
100
AcDbSymbolTableRecord
100
AcDbLinetypeTableRecord
  2
DOT
 70
    0
  3
Dot . . . . . . . . . . . . . . . . . . . . . .
 72
   65
 73
    2
 40
6.35
 49
0
 74
    0
 49
-6.35
 74
    0
  0
LTYPE
  5
33
330
5
100
AcDbSymbolTableRecord
100
AcDbLinetypeTableRecord
  2
DOTTINY
 70
    0
  3
Dot (.15x) .....................................
 72
   65
 73
    2
 40
0.9525
 49
0
 74
    0
 49
-0.9525
 74
    0
  0
LTYPE
  5
34
330
5
100
AcDbSymbolTableRecord
100
AcDbLinetypeTableRecord
  2
DOT2
 70
    0
  3
Dot (.5x) .....................................
 72
   65
 73
    2
 40
3.175
 49
0
 74
    0
 49
-3.175
 74
    0
  0
LTYPE
  5
35
330
5
100
AcDbSymbolTableRecord
100
AcDbLinetypeTableRecord
  2
DOTX2
 70
    0
  3
Dot (2x) .  .  .  .  .  .  .  .  .  .  .  .  .
 72
   65
 73
    2
 40
12.7
 49
0
 74
    0
 49
-12.7
 74
    0
  0
LTYPE
  5
36
330
5
100
AcDbSymbolTableRecord
100
AcDbLinetypeTableRecord
  2
DASHED
 70
    0
  3
Dashed _ _ _ _ _ _ _ _ _ _ _ _ _ _ _ _ _
 72
   65
 73
    2
 40
19.05
 49
12.7
 74
    0
 49
-6.35
 74
    0
  0
LTYPE
  5
37
330
5
100
AcDbSymbolTableRecord
100
AcDbLinetypeTableRecord
  2
DASHEDTINY
 70
    0
  3
Dashed (.15x) _ _ _ _ _ _ _ _ _ _ _ _ _ _ _ _ _
 72
   65
 73
    2
 40
2.8575
 49
1.905
 74
    0
 49
-0.9525
 74
    0
  0
LTYPE
  5
38
330
5
100
AcDbSymbolTableRecord
100
AcDbLinetypeTableRecord
  2
DASHED2
 70
    0
  3
Dashed (.5x) _ _ _ _ _ _ _ _ _ _ _ _ _ _ _ _ _
 72
   65
 73
    2
 40
9.524999999999999
 49
6.35
 74
    0
 49
-3.175
 74
    0
  0
LTYPE
  5
39
330
5
100
AcDbSymbolTableRecord
100
AcDbLinetypeTableRecord
  2
DASHEDX2
 70
    0
  3
Dashed (2x) ____  ____  ____  ____  ____  ___
 72
   65
 73
    2
 40
38.09999999999999
 49
25.4
 74
    0
 49
-12.7
 74
    0
  0
LTYPE
  5
3A
330
5
100
AcDbSymbolTableRecord
100
AcDbLinetypeTableRecord
  2
DASHDOT
 70
    0
  3
Dash dot __ . __ . __ . __ . __ . __ . __ . __
 72
   65
 73
    4
 40
25.4
 49
12.7
 74
    0
 49
-6.35
 74
    0
 49
0
 74
    0
 49
-6.35
 74
    0
  0
LTYPE
  5
3B
330
5
100
AcDbSymbolTableRecord
100
AcDbLinetypeTableRecord
  2
DASHDOTTINY
 70
    0
  3
Dash dot (.15x) _._._._._._._._._._._._._._._.
 72
   65
 73
    4
 40
3.81
 49
1.905
 74
    0
 49
-0.9525
 74
    0
 49
0
 74
    0
 49
-0.9525
 74
    0
  0
LTYPE
  5
3C
330
5
100
AcDbSymbolTableRecord
100
AcDbLinetypeTableRecord
  2
DASHDOT2
 70
    0
  3
Dash dot (.5x) _._._._._._._._._._._._._._._.
 72
   65
 73
    4
 40
12.7
 49
6.35
 74
    0
 49
-3.175
 74
    0
 49
0
 74
    0
 49
-3.175
 74
    0
  0
LTYPE
  5
3D
330
5
100
AcDbSymbolTableRecord
100
AcDbLinetypeTableRecord
  2
DASHDOTX2
 70
    0
  3
Dash dot (2x) ____  .  ____  .  ____  .  ___
 72
   65
 73
    4
 40
50.8
 49
25.4
 74
    0
 49
-12.7
 74
    0
 49
0
 74
    0
 49
-12.7
 74
    0
  0
LTYPE
  5
3E
330
5
100
AcDbSymbolTableRecord
100
AcDbLinetypeTableRecord
  2
DIVIDE
 70
    0
  3
Divide ____ . . ____ . . ____ . . ____ . . ____
 72
   65
 73
    6
 40
31.75
 49
12.7
 74
    0
 49
-6.35
 74
    0
 49
0
 74
    0
 49
-6.35
 74
    0
 49
0
 74
    0
 49
-6.35
 74
    0
  0
LTYPE
  5
3F
330
5
100
AcDbSymbolTableRecord
100
AcDbLinetypeTableRecord
  2
DIVIDETINY
 70
    0
  3
Divide (.15x) __..__..__..__..__..__..__..__.._
 72
   65
 73
    6
 40
4.7625
 49
1.905
 74
    0
 49
-0.9525
 74
    0
 49
0
 74
    0
 49
-0.9525
 74
    0
 49
0
 74
    0
 49
-0.9525
 74
    0
  0
LTYPE
  5
40
330
5
100
AcDbSymbolTableRecord
100
AcDbLinetypeTableRecord
  2
DIVIDE2
 70
    0
  3
Divide (.5x) __..__..__..__..__..__..__..__.._
 72
   65
 73
    6
 40
15.875
 49
6.35
 74
    0
 49
-3.175
 74
    0
 49
0
 74
    0
 49
-3.175
 74
    0
 49
0
 74
    0
 49
-3.175
 74
    0
  0
LTYPE
  5
41
330
5
100
AcDbSymbolTableRecord
100
AcDbLinetypeTableRecord
  2
DIVIDEX2
 70
    0
  3
Divide (2x) ________  .  .  ________  .  .  _
 72
   65
 73
    6
 40
63.5
 49
25.4
 74
    0
 49
-12.7
 74
    0
 49
0
 74
    0
 49
-12.7
 74
    0
 49
0
 74
    0
 49
-12.7
 74
    0
  0
LTYPE
  5
42
330
5
100
AcDbSymbolTableRecord
100
AcDbLinetypeTableRecord
  2
BORDER
 70
    0
  3
Border __ __ . __ __ . __ __ . __ __ . __ __ .
 72
   65
 73
    6
 40
44.45
 49
12.7
 74
    0
 49
-6.35
 74
    0
 49
12.7
 74
    0
 49
-6.35
 74
    0
 49
0
 74
    0
 49
-6.35
 74
    0
  0
LTYPE
  5
43
330
5
100
AcDbSymbolTableRecord
100
AcDbLinetypeTableRecord
  2
BORDERTINY
 70
    0
  3
Border (.15x) __.__.__.__.__.__.__.__.__.__.__.
 72
   65
 73
    6
 40
6.6675
 49
1.905
 74
    0
 49
-0.9525
 74
    0
 49
1.905
 74
    0
 49
-0.9525
 74
    0
 49
0
 74
    0
 49
-0.9525
 74
    0
  0
LTYPE
  5
44
330
5
100
AcDbSymbolTableRecord
100
AcDbLinetypeTableRecord
  2
BORDER2
 70
    0
  3
Border (.5x) __.__.__.__.__.__.__.__.__.__.__.
 72
   65
 73
    6
 40
22.225
 49
6.35
 74
    0
 49
-3.175
 74
    0
 49
6.35
 74
    0
 49
-3.175
 74
    0
 49
0
 74
    0
 49
-3.175
 74
    0
  0
LTYPE
  5
45
330
5
100
AcDbSymbolTableRecord
100
AcDbLinetypeTableRecord
  2
BORDERX2
 70
    0
  3
Border (2x) ____  ____  .  ____  ____  .  ___
 72
   65
 73
    6
 40
88.89999999999999
 49
25.4
 74
    0
 49
-12.7
 74
    0
 49
25.4
 74
    0
 49
-12.7
 74
    0
 49
0
 74
    0
 49
-12.7
 74
    0
  0
LTYPE
  5
46
330
5
100
AcDbSymbolTableRecord
100
AcDbLinetypeTableRecord
  2
CENTER
 70
    0
  3
Center ____ _ ____ _ ____ _ ____ _ ____ _ ____
 72
   65
 73
    4
 40
50.8
 49
31.75
 74
    0
 49
-6.35
 74
    0
 49
6.35
 74
    0
 49
-6.35
 74
    0
  0
LTYPE
  5
47
330
5
100
AcDbSymbolTableRecord
100
AcDbLinetypeTableRecord
  2
CENTERTINY
 70
    0
  3
Center (.15x) ___ _ ___ _ ___ _ ___ _ ___ _ ___
 72
   65
 73
    4
 40
7.619999999999999
 49
4.7625
 74
    0
 49
-0.9525
 74
    0
 49
0.9525
 74
    0
 49
-0.9525
 74
    0
  0
LTYPE
  5
48
330
5
100
AcDbSymbolTableRecord
100
AcDbLinetypeTableRecord
  2
CENTER2
 70
    0
  3
Center (.5x) ___ _ ___ _ ___ _ ___ _ ___ _ ___
 72
   65
 73
    4
 40
28.575
 49
19.05
 74
    0
 49
-3.175
 74
    0
 49
3.175
 74
    0
 49
-3.175
 74
    0
  0
LTYPE
  5
49
330
5
100
AcDbSymbolTableRecord
100
AcDbLinetypeTableRecord
  2
CENTERX2
 70
    0
  3
Center (2x) ________  __  ________  __  _____
 72
   65
 73
    4
 40
101.6
 49
63.5
 74
    0
 49
-12.7
 74
    0
 49
12.7
 74
    0
 49
-12.7
 74
    0
  0
ENDTAB
  0
TABLE
  2
LAYER
  5
2
330
0
100
AcDbSymbolTable
 70
    1
  0
LAYER
  5
10
330
2
100
AcDbSymbolTableRecord
100
AcDbLayerTableRecord
  2
0
 70
    0
 62
    7
  6
CONTINUOUS
370
   -3
390
F
  0
LAYER
  5
4A
330
2
100
AcDbSymbolTableRecord
100
AcDbLayerTableRecord
  2
MEASURES
 70
    0
 62
    1
  6
CONTINUOUS
370
   -3
390
F
  0
ENDTAB
  0
TABLE
  2
STYLE
  5
3
330
0
100
AcDbSymbolTable
 70
    3
  0
STYLE
  5
4B
330
2
100
AcDbSymbolTableRecord
100
AcDbTextStyleTableRecord
  2
standard
 70
    0
 40
0
 41
1
 50
0
 71
    0
 42
1
  3
standard
  4

  0
ENDTAB
  0
TABLE
  2
VIEW
  5
6
330
0
100
AcDbSymbolTable
 70
    0
  0
ENDTAB
  0
TABLE
  2
UCS
  5
7
330
0
100
AcDbSymbolTable
 70
    0
  0
ENDTAB
  0
TABLE
  2
APPID
  5
9
330
0
100
AcDbSymbolTable
 70
    1
  0
APPID
  5
12
330
9
100
AcDbSymbolTableRecord
100
AcDbRegAppTableRecord
  2
ACAD
 70
    0
  0
APPID
  5
4C
330
9
100
AcDbSymbolTableRecord
100
AcDbRegAppTableRecord
  2
LibreCad
 70
    0
  0
ENDTAB
  0
TABLE
  2
DIMSTYLE
  5
A
330
0
100
AcDbSymbolTable
 70
    1
100
AcDbDimStyleTable
 71
    1
  0
DIMSTYLE
105
4D
330
A
100
AcDbSymbolTableRecord
100
AcDbDimStyleTableRecord
  2
Standard
 70
    0
 40
1
 41
0.18
 42
0.0625
 43
0.38
 44
0.18
 45
0
 46
0
 47
0
 48
0
 49
1
140
10
141
0.09
142
0
143
25.4
144
1
145
0
146
1
147
0.09
148
0
 71
    0
 72
    0
 73
    1
 74
    1
 75
    0
 76
    0
 77
    0
 78
    0
 79
    0
170
    0
171
    2
172
    0
173
    0
174
    0
175
    0
176
    0
177
    0
178
    0
179
    0
271
    4
272
    4
273
    2
274
    2
275
    0
276
    0
277
    2
278
    0
279
    0
280
    0
281
    0
282
    0
283
    1
284
    0
285
    0
286
    0
288
    0
289
    3
340
standard
341

371
   -2
372
   -2
  0
ENDTAB
  0
TABLE
  2
BLOCK_RECORD
  5
1
330
0
100
AcDbSymbolTable
 70
    2
  0
BLOCK_RECORD
  5
1F
330
1
100
AcDbSymbolTableRecord
100
AcDbBlockTableRecord
  2
*Model_Space
 70
    0
280
    1
281
    0
  0
BLOCK_RECORD
  5
1E
330
1
100
AcDbSymbolTableRecord
100
AcDbBlockTableRecord
  2
*Paper_Space
 70
    0
280
    1
281
    0
  0
BLOCK_RECORD
  5
4E
330
1
100
AcDbSymbolTableRecord
100
AcDbBlockTableRecord
  2
*D3
 70
    0
280
    1
281
    0
  0
BLOCK_RECORD
  5
51
330
1
100
AcDbSymbolTableRecord
100
AcDbBlockTableRecord
  2
*D1
 70
    0
280
    1
281
    0
  0
BLOCK_RECORD
  5
54
330
1
100
AcDbSymbolTableRecord
100
AcDbBlockTableRecord
  2
*D4
 70
    0
280
    1
281
    0
  0
BLOCK_RECORD
  5
57
330
1
100
AcDbSymbolTableRecord
100
AcDbBlockTableRecord
  2
*D2
 70
    0
280
    1
281
    0
  0
ENDTAB
  0
ENDSEC
  0
SECTION
  2
BLOCKS
  0
BLOCK
  5
20
330
1F
100
AcDbEntity
  8
0
100
AcDbBlockBegin
  2
*Model_Space
 70
    0
 10
0
 20
0
 30
0
  3
*Model_Space
  1

  0
ENDBLK
  5
21
330
1F
100
AcDbEntity
  8
0
100
AcDbBlockEnd
  0
BLOCK
  5
1C
330
1B
100
AcDbEntity
  8
0
100
AcDbBlockBegin
  2
*Paper_Space
 70
    0
 10
0
 20
0
 30
0
  3
*Paper_Space
  1

  0
ENDBLK
  5
1D
330
1F
100
AcDbEntity
  8
0
100
AcDbBlockEnd
  0
BLOCK
  5
4F
330
4E
100
AcDbEntity
  8
0
100
AcDbBlockBegin
  2
*D3
 70
    0
 10
0
 20
0
  3
*D3
  1

  0
LINE
  5
5A
100
AcDbEntity
  8
MEASURES
  6
ByBlock
 62
    0
370
   -1
100
AcDbLine
 10
0
 20
-22.36770846326005
 11
34.9853
 21
-22.36770846326005
  0
SOLID
  5
5B
100
AcDbEntity
  8
MEASURES
  6
ByBlock
 62
    0
370
   -1
100
AcDbTrace
 10
0
 20
-22.36770846326005
 30
0
 11
0.18
 21
-22.33773596790041
 31
0
 12
0.18
 22
-22.39768095861969
 32
0
 13
0.18
 23
-22.39768095861969
 33
0
  0
SOLID
  5
5C
100
AcDbEntity
  8
MEASURES
  6
ByBlock
 62
    0
370
   -1
100
AcDbTrace
 10
34.9853
 20
-22.36770846326005
 30
0
 11
34.8053
 21
-22.39768095861969
 31
0
 12
34.8053
 22
-22.33773596790041
 32
0
 13
34.8053
 23
-22.33773596790041
 33
0
  0
TEXT
  5
5D
100
AcDbEntity
  8
MEASURES
  6
CONTINUOUS
 62
    0
370
   -1
100
AcDbText
 10
58.96418888888982
 20
-22.36770846326005
 30
0
 40
10
  1
34.9853
 50
0
 41
1
 51
0
  7
standard
 71
    0
 72
    1
 11
58.96418888888982
 21
-22.36770846326005
 31
0
210
0
220
0
230
1
100
AcDbText
 73
    2
  0
LINE
  5
5E
100
AcDbEntity
  8
MEASURES
  6
ByBlock
 62
    0
370
   -1
100
AcDbLine
 10
-1.148106374200644e-17
 20
-1.065530422931317
 11
-3.306546357697853e-17
 21
-22.54770846326005
  0
LINE
  5
5F
100
AcDbEntity
  8
MEASURES
  6
ByBlock
 62
    0
370
   -1
100
AcDbLine
 10
34.9853
 20
-0.4583886453674345
 11
34.9853
 21
-22.54770846326005
  0
ENDBLK
  5
50
330
4E
100
AcDbEntity
  8
0
100
AcDbBlockEnd
  0
BLOCK
  5
52
330
51
100
AcDbEntity
  8
0
100
AcDbBlockBegin
  2
*D1
 70
    0
 10
0
 20
0
  3
*D1
  1

  0
LINE
  5
60
100
AcDbEntity
  8
MEASURES
  6
ByBlock
 62
    0
370
   -1
100
AcDbLine
 10
25.58212631932092
 20
4.999999999999998
 11
25.58212631932092
 21
-5.000000000000002
  0
SOLID
  5
61
100
AcDbEntity
  8
MEASURES
  6
ByBlock
 62
    0
370
   -1
100
AcDbTrace
 10
25.58212631932092
 20
4.999999999999998
 30
0
 11
25.61209881468057
 21
4.819999999999999
 31
0
 12
25.55215382396128
 22
4.819999999999999
 32
0
 13
25.55215382396128
 23
4.819999999999999
 33
0
  0
SOLID
  5
62
100
AcDbEntity
  8
MEASURES
  6
ByBlock
 62
    0
370
   -1
100
AcDbTrace
 10
25.58212631932092
 20
-5.000000000000002
 30
0
 11
25.55215382396128
 21
-4.820000000000002
 31
0
 12
25.61209881468057
 22
-4.820000000000002
 32
0
 13
25.61209881468057
 23
-4.820000000000002
 33
0
  0
TEXT
  5
63
100
AcDbEntity
  8
MEASURES
  6
CONTINUOUS
 62
    0
370
   -1
100
AcDbText
 10
52.89434854154315
 20
-1.77635683940025e-15
 30
0
 40
10
  1
10.0000
 50
0
 41
1
 51
0
  7
standard
 71
    0
 72
    1
 11
52.89434854154315
 21
-1.77635683940025e-15
 31
0
210
0
220
0
230
1
100
AcDbText
 73
    2
  0
LINE
  5
64
100
AcDbEntity
  8
MEASURES
  6
ByBlock
 62
    0
370
   -1
100
AcDbLine
 10
0.0625
 20
5
 11
25.76212631932092
 21
4.999999999999998
  0
LINE
  5
65
100
AcDbEntity
  8
MEASURES
  6
ByBlock
 62
    0
370
   -1
100
AcDbLine
 10
0.0625
 20
-5
 11
25.76212631932092
 21
-5.000000000000002
  0
ENDBLK
  5
53
330
51
100
AcDbEntity
  8
0
100
AcDbBlockEnd
  0
BLOCK
  5
55
330
54
100
AcDbEntity
  8
0
100
AcDbBlockBegin
  2
*D4
 70
    0
 10
0
 20
0
  3
*D4
  1

  0
LINE
  5
66
100
AcDbEntity
  8
MEASURES
  6
ByBlock
 62
    0
370
   -1
100
AcDbLine
 10
0
 20
21.00585152319608
 11
16.1
 21
21.00585152319608
  0
SOLID
  5
67
100
AcDbEntity
  8
MEASURES
  6
ByBlock
 62
    0
370
   -1
100
AcDbTrace
 10
0
 20
21.00585152319608
 30
0
 11
0.18
 21
21.03582401855573
 31
0
 12
0.18
 22
20.97587902783644
 32
0
 13
0.18
 23
20.97587902783644
 33
0
  0
SOLID
  5
68
100
AcDbEntity
  8
MEASURES
  6
ByBlock
 62
    0
370
   -1
100
AcDbTrace
 10
16.1
 20
21.00585152319608
 30
0
 11
15.92
 21
20.97587902783644
 31
0
 12
15.92
 22
21.03582401855573
 32
0
 13
15.92
 23
21.03582401855573
 33
0
  0
TEXT
  5
69
100
AcDbEntity
  8
MEASURES
  6
CONTINUOUS
 62
    0
370
   -1
100
AcDbText
 10
37.30111111111142
 20
21.00585152319608
 30
0
 40
10
  1
16.1000
 50
0
 41
1
 51
0
  7
standard
 71
    0
 72
    1
 11
37.30111111111142
 21
21.00585152319608
 31
0
210
0
220
0
230
1
100
AcDbText
 73
    2
  0
LINE
  5
6A
100
AcDbEntity
  8
MEASURES
  6
ByBlock
 62
    0
370
   -1
100
AcDbLine
 10
3.827021247335479e-18
 20
0.0625
 11
1.102182119232618e-17
 21
21.18585152319608
  0
LINE
  5
6B
100
AcDbEntity
  8
MEASURES
  6
ByBlock
 62
    0
370
   -1
100
AcDbLine
 10
16.1
 20
0.1375208982971289
 11
16.1
 21
21.18585152319608
  0
ENDBLK
  5
56
330
54
100
AcDbEntity
  8
0
100
AcDbBlockEnd
  0
BLOCK
  5
58
330
57
100
AcDbEntity
  8
0
100
AcDbBlockBegin
  2
*D2
 70
    0
 10
0
 20
0
  3
*D2
  1

  0
LINE
  5
6C
100
AcDbEntity
  8
MEASURES
  6
ByBlock
 62
    0
370
   -1
100
AcDbLine
 10
-65.94925030773406
 20
10.865
 11
-65.94925030773406
 21
5.089999999999999
  0
SOLID
  5
6D
100
AcDbEntity
  8
MEASURES
  6
ByBlock
 62
    0
370
   -1
100
AcDbTrace
 10
-65.94925030773406
 20
10.865
 30
0
 11
-65.91927781237442
 21
10.685
 31
0
 12
-65.97922280309371
 22
10.685
 32
0
 13
-65.97922280309371
 23
10.685
 33
0
  0
SOLID
  5
6E
100
AcDbEntity
  8
MEASURES
  6
ByBlock
 62
    0
370
   -1
100
AcDbTrace
 10
-65.94925030773406
 20
-10.865
 30
0
 11
-65.97922280309371
 21
-10.685
 31
0
 12
-65.91927781237442
 22
-10.685
 32
0
 13
-65.91927781237442
 23
-10.685
 33
0
  0
LINE
  5
6F
100
AcDbEntity
  8
MEASURES
  6
ByBlock
 62
    0
370
   -1
100
AcDbLine
 10
-65.94925030773406
 20
-5.090000000000001
 11
-65.94925030773406
 21
-10.865
  0
TEXT
  5
70
100
AcDbEntity
  8
MEASURES
  6
CONTINUOUS
 62
    0
370
   -1
100
AcDbText
 10
-32.77202808551152
 20
-8.881784197001252e-16
 30
0
 40
10
  1
21.7300
 50
0
 41
1
 51
0
  7
standard
 71
    0
 72
    1
 11
-32.77202808551152
 21
-8.881784197001252e-16
 31
0
210
0
220
0
230
1
100
AcDbText
 73
    2
  0
LINE
  5
71
100
AcDbEntity
  8
MEASURES
  6
ByBlock
 62
    0
370
   -1
100
AcDbLine
 10
-0.0625
 20
10.865
 11
-66.12925030773407
 21
10.865
  0
LINE
  5
72
100
AcDbEntity
  8
MEASURES
  6
ByBlock
 62
    0
370
   -1
100
AcDbLine
 10
-0.0625
 20
-10.865
 11
-66.12925030773407
 21
-10.865
  0
ENDBLK
  5
59
330
57
100
AcDbEntity
  8
0
100
AcDbBlockEnd
  0
ENDSEC
  0
SECTION
  2
ENTITIES
  0
LINE
  5
73
100
AcDbEntity
  8
0
  6
ByLayer
 62
  256
370
   -1
100
AcDbLine
 10
0
 20
0
 11
0
 21
5
  0
LINE
  5
74
100
AcDbEntity
  8
0
  6
ByLayer
 62
  256
370
   -1
100
AcDbLine
 10
0
 20
5
 11
0.1634149795080539
 21
5.006861977858572
  0
LINE
  5
75
100
AcDbEntity
  8
0
  6
ByLayer
 62
  256
370
   -1
100
AcDbLine
 10
0.1634149795080539
 20
5.006861977858572
 11
0.3269167567724751
 21
5.01062796449143
  0
LINE
  5
76
100
AcDbEntity
  8
0
  6
ByLayer
 62
  256
370
   -1
100
AcDbLine
 10
0.3269167567724751
 20
5.01062796449143
 11
0.4904765601704112
 21
5.011362277307708
  0
LINE
  5
77
100
AcDbEntity
  8
0
  6
ByLayer
 62
  256
370
   -1
100
AcDbLine
 10
0.4904765601704112
 20
5.011362277307708
 11
0.65406561807901
 21
5.00912923371654
  0
LINE
  5
78
100
AcDbEntity
  8
0
  6
ByLayer
 62
  256
370
   -1
100
AcDbLine
 10
0.65406561807901
 20
5.00912923371654
 11
0.8176551588754197
 21
5.003993151127061
  0
LINE
  5
79
100
AcDbEntity
  8
0
  6
ByLayer
 62
  256
370
   -1
100
AcDbLine
 10
0.8176551588754197
 20
5.003993151127061
 11
0.9812164109367877
 21
4.996018346948414
  0
LINE
  5
7A
100
AcDbEntity
  8
0
  6
ByLayer
 62
  256
370
   -1
100
AcDbLine
 10
0.9812164109367877
 20
4.996018346948414
 11
1.144720602640262
 21
4.985269138589728
  0
LINE
  5
7B
100
AcDbEntity
  8
0
  6
ByLayer
 62
  256
370
   -1
100
AcDbLine
 10
1.144720602640262
 20
4.985269138589728
 11
1.30813896236299
 21
4.971809843460142
  0
LINE
  5
7C
100
AcDbEntity
  8
0
  6
ByLayer
 62
  256
370
   -1
100
AcDbLine
 10
1.30813896236299
 20
4.971809843460142
 11
1.471442718482121
 21
4.955704778968792
  0
LINE
  5
7D
100
AcDbEntity
  8
0
  6
ByLayer
 62
  256
370
   -1
100
AcDbLine
 10
1.471442718482121
 20
4.955704778968792
 11
1.634603027367333
 21
4.93701811171605
  0
LINE
  5
7E
100
AcDbEntity
  8
0
  6
ByLayer
 62
  256
370
   -1
100
AcDbLine
 10
1.634603027367333
 20
4.93701811171605
 11
1.797559361644402
 21
4.915747651487872
  0
LINE
  5
7F
100
AcDbEntity
  8
0
  6
ByLayer
 62
  256
370
   -1
100
AcDbLine
 10
1.797559361644402
 20
4.915747651487872
 11
1.960169941151097
 21
4.891721036382454
  0
LINE
  5
80
100
AcDbEntity
  8
0
  6
ByLayer
 62
  256
370
   -1
100
AcDbLine
 10
1.960169941151097
 20
4.891721036382454
 11
2.122280143130394
 21
4.864739007623625
  0
LINE
  5
81
100
AcDbEntity
  8
0
  6
ByLayer
 62
  256
370
   -1
100
AcDbLine
 10
2.122280143130394
 20
4.864739007623625
 11
2.283735344825276
 21
4.834602306435214
  0
LINE
  5
82
100
AcDbEntity
  8
0
  6
ByLayer
 62
  256
370
   -1
100
AcDbLine
 10
2.283735344825276
 20
4.834602306435214
 11
2.444380923478714
 21
4.80111167404106
  0
LINE
  5
83
100
AcDbEntity
  8
0
  6
ByLayer
 62
  256
370
   -1
100
AcDbLine
 10
2.444380923478714
 20
4.80111167404106
 11
2.604062256333694
 21
4.764067851664988
  0
LINE
  5
84
100
AcDbEntity
  8
0
  6
ByLayer
 62
  256
370
   -1
100
AcDbLine
 10
2.604062256333694
 20
4.764067851664988
 11
2.762624720633188
 21
4.723271580530833
  0
LINE
  5
85
100
AcDbEntity
  8
0
  6
ByLayer
 62
  256
370
   -1
100
AcDbLine
 10
2.762624720633188
 20
4.723271580530833
 11
2.919913693620176
 21
4.678523601862418
  0
LINE
  5
86
100
AcDbEntity
  8
0
  6
ByLayer
 62
  256
370
   -1
100
AcDbLine
 10
2.919913693620176
 20
4.678523601862418
 11
3.075774552537636
 21
4.629624656883585
  0
LINE
  5
87
100
AcDbEntity
  8
0
  6
ByLayer
 62
  256
370
   -1
100
AcDbLine
 10
3.075774552537636
 20
4.629624656883585
 11
3.230052691237372
 21
4.576375520867666
  0
LINE
  5
88
100
AcDbEntity
  8
0
  6
ByLayer
 62
  256
370
   -1
100
AcDbLine
 10
3.230052691237372
 20
4.576375520867666
 11
3.38266495313159
 21
4.518723446773554
  0
LINE
  5
89
100
AcDbEntity
  8
0
  6
ByLayer
 62
  256
370
   -1
100
AcDbLine
 10
3.38266495313159
 20
4.518723446773554
 11
3.533763199015382
 21
4.457097493215975
  0
LINE
  5
8A
100
AcDbEntity
  8
0
  6
ByLayer
 62
  256
370
   -1
100
AcDbLine
 10
3.533763199015382
 20
4.457097493215975
 11
3.683547539833452
 21
4.392025635726754
  0
LINE
  5
8B
100
AcDbEntity
  8
0
  6
ByLayer
 62
  256
370
   -1
100
AcDbLine
 10
3.683547539833452
 20
4.392025635726754
 11
3.83221808653051
 21
4.324035849837722
  0
LINE
  5
8C
100
AcDbEntity
  8
0
  6
ByLayer
 62
  256
370
   -1
100
AcDbLine
 10
3.83221808653051
 20
4.324035849837722
 11
3.979974950051256
 21
4.253656111080709
  0
LINE
  5
8D
100
AcDbEntity
  8
0
  6
ByLayer
 62
  256
370
   -1
100
AcDbLine
 10
3.979974950051256
 20
4.253656111080709
 11
4.127018241340402
 21
4.181414394987536
  0
LINE
  5
8E
100
AcDbEntity
  8
0
  6
ByLayer
 62
  256
370
   -1
100
AcDbLine
 10
4.127018241340402
 20
4.181414394987536
 11
4.273548071342652
 21
4.107838677090038
  0
LINE
  5
8F
100
AcDbEntity
  8
0
  6
ByLayer
 62
  256
370
   -1
100
AcDbLine
 10
4.273548071342652
 20
4.107838677090038
 11
4.41976455100271
 21
4.033456932920037
  0
LINE
  5
90
100
AcDbEntity
  8
0
  6
ByLayer
 62
  256
370
   -1
100
AcDbLine
 10
4.41976455100271
 20
4.033456932920037
 11
4.565867791265289
 21
3.958797138009368
  0
LINE
  5
91
100
AcDbEntity
  8
0
  6
ByLayer
 62
  256
370
   -1
100
AcDbLine
 10
4.565867791265289
 20
3.958797138009368
 11
4.712057903075086
 21
3.884387267889854
  0
LINE
  5
92
100
AcDbEntity
  8
0
  6
ByLayer
 62
  256
370
   -1
100
AcDbLine
 10
4.712057903075086
 20
3.884387267889854
 11
4.858534918811396
 21
3.810755083675906
  0
LINE
  5
93
100
AcDbEntity
  8
0
  6
ByLayer
 62
  256
370
   -1
100
AcDbLine
 10
4.858534918811396
 20
3.810755083675906
 11
5.005443566368418
 21
3.738277411824208
  0
LINE
  5
94
100
AcDbEntity
  8
0
  6
ByLayer
 62
  256
370
   -1
100
AcDbLine
 10
5.005443566368418
 20
3.738277411824208
 11
5.152776391470076
 21
3.666915749659484
  0
LINE
  5
95
100
AcDbEntity
  8
0
  6
ByLayer
 62
  256
370
   -1
100
AcDbLine
 10
5.152776391470076
 20
3.666915749659484
 11
5.300499990552915
 21
3.59656077481065
  0
LINE
  5
96
100
AcDbEntity
  8
0
  6
ByLayer
 62
  256
370
   -1
100
AcDbLine
 10
5.300499990552915
 20
3.59656077481065
 11
5.448580960053468
 21
3.527103164906624
  0
LINE
  5
97
100
AcDbEntity
  8
0
  6
ByLayer
 62
  256
370
   -1
100
AcDbLine
 10
5.448580960053468
 20
3.527103164906624
 11
5.596985896408276
 21
3.458433597576324
  0
LINE
  5
98
100
AcDbEntity
  8
0
  6
ByLayer
 62
  256
370
   -1
100
AcDbLine
 10
5.596985896408276
 20
3.458433597576324
 11
5.74568139605388
 21
3.390442750448672
  0
LINE
  5
99
100
AcDbEntity
  8
0
  6
ByLayer
 62
  256
370
   -1
100
AcDbLine
 10
5.74568139605388
 20
3.390442750448672
 11
5.894634055426816
 21
3.323021301152584
  0
LINE
  5
9A
100
AcDbEntity
  8
0
  6
ByLayer
 62
  256
370
   -1
100
AcDbLine
 10
5.894634055426816
 20
3.323021301152584
 11
6.043810470963627
 21
3.256059927316978
  0
LINE
  5
9B
100
AcDbEntity
  8
0
  6
ByLayer
 62
  256
370
   -1
100
AcDbLine
 10
6.043810470963627
 20
3.256059927316978
 11
6.193177239100846
 21
3.189449306570774
  0
LINE
  5
9C
100
AcDbEntity
  8
0
  6
ByLayer
 62
  256
370
   -1
100
AcDbLine
 10
6.193177239100846
 20
3.189449306570774
 11
6.342700956275016
 21
3.12308011654289
  0
LINE
  5
9D
100
AcDbEntity
  8
0
  6
ByLayer
 62
  256
370
   -1
100
AcDbLine
 10
6.342700956275016
 20
3.12308011654289
 11
6.492348936190703
 21
3.056845377014324
  0
LINE
  5
9E
100
AcDbEntity
  8
0
  6
ByLayer
 62
  256
370
   -1
100
AcDbLine
 10
6.492348936190703
 20
3.056845377014324
 11
6.642126854231512
 21
2.99076337319352
  0
LINE
  5
9F
100
AcDbEntity
  8
0
  6
ByLayer
 62
  256
370
   -1
100
AcDbLine
 10
6.642126854231512
 20
2.99076337319352
 11
6.792097303864052
 21
2.925038249411326
  0
LINE
  5
A0
100
AcDbEntity
  8
0
  6
ByLayer
 62
  256
370
   -1
100
AcDbLine
 10
6.792097303864052
 20
2.925038249411326
 11
6.942327489174218
 21
2.859889205418724
  0
LINE
  5
A1
100
AcDbEntity
  8
0
  6
ByLayer
 62
  256
370
   -1
100
AcDbLine
 10
6.942327489174218
 20
2.859889205418724
 11
7.09288461424791
 21
2.795535440966704
  0
LINE
  5
A2
100
AcDbEntity
  8
0
  6
ByLayer
 62
  256
370
   -1
100
AcDbLine
 10
7.09288461424791
 20
2.795535440966704
 11
7.243835883171022
 21
2.732196155806248
  0
LINE
  5
A3
100
AcDbEntity
  8
0
  6
ByLayer
 62
  256
370
   -1
100
AcDbLine
 10
7.243835883171022
 20
2.732196155806248
 11
7.395248500029449
 21
2.670090549688342
  0
LINE
  5
A4
100
AcDbEntity
  8
0
  6
ByLayer
 62
  256
370
   -1
100
AcDbLine
 10
7.395248500029449
 20
2.670090549688342
 11
7.547189668909092
 21
2.60943782236397
  0
LINE
  5
A5
100
AcDbEntity
  8
0
  6
ByLayer
 62
  256
370
   -1
100
AcDbLine
 10
7.547189668909092
 20
2.60943782236397
 11
7.69972659389584
 21
2.550457173584118
  0
LINE
  5
A6
100
AcDbEntity
  8
0
  6
ByLayer
 62
  256
370
   -1
100
AcDbLine
 10
7.69972659389584
 20
2.550457173584118
 11
7.852926479075594
 21
2.49336780309977
  0
LINE
  5
A7
100
AcDbEntity
  8
0
  6
ByLayer
 62
  256
370
   -1
100
AcDbLine
 10
7.852926479075594
 20
2.49336780309977
 11
8.006856528534247
 21
2.43838891066191
  0
LINE
  5
A8
100
AcDbEntity
  8
0
  6
ByLayer
 62
  256
370
   -1
100
AcDbLine
 10
8.006856528534247
 20
2.43838891066191
 11
8.161576895990315
 21
2.385718665165238
  0
LINE
  5
A9
100
AcDbEntity
  8
0
  6
ByLayer
 62
  256
370
   -1
100
AcDbLine
 10
8.161576895990315
 20
2.385718665165238
 11
8.317062497339352
 21
2.335300975788842
  0
LINE
  5
AA
100
AcDbEntity
  8
0
  6
ByLayer
 62
  256
370
   -1
100
AcDbLine
 10
8.317062497339352
 20
2.335300975788842
 11
8.473231659050752
 21
2.286910948580756
  0
LINE
  5
AB
100
AcDbEntity
  8
0
  6
ByLayer
 62
  256
370
   -1
100
AcDbLine
 10
8.473231659050752
 20
2.286910948580756
 11
8.63000169000677
 21
2.240320654182786
  0
LINE
  5
AC
100
AcDbEntity
  8
0
  6
ByLayer
 62
  256
370
   -1
100
AcDbLine
 10
8.63000169000677
 20
2.240320654182786
 11
8.787289899089656
 21
2.195302163236738
  0
LINE
  5
AD
100
AcDbEntity
  8
0
  6
ByLayer
 62
  256
370
   -1
100
AcDbLine
 10
8.787289899089656
 20
2.195302163236738
 11
8.945013595181662
 21
2.151627546384424
  0
LINE
  5
AE
100
AcDbEntity
  8
0
  6
ByLayer
 62
  256
370
   -1
100
AcDbLine
 10
8.945013595181662
 20
2.151627546384424
 11
9.103090087165034
 21
2.109068874267646
  0
LINE
  5
AF
100
AcDbEntity
  8
0
  6
ByLayer
 62
  256
370
   -1
100
AcDbLine
 10
9.103090087165034
 20
2.109068874267646
 11
9.261436683922032
 21
2.067398217528216
  0
LINE
  5
B0
100
AcDbEntity
  8
0
  6
ByLayer
 62
  256
370
   -1
100
AcDbLine
 10
9.261436683922032
 20
2.067398217528216
 11
9.419970694334898
 21
2.02638764680794
  0
LINE
  5
B1
100
AcDbEntity
  8
0
  6
ByLayer
 62
  256
370
   -1
100
AcDbLine
 10
9.419970694334898
 20
2.02638764680794
 11
9.578609427285889
 21
1.985809232748625
  0
LINE
  5
B2
100
AcDbEntity
  8
0
  6
ByLayer
 62
  256
370
   -1
100
AcDbLine
 10
9.578609427285889
 20
1.985809232748625
 11
9.737270927804657
 21
1.945437011090943
  0
LINE
  5
B3
100
AcDbEntity
  8
0
  6
ByLayer
 62
  256
370
   -1
100
AcDbLine
 10
9.737270927804657
 20
1.945437011090943
 11
9.895909749235146
 21
1.905142474207965
  0
LINE
  5
B4
100
AcDbEntity
  8
0
  6
ByLayer
 62
  256
370
   -1
100
AcDbLine
 10
9.895909749235146
 20
1.905142474207965
 11
10.05453301923315
 21
1.864937458267983
  0
LINE
  5
B5
100
AcDbEntity
  8
0
  6
ByLayer
 62
  256
370
   -1
100
AcDbLine
 10
10.05453301923315
 20
1.864937458267983
 11
10.21315194936828
 21
1.82484470118851
  0
LINE
  5
B6
100
AcDbEntity
  8
0
  6
ByLayer
 62
  256
370
   -1
100
AcDbLine
 10
10.21315194936828
 20
1.82484470118851
 11
10.37177775121013
 21
1.784886940887059
  0
LINE
  5
B7
100
AcDbEntity
  8
0
  6
ByLayer
 62
  256
370
   -1
100
AcDbLine
 10
10.37177775121013
 20
1.784886940887059
 11
10.53042163632832
 21
1.745086915281147
  0
LINE
  5
B8
100
AcDbEntity
  8
0
  6
ByLayer
 62
  256
370
   -1
100
AcDbLine
 10
10.53042163632832
 20
1.745086915281147
 11
10.68909481629245
 21
1.705467362288285
  0
LINE
  5
B9
100
AcDbEntity
  8
0
  6
ByLayer
 62
  256
370
   -1
100
AcDbLine
 10
10.68909481629245
 20
1.705467362288285
 11
10.84780850267213
 21
1.66605101982599
  0
LINE
  5
BA
100
AcDbEntity
  8
0
  6
ByLayer
 62
  256
370
   -1
100
AcDbLine
 10
10.84780850267213
 20
1.66605101982599
 11
11.00657390703696
 21
1.626860625811774
  0
LINE
  5
BB
100
AcDbEntity
  8
0
  6
ByLayer
 62
  256
370
   -1
100
AcDbLine
 10
11.00657390703696
 20
1.626860625811774
 11
11.16540224095655
 21
1.587918918163152
  0
LINE
  5
BC
100
AcDbEntity
  8
0
  6
ByLayer
 62
  256
370
   -1
100
AcDbLine
 10
11.16540224095655
 20
1.587918918163152
 11
11.32430463675766
 21
1.549248416087999
  0
LINE
  5
BD
100
AcDbEntity
  8
0
  6
ByLayer
 62
  256
370
   -1
100
AcDbLine
 10
11.32430463675766
 20
1.549248416087999
 11
11.48328489457843
 21
1.510851402013095
  0
LINE
  5
BE
100
AcDbEntity
  8
0
  6
ByLayer
 62
  256
370
   -1
100
AcDbLine
 10
11.48328489457843
 20
1.510851402013095
 11
11.64233365051562
 21
1.472693825717662
  0
LINE
  5
BF
100
AcDbEntity
  8
0
  6
ByLayer
 62
  256
370
   -1
100
AcDbLine
 10
11.64233365051562
 20
1.472693825717662
 11
11.80144016830324
 21
1.434737849270836
  0
LINE
  5
C0
100
AcDbEntity
  8
0
  6
ByLayer
 62
  256
370
   -1
100
AcDbLine
 10
11.80144016830324
 20
1.434737849270836
 11
11.96059371167528
 21
1.39694563474175
  0
LINE
  5
C1
100
AcDbEntity
  8
0
  6
ByLayer
 62
  256
370
   -1
100
AcDbLine
 10
11.96059371167528
 20
1.39694563474175
 11
12.11978354436574
 21
1.359279344199537
  0
LINE
  5
C2
100
AcDbEntity
  8
0
  6
ByLayer
 62
  256
370
   -1
100
AcDbLine
 10
12.11978354436574
 20
1.359279344199537
 11
12.27899893010863
 21
1.321701139713334
  0
LINE
  5
C3
100
AcDbEntity
  8
0
  6
ByLayer
 62
  256
370
   -1
100
AcDbLine
 10
12.27899893010863
 20
1.321701139713334
 11
12.43822913263794
 21
1.284173183352273
  0
LINE
  5
C4
100
AcDbEntity
  8
0
  6
ByLayer
 62
  256
370
   -1
100
AcDbLine
 10
12.43822913263794
 20
1.284173183352273
 11
12.59746341568767
 21
1.246657637185488
  0
LINE
  5
C5
100
AcDbEntity
  8
0
  6
ByLayer
 62
  256
370
   -1
100
AcDbLine
 10
12.59746341568767
 20
1.246657637185488
 11
12.75669104299183
 21
1.209116663282115
  0
LINE
  5
C6
100
AcDbEntity
  8
0
  6
ByLayer
 62
  256
370
   -1
100
AcDbLine
 10
12.75669104299183
 20
1.209116663282115
 11
12.91590130760948
 21
1.171512529310155
  0
LINE
  5
C7
100
AcDbEntity
  8
0
  6
ByLayer
 62
  256
370
   -1
100
AcDbLine
 10
12.91590130760948
 20
1.171512529310155
 11
13.07508809178541
 21
1.133824028478615
  0
LINE
  5
C8
100
AcDbEntity
  8
0
  6
ByLayer
 62
  256
370
   -1
100
AcDbLine
 10
13.07508809178541
 20
1.133824028478615
 11
13.23425481389036
 21
1.096064293343796
  0
LINE
  5
C9
100
AcDbEntity
  8
0
  6
ByLayer
 62
  256
370
   -1
100
AcDbLine
 10
13.23425481389036
 20
1.096064293343796
 11
13.3934060802397
 21
1.058250734220413
  0
LINE
  5
CA
100
AcDbEntity
  8
0
  6
ByLayer
 62
  256
370
   -1
100
AcDbLine
 10
13.3934060802397
 20
1.058250734220413
 11
13.55254649714883
 21
1.020400761423182
  0
LINE
  5
CB
100
AcDbEntity
  8
0
  6
ByLayer
 62
  256
370
   -1
100
AcDbLine
 10
13.55254649714883
 20
1.020400761423182
 11
13.71168067093312
 21
0.9825317852668179
  0
LINE
  5
CC
100
AcDbEntity
  8
0
  6
ByLayer
 62
  256
370
   -1
100
AcDbLine
 10
13.71168067093312
 20
0.9825317852668179
 11
13.87081320790795
 21
0.9446612160660367
  0
LINE
  5
CD
100
AcDbEntity
  8
0
  6
ByLayer
 62
  256
370
   -1
100
AcDbLine
 10
13.87081320790795
 20
0.9446612160660367
 11
14.0299487143887
 21
0.906806464135553
  0
LINE
  5
CE
100
AcDbEntity
  8
0
  6
ByLayer
 62
  256
370
   -1
100
AcDbLine
 10
14.0299487143887
 20
0.906806464135553
 11
14.18909179669075
 21
0.8689849397900828
  0
LINE
  5
CF
100
AcDbEntity
  8
0
  6
ByLayer
 62
  256
370
   -1
100
AcDbLine
 10
14.18909179669075
 20
0.8689849397900828
 11
14.34824706112949
 21
0.8312140533443415
  0
LINE
  5
D0
100
AcDbEntity
  8
0
  6
ByLayer
 62
  256
370
   -1
100
AcDbLine
 10
14.34824706112949
 20
0.8312140533443415
 11
14.50741910879374
 21
0.7935111954199634
  0
LINE
  5
D1
100
AcDbEntity
  8
0
  6
ByLayer
 62
  256
370
   -1
100
AcDbLine
 10
14.50741910879374
 20
0.7935111954199634
 11
14.66661091433474
 21
0.7558876283889628
  0
LINE
  5
D2
100
AcDbEntity
  8
0
  6
ByLayer
 62
  256
370
   -1
100
AcDbLine
 10
14.66661091433474
 20
0.7558876283889628
 11
14.82582152823333
 21
0.7183398287530752
  0
LINE
  5
D3
100
AcDbEntity
  8
0
  6
ByLayer
 62
  256
370
   -1
100
AcDbLine
 10
14.82582152823333
 20
0.7183398287530752
 11
14.98504942098706
 21
0.6808620876965502
  0
LINE
  5
D4
100
AcDbEntity
  8
0
  6
ByLayer
 62
  256
370
   -1
100
AcDbLine
 10
14.98504942098706
 20
0.6808620876965502
 11
15.14429306309346
 21
0.6434486964036372
  0
LINE
  5
D5
100
AcDbEntity
  8
0
  6
ByLayer
 62
  256
370
   -1
100
AcDbLine
 10
15.14429306309346
 20
0.6434486964036372
 11
15.30355092505006
 21
0.6060939460585865
  0
LINE
  5
D6
100
AcDbEntity
  8
0
  6
ByLayer
 62
  256
370
   -1
100
AcDbLine
 10
15.30355092505006
 20
0.6060939460585865
 11
15.46282147735442
 21
0.5687921278456473
  0
LINE
  5
D7
100
AcDbEntity
  8
0
  6
ByLayer
 62
  256
370
   -1
100
AcDbLine
 10
15.46282147735442
 20
0.5687921278456473
 11
15.62210319050405
 21
0.5315375329490697
  0
LINE
  5
D8
100
AcDbEntity
  8
0
  6
ByLayer
 62
  256
370
   -1
100
AcDbLine
 10
15.62210319050405
 20
0.5315375329490697
 11
15.7813945349965
 21
0.4943244525531028
  0
LINE
  5
D9
100
AcDbEntity
  8
0
  6
ByLayer
 62
  256
370
   -1
100
AcDbLine
 10
15.7813945349965
 20
0.4943244525531028
 11
15.9406939813293
 21
0.4571471778419966
  0
LINE
  5
DA
100
AcDbEntity
  8
0
  6
ByLayer
 62
  256
370
   -1
100
AcDbLine
 10
15.9406939813293
 20
0.4571471778419966
 11
16.1
 21
0.42
  0
LINE
  5
DB
100
AcDbEntity
  8
0
  6
ByLayer
 62
  256
370
   -1
100
AcDbLine
 10
16.1
 20
0.42
 11
16.1
 21
0
  0
LINE
  5
DC
100
AcDbEntity
  8
0
  6
ByLayer
 62
  256
370
   -1
100
AcDbLine
 10
0
 20
0
 11
0
 21
-5
  0
LINE
  5
DD
100
AcDbEntity
  8
0
  6
ByLayer
 62
  256
370
   -1
100
AcDbLine
 10
0
 20
-5
 11
0.1634149795080539
 21
-5.006861977858572
  0
LINE
  5
DE
100
AcDbEntity
  8
0
  6
ByLayer
 62
  256
370
   -1
100
AcDbLine
 10
0.1634149795080539
 20
-5.006861977858572
 11
0.3269167567724751
 21
-5.01062796449143
  0
LINE
  5
DF
100
AcDbEntity
  8
0
  6
ByLayer
 62
  256
370
   -1
100
AcDbLine
 10
0.3269167567724751
 20
-5.01062796449143
 11
0.4904765601704112
 21
-5.011362277307708
  0
LINE
  5
E0
100
AcDbEntity
  8
0
  6
ByLayer
 62
  256
370
   -1
100
AcDbLine
 10
0.4904765601704112
 20
-5.011362277307708
 11
0.65406561807901
 21
-5.00912923371654
  0
LINE
  5
E1
100
AcDbEntity
  8
0
  6
ByLayer
 62
  256
370
   -1
100
AcDbLine
 10
0.65406561807901
 20
-5.00912923371654
 11
0.8176551588754197
 21
-5.003993151127061
  0
LINE
  5
E2
100
AcDbEntity
  8
0
  6
ByLayer
 62
  256
370
   -1
100
AcDbLine
 10
0.8176551588754197
 20
-5.003993151127061
 11
0.9812164109367877
 21
-4.996018346948414
  0
LINE
  5
E3
100
AcDbEntity
  8
0
  6
ByLayer
 62
  256
370
   -1
100
AcDbLine
 10
0.9812164109367877
 20
-4.996018346948414
 11
1.144720602640262
 21
-4.985269138589728
  0
LINE
  5
E4
100
AcDbEntity
  8
0
  6
ByLayer
 62
  256
370
   -1
100
AcDbLine
 10
1.144720602640262
 20
-4.985269138589728
 11
1.30813896236299
 21
-4.971809843460142
  0
LINE
  5
E5
100
AcDbEntity
  8
0
  6
ByLayer
 62
  256
370
   -1
100
AcDbLine
 10
1.30813896236299
 20
-4.971809843460142
 11
1.471442718482121
 21
-4.955704778968792
  0
LINE
  5
E6
100
AcDbEntity
  8
0
  6
ByLayer
 62
  256
370
   -1
100
AcDbLine
 10
1.471442718482121
 20
-4.955704778968792
 11
1.634603027367333
 21
-4.93701811171605
  0
LINE
  5
E7
100
AcDbEntity
  8
0
  6
ByLayer
 62
  256
370
   -1
100
AcDbLine
 10
1.634603027367333
 20
-4.93701811171605
 11
1.797559361644402
 21
-4.915747651487872
  0
LINE
  5
E8
100
AcDbEntity
  8
0
  6
ByLayer
 62
  256
370
   -1
100
AcDbLine
 10
1.797559361644402
 20
-4.915747651487872
 11
1.960169941151097
 21
-4.891721036382454
  0
LINE
  5
E9
100
AcDbEntity
  8
0
  6
ByLayer
 62
  256
370
   -1
100
AcDbLine
 10
1.960169941151097
 20
-4.891721036382454
 11
2.122280143130394
 21
-4.864739007623625
  0
LINE
  5
EA
100
AcDbEntity
  8
0
  6
ByLayer
 62
  256
370
   -1
100
AcDbLine
 10
2.122280143130394
 20
-4.864739007623625
 11
2.283735344825276
 21
-4.834602306435214
  0
LINE
  5
EB
100
AcDbEntity
  8
0
  6
ByLayer
 62
  256
370
   -1
100
AcDbLine
 10
2.283735344825276
 20
-4.834602306435214
 11
2.444380923478714
 21
-4.80111167404106
  0
LINE
  5
EC
100
AcDbEntity
  8
0
  6
ByLayer
 62
  256
370
   -1
100
AcDbLine
 10
2.444380923478714
 20
-4.80111167404106
 11
2.604062256333694
 21
-4.764067851664988
  0
LINE
  5
ED
100
AcDbEntity
  8
0
  6
ByLayer
 62
  256
370
   -1
100
AcDbLine
 10
2.604062256333694
 20
-4.764067851664988
 11
2.762624720633188
 21
-4.723271580530833
  0
LINE
  5
EE
100
AcDbEntity
  8
0
  6
ByLayer
 62
  256
370
   -1
100
AcDbLine
 10
2.762624720633188
 20
-4.723271580530833
 11
2.919913693620176
 21
-4.678523601862418
  0
LINE
  5
EF
100
AcDbEntity
  8
0
  6
ByLayer
 62
  256
370
   -1
100
AcDbLine
 10
2.919913693620176
 20
-4.678523601862418
 11
3.075774552537636
 21
-4.629624656883585
  0
LINE
  5
F0
100
AcDbEntity
  8
0
  6
ByLayer
 62
  256
370
   -1
100
AcDbLine
 10
3.075774552537636
 20
-4.629624656883585
 11
3.230052691237372
 21
-4.576375520867666
  0
LINE
  5
F1
100
AcDbEntity
  8
0
  6
ByLayer
 62
  256
370
   -1
100
AcDbLine
 10
3.230052691237372
 20
-4.576375520867666
 11
3.38266495313159
 21
-4.518723446773554
  0
LINE
  5
F2
100
AcDbEntity
  8
0
  6
ByLayer
 62
  256
370
   -1
100
AcDbLine
 10
3.38266495313159
 20
-4.518723446773554
 11
3.533763199015382
 21
-4.457097493215975
  0
LINE
  5
F3
100
AcDbEntity
  8
0
  6
ByLayer
 62
  256
370
   -1
100
AcDbLine
 10
3.533763199015382
 20
-4.457097493215975
 11
3.683547539833452
 21
-4.392025635726754
  0
LINE
  5
F4
100
AcDbEntity
  8
0
  6
ByLayer
 62
  256
370
   -1
100
AcDbLine
 10
3.683547539833452
 20
-4.392025635726754
 11
3.83221808653051
 21
-4.324035849837722
  0
LINE
  5
F5
100
AcDbEntity
  8
0
  6
ByLayer
 62
  256
370
   -1
100
AcDbLine
 10
3.83221808653051
 20
-4.324035849837722
 11
3.979974950051256
 21
-4.253656111080709
  0
LINE
  5
F6
100
AcDbEntity
  8
0
  6
ByLayer
 62
  256
370
   -1
100
AcDbLine
 10
3.979974950051256
 20
-4.253656111080709
 11
4.127018241340402
 21
-4.181414394987536
  0
LINE
  5
F7
100
AcDbEntity
  8
0
  6
ByLayer
 62
  256
370
   -1
100
AcDbLine
 10
4.127018241340402
 20
-4.181414394987536
 11
4.273548071342652
 21
-4.107838677090038
  0
LINE
  5
F8
100
AcDbEntity
  8
0
  6
ByLayer
 62
  256
370
   -1
100
AcDbLine
 10
4.273548071342652
 20
-4.107838677090038
 11
4.41976455100271
 21
-4.033456932920037
  0
LINE
  5
F9
100
AcDbEntity
  8
0
  6
ByLayer
 62
  256
370
   -1
100
AcDbLine
 10
4.41976455100271
 20
-4.033456932920037
 11
4.565867791265289
 21
-3.958797138009368
  0
LINE
  5
FA
100
AcDbEntity
  8
0
  6
ByLayer
 62
  256
370
   -1
100
AcDbLine
 10
4.565867791265289
 20
-3.958797138009368
 11
4.712057903075086
 21
-3.884387267889854
  0
LINE
  5
FB
100
AcDbEntity
  8
0
  6
ByLayer
 62
  256
370
   -1
100
AcDbLine
 10
4.712057903075086
 20
-3.884387267889854
 11
4.858534918811396
 21
-3.810755083675906
  0
LINE
  5
FC
100
AcDbEntity
  8
0
  6
ByLayer
 62
  256
370
   -1
100
AcDbLine
 10
4.858534918811396
 20
-3.810755083675906
 11
5.005443566368418
 21
-3.738277411824208
  0
LINE
  5
FD
100
AcDbEntity
  8
0
  6
ByLayer
 62
  256
370
   -1
100
AcDbLine
 10
5.005443566368418
 20
-3.738277411824208
 11
5.152776391470076
 21
-3.666915749659484
  0
LINE
  5
FE
100
AcDbEntity
  8
0
  6
ByLayer
 62
  256
370
   -1
100
AcDbLine
 10
5.152776391470076
 20
-3.666915749659484
 11
5.300499990552915
 21
-3.59656077481065
  0
LINE
  5
FF
100
AcDbEntity
  8
0
  6
ByLayer
 62
  256
370
   -1
100
AcDbLine
 10
5.300499990552915
 20
-3.59656077481065
 11
5.448580960053468
 21
-3.527103164906624
  0
LINE
  5
100
100
AcDbEntity
  8
0
  6
ByLayer
 62
  256
370
   -1
100
AcDbLine
 10
5.448580960053468
 20
-3.527103164906624
 11
5.596985896408276
 21
-3.458433597576324
  0
LINE
  5
101
100
AcDbEntity
  8
0
  6
ByLayer
 62
  256
370
   -1
100
AcDbLine
 10
5.596985896408276
 20
-3.458433597576324
 11
5.74568139605388
 21
-3.390442750448672
  0
LINE
  5
102
100
AcDbEntity
  8
0
  6
ByLayer
 62
  256
370
   -1
100
AcDbLine
 10
5.74568139605388
 20
-3.390442750448672
 11
5.894634055426816
 21
-3.323021301152584
  0
LINE
  5
103
100
AcDbEntity
  8
0
  6
ByLayer
 62
  256
370
   -1
100
AcDbLine
 10
5.894634055426816
 20
-3.323021301152584
 11
6.043810470963627
 21
-3.256059927316978
  0
LINE
  5
104
100
AcDbEntity
  8
0
  6
ByLayer
 62
  256
370
   -1
100
AcDbLine
 10
6.043810470963627
 20
-3.256059927316978
 11
6.193177239100846
 21
-3.189449306570774
  0
LINE
  5
105
100
AcDbEntity
  8
0
  6
ByLayer
 62
  256
370
   -1
100
AcDbLine
 10
6.193177239100846
 20
-3.189449306570774
 11
6.342700956275016
 21
-3.12308011654289
  0
LINE
  5
106
100
AcDbEntity
  8
0
  6
ByLayer
 62
  256
370
   -1
100
AcDbLine
 10
6.342700956275016
 20
-3.12308011654289
 11
6.492348936190703
 21
-3.056845377014324
  0
LINE
  5
107
100
AcDbEntity
  8
0
  6
ByLayer
 62
  256
370
   -1
100
AcDbLine
 10
6.492348936190703
 20
-3.056845377014324
 11
6.642126854231512
 21
-2.99076337319352
  0
LINE
  5
108
100
AcDbEntity
  8
0
  6
ByLayer
 62
  256
370
   -1
100
AcDbLine
 10
6.642126854231512
 20
-2.99076337319352
 11
6.792097303864052
 21
-2.925038249411326
  0
LINE
  5
109
100
AcDbEntity
  8
0
  6
ByLayer
 62
  256
370
   -1
100
AcDbLine
 10
6.792097303864052
 20
-2.925038249411326
 11
6.942327489174218
 21
-2.859889205418724
  0
LINE
  5
10A
100
AcDbEntity
  8
0
  6
ByLayer
 62
  256
370
   -1
100
AcDbLine
 10
6.942327489174218
 20
-2.859889205418724
 11
7.09288461424791
 21
-2.795535440966704
  0
LINE
  5
10B
100
AcDbEntity
  8
0
  6
ByLayer
 62
  256
370
   -1
100
AcDbLine
 10
7.09288461424791
 20
-2.795535440966704
 11
7.243835883171022
 21
-2.732196155806248
  0
LINE
  5
10C
100
AcDbEntity
  8
0
  6
ByLayer
 62
  256
370
   -1
100
AcDbLine
 10
7.243835883171022
 20
-2.732196155806248
 11
7.395248500029449
 21
-2.670090549688342
  0
LINE
  5
10D
100
AcDbEntity
  8
0
  6
ByLayer
 62
  256
370
   -1
100
AcDbLine
 10
7.395248500029449
 20
-2.670090549688342
 11
7.547189668909092
 21
-2.60943782236397
  0
LINE
  5
10E
100
AcDbEntity
  8
0
  6
ByLayer
 62
  256
370
   -1
100
AcDbLine
 10
7.547189668909092
 20
-2.60943782236397
 11
7.69972659389584
 21
-2.550457173584118
  0
LINE
  5
10F
100
AcDbEntity
  8
0
  6
ByLayer
 62
  256
370
   -1
100
AcDbLine
 10
7.69972659389584
 20
-2.550457173584118
 11
7.852926479075594
 21
-2.49336780309977
  0
LINE
  5
110
100
AcDbEntity
  8
0
  6
ByLayer
 62
  256
370
   -1
100
AcDbLine
 10
7.852926479075594
 20
-2.49336780309977
 11
8.006856528534247
 21
-2.43838891066191
  0
LINE
  5
111
100
AcDbEntity
  8
0
  6
ByLayer
 62
  256
370
   -1
100
AcDbLine
 10
8.006856528534247
 20
-2.43838891066191
 11
8.161576895990315
 21
-2.385718665165238
  0
LINE
  5
112
100
AcDbEntity
  8
0
  6
ByLayer
 62
  256
370
   -1
100
AcDbLine
 10
8.161576895990315
 20
-2.385718665165238
 11
8.317062497339352
 21
-2.335300975788842
  0
LINE
  5
113
100
AcDbEntity
  8
0
  6
ByLayer
 62
  256
370
   -1
100
AcDbLine
 10
8.317062497339352
 20
-2.335300975788842
 11
8.473231659050752
 21
-2.286910948580756
  0
LINE
  5
114
100
AcDbEntity
  8
0
  6
ByLayer
 62
  256
370
   -1
100
AcDbLine
 10
8.473231659050752
 20
-2.286910948580756
 11
8.63000169000677
 21
-2.240320654182786
  0
LINE
  5
115
100
AcDbEntity
  8
0
  6
ByLayer
 62
  256
370
   -1
100
AcDbLine
 10
8.63000169000677
 20
-2.240320654182786
 11
8.787289899089656
 21
-2.195302163236738
  0
LINE
  5
116
100
AcDbEntity
  8
0
  6
ByLayer
 62
  256
370
   -1
100
AcDbLine
 10
8.787289899089656
 20
-2.195302163236738
 11
8.945013595181662
 21
-2.151627546384424
  0
LINE
  5
117
100
AcDbEntity
  8
0
  6
ByLayer
 62
  256
370
   -1
100
AcDbLine
 10
8.945013595181662
 20
-2.151627546384424
 11
9.103090087165034
 21
-2.109068874267646
  0
LINE
  5
118
100
AcDbEntity
  8
0
  6
ByLayer
 62
  256
370
   -1
100
AcDbLine
 10
9.103090087165034
 20
-2.109068874267646
 11
9.261436683922032
 21
-2.067398217528216
  0
LINE
  5
119
100
AcDbEntity
  8
0
  6
ByLayer
 62
  256
370
   -1
100
AcDbLine
 10
9.261436683922032
 20
-2.067398217528216
 11
9.419970694334898
 21
-2.02638764680794
  0
LINE
  5
11A
100
AcDbEntity
  8
0
  6
ByLayer
 62
  256
370
   -1
100
AcDbLine
 10
9.419970694334898
 20
-2.02638764680794
 11
9.578609427285889
 21
-1.985809232748625
  0
LINE
  5
11B
100
AcDbEntity
  8
0
  6
ByLayer
 62
  256
370
   -1
100
AcDbLine
 10
9.578609427285889
 20
-1.985809232748625
 11
9.737270927804657
 21
-1.945437011090943
  0
LINE
  5
11C
100
AcDbEntity
  8
0
  6
ByLayer
 62
  256
370
   -1
100
AcDbLine
 10
9.737270927804657
 20
-1.945437011090943
 11
9.895909749235146
 21
-1.905142474207965
  0
LINE
  5
11D
100
AcDbEntity
  8
0
  6
ByLayer
 62
  256
370
   -1
100
AcDbLine
 10
9.895909749235146
 20
-1.905142474207965
 11
10.05453301923315
 21
-1.864937458267983
  0
LINE
  5
11E
100
AcDbEntity
  8
0
  6
ByLayer
 62
  256
370
   -1
100
AcDbLine
 10
10.05453301923315
 20
-1.864937458267983
 11
10.21315194936828
 21
-1.82484470118851
  0
LINE
  5
11F
100
AcDbEntity
  8
0
  6
ByLayer
 62
  256
370
   -1
100
AcDbLine
 10
10.21315194936828
 20
-1.82484470118851
 11
10.37177775121013
 21
-1.784886940887059
  0
LINE
  5
120
100
AcDbEntity
  8
0
  6
ByLayer
 62
  256
370
   -1
100
AcDbLine
 10
10.37177775121013
 20
-1.784886940887059
 11
10.53042163632832
 21
-1.745086915281147
  0
LINE
  5
121
100
AcDbEntity
  8
0
  6
ByLayer
 62
  256
370
   -1
100
AcDbLine
 10
10.53042163632832
 20
-1.745086915281147
 11
10.68909481629245
 21
-1.705467362288285
  0
LINE
  5
122
100
AcDbEntity
  8
0
  6
ByLayer
 62
  256
370
   -1
100
AcDbLine
 10
10.68909481629245
 20
-1.705467362288285
 11
10.84780850267213
 21
-1.66605101982599
  0
LINE
  5
123
100
AcDbEntity
  8
0
  6
ByLayer
 62
  256
370
   -1
100
AcDbLine
 10
10.84780850267213
 20
-1.66605101982599
 11
11.00657390703696
 21
-1.626860625811774
  0
LINE
  5
124
100
AcDbEntity
  8
0
  6
ByLayer
 62
  256
370
   -1
100
AcDbLine
 10
11.00657390703696
 20
-1.626860625811774
 11
11.16540224095655
 21
-1.587918918163152
  0
LINE
  5
125
100
AcDbEntity
  8
0
  6
ByLayer
 62
  256
370
   -1
100
AcDbLine
 10
11.16540224095655
 20
-1.587918918163152
 11
11.32430463675766
 21
-1.549248416087999
  0
LINE
  5
126
100
AcDbEntity
  8
0
  6
ByLayer
 62
  256
370
   -1
100
AcDbLine
 10
11.32430463675766
 20
-1.549248416087999
 11
11.48328489457843
 21
-1.510851402013095
  0
LINE
  5
127
100
AcDbEntity
  8
0
  6
ByLayer
 62
  256
370
   -1
100
AcDbLine
 10
11.48328489457843
 20
-1.510851402013095
 11
11.64233365051562
 21
-1.472693825717662
  0
LINE
  5
128
100
AcDbEntity
  8
0
  6
ByLayer
 62
  256
370
   -1
100
AcDbLine
 10
11.64233365051562
 20
-1.472693825717662
 11
11.80144016830324
 21
-1.434737849270836
  0
LINE
  5
129
100
AcDbEntity
  8
0
  6
ByLayer
 62
  256
370
   -1
100
AcDbLine
 10
11.80144016830324
 20
-1.434737849270836
 11
11.96059371167528
 21
-1.39694563474175
  0
LINE
  5
12A
100
AcDbEntity
  8
0
  6
ByLayer
 62
  256
370
   -1
100
AcDbLine
 10
11.96059371167528
 20
-1.39694563474175
 11
12.11978354436574
 21
-1.359279344199537
  0
LINE
  5
12B
100
AcDbEntity
  8
0
  6
ByLayer
 62
  256
370
   -1
100
AcDbLine
 10
12.11978354436574
 20
-1.359279344199537
 11
12.27899893010863
 21
-1.321701139713334
  0
LINE
  5
12C
100
AcDbEntity
  8
0
  6
ByLayer
 62
  256
370
   -1
100
AcDbLine
 10
12.27899893010863
 20
-1.321701139713334
 11
12.43822913263794
 21
-1.284173183352273
  0
LINE
  5
12D
100
AcDbEntity
  8
0
  6
ByLayer
 62
  256
370
   -1
100
AcDbLine
 10
12.43822913263794
 20
-1.284173183352273
 11
12.59746341568767
 21
-1.246657637185488
  0
LINE
  5
12E
100
AcDbEntity
  8
0
  6
ByLayer
 62
  256
370
   -1
100
AcDbLine
 10
12.59746341568767
 20
-1.246657637185488
 11
12.75669104299183
 21
-1.209116663282115
  0
LINE
  5
12F
100
AcDbEntity
  8
0
  6
ByLayer
 62
  256
370
   -1
100
AcDbLine
 10
12.75669104299183
 20
-1.209116663282115
 11
12.91590130760948
 21
-1.171512529310155
  0
LINE
  5
130
100
AcDbEntity
  8
0
  6
ByLayer
 62
  256
370
   -1
100
AcDbLine
 10
12.91590130760948
 20
-1.171512529310155
 11
13.07508809178541
 21
-1.133824028478615
  0
LINE
  5
131
100
AcDbEntity
  8
0
  6
ByLayer
 62
  256
370
   -1
100
AcDbLine
 10
13.07508809178541
 20
-1.133824028478615
 11
13.23425481389036
 21
-1.096064293343796
  0
LINE
  5
132
100
AcDbEntity
  8
0
  6
ByLayer
 62
  256
370
   -1
100
AcDbLine
 10
13.23425481389036
 20
-1.096064293343796
 11
13.3934060802397
 21
-1.058250734220413
  0
LINE
  5
133
100
AcDbEntity
  8
0
  6
ByLayer
 62
  256
370
   -1
100
AcDbLine
 10
13.3934060802397
 20
-1.058250734220413
 11
13.55254649714883
 21
-1.020400761423182
  0
LINE
  5
134
100
AcDbEntity
  8
0
  6
ByLayer
 62
  256
370
   -1
100
AcDbLine
 10
13.55254649714883
 20
-1.020400761423182
 11
13.71168067093312
 21
-0.9825317852668179
  0
LINE
  5
135
100
AcDbEntity
  8
0
  6
ByLayer
 62
  256
370
   -1
100
AcDbLine
 10
13.71168067093312
 20
-0.9825317852668179
 11
13.87081320790795
 21
-0.9446612160660367
  0
LINE
  5
136
100
AcDbEntity
  8
0
  6
ByLayer
 62
  256
370
   -1
100
AcDbLine
 10
13.87081320790795
 20
-0.9446612160660367
 11
14.0299487143887
 21
-0.906806464135553
  0
LINE
  5
137
100
AcDbEntity
  8
0
  6
ByLayer
 62
  256
370
   -1
100
AcDbLine
 10
14.0299487143887
 20
-0.906806464135553
 11
14.18909179669075
 21
-0.8689849397900828
  0
LINE
  5
138
100
AcDbEntity
  8
0
  6
ByLayer
 62
  256
370
   -1
100
AcDbLine
 10
14.18909179669075
 20
-0.8689849397900828
 11
14.34824706112949
 21
-0.8312140533443415
  0
LINE
  5
139
100
AcDbEntity
  8
0
  6
ByLayer
 62
  256
370
   -1
100
AcDbLine
 10
14.34824706112949
 20
-0.8312140533443415
 11
14.50741910879374
 21
-0.7935111954199634
  0
LINE
  5
13A
100
AcDbEntity
  8
0
  6
ByLayer
 62
  256
370
   -1
100
AcDbLine
 10
14.50741910879374
 20
-0.7935111954199634
 11
14.66661091433474
 21
-0.7558876283889628
  0
LINE
  5
13B
100
AcDbEntity
  8
0
  6
ByLayer
 62
  256
370
   -1
100
AcDbLine
 10
14.66661091433474
 20
-0.7558876283889628
 11
14.82582152823333
 21
-0.7183398287530752
  0
LINE
  5
13C
100
AcDbEntity
  8
0
  6
ByLayer
 62
  256
370
   -1
100
AcDbLine
 10
14.82582152823333
 20
-0.7183398287530752
 11
14.98504942098706
 21
-0.6808620876965502
  0
LINE
  5
13D
100
AcDbEntity
  8
0
  6
ByLayer
 62
  256
370
   -1
100
AcDbLine
 10
14.98504942098706
 20
-0.6808620876965502
 11
15.14429306309346
 21
-0.6434486964036372
  0
LINE
  5
13E
100
AcDbEntity
  8
0
  6
ByLayer
 62
  256
370
   -1
100
AcDbLine
 10
15.14429306309346
 20
-0.6434486964036372
 11
15.30355092505006
 21
-0.6060939460585865
  0
LINE
  5
13F
100
AcDbEntity
  8
0
  6
ByLayer
 62
  256
370
   -1
100
AcDbLine
 10
15.30355092505006
 20
-0.6060939460585865
 11
15.46282147735442
 21
-0.5687921278456473
  0
LINE
  5
140
100
AcDbEntity
  8
0
  6
ByLayer
 62
  256
370
   -1
100
AcDbLine
 10
15.46282147735442
 20
-0.5687921278456473
 11
15.62210319050405
 21
-0.5315375329490697
  0
LINE
  5
141
100
AcDbEntity
  8
0
  6
ByLayer
 62
  256
370
   -1
100
AcDbLine
 10
15.62210319050405
 20
-0.5315375329490697
 11
15.7813945349965
 21
-0.4943244525531028
  0
LINE
  5
142
100
AcDbEntity
  8
0
  6
ByLayer
 62
  256
370
   -1
100
AcDbLine
 10
15.7813945349965
 20
-0.4943244525531028
 11
15.9406939813293
 21
-0.4571471778419966
  0
LINE
  5
143
100
AcDbEntity
  8
0
  6
ByLayer
 62
  256
370
   -1
100
AcDbLine
 10
15.9406939813293
 20
-0.4571471778419966
 11
16.1
 21
-0.42
  0
LINE
  5
144
100
AcDbEntity
  8
0
  6
ByLayer
 62
  256
370
   -1
100
AcDbLine
 10
16.1
 20
-0.42
 11
16.1
 21
0
  0
INSERT
  5
145
100
AcDbEntity
  8
MEASURES
  6
ByLayer
 62
  256
370
   -1
100
AcDbBlockReference
  2
*D1
 10
0
 20
0
 30
0
 41
1
 42
1
 43
0
 50
0
 70
    1
 71
    1
 44
0
 45
0
  0
LINE
  5
146
100
AcDbEntity
  8
0
  6
ByLayer
 62
  256
370
   -1
100
AcDbLine
 10
0
 20
0
 11
0
 21
10.865
  0
LINE
  5
147
100
AcDbEntity
  8
0
  6
ByLayer
 62
  256
370
   -1
100
AcDbLine
 10
0
 20
10.865
 11
0.3551007504710012
 21
10.87991107788668
  0
LINE
  5
148
100
AcDbEntity
  8
0
  6
ByLayer
 62
  256
370
   -1
100
AcDbLine
 10
0.3551007504710012
 20
10.87991107788668
 11
0.7103901124665883
 21
10.88809456683988
  0
LINE
  5
149
100
AcDbEntity
  8
0
  6
ByLayer
 62
  256
370
   -1
100
AcDbLine
 10
0.7103901124665883
 20
10.88809456683988
 11
1.065805565250304
 21
10.88969022858965
  0
LINE
  5
14A
100
AcDbEntity
  8
0
  6
ByLayer
 62
  256
370
   -1
100
AcDbLine
 10
1.065805565250304
 20
10.88969022858965
 11
1.421284588085689
 21
10.88483782486604
  0
LINE
  5
14B
100
AcDbEntity
  8
0
  6
ByLayer
 62
  256
370
   -1
100
AcDbLine
 10
1.421284588085689
 20
10.88483782486604
 11
1.776764660236287
 21
10.8736771173991
  0
LINE
  5
14C
100
AcDbEntity
  8
0
  6
ByLayer
 62
  256
370
   -1
100
AcDbLine
 10
1.776764660236287
 20
10.8736771173991
 11
2.13218326096564
 21
10.8563478679189
  0
LINE
  5
14D
100
AcDbEntity
  8
0
  6
ByLayer
 62
  256
370
   -1
100
AcDbLine
 10
2.13218326096564
 20
10.8563478679189
 11
2.487477869537289
 21
10.83298983815548
  0
LINE
  5
14E
100
AcDbEntity
  8
0
  6
ByLayer
 62
  256
370
   -1
100
AcDbLine
 10
2.487477869537289
 20
10.83298983815548
 11
2.842585965214778
 21
10.80374278983889
  0
LINE
  5
14F
100
AcDbEntity
  8
0
  6
ByLayer
 62
  256
370
   -1
100
AcDbLine
 10
2.842585965214778
 20
10.80374278983889
 11
3.197445027261649
 21
10.76874648469919
  0
LINE
  5
150
100
AcDbEntity
  8
0
  6
ByLayer
 62
  256
370
   -1
100
AcDbLine
 10
3.197445027261649
 20
10.76874648469919
 11
3.551992378469215
 21
10.72814035675898
  0
LINE
  5
151
100
AcDbEntity
  8
0
  6
ByLayer
 62
  256
370
   -1
100
AcDbLine
 10
3.551992378469215
 20
10.72814035675898
 11
3.906096492853286
 21
10.68191964668315
  0
LINE
  5
152
100
AcDbEntity
  8
0
  6
ByLayer
 62
  256
370
   -1
100
AcDbLine
 10
3.906096492853286
 20
10.68191964668315
 11
4.259449282121334
 21
10.62970981205907
  0
LINE
  5
153
100
AcDbEntity
  8
0
  6
ByLayer
 62
  256
370
   -1
100
AcDbLine
 10
4.259449282121334
 20
10.62970981205907
 11
4.611714751022347
 21
10.57107786356614
  0
LINE
  5
154
100
AcDbEntity
  8
0
  6
ByLayer
 62
  256
370
   -1
100
AcDbLine
 10
4.611714751022347
 20
10.57107786356614
 11
4.962556904305325
 21
10.50559081188372
  0
LINE
  5
155
100
AcDbEntity
  8
0
  6
ByLayer
 62
  256
370
   -1
100
AcDbLine
 10
4.962556904305325
 20
10.50559081188372
 11
5.311639746719246
 21
10.43281566769122
  0
LINE
  5
156
100
AcDbEntity
  8
0
  6
ByLayer
 62
  256
370
   -1
100
AcDbLine
 10
5.311639746719246
 20
10.43281566769122
 11
5.658627283013118
 21
10.35231944166802
  0
LINE
  5
157
100
AcDbEntity
  8
0
  6
ByLayer
 62
  256
370
   -1
100
AcDbLine
 10
5.658627283013118
 20
10.35231944166802
 11
6.003183517935917
 21
10.2636691444935
  0
LINE
  5
158
100
AcDbEntity
  8
0
  6
ByLayer
 62
  256
370
   -1
100
AcDbLine
 10
6.003183517935917
 20
10.2636691444935
 11
6.344972456236643
 21
10.16643178684703
  0
LINE
  5
159
100
AcDbEntity
  8
0
  6
ByLayer
 62
  256
370
   -1
100
AcDbLine
 10
6.344972456236643
 20
10.16643178684703
 11
6.683658102664284
 21
10.06017437940803
  0
LINE
  5
15A
100
AcDbEntity
  8
0
  6
ByLayer
 62
  256
370
   -1
100
AcDbLine
 10
6.683658102664284
 20
10.06017437940803
 11
7.018904498058809
 21
9.944464006845438
  0
LINE
  5
15B
100
AcDbEntity
  8
0
  6
ByLayer
 62
  256
370
   -1
100
AcDbLine
 10
7.018904498058809
 20
9.944464006845438
 11
7.350530943154945
 21
9.819186049838933
  0
LINE
  5
15C
100
AcDbEntity
  8
0
  6
ByLayer
 62
  256
370
   -1
100
AcDbLine
 10
7.350530943154945
 20
9.819186049838933
 11
7.678867431460425
 21
9.685272852758313
  0
LINE
  5
15D
100
AcDbEntity
  8
0
  6
ByLayer
 62
  256
370
   -1
100
AcDbLine
 10
7.678867431460425
 20
9.685272852758313
 11
8.00434880405809
 21
9.543871706434237
  0
LINE
  5
15E
100
AcDbEntity
  8
0
  6
ByLayer
 62
  256
370
   -1
100
AcDbLine
 10
8.00434880405809
 20
9.543871706434237
 11
8.3274099020308
 21
9.396129901697371
  0
LINE
  5
15F
100
AcDbEntity
  8
0
  6
ByLayer
 62
  256
370
   -1
100
AcDbLine
 10
8.3274099020308
 20
9.396129901697371
 11
8.648485566461378
 21
9.243194729378379
  0
LINE
  5
160
100
AcDbEntity
  8
0
  6
ByLayer
 62
  256
370
   -1
100
AcDbLine
 10
8.648485566461378
 20
9.243194729378379
 11
8.968010638432693
 21
9.086213480307917
  0
LINE
  5
161
100
AcDbEntity
  8
0
  6
ByLayer
 62
  256
370
   -1
100
AcDbLine
 10
8.968010638432693
 20
9.086213480307917
 11
9.286419959027583
 21
8.926333445316654
  0
LINE
  5
162
100
AcDbEntity
  8
0
  6
ByLayer
 62
  256
370
   -1
100
AcDbLine
 10
9.286419959027583
 20
8.926333445316654
 11
9.60414836932889
 21
8.764701915235241
  0
LINE
  5
163
100
AcDbEntity
  8
0
  6
ByLayer
 62
  256
370
   -1
100
AcDbLine
 10
9.60414836932889
 20
8.764701915235241
 11
9.921630710419473
 21
8.602466180894359
  0
LINE
  5
164
100
AcDbEntity
  8
0
  6
ByLayer
 62
  256
370
   -1
100
AcDbLine
 10
9.921630710419473
 20
8.602466180894359
 11
10.23930182338216
 21
8.440773533124652
  0
LINE
  5
165
100
AcDbEntity
  8
0
  6
ByLayer
 62
  256
370
   -1
100
AcDbLine
 10
10.23930182338216
 20
8.440773533124652
 11
10.55759637857716
 21
8.280770796827744
  0
LINE
  5
166
100
AcDbEntity
  8
0
  6
ByLayer
 62
  256
370
   -1
100
AcDbLine
 10
10.55759637857716
 20
8.280770796827744
 11
10.87682886971857
 21
8.123276815894004
  0
LINE
  5
167
100
AcDbEntity
  8
0
  6
ByLayer
 62
  256
370
   -1
100
AcDbLine
 10
10.87682886971857
 20
8.123276815894004
 11
11.19698309866448
 21
7.968207924010059
  0
LINE
  5
168
100
AcDbEntity
  8
0
  6
ByLayer
 62
  256
370
   -1
100
AcDbLine
 10
11.19698309866448
 20
7.968207924010059
 11
11.51798647947148
 21
7.815326563663543
  0
LINE
  5
169
100
AcDbEntity
  8
0
  6
ByLayer
 62
  256
370
   -1
100
AcDbLine
 10
11.51798647947148
 20
7.815326563663543
 11
11.83976642619619
 21
7.664395177342095
  0
LINE
  5
16A
100
AcDbEntity
  8
0
  6
ByLayer
 62
  256
370
   -1
100
AcDbLine
 10
11.83976642619619
 20
7.664395177342095
 11
12.16225035289518
 21
7.515176207533353
  0
LINE
  5
16B
100
AcDbEntity
  8
0
  6
ByLayer
 62
  256
370
   -1
100
AcDbLine
 10
12.16225035289518
 20
7.515176207533353
 11
12.48536567362508
 21
7.367432096724965
  0
LINE
  5
16C
100
AcDbEntity
  8
0
  6
ByLayer
 62
  256
370
   -1
100
AcDbLine
 10
12.48536567362508
 20
7.367432096724965
 11
12.80903980244247
 21
7.220925287404566
  0
LINE
  5
16D
100
AcDbEntity
  8
0
  6
ByLayer
 62
  256
370
   -1
100
AcDbLine
 10
12.80903980244247
 20
7.220925287404566
 11
13.13320015340396
 21
7.075418222059795
  0
LINE
  5
16E
100
AcDbEntity
  8
0
  6
ByLayer
 62
  256
370
   -1
100
AcDbLine
 10
13.13320015340396
 20
7.075418222059795
 11
13.45777414056614
 21
6.930673343178293
  0
LINE
  5
16F
100
AcDbEntity
  8
0
  6
ByLayer
 62
  256
370
   -1
100
AcDbLine
 10
13.45777414056614
 20
6.930673343178293
 11
13.78268917798561
 21
6.7864530932477
  0
LINE
  5
170
100
AcDbEntity
  8
0
  6
ByLayer
 62
  256
370
   -1
100
AcDbLine
 10
13.78268917798561
 20
6.7864530932477
 11
14.1078742383424
 21
6.642525004252127
  0
LINE
  5
171
100
AcDbEntity
  8
0
  6
ByLayer
 62
  256
370
   -1
100
AcDbLine
 10
14.1078742383424
 20
6.642525004252127
 11
14.43334165424508
 21
6.498928809949519
  0
LINE
  5
172
100
AcDbEntity
  8
0
  6
ByLayer
 62
  256
370
   -1
100
AcDbLine
 10
14.43334165424508
 20
6.498928809949519
 11
14.75922744129659
 21
6.356108115970811
  0
LINE
  5
173
100
AcDbEntity
  8
0
  6
ByLayer
 62
  256
370
   -1
100
AcDbLine
 10
14.75922744129659
 20
6.356108115970811
 11
15.08567763397558
 21
6.214539243374888
  0
LINE
  5
174
100
AcDbEntity
  8
0
  6
ByLayer
 62
  256
370
   -1
100
AcDbLine
 10
15.08567763397558
 20
6.214539243374888
 11
15.41283826676071
 21
6.074698513220648
  0
LINE
  5
175
100
AcDbEntity
  8
0
  6
ByLayer
 62
  256
370
   -1
100
AcDbLine
 10
15.41283826676071
 20
6.074698513220648
 11
15.74085537413063
 21
5.937062246566977
  0
LINE
  5
176
100
AcDbEntity
  8
0
  6
ByLayer
 62
  256
370
   -1
100
AcDbLine
 10
15.74085537413063
 20
5.937062246566977
 11
16.069874990564
 21
5.802106764472768
  0
LINE
  5
177
100
AcDbEntity
  8
0
  6
ByLayer
 62
  256
370
   -1
100
AcDbLine
 10
16.069874990564
 20
5.802106764472768
 11
16.40004315053946
 21
5.670308387996907
  0
LINE
  5
178
100
AcDbEntity
  8
0
  6
ByLayer
 62
  256
370
   -1
100
AcDbLine
 10
16.40004315053946
 20
5.670308387996907
 11
16.73150588853566
 21
5.542143438198289
  0
LINE
  5
179
100
AcDbEntity
  8
0
  6
ByLayer
 62
  256
370
   -1
100
AcDbLine
 10
16.73150588853566
 20
5.542143438198289
 11
17.06440923903127
 21
5.4180882361358
  0
LINE
  5
17A
100
AcDbEntity
  8
0
  6
ByLayer
 62
  256
370
   -1
100
AcDbLine
 10
17.06440923903127
 20
5.4180882361358
 11
17.39889923650492
 21
5.298619102868331
  0
LINE
  5
17B
100
AcDbEntity
  8
0
  6
ByLayer
 62
  256
370
   -1
100
AcDbLine
 10
17.39889923650492
 20
5.298619102868331
 11
17.73510659498696
 21
5.184166659404063
  0
LINE
  5
17C
100
AcDbEntity
  8
0
  6
ByLayer
 62
  256
370
   -1
100
AcDbLine
 10
17.73510659498696
 20
5.184166659404063
 11
18.07297680671841
 21
5.074609020389154
  0
LINE
  5
17D
100
AcDbEntity
  8
0
  6
ByLayer
 62
  256
370
   -1
100
AcDbLine
 10
18.07297680671841
 20
5.074609020389154
 11
18.41233239511729
 21
4.969457491265983
  0
LINE
  5
17E
100
AcDbEntity
  8
0
  6
ByLayer
 62
  256
370
   -1
100
AcDbLine
 10
18.41233239511729
 20
4.969457491265983
 11
18.75299367238471
 21
4.868216781539194
  0
LINE
  5
17F
100
AcDbEntity
  8
0
  6
ByLayer
 62
  256
370
   -1
100
AcDbLine
 10
18.75299367238471
 20
4.868216781539194
 11
19.09478095072182
 21
4.770391600713432
  0
LINE
  5
180
100
AcDbEntity
  8
0
  6
ByLayer
 62
  256
370
   -1
100
AcDbLine
 10
19.09478095072182
 20
4.770391600713432
 11
19.43751454232975
 21
4.675486658293354
  0
LINE
  5
181
100
AcDbEntity
  8
0
  6
ByLayer
 62
  256
370
   -1
100
AcDbLine
 10
19.43751454232975
 20
4.675486658293354
 11
19.78101475940962
 21
4.583006663783594
  0
LINE
  5
182
100
AcDbEntity
  8
0
  6
ByLayer
 62
  256
370
   -1
100
AcDbLine
 10
19.78101475940962
 20
4.583006663783594
 11
20.12510191416257
 21
4.492456326688814
  0
LINE
  5
183
100
AcDbEntity
  8
0
  6
ByLayer
 62
  256
370
   -1
100
AcDbLine
 10
20.12510191416257
 20
4.492456326688814
 11
20.46959631878973
 21
4.403340356513653
  0
LINE
  5
184
100
AcDbEntity
  8
0
  6
ByLayer
 62
  256
370
   -1
100
AcDbLine
 10
20.46959631878973
 20
4.403340356513653
 11
20.81431828549224
 21
4.315163462762762
  0
LINE
  5
185
100
AcDbEntity
  8
0
  6
ByLayer
 62
  256
370
   -1
100
AcDbLine
 10
20.81431828549224
 20
4.315163462762762
 11
21.15908972611952
 21
4.227434625100619
  0
LINE
  5
186
100
AcDbEntity
  8
0
  6
ByLayer
 62
  256
370
   -1
100
AcDbLine
 10
21.15908972611952
 20
4.227434625100619
 11
21.50381188508797
 21
4.139874596453909
  0
LINE
  5
187
100
AcDbEntity
  8
0
  6
ByLayer
 62
  256
370
   -1
100
AcDbLine
 10
21.50381188508797
 20
4.139874596453909
 11
21.84850025079363
 21
4.052509096816327
  0
LINE
  5
188
100
AcDbEntity
  8
0
  6
ByLayer
 62
  256
370
   -1
100
AcDbLine
 10
21.84850025079363
 20
4.052509096816327
 11
22.19317918597727
 21
3.965387535682632
  0
LINE
  5
189
100
AcDbEntity
  8
0
  6
ByLayer
 62
  256
370
   -1
100
AcDbLine
 10
22.19317918597727
 20
3.965387535682632
 11
22.53787305337961
 21
3.878559322547579
  0
LINE
  5
18A
100
AcDbEntity
  8
0
  6
ByLayer
 62
  256
370
   -1
100
AcDbLine
 10
22.53787305337961
 20
3.878559322547579
 11
22.88260621574144
 21
3.792073866905933
  0
LINE
  5
18B
100
AcDbEntity
  8
0
  6
ByLayer
 62
  256
370
   -1
100
AcDbLine
 10
22.88260621574144
 20
3.792073866905933
 11
23.22740303580349
 21
3.705980578252444
  0
LINE
  5
18C
100
AcDbEntity
  8
0
  6
ByLayer
 62
  256
370
   -1
100
AcDbLine
 10
23.22740303580349
 20
3.705980578252444
 11
23.57228787630654
 21
3.620328866081876
  0
LINE
  5
18D
100
AcDbEntity
  8
0
  6
ByLayer
 62
  256
370
   -1
100
AcDbLine
 10
23.57228787630654
 20
3.620328866081876
 11
23.91728509999133
 21
3.535168139888985
  0
LINE
  5
18E
100
AcDbEntity
  8
0
  6
ByLayer
 62
  256
370
   -1
100
AcDbLine
 10
23.91728509999133
 20
3.535168139888985
 11
24.26241906959859
 21
3.450547809168528
  0
LINE
  5
18F
100
AcDbEntity
  8
0
  6
ByLayer
 62
  256
370
   -1
100
AcDbLine
 10
24.26241906959859
 20
3.450547809168528
 11
24.60771397567439
 21
3.366516808159222
  0
LINE
  5
190
100
AcDbEntity
  8
0
  6
ByLayer
 62
  256
370
   -1
100
AcDbLine
 10
24.60771397567439
 20
3.366516808159222
 11
24.95317807591892
 21
3.283080096574455
  0
LINE
  5
191
100
AcDbEntity
  8
0
  6
ByLayer
 62
  256
370
   -1
100
AcDbLine
 10
24.95317807591892
 20
3.283080096574455
 11
25.29879102257044
 21
3.20016368328448
  0
LINE
  5
192
100
AcDbEntity
  8
0
  6
ByLayer
 62
  256
370
   -1
100
AcDbLine
 10
25.29879102257044
 20
3.20016368328448
 11
25.64452948572294
 21
3.117685346465526
  0
LINE
  5
193
100
AcDbEntity
  8
0
  6
ByLayer
 62
  256
370
   -1
100
AcDbLine
 10
25.64452948572294
 20
3.117685346465526
 11
25.99037013547037
 21
3.035562864293822
  0
LINE
  5
194
100
AcDbEntity
  8
0
  6
ByLayer
 62
  256
370
   -1
100
AcDbLine
 10
25.99037013547037
 20
3.035562864293822
 11
26.33628964190675
 21
2.953714014945595
  0
LINE
  5
195
100
AcDbEntity
  8
0
  6
ByLayer
 62
  256
370
   -1
100
AcDbLine
 10
26.33628964190675
 20
2.953714014945595
 11
26.68226467512605
 21
2.872056576597075
  0
LINE
  5
196
100
AcDbEntity
  8
0
  6
ByLayer
 62
  256
370
   -1
100
AcDbLine
 10
26.68226467512605
 20
2.872056576597075
 11
27.02827190522224
 21
2.79050832742449
  0
LINE
  5
197
100
AcDbEntity
  8
0
  6
ByLayer
 62
  256
370
   -1
100
AcDbLine
 10
27.02827190522224
 20
2.79050832742449
 11
27.3742880022893
 21
2.708987045604067
  0
LINE
  5
198
100
AcDbEntity
  8
0
  6
ByLayer
 62
  256
370
   -1
100
AcDbLine
 10
27.3742880022893
 20
2.708987045604067
 11
27.72028963642124
 21
2.627410509312036
  0
LINE
  5
199
100
AcDbEntity
  8
0
  6
ByLayer
 62
  256
370
   -1
100
AcDbLine
 10
27.72028963642124
 20
2.627410509312036
 11
28.0662535414354
 21
2.545696726190967
  0
LINE
  5
19A
100
AcDbEntity
  8
0
  6
ByLayer
 62
  256
370
   -1
100
AcDbLine
 10
28.0662535414354
 20
2.545696726190967
 11
28.4121664234497
 21
2.463799613884031
  0
LINE
  5
19B
100
AcDbEntity
  8
0
  6
ByLayer
 62
  256
370
   -1
100
AcDbLine
 10
28.4121664234497
 20
2.463799613884031
 11
28.75803571058375
 21
2.381747709436068
  0
LINE
  5
19C
100
AcDbEntity
  8
0
  6
ByLayer
 62
  256
370
   -1
100
AcDbLine
 10
28.75803571058375
 20
2.381747709436068
 11
29.10387141236088
 21
2.299578845460957
  0
LINE
  5
19D
100
AcDbEntity
  8
0
  6
ByLayer
 62
  256
370
   -1
100
AcDbLine
 10
29.10387141236088
 20
2.299578845460957
 11
29.44968353830441
 21
2.217330854572574
  0
LINE
  5
19E
100
AcDbEntity
  8
0
  6
ByLayer
 62
  256
370
   -1
100
AcDbLine
 10
29.44968353830441
 20
2.217330854572574
 11
29.79548209793767
 21
2.135041569384796
  0
LINE
  5
19F
100
AcDbEntity
  8
0
  6
ByLayer
 62
  256
370
   -1
100
AcDbLine
 10
29.79548209793767
 20
2.135041569384796
 11
30.14127710078397
 21
2.052748822511498
  0
LINE
  5
1A0
100
AcDbEntity
  8
0
  6
ByLayer
 62
  256
370
   -1
100
AcDbLine
 10
30.14127710078397
 20
2.052748822511498
 11
30.48707855636665
 21
1.970490446566557
  0
LINE
  5
1A1
100
AcDbEntity
  8
0
  6
ByLayer
 62
  256
370
   -1
100
AcDbLine
 10
30.48707855636665
 20
1.970490446566557
 11
30.832896474209
 21
1.88830427416385
  0
LINE
  5
1A2
100
AcDbEntity
  8
0
  6
ByLayer
 62
  256
370
   -1
100
AcDbLine
 10
30.832896474209
 20
1.88830427416385
 11
31.17874086383437
 21
1.806228137917254
  0
LINE
  5
1A3
100
AcDbEntity
  8
0
  6
ByLayer
 62
  256
370
   -1
100
AcDbLine
 10
31.17874086383437
 20
1.806228137917254
 11
31.5246217234088
 21
1.72429982764758
  0
LINE
  5
1A4
100
AcDbEntity
  8
0
  6
ByLayer
 62
  256
370
   -1
100
AcDbLine
 10
31.5246217234088
 20
1.72429982764758
 11
31.87054551684939
 21
1.642543816489216
  0
LINE
  5
1A5
100
AcDbEntity
  8
0
  6
ByLayer
 62
  256
370
   -1
100
AcDbLine
 10
31.87054551684939
 20
1.642543816489216
 11
32.21651018085102
 21
1.560952447880432
  0
LINE
  5
1A6
100
AcDbEntity
  8
0
  6
ByLayer
 62
  256
370
   -1
100
AcDbLine
 10
32.21651018085102
 20
1.560952447880432
 11
32.56251239180488
 21
1.479513316564604
  0
LINE
  5
1A7
100
AcDbEntity
  8
0
  6
ByLayer
 62
  256
370
   -1
100
AcDbLine
 10
32.56251239180488
 20
1.479513316564604
 11
32.90854882610209
 21
1.398214017285104
  0
LINE
  5
1A8
100
AcDbEntity
  8
0
  6
ByLayer
 62
  256
370
   -1
100
AcDbLine
 10
32.90854882610209
 20
1.398214017285104
 11
33.25461616013379
 21
1.317042144785308
  0
LINE
  5
1A9
100
AcDbEntity
  8
0
  6
ByLayer
 62
  256
370
   -1
100
AcDbLine
 10
33.25461616013379
 20
1.317042144785308
 11
33.60071107029115
 21
1.235985293808592
  0
LINE
  5
1AA
100
AcDbEntity
  8
0
  6
ByLayer
 62
  256
370
   -1
100
AcDbLine
 10
33.60071107029115
 20
1.235985293808592
 11
33.9468302329653
 21
1.155031059098328
  0
LINE
  5
1AB
100
AcDbEntity
  8
0
  6
ByLayer
 62
  256
370
   -1
100
AcDbLine
 10
33.9468302329653
 20
1.155031059098328
 11
34.29297032454739
 21
1.074167035397892
  0
LINE
  5
1AC
100
AcDbEntity
  8
0
  6
ByLayer
 62
  256
370
   -1
100
AcDbLine
 10
34.29297032454739
 20
1.074167035397892
 11
34.63912802142857
 21
0.9933808174506586
  0
LINE
  5
1AD
100
AcDbEntity
  8
0
  6
ByLayer
 62
  256
370
   -1
100
AcDbLine
 10
34.63912802142857
 20
0.9933808174506586
 11
34.9853
 21
0.91266
  0
LINE
  5
1AE
100
AcDbEntity
  8
0
  6
ByLayer
 62
  256
370
   -1
100
AcDbLine
 10
34.9853
 20
0.91266
 11
34.9853
 21
0
  0
LINE
  5
1AF
100
AcDbEntity
  8
0
  6
ByLayer
 62
  256
370
   -1
100
AcDbLine
 10
0
 20
0
 11
0
 21
-10.865
  0
LINE
  5
1B0
100
AcDbEntity
  8
0
  6
ByLayer
 62
  256
370
   -1
100
AcDbLine
 10
0
 20
-10.865
 11
0.3551007504710012
 21
-10.87991107788668
  0
LINE
  5
1B1
100
AcDbEntity
  8
0
  6
ByLayer
 62
  256
370
   -1
100
AcDbLine
 10
0.3551007504710012
 20
-10.87991107788668
 11
0.7103901124665883
 21
-10.88809456683988
  0
LINE
  5
1B2
100
AcDbEntity
  8
0
  6
ByLayer
 62
  256
370
   -1
100
AcDbLine
 10
0.7103901124665883
 20
-10.88809456683988
 11
1.065805565250304
 21
-10.88969022858965
  0
LINE
  5
1B3
100
AcDbEntity
  8
0
  6
ByLayer
 62
  256
370
   -1
100
AcDbLine
 10
1.065805565250304
 20
-10.88969022858965
 11
1.421284588085689
 21
-10.88483782486604
  0
LINE
  5
1B4
100
AcDbEntity
  8
0
  6
ByLayer
 62
  256
370
   -1
100
AcDbLine
 10
1.421284588085689
 20
-10.88483782486604
 11
1.776764660236287
 21
-10.8736771173991
  0
LINE
  5
1B5
100
AcDbEntity
  8
0
  6
ByLayer
 62
  256
370
   -1
100
AcDbLine
 10
1.776764660236287
 20
-10.8736771173991
 11
2.13218326096564
 21
-10.8563478679189
  0
LINE
  5
1B6
100
AcDbEntity
  8
0
  6
ByLayer
 62
  256
370
   -1
100
AcDbLine
 10
2.13218326096564
 20
-10.8563478679189
 11
2.487477869537289
 21
-10.83298983815548
  0
LINE
  5
1B7
100
AcDbEntity
  8
0
  6
ByLayer
 62
  256
370
   -1
100
AcDbLine
 10
2.487477869537289
 20
-10.83298983815548
 11
2.842585965214778
 21
-10.80374278983889
  0
LINE
  5
1B8
100
AcDbEntity
  8
0
  6
ByLayer
 62
  256
370
   -1
100
AcDbLine
 10
2.842585965214778
 20
-10.80374278983889
 11
3.197445027261649
 21
-10.76874648469919
  0
LINE
  5
1B9
100
AcDbEntity
  8
0
  6
ByLayer
 62
  256
370
   -1
100
AcDbLine
 10
3.197445027261649
 20
-10.76874648469919
 11
3.551992378469215
 21
-10.72814035675898
  0
LINE
  5
1BA
100
AcDbEntity
  8
0
  6
ByLayer
 62
  256
370
   -1
100
AcDbLine
 10
3.551992378469215
 20
-10.72814035675898
 11
3.906096492853286
 21
-10.68191964668315
  0
LINE
  5
1BB
100
AcDbEntity
  8
0
  6
ByLayer
 62
  256
370
   -1
100
AcDbLine
 10
3.906096492853286
 20
-10.68191964668315
 11
4.259449282121334
 21
-10.62970981205907
  0
LINE
  5
1BC
100
AcDbEntity
  8
0
  6
ByLayer
 62
  256
370
   -1
100
AcDbLine
 10
4.259449282121334
 20
-10.62970981205907
 11
4.611714751022347
 21
-10.57107786356614
  0
LINE
  5
1BD
100
AcDbEntity
  8
0
  6
ByLayer
 62
  256
370
   -1
100
AcDbLine
 10
4.611714751022347
 20
-10.57107786356614
 11
4.962556904305325
 21
-10.50559081188372
  0
LINE
  5
1BE
100
AcDbEntity
  8
0
  6
ByLayer
 62
  256
370
   -1
100
AcDbLine
 10
4.962556904305325
 20
-10.50559081188372
 11
5.311639746719246
 21
-10.43281566769122
  0
LINE
  5
1BF
100
AcDbEntity
  8
0
  6
ByLayer
 62
  256
370
   -1
100
AcDbLine
 10
5.311639746719246
 20
-10.43281566769122
 11
5.658627283013118
 21
-10.35231944166802
  0
LINE
  5
1C0
100
AcDbEntity
  8
0
  6
ByLayer
 62
  256
370
   -1
100
AcDbLine
 10
5.658627283013118
 20
-10.35231944166802
 11
6.003183517935917
 21
-10.2636691444935
  0
LINE
  5
1C1
100
AcDbEntity
  8
0
  6
ByLayer
 62
  256
370
   -1
100
AcDbLine
 10
6.003183517935917
 20
-10.2636691444935
 11
6.344972456236643
 21
-10.16643178684703
  0
LINE
  5
1C2
100
AcDbEntity
  8
0
  6
ByLayer
 62
  256
370
   -1
100
AcDbLine
 10
6.344972456236643
 20
-10.16643178684703
 11
6.683658102664284
 21
-10.06017437940803
  0
LINE
  5
1C3
100
AcDbEntity
  8
0
  6
ByLayer
 62
  256
370
   -1
100
AcDbLine
 10
6.683658102664284
 20
-10.06017437940803
 11
7.018904498058809
 21
-9.944464006845438
  0
LINE
  5
1C4
100
AcDbEntity
  8
0
  6
ByLayer
 62
  256
370
   -1
100
AcDbLine
 10
7.018904498058809
 20
-9.944464006845438
 11
7.350530943154945
 21
-9.819186049838933
  0
LINE
  5
1C5
100
AcDbEntity
  8
0
  6
ByLayer
 62
  256
370
   -1
100
AcDbLine
 10
7.350530943154945
 20
-9.819186049838933
 11
7.678867431460425
 21
-9.685272852758313
  0
LINE
  5
1C6
100
AcDbEntity
  8
0
  6
ByLayer
 62
  256
370
   -1
100
AcDbLine
 10
7.678867431460425
 20
-9.685272852758313
 11
8.00434880405809
 21
-9.543871706434237
  0
LINE
  5
1C7
100
AcDbEntity
  8
0
  6
ByLayer
 62
  256
370
   -1
100
AcDbLine
 10
8.00434880405809
 20
-9.543871706434237
 11
8.3274099020308
 21
-9.396129901697371
  0
LINE
  5
1C8
100
AcDbEntity
  8
0
  6
ByLayer
 62
  256
370
   -1
100
AcDbLine
 10
8.3274099020308
 20
-9.396129901697371
 11
8.648485566461378
 21
-9.243194729378379
  0
LINE
  5
1C9
100
AcDbEntity
  8
0
  6
ByLayer
 62
  256
370
   -1
100
AcDbLine
 10
8.648485566461378
 20
-9.243194729378379
 11
8.968010638432693
 21
-9.086213480307917
  0
LINE
  5
1CA
100
AcDbEntity
  8
0
  6
ByLayer
 62
  256
370
   -1
100
AcDbLine
 10
8.968010638432693
 20
-9.086213480307917
 11
9.286419959027583
 21
-8.926333445316654
  0
LINE
  5
1CB
100
AcDbEntity
  8
0
  6
ByLayer
 62
  256
370
   -1
100
AcDbLine
 10
9.286419959027583
 20
-8.926333445316654
 11
9.60414836932889
 21
-8.764701915235241
  0
LINE
  5
1CC
100
AcDbEntity
  8
0
  6
ByLayer
 62
  256
370
   -1
100
AcDbLine
 10
9.60414836932889
 20
-8.764701915235241
 11
9.921630710419473
 21
-8.602466180894359
  0
LINE
  5
1CD
100
AcDbEntity
  8
0
  6
ByLayer
 62
  256
370
   -1
100
AcDbLine
 10
9.921630710419473
 20
-8.602466180894359
 11
10.23930182338216
 21
-8.440773533124652
  0
LINE
  5
1CE
100
AcDbEntity
  8
0
  6
ByLayer
 62
  256
370
   -1
100
AcDbLine
 10
10.23930182338216
 20
-8.440773533124652
 11
10.55759637857716
 21
-8.280770796827744
  0
LINE
  5
1CF
100
AcDbEntity
  8
0
  6
ByLayer
 62
  256
370
   -1
100
AcDbLine
 10
10.55759637857716
 20
-8.280770796827744
 11
10.87682886971857
 21
-8.123276815894004
  0
LINE
  5
1D0
100
AcDbEntity
  8
0
  6
ByLayer
 62
  256
370
   -1
100
AcDbLine
 10
10.87682886971857
 20
-8.123276815894004
 11
11.19698309866448
 21
-7.968207924010059
  0
LINE
  5
1D1
100
AcDbEntity
  8
0
  6
ByLayer
 62
  256
370
   -1
100
AcDbLine
 10
11.19698309866448
 20
-7.968207924010059
 11
11.51798647947148
 21
-7.815326563663543
  0
LINE
  5
1D2
100
AcDbEntity
  8
0
  6
ByLayer
 62
  256
370
   -1
100
AcDbLine
 10
11.51798647947148
 20
-7.815326563663543
 11
11.83976642619619
 21
-7.664395177342095
  0
LINE
  5
1D3
100
AcDbEntity
  8
0
  6
ByLayer
 62
  256
370
   -1
100
AcDbLine
 10
11.83976642619619
 20
-7.664395177342095
 11
12.16225035289518
 21
-7.515176207533353
  0
LINE
  5
1D4
100
AcDbEntity
  8
0
  6
ByLayer
 62
  256
370
   -1
100
AcDbLine
 10
12.16225035289518
 20
-7.515176207533353
 11
12.48536567362508
 21
-7.367432096724965
  0
LINE
  5
1D5
100
AcDbEntity
  8
0
  6
ByLayer
 62
  256
370
   -1
100
AcDbLine
 10
12.48536567362508
 20
-7.367432096724965
 11
12.80903980244247
 21
-7.220925287404566
  0
LINE
  5
1D6
100
AcDbEntity
  8
0
  6
ByLayer
 62
  256
370
   -1
100
AcDbLine
 10
12.80903980244247
 20
-7.220925287404566
 11
13.13320015340396
 21
-7.075418222059795
  0
LINE
  5
1D7
100
AcDbEntity
  8
0
  6
ByLayer
 62
  256
370
   -1
100
AcDbLine
 10
13.13320015340396
 20
-7.075418222059795
 11
13.45777414056614
 21
-6.930673343178293
  0
LINE
  5
1D8
100
AcDbEntity
  8
0
  6
ByLayer
 62
  256
370
   -1
100
AcDbLine
 10
13.45777414056614
 20
-6.930673343178293
 11
13.78268917798561
 21
-6.7864530932477
  0
LINE
  5
1D9
100
AcDbEntity
  8
0
  6
ByLayer
 62
  256
370
   -1
100
AcDbLine
 10
13.78268917798561
 20
-6.7864530932477
 11
14.1078742383424
 21
-6.642525004252127
  0
LINE
  5
1DA
100
AcDbEntity
  8
0
  6
ByLayer
 62
  256
370
   -1
100
AcDbLine
 10
14.1078742383424
 20
-6.642525004252127
 11
14.43334165424508
 21
-6.498928809949519
  0
LINE
  5
1DB
100
AcDbEntity
  8
0
  6
ByLayer
 62
  256
370
   -1
100
AcDbLine
 10
14.43334165424508
 20
-6.498928809949519
 11
14.75922744129659
 21
-6.356108115970811
  0
LINE
  5
1DC
100
AcDbEntity
  8
0
  6
ByLayer
 62
  256
370
   -1
100
AcDbLine
 10
14.75922744129659
 20
-6.356108115970811
 11
15.08567763397558
 21
-6.214539243374888
  0
LINE
  5
1DD
100
AcDbEntity
  8
0
  6
ByLayer
 62
  256
370
   -1
100
AcDbLine
 10
15.08567763397558
 20
-6.214539243374888
 11
15.41283826676071
 21
-6.074698513220648
  0
LINE
  5
1DE
100
AcDbEntity
  8
0
  6
ByLayer
 62
  256
370
   -1
100
AcDbLine
 10
15.41283826676071
 20
-6.074698513220648
 11
15.74085537413063
 21
-5.937062246566977
  0
LINE
  5
1DF
100
AcDbEntity
  8
0
  6
ByLayer
 62
  256
370
   -1
100
AcDbLine
 10
15.74085537413063
 20
-5.937062246566977
 11
16.069874990564
 21
-5.802106764472768
  0
LINE
  5
1E0
100
AcDbEntity
  8
0
  6
ByLayer
 62
  256
370
   -1
100
AcDbLine
 10
16.069874990564
 20
-5.802106764472768
 11
16.40004315053946
 21
-5.670308387996907
  0
LINE
  5
1E1
100
AcDbEntity
  8
0
  6
ByLayer
 62
  256
370
   -1
100
AcDbLine
 10
16.40004315053946
 20
-5.670308387996907
 11
16.73150588853566
 21
-5.542143438198289
  0
LINE
  5
1E2
100
AcDbEntity
  8
0
  6
ByLayer
 62
  256
370
   -1
100
AcDbLine
 10
16.73150588853566
 20
-5.542143438198289
 11
17.06440923903127
 21
-5.4180882361358
  0
LINE
  5
1E3
100
AcDbEntity
  8
0
  6
ByLayer
 62
  256
370
   -1
100
AcDbLine
 10
17.06440923903127
 20
-5.4180882361358
 11
17.39889923650492
 21
-5.298619102868331
  0
LINE
  5
1E4
100
AcDbEntity
  8
0
  6
ByLayer
 62
  256
370
   -1
100
AcDbLine
 10
17.39889923650492
 20
-5.298619102868331
 11
17.73510659498696
 21
-5.184166659404063
  0
LINE
  5
1E5
100
AcDbEntity
  8
0
  6
ByLayer
 62
  256
370
   -1
100
AcDbLine
 10
17.73510659498696
 20
-5.184166659404063
 11
18.07297680671841
 21
-5.074609020389154
  0
LINE
  5
1E6
100
AcDbEntity
  8
0
  6
ByLayer
 62
  256
370
   -1
100
AcDbLine
 10
18.07297680671841
 20
-5.074609020389154
 11
18.41233239511729
 21
-4.969457491265983
  0
LINE
  5
1E7
100
AcDbEntity
  8
0
  6
ByLayer
 62
  256
370
   -1
100
AcDbLine
 10
18.41233239511729
 20
-4.969457491265983
 11
18.75299367238471
 21
-4.868216781539194
  0
LINE
  5
1E8
100
AcDbEntity
  8
0
  6
ByLayer
 62
  256
370
   -1
100
AcDbLine
 10
18.75299367238471
 20
-4.868216781539194
 11
19.09478095072182
 21
-4.770391600713432
  0
LINE
  5
1E9
100
AcDbEntity
  8
0
  6
ByLayer
 62
  256
370
   -1
100
AcDbLine
 10
19.09478095072182
 20
-4.770391600713432
 11
19.43751454232975
 21
-4.675486658293354
  0
LINE
  5
1EA
100
AcDbEntity
  8
0
  6
ByLayer
 62
  256
370
   -1
100
AcDbLine
 10
19.43751454232975
 20
-4.675486658293354
 11
19.78101475940962
 21
-4.583006663783594
  0
LINE
  5
1EB
100
AcDbEntity
  8
0
  6
ByLayer
 62
  256
370
   -1
100
AcDbLine
 10
19.78101475940962
 20
-4.583006663783594
 11
20.12510191416257
 21
-4.492456326688814
  0
LINE
  5
1EC
100
AcDbEntity
  8
0
  6
ByLayer
 62
  256
370
   -1
100
AcDbLine
 10
20.12510191416257
 20
-4.492456326688814
 11
20.46959631878973
 21
-4.403340356513653
  0
LINE
  5
1ED
100
AcDbEntity
  8
0
  6
ByLayer
 62
  256
370
   -1
100
AcDbLine
 10
20.46959631878973
 20
-4.403340356513653
 11
20.81431828549224
 21
-4.315163462762762
  0
LINE
  5
1EE
100
AcDbEntity
  8
0
  6
ByLayer
 62
  256
370
   -1
100
AcDbLine
 10
20.81431828549224
 20
-4.315163462762762
 11
21.15908972611952
 21
-4.227434625100619
  0
LINE
  5
1EF
100
AcDbEntity
  8
0
  6
ByLayer
 62
  256
370
   -1
100
AcDbLine
 10
21.15908972611952
 20
-4.227434625100619
 11
21.50381188508797
 21
-4.139874596453909
  0
LINE
  5
1F0
100
AcDbEntity
  8
0
  6
ByLayer
 62
  256
370
   -1
100
AcDbLine
 10
21.50381188508797
 20
-4.139874596453909
 11
21.84850025079363
 21
-4.052509096816327
  0
LINE
  5
1F1
100
AcDbEntity
  8
0
  6
ByLayer
 62
  256
370
   -1
100
AcDbLine
 10
21.84850025079363
 20
-4.052509096816327
 11
22.19317918597727
 21
-3.965387535682632
  0
LINE
  5
1F2
100
AcDbEntity
  8
0
  6
ByLayer
 62
  256
370
   -1
100
AcDbLine
 10
22.19317918597727
 20
-3.965387535682632
 11
22.53787305337961
 21
-3.878559322547579
  0
LINE
  5
1F3
100
AcDbEntity
  8
0
  6
ByLayer
 62
  256
370
   -1
100
AcDbLine
 10
22.53787305337961
 20
-3.878559322547579
 11
22.88260621574144
 21
-3.792073866905933
  0
LINE
  5
1F4
100
AcDbEntity
  8
0
  6
ByLayer
 62
  256
370
   -1
100
AcDbLine
 10
22.88260621574144
 20
-3.792073866905933
 11
23.22740303580349
 21
-3.705980578252444
  0
LINE
  5
1F5
100
AcDbEntity
  8
0
  6
ByLayer
 62
  256
370
   -1
100
AcDbLine
 10
23.22740303580349
 20
-3.705980578252444
 11
23.57228787630654
 21
-3.620328866081876
  0
LINE
  5
1F6
100
AcDbEntity
  8
0
  6
ByLayer
 62
  256
370
   -1
100
AcDbLine
 10
23.57228787630654
 20
-3.620328866081876
 11
23.91728509999133
 21
-3.535168139888985
  0
LINE
  5
1F7
100
AcDbEntity
  8
0
  6
ByLayer
 62
  256
370
   -1
100
AcDbLine
 10
23.91728509999133
 20
-3.535168139888985
 11
24.26241906959859
 21
-3.450547809168528
  0
LINE
  5
1F8
100
AcDbEntity
  8
0
  6
ByLayer
 62
  256
370
   -1
100
AcDbLine
 10
24.26241906959859
 20
-3.450547809168528
 11
24.60771397567439
 21
-3.366516808159222
  0
LINE
  5
1F9
100
AcDbEntity
  8
0
  6
ByLayer
 62
  256
370
   -1
100
AcDbLine
 10
24.60771397567439
 20
-3.366516808159222
 11
24.95317807591892
 21
-3.283080096574455
  0
LINE
  5
1FA
100
AcDbEntity
  8
0
  6
ByLayer
 62
  256
370
   -1
100
AcDbLine
 10
24.95317807591892
 20
-3.283080096574455
 11
25.29879102257044
 21
-3.20016368328448
  0
LINE
  5
1FB
100
AcDbEntity
  8
0
  6
ByLayer
 62
  256
370
   -1
100
AcDbLine
 10
25.29879102257044
 20
-3.20016368328448
 11
25.64452948572294
 21
-3.117685346465526
  0
LINE
  5
1FC
100
AcDbEntity
  8
0
  6
ByLayer
 62
  256
370
   -1
100
AcDbLine
 10
25.64452948572294
 20
-3.117685346465526
 11
25.99037013547037
 21
-3.035562864293822
  0
LINE
  5
1FD
100
AcDbEntity
  8
0
  6
ByLayer
 62
  256
370
   -1
100
AcDbLine
 10
25.99037013547037
 20
-3.035562864293822
 11
26.33628964190675
 21
-2.953714014945595
  0
LINE
  5
1FE
100
AcDbEntity
  8
0
  6
ByLayer
 62
  256
370
   -1
100
AcDbLine
 10
26.33628964190675
 20
-2.953714014945595
 11
26.68226467512605
 21
-2.872056576597075
  0
LINE
  5
1FF
100
AcDbEntity
  8
0
  6
ByLayer
 62
  256
370
   -1
100
AcDbLine
 10
26.68226467512605
 20
-2.872056576597075
 11
27.02827190522224
 21
-2.79050832742449
  0
LINE
  5
200
100
AcDbEntity
  8
0
  6
ByLayer
 62
  256
370
   -1
100
AcDbLine
 10
27.02827190522224
 20
-2.79050832742449
 11
27.3742880022893
 21
-2.708987045604067
  0
LINE
  5
201
100
AcDbEntity
  8
0
  6
ByLayer
 62
  256
370
   -1
100
AcDbLine
 10
27.3742880022893
 20
-2.708987045604067
 11
27.72028963642124
 21
-2.627410509312036
  0
LINE
  5
202
100
AcDbEntity
  8
0
  6
ByLayer
 62
  256
370
   -1
100
AcDbLine
 10
27.72028963642124
 20
-2.627410509312036
 11
28.0662535414354
 21
-2.545696726190967
  0
LINE
  5
203
100
AcDbEntity
  8
0
  6
ByLayer
 62
  256
370
   -1
100
AcDbLine
 10
28.0662535414354
 20
-2.545696726190967
 11
28.4121664234497
 21
-2.463799613884031
  0
LINE
  5
204
100
AcDbEntity
  8
0
  6
ByLayer
 62
  256
370
   -1
100
AcDbLine
 10
28.4121664234497
 20
-2.463799613884031
 11
28.75803571058375
 21
-2.381747709436068
  0
LINE
  5
205
100
AcDbEntity
  8
0
  6
ByLayer
 62
  256
370
   -1
100
AcDbLine
 10
28.75803571058375
 20
-2.381747709436068
 11
29.10387141236088
 21
-2.299578845460957
  0
LINE
  5
206
100
AcDbEntity
  8
0
  6
ByLayer
 62
  256
370
   -1
100
AcDbLine
 10
29.10387141236088
 20
-2.299578845460957
 11
29.44968353830441
 21
-2.217330854572574
  0
LINE
  5
207
100
AcDbEntity
  8
0
  6
ByLayer
 62
  256
370
   -1
100
AcDbLine
 10
29.44968353830441
 20
-2.217330854572574
 11
29.79548209793767
 21
-2.135041569384796
  0
LINE
  5
208
100
AcDbEntity
  8
0
  6
ByLayer
 62
  256
370
   -1
100
AcDbLine
 10
29.79548209793767
 20
-2.135041569384796
 11
30.14127710078397
 21
-2.052748822511498
  0
LINE
  5
209
100
AcDbEntity
  8
0
  6
ByLayer
 62
  256
370
   -1
100
AcDbLine
 10
30.14127710078397
 20
-2.052748822511498
 11
30.48707855636665
 21
-1.970490446566557
  0
LINE
  5
20A
100
AcDbEntity
  8
0
  6
ByLayer
 62
  256
370
   -1
100
AcDbLine
 10
30.48707855636665
 20
-1.970490446566557
 11
30.832896474209
 21
-1.88830427416385
  0
LINE
  5
20B
100
AcDbEntity
  8
0
  6
ByLayer
 62
  256
370
   -1
100
AcDbLine
 10
30.832896474209
 20
-1.88830427416385
 11
31.17874086383437
 21
-1.806228137917254
  0
LINE
  5
20C
100
AcDbEntity
  8
0
  6
ByLayer
 62
  256
370
   -1
100
AcDbLine
 10
31.17874086383437
 20
-1.806228137917254
 11
31.5246217234088
 21
-1.72429982764758
  0
LINE
  5
20D
100
AcDbEntity
  8
0
  6
ByLayer
 62
  256
370
   -1
100
AcDbLine
 10
31.5246217234088
 20
-1.72429982764758
 11
31.87054551684939
 21
-1.642543816489216
  0
LINE
  5
20E
100
AcDbEntity
  8
0
  6
ByLayer
 62
  256
370
   -1
100
AcDbLine
 10
31.87054551684939
 20
-1.642543816489216
 11
32.21651018085102
 21
-1.560952447880432
  0
LINE
  5
20F
100
AcDbEntity
  8
0
  6
ByLayer
 62
  256
370
   -1
100
AcDbLine
 10
32.21651018085102
 20
-1.560952447880432
 11
32.56251239180488
 21
-1.479513316564604
  0
LINE
  5
210
100
AcDbEntity
  8
0
  6
ByLayer
 62
  256
370
   -1
100
AcDbLine
 10
32.56251239180488
 20
-1.479513316564604
 11
32.90854882610209
 21
-1.398214017285104
  0
LINE
  5
211
100
AcDbEntity
  8
0
  6
ByLayer
 62
  256
370
   -1
100
AcDbLine
 10
32.90854882610209
 20
-1.398214017285104
 11
33.25461616013379
 21
-1.317042144785308
  0
LINE
  5
212
100
AcDbEntity
  8
0
  6
ByLayer
 62
  256
370
   -1
100
AcDbLine
 10
33.25461616013379
 20
-1.317042144785308
 11
33.60071107029115
 21
-1.235985293808592
  0
LINE
  5
213
100
AcDbEntity
  8
0
  6
ByLayer
 62
  256
370
   -1
100
AcDbLine
 10
33.60071107029115
 20
-1.235985293808592
 11
33.9468302329653
 21
-1.155031059098328
  0
LINE
  5
214
100
AcDbEntity
  8
0
  6
ByLayer
 62
  256
370
   -1
100
AcDbLine
 10
33.9468302329653
 20
-1.155031059098328
 11
34.29297032454739
 21
-1.074167035397892
  0
LINE
  5
215
100
AcDbEntity
  8
0
  6
ByLayer
 62
  256
370
   -1
100
AcDbLine
 10
34.29297032454739
 20
-1.074167035397892
 11
34.63912802142857
 21
-0.9933808174506586
  0
LINE
  5
216
100
AcDbEntity
  8
0
  6
ByLayer
 62
  256
370
   -1
100
AcDbLine
 10
34.63912802142857
 20
-0.9933808174506586
 11
34.9853
 21
-0.91266
  0
LINE
  5
217
100
AcDbEntity
  8
0
  6
ByLayer
 62
  256
370
   -1
100
AcDbLine
 10
34.9853
 20
-0.91266
 11
34.9853
 21
0
  0
INSERT
  5
218
100
AcDbEntity
  8
MEASURES
  6
ByLayer
 62
  256
370
   -1
100
AcDbBlockReference
  2
*D2
 10
0
 20
0
 30
0
 41
1
 42
1
 43
0
 50
0
 70
    1
 71
    1
 44
0
 45
0
  0
INSERT
  5
219
100
AcDbEntity
  8
MEASURES
  6
ByLayer
 62
  256
370
   -1
100
AcDbBlockReference
  2
*D3
 10
0
 20
0
 30
0
 41
1
 42
1
 43
0
 50
0
 70
    1
 71
    1
 44
0
 45
0
  0
INSERT
  5
21A
100
AcDbEntity
  8
MEASURES
  6
ByLayer
 62
  256
370
   -1
100
AcDbBlockReference
  2
*D4
 10
0
 20
0
 30
0
 41
1
 42
1
 43
0
 50
0
 70
    1
 71
    1
 44
0
 45
0
  0
ENDSEC
  0
SECTION
  2
OBJECTS
  0
DICTIONARY
  5
C
330
0
100
AcDbDictionary
281
    1
  3
ACAD_GROUP
350
D
  0
DICTIONARY
  5
D
330
C
100
AcDbDictionary
281
    1
  0
ENDSEC
  0
EOF
