999
dxfrw 0.6.3
  0
SECTION
  2
HEADER
  9
$ACADVER
  1
AC1021
  9
$DWGCODEPAGE
  3
ANSI_1252
  9
$INSBASE
 10
0
 20
0
 30
0
  9
$EXTMIN
 10
198.628976751812
 20
57.49999985573851
 30
0
  9
$EXTMAX
 10
243.75
 20
97.50000000000024
 30
0
  9
$LIMMIN
 10
0
 20
0
  9
$LIMMAX
 10
420
 20
297
  9
$ORTHOMODE
 70
    0
  9
$REGENMODE
 70
    1
  9
$FILLMODE
 70
    1
  9
$QTEXTMODE
 70
    0
  9
$MIRRTEXT
 70
    0
  9
$LTSCALE
 40
1
  9
$ATTMODE
 70
    0
  9
$TEXTSIZE
 40
2.5
  9
$TRACEWID
 40
15.68
  9
$TEXTSTYLE
  7
STANDARD
  9
$CLAYER
  8
0
  9
$CELTYPE
  6
BYLAYER
  9
$CECOLOR
 62
  256
  9
$CELTSCALE
 40
1
  9
$DISPSILH
 70
    0
  9
$DIMSCALE
 40
1
  9
$DIMASZ
 40
2.5
  9
$DIMEXO
 40
0.625
  9
$DIMDLI
 40
3.75
  9
$DIMRND
 40
0
  9
$DIMDLE
 40
0
  9
$DIMEXE
 40
1.25
  9
$DIMTP
 40
0
  9
$DIMTM
 40
0
  9
$DIMTXT
 40
2.5
  9
$DIMCEN
 40
2.5
  9
$DIMTSZ
 40
0
  9
$DIMTOL
 70
    0
  9
$DIMLIM
 70
    0
  9
$DIMTIH
 70
    0
  9
$DIMTOH
 70
    0
  9
$DIMSE1
 70
    0
  9
$DIMSE2
 70
    0
  9
$DIMTAD
 70
    1
  9
$DIMZIN
 70
    8
  9
$DIMBLK
  1

  9
$DIMASO
 70
    1
  9
$DIMSHO
 70
    1
  9
$DIMPOST
  1

  9
$DIMAPOST
  1

  9
$DIMALT
 70
    0
  9
$DIMALTD
 70
    3
  9
$DIMALTF
 40
0.03937
  9
$DIMLFAC
 40
1
  9
$DIMTOFL
 70
    1
  9
$DIMTVP
 40
0
  9
$DIMTIX
 70
    0
  9
$DIMSOXD
 70
    0
  9
$DIMSAH
 70
    0
  9
$DIMBLK1
  1

  9
$DIMBLK2
  1

  9
$DIMSTYLE
  2
STANDARD
  9
$DIMCLRD
 70
    0
  9
$DIMCLRE
 70
    0
  9
$DIMCLRT
 70
    0
  9
$DIMTFAC
 40
1
  9
$DIMGAP
 40
0.625
  9
$DIMJUST
 70
    0
  9
$DIMSD1
 70
    0
  9
$DIMSD2
 70
    0
  9
$DIMTOLJ
 70
    0
  9
$DIMTZIN
 70
    8
  9
$DIMALTZ
 70
    0
  9
$DIMALTTZ
 70
    0
  9
$DIMUPT
 70
    0
  9
$DIMDEC
 70
    2
  9
$DIMTDEC
 70
    2
  9
$DIMALTU
 70
    2
  9
$DIMALTTD
 70
    3
  9
$DIMTXSTY
  7
STANDARD
  9
$DIMAUNIT
 70
    0
  9
$DIMADEC
 70
    0
  9
$DIMALTRND
 40
0
  9
$DIMAZIN
 70
    0
  9
$DIMDSEP
 70
   44
  9
$DIMATFIT
 70
    3
  9
$DIMFRAC
 70
    0
  9
$DIMLDRBLK
  1
STANDARD
  9
$DIMLUNIT
 70
    2
  9
$DIMLWD
 70
   -2
  9
$DIMLWE
 70
   -2
  9
$DIMTMOVE
 70
    0
  9
$DIMFXL
 40
1
  9
$DIMFXLON
 70
    0
  9
$DIMJOGANG
 40
0.7854
  9
$DIMTFILL
 70
    0
  9
$DIMTFILLCLR
 70
    0
  9
$DIMARCSYM
 70
    0
  9
$DIMLTYPE
  6

  9
$DIMLTEX1
  6

  9
$DIMLTEX2
  6

  9
$LUNITS
 70
    2
  9
$LUPREC
 70
    4
  9
$SKETCHINC
 40
1
  9
$FILLETRAD
 40
0
  9
$AUNITS
 70
    0
  9
$AUPREC
 70
    2
  9
$MENU
  1
.
  9
$ELEVATION
 40
0
  9
$PELEVATION
 40
0
  9
$THICKNESS
 40
0
  9
$LIMCHECK
 70
    0
  9
$CHAMFERA
 40
0
  9
$CHAMFERB
 40
0
  9
$CHAMFERC
 40
0
  9
$CHAMFERD
 40
0
  9
$SKPOLY
 70
    0
  9
$USRTIMER
 70
    1
  9
$ANGBASE
 50
0
  9
$ANGDIR
 70
    0
  9
$PDMODE
 70
   34
  9
$PDSIZE
 40
0
  9
$PLINEWID
 40
0
  9
$SPLFRAME
 70
    0
  9
$SPLINETYPE
 70
    2
  9
$SPLINESEGS
 70
    8
  9
$HANDSEED
  5
20000
  9
$SURFTAB1
 70
    6
  9
$SURFTAB2
 70
    6
  9
$SURFTYPE
 70
    6
  9
$SURFU
 70
    6
  9
$SURFV
 70
    6
  9
$UCSBASE
  2

  9
$UCSNAME
  2

  9
$UCSORG
 10
0
 20
0
 30
0
  9
$UCSXDIR
 10
1
 20
0
 30
0
  9
$UCSYDIR
 10
0
 20
1
 30
0
  9
$UCSORTHOREF
  2

  9
$UCSORTHOVIEW
 70
    0
  9
$UCSORGTOP
 10
0
 20
0
 30
0
  9
$UCSORGBOTTOM
 10
0
 20
0
 30
0
  9
$UCSORGLEFT
 10
0
 20
0
 30
0
  9
$UCSORGRIGHT
 10
0
 20
0
 30
0
  9
$UCSORGFRONT
 10
0
 20
0
 30
0
  9
$UCSORGBACK
 10
0
 20
0
 30
0
  9
$PUCSBASE
  2

  9
$PUCSNAME
  2

  9
$PUCSORG
 10
0
 20
0
 30
0
  9
$PUCSXDIR
 10
1
 20
0
 30
0
  9
$PUCSYDIR
 10
0
 20
1
 30
0
  9
$PUCSORTHOREF
  2

  9
$PUCSORTHOVIEW
 70
    0
  9
$PUCSORGTOP
 10
0
 20
0
 30
0
  9
$PUCSORGBOTTOM
 10
0
 20
0
 30
0
  9
$PUCSORGLEFT
 10
0
 20
0
 30
0
  9
$PUCSORGRIGHT
 10
0
 20
0
 30
0
  9
$PUCSORGFRONT
 10
0
 20
0
 30
0
  9
$PUCSORGBACK
 10
0
 20
0
 30
0
  9
$USERI1
 70
    0
  9
$USERI2
 70
    0
  9
$USERI3
 70
    0
  9
$USERI4
 70
    0
  9
$USERI5
 70
    0
  9
$USERR1
 40
0
  9
$USERR2
 40
0
  9
$USERR3
 40
0
  9
$USERR4
 40
0
  9
$USERR5
 40
0
  9
$WORLDVIEW
 70
    1
  9
$SHADEDGE
 70
    3
  9
$SHADEDIF
 70
   70
  9
$TILEMODE
 70
    1
  9
$MAXACTVP
 70
   64
  9
$PINSBASE
 10
-874.5013800490667
 20
-253.4374983736755
 30
0
  9
$PLIMCHECK
 70
    0
  9
$PEXTMIN
 10
0
 20
0
 30
0
  9
$PEXTMAX
 10
0
 20
0
 30
0
  9
$SNAPSTYLE
 70
    0
  9
$PLIMMIN
 10
0
 20
0
  9
$PLIMMAX
 10
297
 20
210
  9
$UNITMODE
 70
    0
  9
$VISRETAIN
 70
    1
  9
$PLINEGEN
 70
    0
  9
$PSLTSCALE
 70
    1
  9
$TREEDEPTH
 70
 3020
  9
$CMLSTYLE
  2
Standard
  9
$CMLJUST
 70
    0
  9
$CMLSCALE
 40
20
  9
$PROXYGRAPHICS
 70
    1
  9
$MEASUREMENT
 70
    1
  9
$CELWEIGHT
370
   -1
  9
$ENDCAPS
280
    0
  9
$JOINSTYLE
280
    0
  9
$LWDISPLAY
290
    0
  9
$INSUNITS
 70
    4
  9
$HYPERLINKBASE
  1

  9
$STYLESHEET
  1

  9
$XEDIT
290
    1
  9
$CEPSNTYPE
380
    0
  9
$PSTYLEMODE
290
    1
  9
$EXTNAMES
290
    1
  9
$PSVPSCALE
 40
4.625
  9
$OLESTARTUP
290
    0
  9
$SORTENTS
280
  127
  9
$INDEXCTL
280
    0
  9
$HIDETEXT
280
    1
  9
$XCLIPFRAME
290
    0
  9
$HALOGAP
280
    0
  9
$OBSCOLOR
 70
  257
  9
$OBSLTYPE
280
    0
  9
$INTERSECTIONDISPLAY
280
    0
  9
$INTERSECTIONCOLOR
 70
  257
  9
$DIMASSOC
280
    1
  9
$PROJECTNAME
  1

  9
$CAMERADISPLAY
290
    0
  9
$LENSLENGTH
 40
50
  9
$CAMERAHEIGHT
 40
0
  9
$STEPSPERSEC
 40
2
  9
$STEPSIZE
 40
50
  9
$3DDWFPREC
 40
2
  9
$PSOLWIDTH
 40
5
  9
$PSOLHEIGHT
 40
80
  9
$LOFTANG1
 40
1.570796326794897
  9
$LOFTANG2
 40
1.570796326794897
  9
$LOFTMAG1
 40
0
  9
$LOFTMAG2
 40
0
  9
$LOFTPARAM
 70
    7
  9
$LOFTNORMALS
280
    1
  9
$LATITUDE
 40
1
  9
$LONGITUDE
 40
1
  9
$NORTHDIRECTION
 40
0
  9
$TIMEZONE
 70
-8000
  9
$LIGHTGLYPHDISPLAY
280
    1
  9
$TILEMODELIGHTSYNCH
280
    1
  9
$SOLIDHIST
280
    1
  9
$SHOWHIST
280
    1
  9
$DWFFRAME
280
    2
  9
$DGNFRAME
280
    0
  9
$REALWORLDSCALE
290
    1
  9
$INTERFERECOLOR
 62
    1
  9
$CSHADOW
280
    0
  9
$SHADOWPLANELOCATION
 40
0
  0
ENDSEC
  0
SECTION
  2
CLASSES
  0
ENDSEC
  0
SECTION
  2
TABLES
  0
TABLE
  2
VPORT
  5
8
330
0
100
AcDbSymbolTable
 70
    1
  0
VPORT
  5
31
330
2
100
AcDbSymbolTableRecord
100
AcDbViewportTableRecord
  2
*ACTIVE
 70
    0
 10
0
 20
0
 11
1
 21
1
 12
129.0986105885658
 22
47.29063395548791
 13
0
 23
0
 14
10
 24
10
 15
10
 25
10
 16
0
 26
0
 36
1
 17
0
 27
0
 37
0
 40
46.2730551954038
 41
1.703703703703704
 42
50
 43
0
 44
0
 50
0
 51
0
 71
    0
 72
  100
 73
    1
 74
    3
 75
    0
 76
    1
 77
    0
 78
    0
281
    0
 65
    1
110
0
120
0
130
0
111
1
121
0
131
0
112
0
122
1
132
0
 79
    0
146
0
348
10020
 60
    7
 61
    5
292
1
282
    1
141
0
142
0
 63
  250
421
3358443
  0
ENDTAB
  0
TABLE
  2
LTYPE
  5
5
330
0
100
AcDbSymbolTable
 70
    4
  0
LTYPE
  5
14
330
5
100
AcDbSymbolTableRecord
100
AcDbLinetypeTableRecord
  2
ByBlock
 70
    0
  3

 72
   65
 73
    0
 40
0
  0
LTYPE
  5
15
330
5
100
AcDbSymbolTableRecord
100
AcDbLinetypeTableRecord
  2
ByLayer
 70
    0
  3

 72
   65
 73
    0
 40
0
  0
LTYPE
  5
16
330
5
100
AcDbSymbolTableRecord
100
AcDbLinetypeTableRecord
  2
Continuous
 70
    0
  3
Solid line
 72
   65
 73
    0
 40
0
  0
LTYPE
  5
32
330
5
100
AcDbSymbolTableRecord
100
AcDbLinetypeTableRecord
  2
DOT
 70
    0
  3
Dot . . . . . . . . . . . . . . . . . . . . . .
 72
   65
 73
    2
 40
6.35
 49
0
 74
    0
 49
-6.35
 74
    0
  0
LTYPE
  5
33
330
5
100
AcDbSymbolTableRecord
100
AcDbLinetypeTableRecord
  2
DOTTINY
 70
    0
  3
Dot (.15x) .....................................
 72
   65
 73
    2
 40
0.9525
 49
0
 74
    0
 49
-0.9525
 74
    0
  0
LTYPE
  5
34
330
5
100
AcDbSymbolTableRecord
100
AcDbLinetypeTableRecord
  2
DOT2
 70
    0
  3
Dot (.5x) .....................................
 72
   65
 73
    2
 40
3.175
 49
0
 74
    0
 49
-3.175
 74
    0
  0
LTYPE
  5
35
330
5
100
AcDbSymbolTableRecord
100
AcDbLinetypeTableRecord
  2
DOTX2
 70
    0
  3
Dot (2x) .  .  .  .  .  .  .  .  .  .  .  .  .
 72
   65
 73
    2
 40
12.7
 49
0
 74
    0
 49
-12.7
 74
    0
  0
LTYPE
  5
36
330
5
100
AcDbSymbolTableRecord
100
AcDbLinetypeTableRecord
  2
DASHED
 70
    0
  3
Dashed _ _ _ _ _ _ _ _ _ _ _ _ _ _ _ _ _
 72
   65
 73
    2
 40
19.05
 49
12.7
 74
    0
 49
-6.35
 74
    0
  0
LTYPE
  5
37
330
5
100
AcDbSymbolTableRecord
100
AcDbLinetypeTableRecord
  2
DASHEDTINY
 70
    0
  3
Dashed (.15x) _ _ _ _ _ _ _ _ _ _ _ _ _ _ _ _ _
 72
   65
 73
    2
 40
2.8575
 49
1.905
 74
    0
 49
-0.9525
 74
    0
  0
LTYPE
  5
38
330
5
100
AcDbSymbolTableRecord
100
AcDbLinetypeTableRecord
  2
DASHED2
 70
    0
  3
Dashed (.5x) _ _ _ _ _ _ _ _ _ _ _ _ _ _ _ _ _
 72
   65
 73
    2
 40
9.524999999999999
 49
6.35
 74
    0
 49
-3.175
 74
    0
  0
LTYPE
  5
39
330
5
100
AcDbSymbolTableRecord
100
AcDbLinetypeTableRecord
  2
DASHEDX2
 70
    0
  3
Dashed (2x) ____  ____  ____  ____  ____  ___
 72
   65
 73
    2
 40
38.09999999999999
 49
25.4
 74
    0
 49
-12.7
 74
    0
  0
LTYPE
  5
3A
330
5
100
AcDbSymbolTableRecord
100
AcDbLinetypeTableRecord
  2
DASHDOT
 70
    0
  3
Dash dot __ . __ . __ . __ . __ . __ . __ . __
 72
   65
 73
    4
 40
25.4
 49
12.7
 74
    0
 49
-6.35
 74
    0
 49
0
 74
    0
 49
-6.35
 74
    0
  0
LTYPE
  5
3B
330
5
100
AcDbSymbolTableRecord
100
AcDbLinetypeTableRecord
  2
DASHDOTTINY
 70
    0
  3
Dash dot (.15x) _._._._._._._._._._._._._._._.
 72
   65
 73
    4
 40
3.81
 49
1.905
 74
    0
 49
-0.9525
 74
    0
 49
0
 74
    0
 49
-0.9525
 74
    0
  0
LTYPE
  5
3C
330
5
100
AcDbSymbolTableRecord
100
AcDbLinetypeTableRecord
  2
DASHDOT2
 70
    0
  3
Dash dot (.5x) _._._._._._._._._._._._._._._.
 72
   65
 73
    4
 40
12.7
 49
6.35
 74
    0
 49
-3.175
 74
    0
 49
0
 74
    0
 49
-3.175
 74
    0
  0
LTYPE
  5
3D
330
5
100
AcDbSymbolTableRecord
100
AcDbLinetypeTableRecord
  2
DASHDOTX2
 70
    0
  3
Dash dot (2x) ____  .  ____  .  ____  .  ___
 72
   65
 73
    4
 40
50.8
 49
25.4
 74
    0
 49
-12.7
 74
    0
 49
0
 74
    0
 49
-12.7
 74
    0
  0
LTYPE
  5
3E
330
5
100
AcDbSymbolTableRecord
100
AcDbLinetypeTableRecord
  2
DIVIDE
 70
    0
  3
Divide ____ . . ____ . . ____ . . ____ . . ____
 72
   65
 73
    6
 40
31.75
 49
12.7
 74
    0
 49
-6.35
 74
    0
 49
0
 74
    0
 49
-6.35
 74
    0
 49
0
 74
    0
 49
-6.35
 74
    0
  0
LTYPE
  5
3F
330
5
100
AcDbSymbolTableRecord
100
AcDbLinetypeTableRecord
  2
DIVIDETINY
 70
    0
  3
Divide (.15x) __..__..__..__..__..__..__..__.._
 72
   65
 73
    6
 40
4.7625
 49
1.905
 74
    0
 49
-0.9525
 74
    0
 49
0
 74
    0
 49
-0.9525
 74
    0
 49
0
 74
    0
 49
-0.9525
 74
    0
  0
LTYPE
  5
40
330
5
100
AcDbSymbolTableRecord
100
AcDbLinetypeTableRecord
  2
DIVIDE2
 70
    0
  3
Divide (.5x) __..__..__..__..__..__..__..__.._
 72
   65
 73
    6
 40
15.875
 49
6.35
 74
    0
 49
-3.175
 74
    0
 49
0
 74
    0
 49
-3.175
 74
    0
 49
0
 74
    0
 49
-3.175
 74
    0
  0
LTYPE
  5
41
330
5
100
AcDbSymbolTableRecord
100
AcDbLinetypeTableRecord
  2
DIVIDEX2
 70
    0
  3
Divide (2x) ________  .  .  ________  .  .  _
 72
   65
 73
    6
 40
63.5
 49
25.4
 74
    0
 49
-12.7
 74
    0
 49
0
 74
    0
 49
-12.7
 74
    0
 49
0
 74
    0
 49
-12.7
 74
    0
  0
LTYPE
  5
42
330
5
100
AcDbSymbolTableRecord
100
AcDbLinetypeTableRecord
  2
BORDER
 70
    0
  3
Border __ __ . __ __ . __ __ . __ __ . __ __ .
 72
   65
 73
    6
 40
44.45
 49
12.7
 74
    0
 49
-6.35
 74
    0
 49
12.7
 74
    0
 49
-6.35
 74
    0
 49
0
 74
    0
 49
-6.35
 74
    0
  0
LTYPE
  5
43
330
5
100
AcDbSymbolTableRecord
100
AcDbLinetypeTableRecord
  2
BORDERTINY
 70
    0
  3
Border (.15x) __.__.__.__.__.__.__.__.__.__.__.
 72
   65
 73
    6
 40
6.6675
 49
1.905
 74
    0
 49
-0.9525
 74
    0
 49
1.905
 74
    0
 49
-0.9525
 74
    0
 49
0
 74
    0
 49
-0.9525
 74
    0
  0
LTYPE
  5
44
330
5
100
AcDbSymbolTableRecord
100
AcDbLinetypeTableRecord
  2
BORDER2
 70
    0
  3
Border (.5x) __.__.__.__.__.__.__.__.__.__.__.
 72
   65
 73
    6
 40
22.225
 49
6.35
 74
    0
 49
-3.175
 74
    0
 49
6.35
 74
    0
 49
-3.175
 74
    0
 49
0
 74
    0
 49
-3.175
 74
    0
  0
LTYPE
  5
45
330
5
100
AcDbSymbolTableRecord
100
AcDbLinetypeTableRecord
  2
BORDERX2
 70
    0
  3
Border (2x) ____  ____  .  ____  ____  .  ___
 72
   65
 73
    6
 40
88.89999999999999
 49
25.4
 74
    0
 49
-12.7
 74
    0
 49
25.4
 74
    0
 49
-12.7
 74
    0
 49
0
 74
    0
 49
-12.7
 74
    0
  0
LTYPE
  5
46
330
5
100
AcDbSymbolTableRecord
100
AcDbLinetypeTableRecord
  2
CENTER
 70
    0
  3
Center ____ _ ____ _ ____ _ ____ _ ____ _ ____
 72
   65
 73
    4
 40
50.8
 49
31.75
 74
    0
 49
-6.35
 74
    0
 49
6.35
 74
    0
 49
-6.35
 74
    0
  0
LTYPE
  5
47
330
5
100
AcDbSymbolTableRecord
100
AcDbLinetypeTableRecord
  2
CENTERTINY
 70
    0
  3
Center (.15x) ___ _ ___ _ ___ _ ___ _ ___ _ ___
 72
   65
 73
    4
 40
7.619999999999999
 49
4.7625
 74
    0
 49
-0.9525
 74
    0
 49
0.9525
 74
    0
 49
-0.9525
 74
    0
  0
LTYPE
  5
48
330
5
100
AcDbSymbolTableRecord
100
AcDbLinetypeTableRecord
  2
CENTER2
 70
    0
  3
Center (.5x) ___ _ ___ _ ___ _ ___ _ ___ _ ___
 72
   65
 73
    4
 40
28.575
 49
19.05
 74
    0
 49
-3.175
 74
    0
 49
3.175
 74
    0
 49
-3.175
 74
    0
  0
LTYPE
  5
49
330
5
100
AcDbSymbolTableRecord
100
AcDbLinetypeTableRecord
  2
CENTERX2
 70
    0
  3
Center (2x) ________  __  ________  __  _____
 72
   65
 73
    4
 40
101.6
 49
63.5
 74
    0
 49
-12.7
 74
    0
 49
12.7
 74
    0
 49
-12.7
 74
    0
  0
ENDTAB
  0
TABLE
  2
LAYER
  5
2
330
0
100
AcDbSymbolTable
 70
    1
  0
LAYER
  5
10
330
2
100
AcDbSymbolTableRecord
100
AcDbLayerTableRecord
  2
0
 70
    0
 62
    6
  6
CONTINUOUS
370
    0
390
F
  0
LAYER
  5
4A
330
2
100
AcDbSymbolTableRecord
100
AcDbLayerTableRecord
  2
Camera
 70
    4
 62
    5
  6
CONTINUOUS
370
    0
390
F
  0
LAYER
  5
4B
330
2
100
AcDbSymbolTableRecord
100
AcDbLayerTableRecord
  2
FoamPad
 70
    4
 62
  136
420
32896
  6
CONTINUOUS
370
    0
390
F
  0
LAYER
  5
4C
330
2
100
AcDbSymbolTableRecord
100
AcDbLayerTableRecord
  2
Guides
 70
    5
 62
    3
  6
CONTINUOUS
370
    0
390
F
1001
LibreCad
1070
    1
  0
LAYER
  5
4D
330
2
100
AcDbSymbolTableRecord
100
AcDbLayerTableRecord
  2
Measuremnts
 70
    5
 62
    1
  6
CONTINUOUS
370
    0
390
F
  0
LAYER
  5
4E
330
2
100
AcDbSymbolTableRecord
100
AcDbLayerTableRecord
  2
base
 70
    4
 62
    4
  6
CONTINUOUS
370
    0
390
F
  0
ENDTAB
  0
TABLE
  2
STYLE
  5
3
330
0
100
AcDbSymbolTable
 70
    3
  0
STYLE
  5
4F
330
2
100
AcDbSymbolTableRecord
100
AcDbTextStyleTableRecord
  2
standard
 70
    0
 40
0
 41
1
 50
0
 71
    0
 42
1
  3
standard
  4

  0
ENDTAB
  0
TABLE
  2
VIEW
  5
6
330
0
100
AcDbSymbolTable
 70
    0
  0
ENDTAB
  0
TABLE
  2
UCS
  5
7
330
0
100
AcDbSymbolTable
 70
    0
  0
ENDTAB
  0
TABLE
  2
APPID
  5
9
330
0
100
AcDbSymbolTable
 70
    1
  0
APPID
  5
12
330
9
100
AcDbSymbolTableRecord
100
AcDbRegAppTableRecord
  2
ACAD
 70
    0
  0
APPID
  5
50
330
9
100
AcDbSymbolTableRecord
100
AcDbRegAppTableRecord
  2
LibreCad
 70
    0
  0
ENDTAB
  0
TABLE
  2
DIMSTYLE
  5
A
330
0
100
AcDbSymbolTable
 70
    1
100
AcDbDimStyleTable
 71
    1
  0
DIMSTYLE
105
51
330
A
100
AcDbSymbolTableRecord
100
AcDbDimStyleTableRecord
  2
Standard
 70
    0
 40
1
 41
2.5
 42
0.625
 43
0.38
 44
1.25
 45
0
 46
0
 47
0
 48
0
 49
1
140
2.5
141
0.09
142
0
143
25.4
144
1
145
0
146
1
147
0.625
148
0
 71
    0
 72
    0
 73
    0
 74
    1
 75
    0
 76
    0
 77
    0
 78
    1
 79
    0
170
    0
171
    2
172
    0
173
    0
174
    0
175
    0
176
    0
177
    0
178
    0
179
    0
271
    2
272
    4
273
    2
274
    2
275
    0
276
    0
277
    2
278
    0
279
    0
280
    0
281
    0
282
    0
283
    1
284
    0
285
    0
286
    0
288
    0
289
    3
340
standard
341

371
   -2
372
   -2
  0
ENDTAB
  0
TABLE
  2
BLOCK_RECORD
  5
1
330
0
100
AcDbSymbolTable
 70
    2
  0
BLOCK_RECORD
  5
1F
330
1
100
AcDbSymbolTableRecord
100
AcDbBlockTableRecord
  2
*Model_Space
 70
    0
280
    1
281
    0
  0
BLOCK_RECORD
  5
1E
330
1
100
AcDbSymbolTableRecord
100
AcDbBlockTableRecord
  2
*Paper_Space
 70
    0
280
    1
281
    0
  0
BLOCK_RECORD
  5
52
330
1
100
AcDbSymbolTableRecord
100
AcDbBlockTableRecord
  2
*D4
 70
    0
280
    1
281
    0
  0
BLOCK_RECORD
  5
55
330
1
100
AcDbSymbolTableRecord
100
AcDbBlockTableRecord
  2
*D1
 70
    0
280
    1
281
    0
  0
BLOCK_RECORD
  5
58
330
1
100
AcDbSymbolTableRecord
100
AcDbBlockTableRecord
  2
*D2
 70
    0
280
    1
281
    0
  0
BLOCK_RECORD
  5
5B
330
1
100
AcDbSymbolTableRecord
100
AcDbBlockTableRecord
  2
*D5
 70
    0
280
    1
281
    0
  0
BLOCK_RECORD
  5
5E
330
1
100
AcDbSymbolTableRecord
100
AcDbBlockTableRecord
  2
*D3
 70
    0
280
    1
281
    0
  0
ENDTAB
  0
ENDSEC
  0
SECTION
  2
BLOCKS
  0
BLOCK
  5
20
330
1F
100
AcDbEntity
  8
0
100
AcDbBlockBegin
  2
*Model_Space
 70
    0
 10
0
 20
0
 30
0
  3
*Model_Space
  1

  0
ENDBLK
  5
21
330
1F
100
AcDbEntity
  8
0
100
AcDbBlockEnd
  0
BLOCK
  5
1C
330
1B
100
AcDbEntity
  8
0
100
AcDbBlockBegin
  2
*Paper_Space
 70
    0
 10
0
 20
0
 30
0
  3
*Paper_Space
  1

  0
ENDBLK
  5
1D
330
1F
100
AcDbEntity
  8
0
100
AcDbBlockEnd
  0
BLOCK
  5
53
330
52
100
AcDbEntity
  8
0
100
AcDbBlockBegin
  2
*D4
 70
    1
 10
0
 20
0
  3
*D4
  1

  0
SOLID
  5
61
100
AcDbEntity
  8
Measuremnts
  6
ByBlock
 62
    0
370
   -2
100
AcDbTrace
 10
238.3514568603168
 20
66.96777319211317
 30
0
 11
236.0839202012816
 21
68.099837861745
 31
0
 12
236.573108829253
 22
68.7735337511875
 32
0
 13
236.573108829253
 23
68.7735337511875
 33
0
  0
LINE
  5
62
100
AcDbEntity
  8
Measuremnts
  6
ByBlock
 62
    0
370
   -2
100
AcDbLine
 10
241.75
 20
64.5
 11
226.2138027900198
 21
75.78124887823165
  0
MTEXT
  5
63
100
AcDbEntity
  8
Measuremnts
  6
CONTINUOUS
 62
    0
370
   -2
100
AcDbMText
 10
233.3843142859331
 20
72.89171779395953
 30
0
 40
2.5
 41
10
 71
    5
 72
    1
  1
4.2000
  7
standard
210
0
220
0
230
1
 50
324.0155938119366
 73
    2
 44
1
  0
ENDBLK
  5
54
330
52
100
AcDbEntity
  8
0
100
AcDbBlockEnd
  0
BLOCK
  5
56
330
55
100
AcDbEntity
  8
0
100
AcDbBlockBegin
  2
*D1
 70
    1
 10
0
 20
0
  3
*D1
  1

  0
LINE
  5
64
100
AcDbEntity
  8
Measuremnts
  6
ByBlock
 62
    0
370
   -2
100
AcDbLine
 10
241.75
 20
96.6388657205239
 11
202.75
 21
96.6388657205239
  0
SOLID
  5
65
100
AcDbEntity
  8
Measuremnts
  6
ByBlock
 62
    0
370
   -2
100
AcDbTrace
 10
241.75
 20
96.6388657205239
 30
0
 11
239.25
 21
96.22258106275106
 31
0
 12
239.25
 22
97.05515037829673
 32
0
 13
239.25
 23
97.05515037829673
 33
0
  0
SOLID
  5
66
100
AcDbEntity
  8
Measuremnts
  6
ByBlock
 62
    0
370
   -2
100
AcDbTrace
 10
202.75
 20
96.6388657205239
 30
0
 11
205.25
 21
97.05515037829673
 31
0
 12
205.25
 22
96.22258106275106
 32
0
 13
205.25
 23
96.22258106275106
 33
0
  0
MTEXT
  5
67
100
AcDbEntity
  8
Measuremnts
  6
CONTINUOUS
 62
    0
370
   -2
100
AcDbMText
 10
222.25
 20
98.5138657205239
 30
0
 40
2.5
 41
11.66666666666682
 71
    5
 72
    1
  1
39.0000
  7
standard
210
0
220
0
230
1
 50
360
 73
    2
 44
1
  0
LINE
  5
68
100
AcDbEntity
  8
Measuremnts
  6
ByBlock
 62
    0
370
   -2
100
AcDbLine
 10
241.75
 20
79.48280158038969
 11
241.75
 21
97.8888657205239
  0
LINE
  5
69
100
AcDbEntity
  8
Measuremnts
  6
ByBlock
 62
    0
370
   -2
100
AcDbLine
 10
202.75
 20
79.60458969093855
 11
202.75
 21
97.8888657205239
  0
ENDBLK
  5
57
330
55
100
AcDbEntity
  8
0
100
AcDbBlockEnd
  0
BLOCK
  5
59
330
58
100
AcDbEntity
  8
0
100
AcDbBlockBegin
  2
*D2
 70
    1
 10
0
 20
0
  3
*D2
  1

  0
LINE
  5
6A
100
AcDbEntity
  8
Measuremnts
  6
ByBlock
 62
    0
370
   -2
100
AcDbLine
 10
202.75
 20
92.60564932291359
 11
239.75
 21
92.60564932291359
  0
SOLID
  5
6B
100
AcDbEntity
  8
Measuremnts
  6
ByBlock
 62
    0
370
   -2
100
AcDbTrace
 10
202.75
 20
92.60564932291359
 30
0
 11
205.25
 21
93.02193398068643
 31
0
 12
205.25
 22
92.18936466514076
 32
0
 13
205.25
 23
92.18936466514076
 33
0
  0
SOLID
  5
6C
100
AcDbEntity
  8
Measuremnts
  6
ByBlock
 62
    0
370
   -2
100
AcDbTrace
 10
239.75
 20
92.60564932291359
 30
0
 11
237.25
 21
92.18936466514076
 31
0
 12
237.25
 22
93.02193398068643
 32
0
 13
237.25
 23
93.02193398068643
 33
0
  0
MTEXT
  5
6D
100
AcDbEntity
  8
Measuremnts
  6
CONTINUOUS
 62
    0
370
   -2
100
AcDbMText
 10
221.25
 20
94.48064932291359
 30
0
 40
2.5
 41
11.66666666666682
 71
    5
 72
    1
  1
37.0000
  7
standard
210
0
220
0
230
1
 50
0
 73
    2
 44
1
  0
LINE
  5
6E
100
AcDbEntity
  8
Measuremnts
  6
ByBlock
 62
    0
370
   -2
100
AcDbLine
 10
202.75
 20
79.54369563566412
 11
202.75
 21
93.85564932291359
  0
LINE
  5
6F
100
AcDbEntity
  8
Measuremnts
  6
ByBlock
 62
    0
370
   -2
100
AcDbLine
 10
239.75
 20
78.99564913819424
 11
239.75
 21
93.85564932291359
  0
ENDBLK
  5
5A
330
58
100
AcDbEntity
  8
0
100
AcDbBlockEnd
  0
BLOCK
  5
5C
330
5B
100
AcDbEntity
  8
0
100
AcDbBlockBegin
  2
*D5
 70
    1
 10
0
 20
0
  3
*D5
  1

  0
LINE
  5
70
100
AcDbEntity
  8
Measuremnts
  6
ByBlock
 62
    0
370
   -2
100
AcDbLine
 10
238.8369003147599
 20
81.2
 11
238.8369003147599
 21
91.5
  0
SOLID
  5
71
100
AcDbEntity
  8
Measuremnts
  6
ByBlock
 62
    0
370
   -2
100
AcDbTrace
 10
238.8369003147599
 20
86.2
 30
0
 11
239.2531849725327
 21
83.7
 31
0
 12
238.420615656987
 22
83.7
 32
0
 13
238.420615656987
 23
83.7
 33
0
  0
SOLID
  5
72
100
AcDbEntity
  8
Measuremnts
  6
ByBlock
 62
    0
370
   -2
100
AcDbTrace
 10
238.8369003147599
 20
86.5
 30
0
 11
238.420615656987
 21
89
 31
0
 12
239.2531849725327
 22
89
 32
0
 13
239.2531849725327
 23
89
 33
0
  0
MTEXT
  5
73
100
AcDbEntity
  8
Measuremnts
  6
CONTINUOUS
 62
    0
370
   -2
100
AcDbMText
 10
236.9619003147599
 20
91.98611111111119
 30
0
 40
2.5
 41
9.722222222222378
 71
    5
 72
    1
  1
0.3000
  7
standard
210
0
220
0
230
1
 50
90
 73
    2
 44
1
  0
LINE
  5
74
100
AcDbEntity
  8
Measuremnts
  6
ByBlock
 62
    0
370
   -2
100
AcDbLine
 10
238.625
 20
86.2
 11
240.0869003147599
 21
86.2
  0
LINE
  5
75
100
AcDbEntity
  8
Measuremnts
  6
ByBlock
 62
    0
370
   -2
100
AcDbLine
 10
238.6312229667264
 20
86.5
 11
240.0869003147599
 21
86.5
  0
ENDBLK
  5
5D
330
5B
100
AcDbEntity
  8
0
100
AcDbBlockEnd
  0
BLOCK
  5
5F
330
5E
100
AcDbEntity
  8
0
100
AcDbBlockBegin
  2
*D3
 70
    1
 10
0
 20
0
  3
*D3
  1

  0
LINE
  5
76
100
AcDbEntity
  8
Measuremnts
  6
ByBlock
 62
    0
370
   -2
100
AcDbLine
 10
221.1868095409149
 20
104.3853016465141
 11
239.75
 21
104.3853016465141
  0
SOLID
  5
77
100
AcDbEntity
  8
Measuremnts
  6
ByBlock
 62
    0
370
   -2
100
AcDbTrace
 10
221.1868095409149
 20
104.3853016465141
 30
0
 11
223.6868095409149
 21
104.801586304287
 31
0
 12
223.6868095409149
 22
103.9690169887413
 32
0
 13
223.6868095409149
 23
103.9690169887413
 33
0
  0
SOLID
  5
78
100
AcDbEntity
  8
Measuremnts
  6
ByBlock
 62
    0
370
   -2
100
AcDbTrace
 10
239.75
 20
104.3853016465141
 30
0
 11
237.25
 21
103.9690169887413
 31
0
 12
237.25
 22
104.801586304287
 32
0
 13
237.25
 23
104.801586304287
 33
0
  0
MTEXT
  5
79
100
AcDbEntity
  8
Measuremnts
  6
CONTINUOUS
 62
    0
370
   -2
100
AcDbMText
 10
230.4684047704575
 20
106.2603016465141
 30
0
 40
2.5
 41
11.11111111111158
 71
    5
 72
    1
  1
18.5632
  7
standard
210
0
220
0
230
1
 50
0
 73
    2
 44
1
  0
LINE
  5
7A
100
AcDbEntity
  8
Measuremnts
  6
ByBlock
 62
    0
370
   -2
100
AcDbLine
 10
221.1868095409149
 20
108.2474526222693
 11
221.1868095409149
 21
103.1353016465141
  0
LINE
  5
7B
100
AcDbEntity
  8
Measuremnts
  6
ByBlock
 62
    0
370
   -2
100
AcDbLine
 10
239.75
 20
108.01128678144
 11
239.75
 21
103.1353016465141
  0
ENDBLK
  5
60
330
5E
100
AcDbEntity
  8
0
100
AcDbBlockEnd
  0
ENDSEC
  0
SECTION
  2
ENTITIES
  0
HATCH
  5
7C
100
AcDbEntity
  8
FoamPad
  6
ByLayer
 62
  256
370
   -1
100
AcDbHatch
 10
0
 20
0
 30
0
210
0
220
0
230
1
  2
ansi31
 70
    0
 71
    0
 91
    1
 92
    0
 93
    4
 72
    1
 10
204.7743363886351
 20
66.49999999999996
 11
237.6068616986302
 21
66.49999999999996
 72
    1
 10
237.6068616986302
 20
66.49999999999996
 11
237.6238264646822
 21
69.50000000000001
 72
    1
 10
237.6238264646822
 20
69.50000000000001
 11
204.7743363886351
 21
69.5
 72
    1
 10
204.7743363886351
 20
69.5
 11
204.7743363886351
 21
66.49999999999996
 97
    0
 75
    0
 76
    1
 52
0
 41
1
 77
    0
 78
    0
 98
    0
  0
LINE
  5
7D
100
AcDbEntity
  8
Guides
  6
ByLayer
 62
  256
370
   -1
100
AcDbLine
 10
82.25
 20
64.5
 11
232.25
 21
64.5
  0
LINE
  5
7E
100
AcDbEntity
  8
Guides
  6
ByLayer
 62
  256
370
   -1
100
AcDbLine
 10
243.75
 20
-10.5
 11
243.75
 21
139.5
  0
LINE
  5
7F
100
AcDbEntity
  8
Guides
  6
ByLayer
 62
  256
370
   -1
100
AcDbLine
 10
241.75
 20
-10.5
 11
241.75
 21
139.5
  0
LINE
  5
80
100
AcDbEntity
  8
Guides
  6
ByLayer
 62
  256
370
   -1
100
AcDbLine
 10
82.25
 20
66.5
 11
232.25
 21
66.5
  0
LINE
  5
81
100
AcDbEntity
  8
Guides
  6
ByLayer
 62
  256
370
   -1
100
AcDbLine
 10
82.25
 20
86.5
 11
232.25
 21
86.5
  0
LINE
  5
82
100
AcDbEntity
  8
Guides
  6
ByLayer
 62
  256
370
   -1
100
AcDbLine
 10
82.25
 20
88.5
 11
232.25
 21
88.5
  0
LINE
  5
83
100
AcDbEntity
  8
Guides
  6
ByLayer
 62
  256
370
   -1
100
AcDbLine
 10
239.75
 20
-10.5
 11
239.75
 21
139.5
  0
LINE
  5
84
100
AcDbEntity
  8
Guides
  6
ByLayer
 62
  256
370
   -1
100
AcDbLine
 10
202.75
 20
-10.49999999999999
 11
202.75
 21
139.5
  0
ARC
  5
85
100
AcDbEntity
  8
0
  6
ByLayer
 62
  256
370
   -1
100
AcDbCircle
 10
243.25
 20
65
 40
0.5
100
AcDbArc
 50
270
 51
0
  0
DIMENSION
  5
86
100
AcDbEntity
  8
Measuremnts
  6
ByLayer
 62
  256
370
   -1
100
AcDbDimension
  2
*D1
 10
202.75
 20
96.6388657205239
 30
0
 11
222.25
 21
98.5138657205239
 31
0
 70
   32
 71
    5
  3
Standard
 53
0
210
0
220
0
230
1
100
AcDbAlignedDimension
 13
241.75
 23
78.85780158038969
 33
0
 14
202.75
 24
78.97958969093855
 34
0
100
AcDbRotatedDimension
  0
DIMENSION
  5
87
100
AcDbEntity
  8
Measuremnts
  6
ByLayer
 62
  256
370
   -1
100
AcDbDimension
  2
*D2
 10
239.75
 20
92.60564932291359
 30
0
 11
221.25
 21
94.48064932291359
 31
0
 70
   32
 71
    5
  3
Standard
 53
0
210
0
220
0
230
1
100
AcDbAlignedDimension
 13
202.75
 23
78.91869563566412
 33
0
 14
239.75
 24
78.37064913819424
 34
0
100
AcDbRotatedDimension
  0
LINE
  5
88
100
AcDbEntity
  8
Guides
  6
ByLayer
 62
  256
370
   -1
100
AcDbLine
 10
200.75
 20
-10.49999999999999
 11
200.75
 21
139.5
  0
LINE
  5
89
100
AcDbEntity
  8
Guides
  6
ByLayer
 62
  256
370
   -1
100
AcDbLine
 10
198.75
 20
-10.49999999999999
 11
198.75
 21
139.5
  0
LINE
  5
8A
100
AcDbEntity
  8
Guides
  6
ByLayer
 62
  256
370
   -1
100
AcDbLine
 10
198.75
 20
86.38797602147687
 11
243.75
 21
66.5
  0
LINE
  5
8B
100
AcDbEntity
  8
Guides
  6
ByLayer
 62
  256
370
   -1
100
AcDbLine
 10
243.75
 20
86.5
 11
198.75
 21
66.5
  0
LINE
  5
8C
100
AcDbEntity
  8
Guides
  6
ByLayer
 62
  256
370
   -1
100
AcDbLine
 10
221.1868095409149
 20
1.471915351517751
 11
221.1868095409149
 21
151.4719153515177
  0
DIMENSION
  5
8D
100
AcDbEntity
  8
Measuremnts
  6
ByLayer
 62
  256
370
   -1
100
AcDbDimension
  2
*D3
 10
239.75
 20
104.3853016465141
 30
0
 11
230.4684047704575
 21
106.2603016465141
 31
0
 70
   32
 71
    5
  3
Standard
 53
0
210
0
220
0
230
1
100
AcDbAlignedDimension
 13
221.1868095409149
 23
108.8724526222693
 33
0
 14
239.75
 24
108.63628678144
 34
0
100
AcDbRotatedDimension
  0
ARC
  5
8E
100
AcDbEntity
  8
0
  6
ByLayer
 62
  256
370
   -1
100
AcDbCircle
 10
199.128976751812
 20
65
 40
0.5
100
AcDbArc
 50
180
 51
270
  0
LINE
  5
8F
100
AcDbEntity
  8
Guides
  6
ByLayer
 62
  256
370
   -1
100
AcDbLine
 10
82.25
 20
69.5
 11
232.25
 21
69.5
  0
DIMENSION
  5
90
100
AcDbEntity
  8
Measuremnts
  6
ByLayer
 62
  256
370
   -1
100
AcDbDimension
  2
*D4
 10
241.75
 20
64.5
 30
0
 11
233.3843142859331
 21
72.89171779395953
 31
0
 70
   36
 71
    5
  3
Standard
 53
0
210
0
220
0
230
1
100
AcDbRadialDimension
 15
238.3514568603168
 25
66.96777319211317
 35
0
 40
0
  0
LINE
  5
91
100
AcDbEntity
  8
Guides
  6
ByLayer
 62
  256
370
   -1
100
AcDbLine
 10
82.25
 20
66.7
 11
232.25
 21
66.7
  0
MTEXT
  5
92
100
AcDbEntity
  8
0
  6
ByLayer
 62
  256
370
   -1
100
AcDbMText
 10
221
 20
95
 30
0
 40
5
 41
37.5
 71
    5
 72
    1
  1
Top of Box
  7
standard
210
0
220
0
230
1
 50
0
 73
    2
 44
1
  0
LWPOLYLINE
  5
93
100
AcDbEntity
  8
Camera
  6
ByLayer
 62
  256
370
   -1
100
AcDbPolyline
 90
    4
 70
    1
 43
0
 10
204.3168561443526
 20
69.50000000000001
 10
238.0567629374744
 20
69.50000000000001
 10
238
 20
86.2
 10
204.3168561443526
 20
86.2
  0
MTEXT
  5
94
100
AcDbEntity
  8
FoamPad
  6
ByLayer
 62
  256
370
   -1
100
AcDbMText
 10
221
 20
68
 30
0
 40
2.5
 41
15.48611111111146
 71
    5
 72
    1
  1
Foam Pad
  7
standard
210
0
220
0
230
1
 50
0
 73
    2
 44
1
  0
CIRCLE
  5
95
100
AcDbEntity
  8
Camera
  6
ByLayer
 62
  256
370
   -1
100
AcDbCircle
 10
229.5937304214315
 20
77.85000000000001
 40
8.349999999999994
  0
MTEXT
  5
96
100
AcDbEntity
  8
Camera
  6
ByLayer
 62
  256
370
   -1
100
AcDbMText
 10
220.5981349736986
 20
78.1002900666234
 30
0
 40
3
 41
13.33333333333394
 71
    5
 72
    1
  1
Camera
  7
standard
210
0
220
0
230
1
 50
0
 73
    2
 44
1
  0
LINE
  5
97
100
AcDbEntity
  8
Guides
  6
ByLayer
 62
  256
370
   -1
100
AcDbLine
 10
166.55
 20
68.69523539267773
 11
316.5500000000001
 21
68.69523539267773
  0
LINE
  5
98
100
AcDbEntity
  8
Guides
  6
ByLayer
 62
  256
370
   -1
100
AcDbLine
 10
166.55
 20
68.89523539267773
 11
316.5500000000001
 21
68.89523539267773
  0
LINE
  5
99
100
AcDbEntity
  8
Guides
  6
ByLayer
 62
  256
370
   -1
100
AcDbLine
 10
166.55
 20
70.89523539267773
 11
316.5500000000001
 21
70.89523539267773
  0
LINE
  5
9A
100
AcDbEntity
  8
Guides
  6
ByLayer
 62
  256
370
   -1
100
AcDbLine
 10
82.25
 20
65
 11
232.25
 21
65
  0
LINE
  5
9B
100
AcDbEntity
  8
0
  6
ByLayer
 62
  256
370
   -1
100
AcDbLine
 10
242.25
 20
64.5
 11
243.25
 21
64.5
  0
LINE
  5
9C
100
AcDbEntity
  8
0
  6
ByLayer
 62
  256
370
   -1
100
AcDbLine
 10
241.75
 20
65
 11
241.75
 21
65
  0
ARC
  5
9D
100
AcDbEntity
  8
0
  6
ByLayer
 62
  256
370
   -1
100
AcDbCircle
 10
242.25
 20
65
 40
0.5
100
AcDbArc
 50
180
 51
270
  0
ARC
  5
9E
100
AcDbEntity
  8
0
  6
ByLayer
 62
  256
370
   -1
100
AcDbCircle
 10
241.7500000471523
 20
66.95071735576347
 40
1.950717355767146
100
AcDbArc
 50
90.00000138494144
 51
270.0001112675446
  0
LINE
  5
9F
100
AcDbEntity
  8
0
  6
ByLayer
 62
  256
370
   -1
100
AcDbLine
 10
200.1236190818299
 20
64.5
 11
199.1236190818299
 21
64.5
  0
LINE
  5
A0
100
AcDbEntity
  8
0
  6
ByLayer
 62
  256
370
   -1
100
AcDbLine
 10
200.6236190818299
 20
65
 11
200.6236190818299
 21
65
  0
ARC
  5
A1
100
AcDbEntity
  8
0
  6
ByLayer
 62
  256
370
   -1
100
AcDbCircle
 10
200.1236190818299
 20
65
 40
0.5
100
AcDbArc
 50
270
 51
360
  0
ARC
  5
A2
100
AcDbEntity
  8
0
  6
ByLayer
 62
  256
370
   -1
100
AcDbCircle
 10
200.6236190346775
 20
66.95071735576347
 40
1.950717355767146
100
AcDbArc
 50
269.9998887324554
 51
89.99999861505856
  0
LINE
  5
A3
100
AcDbEntity
  8
Guides
  6
ByLayer
 62
  256
370
   -1
100
AcDbLine
 10
204.7743363886351
 20
-8.049405209470734
 11
204.7743363886351
 21
141.9505947905293
  0
LINE
  5
A4
100
AcDbEntity
  8
Guides
  6
ByLayer
 62
  256
370
   -1
100
AcDbLine
 10
204.3168561443521
 20
-6.304764607322269
 11
204.3168561443521
 21
143.6952353926777
  0
LWPOLYLINE
  5
A5
100
AcDbEntity
  8
FoamPad
  6
ByLayer
 62
  256
370
   -1
100
AcDbPolyline
 90
    4
 70
    1
 43
0
 10
204.7743363886351
 20
66.49999999999996
 10
237.6068616986302
 20
66.49999999999996
 10
237.6238264646822
 20
69.50000000000001
 10
204.7743363886351
 20
69.5
  0
LINE
  5
A6
100
AcDbEntity
  8
base
  6
ByLayer
 62
  256
370
   -1
100
AcDbLine
 10
239.5500000000089
 20
64.5
 11
221.1868095409149
 21
64.5
  0
MTEXT
  5
A7
100
AcDbEntity
  8
base
  6
ByLayer
 62
  256
370
   -1
100
AcDbMText
 10
221
 20
60
 30
0
 40
5
 41
41.38889146032511
 71
    5
 72
    1
  1
Base of Box
  7
standard
210
0
220
0
230
1
 50
0
 73
    2
 44
1
  0
LINE
  5
A8
100
AcDbEntity
  8
base
  6
ByLayer
 62
  256
370
   -1
100
AcDbLine
 10
241.7601020514472
 20
64.5
 11
239.5500000000089
 21
64.5
  0
LINE
  5
A9
100
AcDbEntity
  8
base
  6
ByLayer
 62
  256
370
   -1
100
AcDbLine
 10
237.6238264646798
 20
66.49999999999996
 11
221.1868095409149
 21
66.49999999999997
  0
LINE
  5
AA
100
AcDbEntity
  8
base
  6
ByLayer
 62
  256
370
   -1
100
AcDbLine
 10
241.55
 20
71.09661346499983
 11
241.55
 21
69.09211529299401
  0
ARC
  5
AB
100
AcDbEntity
  8
base
  6
ByLayer
 62
  256
370
   -1
100
AcDbCircle
 10
241.7500000471523
 20
66.95071735576347
 40
4.150717355767146
100
AcDbArc
 50
92.76183523512958
 51
186.2339160748759
  0
ARC
  5
AC
100
AcDbEntity
  8
base
  6
ByLayer
 62
  256
370
   -1
100
AcDbCircle
 10
242.25
 20
65
 40
0.7
100
AcDbArc
 50
196.0081996854243
 51
225.5846914033041
  0
ARC
  5
AD
100
AcDbEntity
  8
base
  6
ByLayer
 62
  256
370
   -1
100
AcDbCircle
 10
241.7500000471523
 20
66.95071735576347
 40
2.150717355767146
100
AcDbArc
 50
95.33577264327708
 51
265.3901005758042
  0
LINE
  5
AE
100
AcDbEntity
  8
base
  6
ByLayer
 62
  256
370
   -1
100
AcDbLine
 10
202.8236190818209
 20
64.5
 11
221.1868095409149
 21
64.5
  0
LINE
  5
AF
100
AcDbEntity
  8
base
  6
ByLayer
 62
  256
370
   -1
100
AcDbLine
 10
200.6135170303826
 20
64.5
 11
202.8236190818209
 21
64.5
  0
LINE
  5
B0
100
AcDbEntity
  8
base
  6
ByLayer
 62
  256
370
   -1
100
AcDbLine
 10
204.7497926171501
 20
66.49999999999996
 11
221.1868095409149
 21
66.49999999999997
  0
LINE
  5
B1
100
AcDbEntity
  8
base
  6
ByLayer
 62
  256
370
   -1
100
AcDbLine
 10
200.8236190818299
 20
71.09661346499983
 11
200.8236190818299
 21
69.09211529299401
  0
ARC
  5
B2
100
AcDbEntity
  8
base
  6
ByLayer
 62
  256
370
   -1
100
AcDbCircle
 10
200.6236190346775
 20
66.95071735576347
 40
4.150717355767146
100
AcDbArc
 50
353.7660839251242
 51
87.2381647648704
  0
ARC
  5
B3
100
AcDbEntity
  8
base
  6
ByLayer
 62
  256
370
   -1
100
AcDbCircle
 10
200.1236190818299
 20
65
 40
0.7
100
AcDbArc
 50
314.4153085966959
 51
343.9918003145757
  0
ARC
  5
B4
100
AcDbEntity
  8
base
  6
ByLayer
 62
  256
370
   -1
100
AcDbCircle
 10
200.6236190346775
 20
66.95071735576347
 40
2.150717355767146
100
AcDbArc
 50
274.6098994241958
 51
84.66422735672295
  0
DIMENSION
  5
B5
100
AcDbEntity
  8
Measuremnts
  6
ByLayer
 62
  256
370
   -1
100
AcDbDimension
  2
*D5
 10
238.8369003147599
 20
86.5
 30
0
 11
236.9619003147599
 21
86.34999999999999
 31
0
 70
   32
 71
    5
  3
Standard
 53
0
210
0
220
0
230
1
100
AcDbAlignedDimension
 13
238
 23
86.2
 33
0
 14
238.0062229667264
 24
86.5
 34
0
 50
90
100
AcDbRotatedDimension
  0
LINE
  5
B6
100
AcDbEntity
  8
Guides
  6
ByLayer
 62
  256
370
   -1
100
AcDbLine
 10
166.55
 20
71.09661346500239
 11
316.55
 21
71.09661346500239
  0
LINE
  5
B7
100
AcDbEntity
  8
Guides
  6
ByLayer
 62
  256
370
   -1
100
AcDbLine
 10
166.55
 20
71.39661346500239
 11
316.55
 21
71.39661346500239
  0
LINE
  5
B8
100
AcDbEntity
  8
Guides
  6
ByLayer
 62
  256
370
   -1
100
AcDbLine
 10
238.3567612045314
 20
69.50101968759735
 11
238.299998267057
 21
86.20101968759734
  0
LINE
  5
B9
100
AcDbEntity
  8
0
  6
ByLayer
 62
  256
370
   -1
100
AcDbLine
 10
241.75
 20
71.39661346500245
 11
241.75
 21
68.90143471153061
  0
LINE
  5
BA
100
AcDbEntity
  8
0
  6
ByLayer
 62
  256
370
   -1
100
AcDbLine
 10
241.75
 20
71.39661346500239
 11
238.387779884611
 21
86.11137606525229
  0
LINE
  5
BB
100
AcDbEntity
  8
0
  6
ByLayer
 62
  256
370
   -1
100
AcDbLine
 10
221.1868095409149
 20
86.5
 11
237.9003423274933
 21
86.5
  0
ARC
  5
BC
100
AcDbEntity
  8
0
  6
ByLayer
 62
  256
370
   -1
100
AcDbCircle
 10
237.9003423274933
 20
86
 40
0.5
100
AcDbArc
 50
12.87073047210963
 51
90
  0
LINE
  5
BD
100
AcDbEntity
  8
Guides
  6
ByLayer
 62
  256
370
   -1
100
AcDbLine
 10
243.699750228471
 20
71.84211772601155
 11
240.337530113082
 21
86.55688032626145
  0
LINE
  5
BE
100
AcDbEntity
  8
0
  6
ByLayer
 62
  256
370
   -1
100
AcDbLine
 10
243.75
 20
65
 11
243.75
 21
71.62219950727815
  0
LINE
  5
BF
100
AcDbEntity
  8
0
  6
ByLayer
 62
  256
370
   -1
100
AcDbLine
 10
243.75
 20
71.62219950727817
 11
239.9823387324998
 21
88.11137606525229
  0
LINE
  5
C0
100
AcDbEntity
  8
0
  6
ByLayer
 62
  256
370
   -1
100
AcDbLine
 10
239.4949011753821
 20
88.5
 11
221.1868095409149
 21
88.5
  0
ARC
  5
C1
100
AcDbEntity
  8
0
  6
ByLayer
 62
  256
370
   -1
100
AcDbCircle
 10
239.4949011753821
 20
88
 40
0.5
100
AcDbArc
 50
12.87073047210892
 51
90
  0
LINE
  5
C2
100
AcDbEntity
  8
Guides
  6
ByLayer
 62
  256
370
   -1
100
AcDbLine
 10
168.75
 20
71.6221995072782
 11
318.75
 21
71.6221995072782
  0
LINE
  5
C3
100
AcDbEntity
  8
0
  6
ByLayer
 62
  256
370
   -1
100
AcDbLine
 10
198.628976751812
 20
65
 11
198.628976751812
 21
71.6221995072782
  0
LINE
  5
C4
100
AcDbEntity
  8
0
  6
ByLayer
 62
  256
370
   -1
100
AcDbLine
 10
200.6236190818299
 20
71.39661346500239
 11
200.6236190818299
 21
68.90143471153061
  0
LINE
  5
C5
100
AcDbEntity
  8
0
  6
ByLayer
 62
  256
370
   -1
100
AcDbLine
 10
200.6236190818298
 20
71.39661346500239
 11
203.9858391972189
 21
86.11137606525229
  0
LINE
  5
C6
100
AcDbEntity
  8
0
  6
ByLayer
 62
  256
370
   -1
100
AcDbLine
 10
221.1868095409149
 20
86.5
 11
204.4732767543366
 21
86.5
  0
ARC
  5
C7
100
AcDbEntity
  8
0
  6
ByLayer
 62
  256
370
   -1
100
AcDbCircle
 10
204.4732767543366
 20
86
 40
0.5
100
AcDbArc
 50
90
 51
167.1292695278903
  0
LINE
  5
C8
100
AcDbEntity
  8
0
  6
ByLayer
 62
  256
370
   -1
100
AcDbLine
 10
198.6236190818299
 20
71.62219950727817
 11
202.3912803493301
 21
88.11137606525229
  0
LINE
  5
C9
100
AcDbEntity
  8
0
  6
ByLayer
 62
  256
370
   -1
100
AcDbLine
 10
202.8787179064478
 20
88.5
 11
221.1868095409149
 21
88.5
  0
ARC
  5
CA
100
AcDbEntity
  8
0
  6
ByLayer
 62
  256
370
   -1
100
AcDbCircle
 10
202.8787179064478
 20
88
 40
0.5
100
AcDbArc
 50
90
 51
167.1292695278911
  0
ENDSEC
  0
SECTION
  2
OBJECTS
  0
DICTIONARY
  5
C
330
0
100
AcDbDictionary
281
    1
  3
ACAD_GROUP
350
D
  0
DICTIONARY
  5
D
330
C
100
AcDbDictionary
281
    1
  0
ENDSEC
  0
EOF
