solid Missile Rail Mount
facet normal 0.0 1.0 0.0
  outer loop
    vertex 7.049916206369744e-16 54.76875 3.96875
    vertex 0.7937500000000006 54.76875 0.0
    vertex 7.049916206369744e-16 54.76875 0.0
  endloop
endfacet
facet normal 0.0 1.0 0.0
  outer loop
    vertex 0.7937500000000006 54.76875 0.0
    vertex 7.049916206369744e-16 54.76875 3.96875
    vertex 0.7937500000000006 54.76875 2.3812499999999996
  endloop
endfacet
facet normal 0.0 1.0 0.0
  outer loop
    vertex 0.7937500000000006 54.76875 2.3812499999999996
    vertex 7.049916206369744e-16 54.76875 3.96875
    vertex 2.3812500000000005 54.76875 2.3812499999999996
  endloop
endfacet
facet normal 0.0 1.0 0.0
  outer loop
    vertex 2.3812500000000005 54.76875 2.3812499999999996
    vertex 7.049916206369744e-16 54.76875 3.96875
    vertex 2.3812500000000005 54.76875 3.175
  endloop
endfacet
facet normal 0.0 1.0 0.0
  outer loop
    vertex 2.3812500000000005 54.76875 3.175
    vertex 7.049916206369744e-16 54.76875 3.96875
    vertex 1.5875000000000006 54.76875 3.96875
  endloop
endfacet
facet normal 0.0 0.0 1.0
  outer loop
    vertex 1.5875000000000006 50.006249999999994 3.96875
    vertex 7.049916206369744e-16 54.76875 3.96875
    vertex 7.049916206369744e-16 50.006249999999994 3.96875
  endloop
endfacet
facet normal 0.0 0.0 1.0
  outer loop
    vertex 7.049916206369744e-16 54.76875 3.96875
    vertex 1.5875000000000006 50.006249999999994 3.96875
    vertex 1.5875000000000006 54.76875 3.96875
  endloop
endfacet
facet normal 0.7071067811865476 0.0 0.7071067811865476
  outer loop
    vertex 2.3812500000000005 54.76875 3.175
    vertex 1.5875000000000006 50.006249999999994 3.96875
    vertex 2.3812500000000005 50.006249999999994 3.175
  endloop
endfacet
facet normal 0.7071067811865476 0.0 0.7071067811865476
  outer loop
    vertex 1.5875000000000006 50.006249999999994 3.96875
    vertex 2.3812500000000005 54.76875 3.175
    vertex 1.5875000000000006 54.76875 3.96875
  endloop
endfacet
facet normal 1.0 0.0 0.0
  outer loop
    vertex 2.3812500000000005 54.76875 2.3812499999999996
    vertex 2.3812500000000005 50.006249999999994 3.175
    vertex 2.3812500000000005 50.006249999999994 2.3812499999999996
  endloop
endfacet
facet normal 1.0 0.0 0.0
  outer loop
    vertex 2.3812500000000005 50.006249999999994 3.175
    vertex 2.3812500000000005 54.76875 2.3812499999999996
    vertex 2.3812500000000005 54.76875 3.175
  endloop
endfacet
facet normal 0.0 0.0 -1.0
  outer loop
    vertex 2.3812500000000005 54.76875 2.3812499999999996
    vertex 0.7937500000000006 50.006249999999994 2.3812499999999996
    vertex 0.7937500000000006 54.76875 2.3812499999999996
  endloop
endfacet
facet normal 0.0 0.0 -1.0
  outer loop
    vertex 0.7937500000000006 50.006249999999994 2.3812499999999996
    vertex 2.3812500000000005 54.76875 2.3812499999999996
    vertex 2.3812500000000005 50.006249999999994 2.3812499999999996
  endloop
endfacet
facet normal -1.0 0.0 0.0
  outer loop
    vertex 7.049916206369744e-16 54.76875 3.96875
    vertex 7.049916206369744e-16 50.006249999999994 0.0
    vertex 7.049916206369744e-16 50.006249999999994 3.96875
  endloop
endfacet
facet normal -1.0 0.0 0.0
  outer loop
    vertex 7.049916206369744e-16 50.006249999999994 0.0
    vertex 7.049916206369744e-16 54.76875 3.96875
    vertex 7.049916206369744e-16 54.76875 0.0
  endloop
endfacet
facet normal 0.0 -1.0 0.0
  outer loop
    vertex 2.3812500000000005 50.006249999999994 3.175
    vertex 0.7937500000000006 50.006249999999994 2.3812499999999996
    vertex 2.3812500000000005 50.006249999999994 2.3812499999999996
  endloop
endfacet
facet normal 0.0 -1.0 0.0
  outer loop
    vertex 0.7937500000000006 50.006249999999994 2.3812499999999996
    vertex 7.049916206369744e-16 50.006249999999994 0.0
    vertex 0.7937500000000006 50.006249999999994 0.0
  endloop
endfacet
facet normal 0.0 -1.0 0.0
  outer loop
    vertex 7.049916206369744e-16 50.006249999999994 0.0
    vertex 0.7937500000000006 50.006249999999994 2.3812499999999996
    vertex 7.049916206369744e-16 50.006249999999994 3.96875
  endloop
endfacet
facet normal 0.0 -1.0 0.0
  outer loop
    vertex 7.049916206369744e-16 50.006249999999994 3.96875
    vertex 0.7937500000000006 50.006249999999994 2.3812499999999996
    vertex 2.3812500000000005 50.006249999999994 3.175
  endloop
endfacet
facet normal 0.0 -1.0 0.0
  outer loop
    vertex 7.049916206369744e-16 50.006249999999994 3.96875
    vertex 2.3812500000000005 50.006249999999994 3.175
    vertex 1.5875000000000006 50.006249999999994 3.96875
  endloop
endfacet
facet normal 1.0 0.0 0.0
  outer loop
    vertex 0.7937500000000006 54.76875 0.0
    vertex 0.7937500000000006 50.006249999999994 2.3812499999999996
    vertex 0.7937500000000006 50.006249999999994 0.0
  endloop
endfacet
facet normal 1.0 0.0 0.0
  outer loop
    vertex 0.7937500000000006 50.006249999999994 2.3812499999999996
    vertex 0.7937500000000006 54.76875 0.0
    vertex 0.7937500000000006 54.76875 2.3812499999999996
  endloop
endfacet
facet normal 0.0 0.0 -1.0
  outer loop
    vertex 0.7937500000000006 54.76875 0.0
    vertex 7.049916206369744e-16 50.006249999999994 0.0
    vertex 7.049916206369744e-16 54.76875 0.0
  endloop
endfacet
facet normal 0.0 0.0 -1.0
  outer loop
    vertex 7.049916206369744e-16 50.006249999999994 0.0
    vertex 0.7937500000000006 54.76875 0.0
    vertex 0.7937500000000006 50.006249999999994 0.0
  endloop
endfacet
facet normal 0.0 1.0 0.0
  outer loop
    vertex 0.0 4.762499999999999 3.96875
    vertex 0.79375 4.762499999999999 0.0
    vertex 0.0 4.762499999999999 0.0
  endloop
endfacet
facet normal 0.0 1.0 0.0
  outer loop
    vertex 0.79375 4.762499999999999 0.0
    vertex 0.0 4.762499999999999 3.96875
    vertex 0.79375 4.762499999999999 2.3812499999999996
  endloop
endfacet
facet normal 0.0 1.0 0.0
  outer loop
    vertex 0.79375 4.762499999999999 2.3812499999999996
    vertex 0.0 4.762499999999999 3.96875
    vertex 2.3812499999999996 4.762499999999999 2.3812499999999996
  endloop
endfacet
facet normal 0.0 1.0 0.0
  outer loop
    vertex 2.3812499999999996 4.762499999999999 2.3812499999999996
    vertex 0.0 4.762499999999999 3.96875
    vertex 2.3812499999999996 4.762499999999999 3.175
  endloop
endfacet
facet normal 0.0 1.0 0.0
  outer loop
    vertex 2.3812499999999996 4.762499999999999 3.175
    vertex 0.0 4.762499999999999 3.96875
    vertex 1.5875 4.762499999999999 3.96875
  endloop
endfacet
facet normal 0.0 0.0 1.0
  outer loop
    vertex 1.5875 0.0 3.96875
    vertex 0.0 4.762499999999999 3.96875
    vertex 0.0 0.0 3.96875
  endloop
endfacet
facet normal 0.0 0.0 1.0
  outer loop
    vertex 0.0 4.762499999999999 3.96875
    vertex 1.5875 0.0 3.96875
    vertex 1.5875 4.762499999999999 3.96875
  endloop
endfacet
facet normal 0.7071067811865476 0.0 0.7071067811865476
  outer loop
    vertex 2.3812499999999996 4.762499999999999 3.175
    vertex 1.5875 0.0 3.96875
    vertex 2.3812499999999996 0.0 3.175
  endloop
endfacet
facet normal 0.7071067811865476 0.0 0.7071067811865476
  outer loop
    vertex 1.5875 0.0 3.96875
    vertex 2.3812499999999996 4.762499999999999 3.175
    vertex 1.5875 4.762499999999999 3.96875
  endloop
endfacet
facet normal 1.0 0.0 0.0
  outer loop
    vertex 2.3812499999999996 4.762499999999999 2.3812499999999996
    vertex 2.3812499999999996 0.0 3.175
    vertex 2.3812499999999996 0.0 2.3812499999999996
  endloop
endfacet
facet normal 1.0 0.0 0.0
  outer loop
    vertex 2.3812499999999996 0.0 3.175
    vertex 2.3812499999999996 4.762499999999999 2.3812499999999996
    vertex 2.3812499999999996 4.762499999999999 3.175
  endloop
endfacet
facet normal 0.0 0.0 -1.0
  outer loop
    vertex 2.3812499999999996 4.762499999999999 2.3812499999999996
    vertex 0.79375 0.0 2.3812499999999996
    vertex 0.79375 4.762499999999999 2.3812499999999996
  endloop
endfacet
facet normal 0.0 0.0 -1.0
  outer loop
    vertex 0.79375 0.0 2.3812499999999996
    vertex 2.3812499999999996 4.762499999999999 2.3812499999999996
    vertex 2.3812499999999996 0.0 2.3812499999999996
  endloop
endfacet
facet normal -1.0 0.0 0.0
  outer loop
    vertex 0.0 4.762499999999999 3.96875
    vertex 0.0 0.0 0.0
    vertex 0.0 0.0 3.96875
  endloop
endfacet
facet normal -1.0 0.0 0.0
  outer loop
    vertex 0.0 0.0 0.0
    vertex 0.0 4.762499999999999 3.96875
    vertex 0.0 4.762499999999999 0.0
  endloop
endfacet
facet normal 0.0 -1.0 0.0
  outer loop
    vertex 2.3812499999999996 0.0 3.175
    vertex 0.79375 0.0 2.3812499999999996
    vertex 2.3812499999999996 0.0 2.3812499999999996
  endloop
endfacet
facet normal 0.0 -1.0 0.0
  outer loop
    vertex 0.79375 0.0 2.3812499999999996
    vertex 0.0 0.0 0.0
    vertex 0.79375 0.0 0.0
  endloop
endfacet
facet normal 0.0 -1.0 0.0
  outer loop
    vertex 0.0 0.0 0.0
    vertex 0.79375 0.0 2.3812499999999996
    vertex 0.0 0.0 3.96875
  endloop
endfacet
facet normal 0.0 -1.0 0.0
  outer loop
    vertex 0.0 0.0 3.96875
    vertex 0.79375 0.0 2.3812499999999996
    vertex 2.3812499999999996 0.0 3.175
  endloop
endfacet
facet normal 0.0 -1.0 0.0
  outer loop
    vertex 0.0 0.0 3.96875
    vertex 2.3812499999999996 0.0 3.175
    vertex 1.5875 0.0 3.96875
  endloop
endfacet
facet normal 1.0 0.0 0.0
  outer loop
    vertex 0.79375 4.762499999999999 0.0
    vertex 0.79375 0.0 2.3812499999999996
    vertex 0.79375 0.0 0.0
  endloop
endfacet
facet normal 1.0 0.0 0.0
  outer loop
    vertex 0.79375 0.0 2.3812499999999996
    vertex 0.79375 4.762499999999999 0.0
    vertex 0.79375 4.762499999999999 2.3812499999999996
  endloop
endfacet
facet normal 0.0 0.0 -1.0
  outer loop
    vertex 0.79375 4.762499999999999 0.0
    vertex 0.0 0.0 0.0
    vertex 0.0 4.762499999999999 0.0
  endloop
endfacet
facet normal 0.0 0.0 -1.0
  outer loop
    vertex 0.0 0.0 0.0
    vertex 0.79375 4.762499999999999 0.0
    vertex 0.79375 0.0 0.0
  endloop
endfacet
facet normal 0.0 1.0 0.0
  outer loop
    vertex 2.9609648066752924e-14 4.762499999999999 0.0
    vertex -0.7937499999999703 4.762499999999999 0.0
    vertex 2.9609648066752924e-14 4.762499999999999 3.96875
  endloop
endfacet
facet normal 0.0 1.0 0.0
  outer loop
    vertex -0.7937499999999703 4.762499999999999 2.3812499999999996
    vertex 2.9609648066752924e-14 4.762499999999999 3.96875
    vertex -0.7937499999999703 4.762499999999999 0.0
  endloop
endfacet
facet normal 0.0 1.0 0.0
  outer loop
    vertex -2.3812499999999703 4.762499999999999 2.3812499999999996
    vertex 2.9609648066752924e-14 4.762499999999999 3.96875
    vertex -0.7937499999999703 4.762499999999999 2.3812499999999996
  endloop
endfacet
facet normal 0.0 1.0 0.0
  outer loop
    vertex -2.3812499999999703 4.762499999999999 3.175
    vertex 2.9609648066752924e-14 4.762499999999999 3.96875
    vertex -2.3812499999999703 4.762499999999999 2.3812499999999996
  endloop
endfacet
facet normal 0.0 1.0 0.0
  outer loop
    vertex -1.5874999999999704 4.762499999999999 3.96875
    vertex 2.9609648066752924e-14 4.762499999999999 3.96875
    vertex -2.3812499999999703 4.762499999999999 3.175
  endloop
endfacet
facet normal 0.0 0.0 1.0
  outer loop
    vertex 2.9609648066752924e-14 0.0 3.96875
    vertex 2.9609648066752924e-14 4.762499999999999 3.96875
    vertex -1.5874999999999704 0.0 3.96875
  endloop
endfacet
facet normal 0.0 0.0 1.0
  outer loop
    vertex -1.5874999999999704 4.762499999999999 3.96875
    vertex -1.5874999999999704 0.0 3.96875
    vertex 2.9609648066752924e-14 4.762499999999999 3.96875
  endloop
endfacet
facet normal -0.7071067811865476 0.0 0.7071067811865476
  outer loop
    vertex -2.3812499999999703 0.0 3.175
    vertex -1.5874999999999704 0.0 3.96875
    vertex -2.3812499999999703 4.762499999999999 3.175
  endloop
endfacet
facet normal -0.7071067811865476 0.0 0.7071067811865476
  outer loop
    vertex -1.5874999999999704 4.762499999999999 3.96875
    vertex -2.3812499999999703 4.762499999999999 3.175
    vertex -1.5874999999999704 0.0 3.96875
  endloop
endfacet
facet normal -1.0 0.0 0.0
  outer loop
    vertex -2.3812499999999703 0.0 2.3812499999999996
    vertex -2.3812499999999703 0.0 3.175
    vertex -2.3812499999999703 4.762499999999999 2.3812499999999996
  endloop
endfacet
facet normal -1.0 0.0 0.0
  outer loop
    vertex -2.3812499999999703 4.762499999999999 3.175
    vertex -2.3812499999999703 4.762499999999999 2.3812499999999996
    vertex -2.3812499999999703 0.0 3.175
  endloop
endfacet
facet normal 0.0 0.0 -1.0
  outer loop
    vertex -0.7937499999999703 4.762499999999999 2.3812499999999996
    vertex -0.7937499999999703 0.0 2.3812499999999996
    vertex -2.3812499999999703 4.762499999999999 2.3812499999999996
  endloop
endfacet
facet normal 0.0 0.0 -1.0
  outer loop
    vertex -2.3812499999999703 0.0 2.3812499999999996
    vertex -2.3812499999999703 4.762499999999999 2.3812499999999996
    vertex -0.7937499999999703 0.0 2.3812499999999996
  endloop
endfacet
facet normal 1.0 0.0 0.0
  outer loop
    vertex 2.9609648066752924e-14 0.0 3.96875
    vertex 2.9609648066752924e-14 0.0 0.0
    vertex 2.9609648066752924e-14 4.762499999999999 3.96875
  endloop
endfacet
facet normal 1.0 0.0 0.0
  outer loop
    vertex 2.9609648066752924e-14 4.762499999999999 0.0
    vertex 2.9609648066752924e-14 4.762499999999999 3.96875
    vertex 2.9609648066752924e-14 0.0 0.0
  endloop
endfacet
facet normal 0.0 -1.0 0.0
  outer loop
    vertex -2.3812499999999703 0.0 2.3812499999999996
    vertex -0.7937499999999703 0.0 2.3812499999999996
    vertex -2.3812499999999703 0.0 3.175
  endloop
endfacet
facet normal 0.0 -1.0 0.0
  outer loop
    vertex -0.7937499999999703 0.0 0.0
    vertex 2.9609648066752924e-14 0.0 0.0
    vertex -0.7937499999999703 0.0 2.3812499999999996
  endloop
endfacet
facet normal 0.0 -1.0 0.0
  outer loop
    vertex 2.9609648066752924e-14 0.0 3.96875
    vertex -0.7937499999999703 0.0 2.3812499999999996
    vertex 2.9609648066752924e-14 0.0 0.0
  endloop
endfacet
facet normal 0.0 -1.0 0.0
  outer loop
    vertex -2.3812499999999703 0.0 3.175
    vertex -0.7937499999999703 0.0 2.3812499999999996
    vertex 2.9609648066752924e-14 0.0 3.96875
  endloop
endfacet
facet normal 0.0 -1.0 0.0
  outer loop
    vertex -1.5874999999999704 0.0 3.96875
    vertex -2.3812499999999703 0.0 3.175
    vertex 2.9609648066752924e-14 0.0 3.96875
  endloop
endfacet
facet normal -1.0 0.0 0.0
  outer loop
    vertex -0.7937499999999703 0.0 0.0
    vertex -0.7937499999999703 0.0 2.3812499999999996
    vertex -0.7937499999999703 4.762499999999999 0.0
  endloop
endfacet
facet normal -1.0 0.0 0.0
  outer loop
    vertex -0.7937499999999703 4.762499999999999 2.3812499999999996
    vertex -0.7937499999999703 4.762499999999999 0.0
    vertex -0.7937499999999703 0.0 2.3812499999999996
  endloop
endfacet
facet normal 0.0 0.0 -1.0
  outer loop
    vertex 2.9609648066752924e-14 4.762499999999999 0.0
    vertex 2.9609648066752924e-14 0.0 0.0
    vertex -0.7937499999999703 4.762499999999999 0.0
  endloop
endfacet
facet normal 0.0 0.0 -1.0
  outer loop
    vertex -0.7937499999999703 0.0 0.0
    vertex -0.7937499999999703 4.762499999999999 0.0
    vertex 2.9609648066752924e-14 0.0 0.0
  endloop
endfacet
facet normal 0.0 1.0 0.0
  outer loop
    vertex 3.03146396873899e-14 54.76875 0.0
    vertex -0.7937499999999696 54.76875 0.0
    vertex 3.03146396873899e-14 54.76875 3.96875
  endloop
endfacet
facet normal 0.0 1.0 0.0
  outer loop
    vertex -0.7937499999999696 54.76875 2.3812499999999996
    vertex 3.03146396873899e-14 54.76875 3.96875
    vertex -0.7937499999999696 54.76875 0.0
  endloop
endfacet
facet normal 0.0 1.0 0.0
  outer loop
    vertex -2.3812499999999694 54.76875 2.3812499999999996
    vertex 3.03146396873899e-14 54.76875 3.96875
    vertex -0.7937499999999696 54.76875 2.3812499999999996
  endloop
endfacet
facet normal 0.0 1.0 0.0
  outer loop
    vertex -2.3812499999999694 54.76875 3.175
    vertex 3.03146396873899e-14 54.76875 3.96875
    vertex -2.3812499999999694 54.76875 2.3812499999999996
  endloop
endfacet
facet normal 0.0 1.0 0.0
  outer loop
    vertex -1.5874999999999695 54.76875 3.96875
    vertex 3.03146396873899e-14 54.76875 3.96875
    vertex -2.3812499999999694 54.76875 3.175
  endloop
endfacet
facet normal 0.0 0.0 1.0
  outer loop
    vertex 3.03146396873899e-14 50.006249999999994 3.96875
    vertex 3.03146396873899e-14 54.76875 3.96875
    vertex -1.5874999999999695 50.006249999999994 3.96875
  endloop
endfacet
facet normal 0.0 0.0 1.0
  outer loop
    vertex -1.5874999999999695 54.76875 3.96875
    vertex -1.5874999999999695 50.006249999999994 3.96875
    vertex 3.03146396873899e-14 54.76875 3.96875
  endloop
endfacet
facet normal -0.7071067811865476 0.0 0.7071067811865476
  outer loop
    vertex -2.3812499999999694 50.006249999999994 3.175
    vertex -1.5874999999999695 50.006249999999994 3.96875
    vertex -2.3812499999999694 54.76875 3.175
  endloop
endfacet
facet normal -0.7071067811865476 0.0 0.7071067811865476
  outer loop
    vertex -1.5874999999999695 54.76875 3.96875
    vertex -2.3812499999999694 54.76875 3.175
    vertex -1.5874999999999695 50.006249999999994 3.96875
  endloop
endfacet
facet normal -1.0 0.0 0.0
  outer loop
    vertex -2.3812499999999694 50.006249999999994 2.3812499999999996
    vertex -2.3812499999999694 50.006249999999994 3.175
    vertex -2.3812499999999694 54.76875 2.3812499999999996
  endloop
endfacet
facet normal -1.0 0.0 0.0
  outer loop
    vertex -2.3812499999999694 54.76875 3.175
    vertex -2.3812499999999694 54.76875 2.3812499999999996
    vertex -2.3812499999999694 50.006249999999994 3.175
  endloop
endfacet
facet normal 0.0 0.0 -1.0
  outer loop
    vertex -0.7937499999999696 54.76875 2.3812499999999996
    vertex -0.7937499999999696 50.006249999999994 2.3812499999999996
    vertex -2.3812499999999694 54.76875 2.3812499999999996
  endloop
endfacet
facet normal 0.0 0.0 -1.0
  outer loop
    vertex -2.3812499999999694 50.006249999999994 2.3812499999999996
    vertex -2.3812499999999694 54.76875 2.3812499999999996
    vertex -0.7937499999999696 50.006249999999994 2.3812499999999996
  endloop
endfacet
facet normal 1.0 0.0 0.0
  outer loop
    vertex 3.03146396873899e-14 50.006249999999994 3.96875
    vertex 3.03146396873899e-14 50.006249999999994 0.0
    vertex 3.03146396873899e-14 54.76875 3.96875
  endloop
endfacet
facet normal 1.0 0.0 0.0
  outer loop
    vertex 3.03146396873899e-14 54.76875 0.0
    vertex 3.03146396873899e-14 54.76875 3.96875
    vertex 3.03146396873899e-14 50.006249999999994 0.0
  endloop
endfacet
facet normal 0.0 -1.0 0.0
  outer loop
    vertex -2.3812499999999694 50.006249999999994 2.3812499999999996
    vertex -0.7937499999999696 50.006249999999994 2.3812499999999996
    vertex -2.3812499999999694 50.006249999999994 3.175
  endloop
endfacet
facet normal 0.0 -1.0 0.0
  outer loop
    vertex -0.7937499999999696 50.006249999999994 0.0
    vertex 3.03146396873899e-14 50.006249999999994 0.0
    vertex -0.7937499999999696 50.006249999999994 2.3812499999999996
  endloop
endfacet
facet normal 0.0 -1.0 0.0
  outer loop
    vertex 3.03146396873899e-14 50.006249999999994 3.96875
    vertex -0.7937499999999696 50.006249999999994 2.3812499999999996
    vertex 3.03146396873899e-14 50.006249999999994 0.0
  endloop
endfacet
facet normal 0.0 -1.0 0.0
  outer loop
    vertex -2.3812499999999694 50.006249999999994 3.175
    vertex -0.7937499999999696 50.006249999999994 2.3812499999999996
    vertex 3.03146396873899e-14 50.006249999999994 3.96875
  endloop
endfacet
facet normal 0.0 -1.0 0.0
  outer loop
    vertex -1.5874999999999695 50.006249999999994 3.96875
    vertex -2.3812499999999694 50.006249999999994 3.175
    vertex 3.03146396873899e-14 50.006249999999994 3.96875
  endloop
endfacet
facet normal -1.0 0.0 0.0
  outer loop
    vertex -0.7937499999999696 50.006249999999994 0.0
    vertex -0.7937499999999696 50.006249999999994 2.3812499999999996
    vertex -0.7937499999999696 54.76875 0.0
  endloop
endfacet
facet normal -1.0 0.0 0.0
  outer loop
    vertex -0.7937499999999696 54.76875 2.3812499999999996
    vertex -0.7937499999999696 54.76875 0.0
    vertex -0.7937499999999696 50.006249999999994 2.3812499999999996
  endloop
endfacet
facet normal 0.0 0.0 -1.0
  outer loop
    vertex 3.03146396873899e-14 54.76875 0.0
    vertex 3.03146396873899e-14 50.006249999999994 0.0
    vertex -0.7937499999999696 54.76875 0.0
  endloop
endfacet
facet normal 0.0 0.0 -1.0
  outer loop
    vertex -0.7937499999999696 50.006249999999994 0.0
    vertex -0.7937499999999696 54.76875 0.0
    vertex 3.03146396873899e-14 50.006249999999994 0.0
  endloop
endfacet
facet normal -0.19148356300753422 1.9285425157979685e-16 -0.9814958202141972
  outer loop
    vertex 1.2070481896060619 56.356249999999996 -3.6717733623636706
    vertex 1.603703188141973 -1.5875 -3.7491582180504124
    vertex 1.2070481896060603 -1.5875 -3.671773362363682
  endloop
endfacet
facet normal -0.19148356300753422 1.9285425157979685e-16 -0.9814958202141972
  outer loop
    vertex 1.603703188141973 -1.5875 -3.7491582180504124
    vertex 1.2070481896060619 56.356249999999996 -3.6717733623636706
    vertex 1.6037031881419725 56.356249999999996 -3.749158218050401
  endloop
endfacet
facet normal 0.2981678097258331 9.380172206410221e-17 -0.9545134662451336
  outer loop
    vertex -1.9954994651955058 56.356249999999996 -3.848250503522825
    vertex -2.3812499999999703 -1.5874999999999997 -3.96875
    vertex -2.3812499999999703 56.356249999999996 -3.96875
  endloop
endfacet
facet normal 0.2981678097258331 9.380172206410221e-17 -0.9545134662451336
  outer loop
    vertex -2.3812499999999703 -1.5874999999999997 -3.96875
    vertex -1.9954994651955058 56.356249999999996 -3.848250503522825
    vertex -1.9954994651955056 -1.5874999999999997 -3.8482505035228365
  endloop
endfacet
facet normal -3.6540804592900066e-17 -1.0 9.806084749624813e-18
  outer loop
    vertex 2.3812500000000005 -1.5875 0.0
    vertex 1.9954994651955351 -1.5875 -3.8482505035228365
    vertex 2.3812500000000005 -1.5875 -3.96875
  endloop
endfacet
facet normal -3.6540804592900066e-17 -1.0 9.806084749624813e-18
  outer loop
    vertex 1.9954994651955351 -1.5875 -3.8482505035228365
    vertex 2.3812500000000005 -1.5875 0.0
    vertex 1.603703188141973 -1.5875 -3.7491582180504124
  endloop
endfacet
facet normal -3.6540804592900066e-17 -1.0 9.806084749624813e-18
  outer loop
    vertex 1.603703188141973 -1.5875 -3.7491582180504124
    vertex 2.3812500000000005 -1.5875 0.0
    vertex 1.2070481896060603 -1.5875 -3.671773362363682
  endloop
endfacet
facet normal -3.6540804592900066e-17 -1.0 9.806084749624813e-18
  outer loop
    vertex 1.2070481896060603 -1.5875 -3.671773362363682
    vertex 2.3812500000000005 -1.5875 0.0
    vertex 0.8067362107682853 -1.5875 -3.616330388488129
  endloop
endfacet
facet normal -3.6540804592900066e-17 -1.0 9.806084749624813e-18
  outer loop
    vertex 0.8067362107682853 -1.5875 -3.616330388488129
    vertex 2.3812500000000005 -1.5875 0.0
    vertex 0.40398007232115607 -1.5875 -3.582997271377105
  endloop
endfacet
facet normal -3.6540804592900066e-17 -1.0 9.806084749624813e-18
  outer loop
    vertex 0.40398007232115607 -1.5875 -3.582997271377105
    vertex 2.3812500000000005 -1.5875 0.0
    vertex 1.515731984369495e-14 -1.5875 -3.571875
  endloop
endfacet
facet normal -3.6540804592900066e-17 -1.0 9.806084749624813e-18
  outer loop
    vertex -1.9954994651955056 -1.5874999999999997 -3.8482505035228365
    vertex -2.3812499999999703 -1.5874999999999997 0.0
    vertex -2.3812499999999703 -1.5874999999999997 -3.96875
  endloop
endfacet
facet normal -3.6540804592900066e-17 -1.0 9.806084749624813e-18
  outer loop
    vertex -2.3812499999999703 -1.5874999999999997 0.0
    vertex -1.9954994651955056 -1.5874999999999997 -3.8482505035228365
    vertex -1.6037031881419432 -1.5874999999999997 -3.749158218050411
  endloop
endfacet
facet normal -3.6540804592900066e-17 -1.0 9.806084749624813e-18
  outer loop
    vertex -2.3812499999999703 -1.5874999999999997 0.0
    vertex -1.6037031881419432 -1.5874999999999997 -3.749158218050411
    vertex -1.2070481896060308 -1.5875 -3.671773362363682
  endloop
endfacet
facet normal -3.6540804592900066e-17 -1.0 9.806084749624813e-18
  outer loop
    vertex -2.3812499999999703 -1.5874999999999997 0.0
    vertex -1.2070481896060308 -1.5875 -3.671773362363682
    vertex -0.8067362107682553 -1.5875 -3.61633038848813
  endloop
endfacet
facet normal -3.6540804592900066e-17 -1.0 9.806084749624813e-18
  outer loop
    vertex -2.3812499999999703 -1.5874999999999997 0.0
    vertex -0.8067362107682553 -1.5875 -3.61633038848813
    vertex -0.4039800723211254 -1.5875 -3.582997271377105
  endloop
endfacet
facet normal -3.6540804592900066e-17 -1.0 9.806084749624813e-18
  outer loop
    vertex -2.3812499999999703 -1.5874999999999997 0.0
    vertex -0.4039800723211254 -1.5875 -3.582997271377105
    vertex 1.515731984369495e-14 -1.5875 -3.571875
  endloop
endfacet
facet normal -3.6540804592900066e-17 -1.0 9.806084749624813e-18
  outer loop
    vertex -2.3812499999999703 -1.5874999999999997 0.0
    vertex 1.515731984369495e-14 -1.5875 -3.571875
    vertex 2.3812500000000005 -1.5875 0.0
  endloop
endfacet
facet normal -0.0 1.0 -0.0
  outer loop
    vertex -2.3812499999999703 56.356249999999996 0.0
    vertex -1.9954994651955058 56.356249999999996 -3.848250503522825
    vertex -2.3812499999999703 56.356249999999996 -3.96875
  endloop
endfacet
facet normal -0.0 1.0 -0.0
  outer loop
    vertex -1.9954994651955058 56.356249999999996 -3.848250503522825
    vertex -2.3812499999999703 56.356249999999996 0.0
    vertex -1.6037031881419437 56.356249999999996 -3.7491582180503995
  endloop
endfacet
facet normal -0.0 1.0 -0.0
  outer loop
    vertex -1.6037031881419437 56.356249999999996 -3.7491582180503995
    vertex -2.3812499999999703 56.356249999999996 0.0
    vertex -1.2070481896060294 56.356249999999996 -3.6717733623636706
  endloop
endfacet
facet normal -0.0 1.0 -0.0
  outer loop
    vertex -1.2070481896060294 56.356249999999996 -3.6717733623636706
    vertex -2.3812499999999703 56.356249999999996 0.0
    vertex -0.806736210768254 56.356249999999996 -3.616330388488119
  endloop
endfacet
facet normal -0.0 1.0 -0.0
  outer loop
    vertex -0.806736210768254 56.356249999999996 -3.616330388488119
    vertex -2.3812499999999703 56.356249999999996 0.0
    vertex -0.40398007232112276 56.356249999999996 -3.582997271377094
  endloop
endfacet
facet normal -0.0 1.0 -0.0
  outer loop
    vertex -0.40398007232112276 56.356249999999996 -3.582997271377094
    vertex -2.3812499999999703 56.356249999999996 0.0
    vertex 1.7272294705605872e-14 56.356249999999996 -3.5718749999999884
  endloop
endfacet
facet normal -0.0 1.0 -0.0
  outer loop
    vertex 1.995499465195535 56.356249999999996 -3.848250503522825
    vertex 2.3812500000000005 56.356249999999996 0.0
    vertex 2.3812500000000005 56.356249999999996 -3.96875
  endloop
endfacet
facet normal -0.0 1.0 -0.0
  outer loop
    vertex 2.3812500000000005 56.356249999999996 0.0
    vertex 1.995499465195535 56.356249999999996 -3.848250503522825
    vertex 1.6037031881419725 56.356249999999996 -3.749158218050401
  endloop
endfacet
facet normal -0.0 1.0 -0.0
  outer loop
    vertex 2.3812500000000005 56.356249999999996 0.0
    vertex 1.6037031881419725 56.356249999999996 -3.749158218050401
    vertex 1.2070481896060619 56.356249999999996 -3.6717733623636706
  endloop
endfacet
facet normal -0.0 1.0 -0.0
  outer loop
    vertex 2.3812500000000005 56.356249999999996 0.0
    vertex 1.2070481896060619 56.356249999999996 -3.6717733623636706
    vertex 0.8067362107682867 56.356249999999996 -3.6163303884881177
  endloop
endfacet
facet normal -0.0 1.0 -0.0
  outer loop
    vertex 2.3812500000000005 56.356249999999996 0.0
    vertex 0.8067362107682867 56.356249999999996 -3.6163303884881177
    vertex 0.40398007232115873 56.356249999999996 -3.582997271377094
  endloop
endfacet
facet normal -0.0 1.0 -0.0
  outer loop
    vertex 2.3812500000000005 56.356249999999996 0.0
    vertex 0.40398007232115873 56.356249999999996 -3.582997271377094
    vertex 1.7272294705605872e-14 56.356249999999996 -3.5718749999999884
  endloop
endfacet
facet normal -0.0 1.0 -0.0
  outer loop
    vertex 2.3812500000000005 56.356249999999996 0.0
    vertex 1.7272294705605872e-14 56.356249999999996 -3.5718749999999884
    vertex -2.3812499999999703 56.356249999999996 0.0
  endloop
endfacet
facet normal -0.13718986857586146 1.961212004875691e-16 -0.9905447692861428
  outer loop
    vertex 0.8067362107682867 56.356249999999996 -3.6163303884881177
    vertex 1.2070481896060603 -1.5875 -3.671773362363682
    vertex 0.8067362107682853 -1.5875 -3.616330388488129
  endloop
endfacet
facet normal -0.13718986857586146 1.961212004875691e-16 -0.9905447692861428
  outer loop
    vertex 1.2070481896060603 -1.5875 -3.671773362363682
    vertex 0.8067362107682867 56.356249999999996 -3.6163303884881177
    vertex 1.2070481896060619 56.356249999999996 -3.6717733623636706
  endloop
endfacet
facet normal 0.19148356300753003 1.8934367313675636e-16 -0.981495820214198
  outer loop
    vertex -1.2070481896060294 56.356249999999996 -3.6717733623636706
    vertex -1.6037031881419432 -1.5874999999999997 -3.749158218050411
    vertex -1.6037031881419437 56.356249999999996 -3.7491582180503995
  endloop
endfacet
facet normal 0.19148356300753003 1.8934367313675636e-16 -0.981495820214198
  outer loop
    vertex -1.6037031881419432 -1.5874999999999997 -3.749158218050411
    vertex -1.2070481896060294 56.356249999999996 -3.6717733623636706
    vertex -1.2070481896060308 -1.5875 -3.671773362363682
  endloop
endfacet
facet normal 0.02752130417670404 1.934762907938844e-16 -0.9996212171699906
  outer loop
    vertex -0.40398007232112276 56.356249999999996 -3.582997271377094
    vertex 1.515731984369495e-14 -1.5875 -3.571875
    vertex -0.4039800723211254 -1.5875 -3.582997271377105
  endloop
endfacet
facet normal 0.02752130417670404 1.934762907938844e-16 -0.9996212171699906
  outer loop
    vertex 1.515731984369495e-14 -1.5875 -3.571875
    vertex -0.40398007232112276 56.356249999999996 -3.582997271377094
    vertex 1.7272294705605872e-14 56.356249999999996 -3.5718749999999884
  endloop
endfacet
facet normal 0.1371898685758579 1.8944453853301713e-16 -0.9905447692861434
  outer loop
    vertex -1.2070481896060294 56.356249999999996 -3.6717733623636706
    vertex -0.8067362107682553 -1.5875 -3.61633038848813
    vertex -1.2070481896060308 -1.5875 -3.671773362363682
  endloop
endfacet
facet normal 0.1371898685758579 1.8944453853301713e-16 -0.9905447692861434
  outer loop
    vertex -0.8067362107682553 -1.5875 -3.61633038848813
    vertex -1.2070481896060294 56.356249999999996 -3.6717733623636706
    vertex -0.806736210768254 56.356249999999996 -3.616330388488119
  endloop
endfacet
facet normal -0.24519712184554945 1.872554200639976e-16 -0.9694732443129408
  outer loop
    vertex 1.995499465195535 56.356249999999996 -3.848250503522825
    vertex 1.603703188141973 -1.5875 -3.7491582180504124
    vertex 1.6037031881419725 56.356249999999996 -3.749158218050401
  endloop
endfacet
facet normal -0.24519712184554945 1.872554200639976e-16 -0.9694732443129408
  outer loop
    vertex 1.603703188141973 -1.5875 -3.7491582180504124
    vertex 1.995499465195535 56.356249999999996 -3.848250503522825
    vertex 1.9954994651955351 -1.5875 -3.8482505035228365
  endloop
endfacet
facet normal 0.08248053154489475 1.911190846920653e-16 -0.9965926760297167
  outer loop
    vertex -0.806736210768254 56.356249999999996 -3.616330388488119
    vertex -0.4039800723211254 -1.5875 -3.582997271377105
    vertex -0.8067362107682553 -1.5875 -3.61633038848813
  endloop
endfacet
facet normal 0.08248053154489475 1.911190846920653e-16 -0.9965926760297167
  outer loop
    vertex -0.4039800723211254 -1.5875 -3.582997271377105
    vertex -0.806736210768254 56.356249999999996 -3.616330388488119
    vertex -0.40398007232112276 56.356249999999996 -3.582997271377094
  endloop
endfacet
facet normal -0.02752130417670398 1.957330675997132e-16 -0.9996212171699906
  outer loop
    vertex 1.7272294705605872e-14 56.356249999999996 -3.5718749999999884
    vertex 0.40398007232115607 -1.5875 -3.582997271377105
    vertex 1.515731984369495e-14 -1.5875 -3.571875
  endloop
endfacet
facet normal -0.02752130417670398 1.957330675997132e-16 -0.9996212171699906
  outer loop
    vertex 0.40398007232115607 -1.5875 -3.582997271377105
    vertex 1.7272294705605872e-14 56.356249999999996 -3.5718749999999884
    vertex 0.40398007232115873 56.356249999999996 -3.582997271377094
  endloop
endfacet
facet normal -0.0 -0.0 1.0
  outer loop
    vertex 2.3812500000000005 -1.5875 0.0
    vertex -2.3812499999999703 56.356249999999996 0.0
    vertex -2.3812499999999703 -1.5874999999999997 0.0
  endloop
endfacet
facet normal -0.0 -0.0 1.0
  outer loop
    vertex -2.3812499999999703 56.356249999999996 0.0
    vertex 2.3812500000000005 -1.5875 0.0
    vertex 2.3812500000000005 56.356249999999996 0.0
  endloop
endfacet
facet normal -0.08248053154489168 1.9689279830225475e-16 -0.9965926760297169
  outer loop
    vertex 0.40398007232115873 56.356249999999996 -3.582997271377094
    vertex 0.8067362107682853 -1.5875 -3.616330388488129
    vertex 0.40398007232115607 -1.5875 -3.582997271377105
  endloop
endfacet
facet normal -0.08248053154489168 1.9689279830225475e-16 -0.9965926760297169
  outer loop
    vertex 0.8067362107682853 -1.5875 -3.616330388488129
    vertex 0.40398007232115873 56.356249999999996 -3.582997271377094
    vertex 0.8067362107682867 56.356249999999996 -3.6163303884881177
  endloop
endfacet
facet normal 1.0 -0.0 -0.0
  outer loop
    vertex 2.3812500000000005 56.356249999999996 -3.96875
    vertex 2.3812500000000005 -1.5875 0.0
    vertex 2.3812500000000005 -1.5875 -3.96875
  endloop
endfacet
facet normal 1.0 -0.0 -0.0
  outer loop
    vertex 2.3812500000000005 -1.5875 0.0
    vertex 2.3812500000000005 56.356249999999996 -3.96875
    vertex 2.3812500000000005 56.356249999999996 0.0
  endloop
endfacet
facet normal 0.2451971218455527 1.901978244622143e-16 -0.96947324431294
  outer loop
    vertex -1.6037031881419437 56.356249999999996 -3.7491582180503995
    vertex -1.9954994651955056 -1.5874999999999997 -3.8482505035228365
    vertex -1.9954994651955058 56.356249999999996 -3.848250503522825
  endloop
endfacet
facet normal 0.2451971218455527 1.901978244622143e-16 -0.96947324431294
  outer loop
    vertex -1.9954994651955056 -1.5874999999999997 -3.8482505035228365
    vertex -1.6037031881419437 56.356249999999996 -3.7491582180503995
    vertex -1.6037031881419432 -1.5874999999999997 -3.749158218050411
  endloop
endfacet
facet normal -0.29816780972583246 9.201269153197266e-17 -0.9545134662451338
  outer loop
    vertex 2.3812500000000005 56.356249999999996 -3.96875
    vertex 1.9954994651955351 -1.5875 -3.8482505035228365
    vertex 1.995499465195535 56.356249999999996 -3.848250503522825
  endloop
endfacet
facet normal -0.29816780972583246 9.201269153197266e-17 -0.9545134662451338
  outer loop
    vertex 1.9954994651955351 -1.5875 -3.8482505035228365
    vertex 2.3812500000000005 56.356249999999996 -3.96875
    vertex 2.3812500000000005 -1.5875 -3.96875
  endloop
endfacet
facet normal -1.0 0.0 0.0
  outer loop
    vertex -2.3812499999999703 56.356249999999996 0.0
    vertex -2.3812499999999703 -1.5874999999999997 -3.96875
    vertex -2.3812499999999703 -1.5874999999999997 0.0
  endloop
endfacet
facet normal -1.0 0.0 0.0
  outer loop
    vertex -2.3812499999999703 -1.5874999999999997 -3.96875
    vertex -2.3812499999999703 56.356249999999996 0.0
    vertex -2.3812499999999703 56.356249999999996 -3.96875
  endloop
endfacet
endsolid Missile Rail Mount
