999
dxfrw 0.6.3
  0
SECTION
  2
HEADER
  9
$ACADVER
  1
AC1021
  9
$DWGCODEPAGE
  3
ANSI_1252
  9
$INSBASE
 10
0
 20
0
 30
0
  9
$EXTMIN
 10
675.9767910639664
 20
-1649.491349139681
 30
0
  9
$EXTMAX
 10
3043.736202668846
 20
777.585991364505
 30
0
  9
$LIMMIN
 10
0
 20
0
  9
$LIMMAX
 10
420
 20
297
  9
$ORTHOMODE
 70
    0
  9
$REGENMODE
 70
    1
  9
$FILLMODE
 70
    1
  9
$QTEXTMODE
 70
    0
  9
$MIRRTEXT
 70
    0
  9
$LTSCALE
 40
1
  9
$ATTMODE
 70
    0
  9
$TEXTSIZE
 40
2.5
  9
$TRACEWID
 40
15.68
  9
$TEXTSTYLE
  7
STANDARD
  9
$CLAYER
  8
measures
  9
$CELTYPE
  6
BYLAYER
  9
$CECOLOR
 62
  256
  9
$CELTSCALE
 40
1
  9
$DISPSILH
 70
    0
  9
$DIMSCALE
 40
2.5
  9
$DIMASZ
 40
2.5
  9
$DIMEXO
 40
0.625
  9
$DIMDLI
 40
3.75
  9
$DIMRND
 40
0
  9
$DIMDLE
 40
0
  9
$DIMEXE
 40
1.25
  9
$DIMTP
 40
0
  9
$DIMTM
 40
0
  9
$DIMTXT
 40
2.5
  9
$DIMCEN
 40
2.5
  9
$DIMTSZ
 40
0
  9
$DIMTOL
 70
    0
  9
$DIMLIM
 70
    0
  9
$DIMTIH
 70
    0
  9
$DIMTOH
 70
    0
  9
$DIMSE1
 70
    0
  9
$DIMSE2
 70
    0
  9
$DIMTAD
 70
    1
  9
$DIMZIN
 70
    8
  9
$DIMBLK
  1

  9
$DIMASO
 70
    1
  9
$DIMSHO
 70
    1
  9
$DIMPOST
  1

  9
$DIMAPOST
  1

  9
$DIMALT
 70
    0
  9
$DIMALTD
 70
    3
  9
$DIMALTF
 40
0.03937
  9
$DIMLFAC
 40
1
  9
$DIMTOFL
 70
    1
  9
$DIMTVP
 40
0
  9
$DIMTIX
 70
    0
  9
$DIMSOXD
 70
    0
  9
$DIMSAH
 70
    0
  9
$DIMBLK1
  1

  9
$DIMBLK2
  1

  9
$DIMSTYLE
  2
STANDARD
  9
$DIMCLRD
 70
    0
  9
$DIMCLRE
 70
    0
  9
$DIMCLRT
 70
    0
  9
$DIMTFAC
 40
1
  9
$DIMGAP
 40
0.625
  9
$DIMJUST
 70
    0
  9
$DIMSD1
 70
    0
  9
$DIMSD2
 70
    0
  9
$DIMTOLJ
 70
    0
  9
$DIMTZIN
 70
    8
  9
$DIMALTZ
 70
    0
  9
$DIMALTTZ
 70
    0
  9
$DIMUPT
 70
    0
  9
$DIMDEC
 70
    2
  9
$DIMTDEC
 70
    2
  9
$DIMALTU
 70
    2
  9
$DIMALTTD
 70
    3
  9
$DIMTXSTY
  7
STANDARD
  9
$DIMAUNIT
 70
    0
  9
$DIMADEC
 70
    0
  9
$DIMALTRND
 40
0
  9
$DIMAZIN
 70
    0
  9
$DIMDSEP
 70
    0
  9
$DIMATFIT
 70
    3
  9
$DIMFRAC
 70
    0
  9
$DIMLDRBLK
  1
STANDARD
  9
$DIMLUNIT
 70
    2
  9
$DIMLWD
 70
   -2
  9
$DIMLWE
 70
   -2
  9
$DIMTMOVE
 70
    0
  9
$DIMFXL
 40
1
  9
$DIMFXLON
 70
    0
  9
$DIMJOGANG
 40
0.7854
  9
$DIMTFILL
 70
    0
  9
$DIMTFILLCLR
 70
    0
  9
$DIMARCSYM
 70
    0
  9
$DIMLTYPE
  6

  9
$DIMLTEX1
  6

  9
$DIMLTEX2
  6

  9
$LUNITS
 70
    2
  9
$LUPREC
 70
    4
  9
$SKETCHINC
 40
1
  9
$FILLETRAD
 40
0
  9
$AUNITS
 70
    0
  9
$AUPREC
 70
    2
  9
$MENU
  1
.
  9
$ELEVATION
 40
0
  9
$PELEVATION
 40
0
  9
$THICKNESS
 40
0
  9
$LIMCHECK
 70
    0
  9
$CHAMFERA
 40
0
  9
$CHAMFERB
 40
0
  9
$CHAMFERC
 40
0
  9
$CHAMFERD
 40
0
  9
$SKPOLY
 70
    0
  9
$USRTIMER
 70
    1
  9
$ANGBASE
 50
0
  9
$ANGDIR
 70
    0
  9
$PDMODE
 70
   34
  9
$PDSIZE
 40
0
  9
$PLINEWID
 40
0
  9
$SPLFRAME
 70
    0
  9
$SPLINETYPE
 70
    2
  9
$SPLINESEGS
 70
    8
  9
$HANDSEED
  5
20000
  9
$SURFTAB1
 70
    6
  9
$SURFTAB2
 70
    6
  9
$SURFTYPE
 70
    6
  9
$SURFU
 70
    6
  9
$SURFV
 70
    6
  9
$UCSBASE
  2

  9
$UCSNAME
  2

  9
$UCSORG
 10
0
 20
0
 30
0
  9
$UCSXDIR
 10
1
 20
0
 30
0
  9
$UCSYDIR
 10
0
 20
1
 30
0
  9
$UCSORTHOREF
  2

  9
$UCSORTHOVIEW
 70
    0
  9
$UCSORGTOP
 10
0
 20
0
 30
0
  9
$UCSORGBOTTOM
 10
0
 20
0
 30
0
  9
$UCSORGLEFT
 10
0
 20
0
 30
0
  9
$UCSORGRIGHT
 10
0
 20
0
 30
0
  9
$UCSORGFRONT
 10
0
 20
0
 30
0
  9
$UCSORGBACK
 10
0
 20
0
 30
0
  9
$PUCSBASE
  2

  9
$PUCSNAME
  2

  9
$PUCSORG
 10
0
 20
0
 30
0
  9
$PUCSXDIR
 10
1
 20
0
 30
0
  9
$PUCSYDIR
 10
0
 20
1
 30
0
  9
$PUCSORTHOREF
  2

  9
$PUCSORTHOVIEW
 70
    0
  9
$PUCSORGTOP
 10
0
 20
0
 30
0
  9
$PUCSORGBOTTOM
 10
0
 20
0
 30
0
  9
$PUCSORGLEFT
 10
0
 20
0
 30
0
  9
$PUCSORGRIGHT
 10
0
 20
0
 30
0
  9
$PUCSORGFRONT
 10
0
 20
0
 30
0
  9
$PUCSORGBACK
 10
0
 20
0
 30
0
  9
$USERI1
 70
    0
  9
$USERI2
 70
    0
  9
$USERI3
 70
    0
  9
$USERI4
 70
    0
  9
$USERI5
 70
    0
  9
$USERR1
 40
0
  9
$USERR2
 40
0
  9
$USERR3
 40
0
  9
$USERR4
 40
0
  9
$USERR5
 40
0
  9
$WORLDVIEW
 70
    1
  9
$SHADEDGE
 70
    3
  9
$SHADEDIF
 70
   70
  9
$TILEMODE
 70
    1
  9
$MAXACTVP
 70
   64
  9
$PINSBASE
 10
0
 20
0
 30
0
  9
$PLIMCHECK
 70
    0
  9
$PEXTMIN
 10
0
 20
0
 30
0
  9
$PEXTMAX
 10
0
 20
0
 30
0
  9
$PLIMMIN
 10
0
 20
0
  9
$PLIMMAX
 10
297
 20
210
  9
$UNITMODE
 70
    0
  9
$VISRETAIN
 70
    1
  9
$PLINEGEN
 70
    0
  9
$PSLTSCALE
 70
    1
  9
$TREEDEPTH
 70
 3020
  9
$CMLSTYLE
  2
Standard
  9
$CMLJUST
 70
    0
  9
$CMLSCALE
 40
20
  9
$PROXYGRAPHICS
 70
    1
  9
$MEASUREMENT
 70
    1
  9
$CELWEIGHT
370
   -1
  9
$ENDCAPS
280
    0
  9
$JOINSTYLE
280
    0
  9
$LWDISPLAY
290
    0
  9
$INSUNITS
 70
    0
  9
$HYPERLINKBASE
  1

  9
$STYLESHEET
  1

  9
$XEDIT
290
    1
  9
$CEPSNTYPE
380
    0
  9
$PSTYLEMODE
290
    1
  9
$EXTNAMES
290
    1
  9
$PSVPSCALE
 40
0
  9
$OLESTARTUP
290
    0
  9
$SORTENTS
280
  127
  9
$INDEXCTL
280
    0
  9
$HIDETEXT
280
    1
  9
$XCLIPFRAME
290
    0
  9
$HALOGAP
280
    0
  9
$OBSCOLOR
 70
  257
  9
$OBSLTYPE
280
    0
  9
$INTERSECTIONDISPLAY
280
    0
  9
$INTERSECTIONCOLOR
 70
  257
  9
$DIMASSOC
280
    1
  9
$PROJECTNAME
  1

  9
$CAMERADISPLAY
290
    0
  9
$LENSLENGTH
 40
50
  9
$CAMERAHEIGHT
 40
0
  9
$STEPSPERSEC
 40
2
  9
$STEPSIZE
 40
50
  9
$3DDWFPREC
 40
2
  9
$PSOLWIDTH
 40
5
  9
$PSOLHEIGHT
 40
80
  9
$LOFTANG1
 40
1.570796326794897
  9
$LOFTANG2
 40
1.570796326794897
  9
$LOFTMAG1
 40
0
  9
$LOFTMAG2
 40
0
  9
$LOFTPARAM
 70
    7
  9
$LOFTNORMALS
280
    1
  9
$LATITUDE
 40
1
  9
$LONGITUDE
 40
1
  9
$NORTHDIRECTION
 40
0
  9
$TIMEZONE
 70
-8000
  9
$LIGHTGLYPHDISPLAY
280
    1
  9
$TILEMODELIGHTSYNCH
280
    1
  9
$SOLIDHIST
280
    1
  9
$SHOWHIST
280
    1
  9
$DWFFRAME
280
    2
  9
$DGNFRAME
280
    0
  9
$REALWORLDSCALE
290
    1
  9
$INTERFERECOLOR
 62
    1
  9
$CSHADOW
280
    0
  9
$SHADOWPLANELOCATION
 40
0
  0
ENDSEC
  0
SECTION
  2
CLASSES
  0
ENDSEC
  0
SECTION
  2
TABLES
  0
TABLE
  2
VPORT
  5
8
330
0
100
AcDbSymbolTable
 70
    1
  0
VPORT
  5
31
330
2
100
AcDbSymbolTableRecord
100
AcDbViewportTableRecord
  2
*ACTIVE
 70
    0
 10
0
 20
0
 11
1
 21
1
 12
713.2833674653317
 22
263.9462681369509
 13
0
 23
0
 14
10
 24
10
 15
10
 25
10
 16
0
 26
0
 36
1
 17
0
 27
0
 37
0
 40
603.3057557416021
 41
1.703703703703704
 42
50
 43
0
 44
0
 50
0
 51
0
 71
    0
 72
  100
 73
    1
 74
    3
 75
    0
 76
    1
 77
    0
 78
    0
281
    0
 65
    1
110
0
120
0
130
0
111
1
121
0
131
0
112
0
122
1
132
0
 79
    0
146
0
348
10020
 60
    7
 61
    5
292
1
282
    1
141
0
142
0
 63
  250
421
3358443
  0
ENDTAB
  0
TABLE
  2
LTYPE
  5
5
330
0
100
AcDbSymbolTable
 70
    4
  0
LTYPE
  5
14
330
5
100
AcDbSymbolTableRecord
100
AcDbLinetypeTableRecord
  2
ByBlock
 70
    0
  3

 72
   65
 73
    0
 40
0
  0
LTYPE
  5
15
330
5
100
AcDbSymbolTableRecord
100
AcDbLinetypeTableRecord
  2
ByLayer
 70
    0
  3

 72
   65
 73
    0
 40
0
  0
LTYPE
  5
16
330
5
100
AcDbSymbolTableRecord
100
AcDbLinetypeTableRecord
  2
Continuous
 70
    0
  3
Solid line
 72
   65
 73
    0
 40
0
  0
LTYPE
  5
32
330
5
100
AcDbSymbolTableRecord
100
AcDbLinetypeTableRecord
  2
DOT
 70
    0
  3
Dot . . . . . . . . . . . . . . . . . . . . . .
 72
   65
 73
    2
 40
6.35
 49
0
 74
    0
 49
-6.35
 74
    0
  0
LTYPE
  5
33
330
5
100
AcDbSymbolTableRecord
100
AcDbLinetypeTableRecord
  2
DOTTINY
 70
    0
  3
Dot (.15x) .....................................
 72
   65
 73
    2
 40
0.9525
 49
0
 74
    0
 49
-0.9525
 74
    0
  0
LTYPE
  5
34
330
5
100
AcDbSymbolTableRecord
100
AcDbLinetypeTableRecord
  2
DOT2
 70
    0
  3
Dot (.5x) .....................................
 72
   65
 73
    2
 40
3.175
 49
0
 74
    0
 49
-3.175
 74
    0
  0
LTYPE
  5
35
330
5
100
AcDbSymbolTableRecord
100
AcDbLinetypeTableRecord
  2
DOTX2
 70
    0
  3
Dot (2x) .  .  .  .  .  .  .  .  .  .  .  .  .
 72
   65
 73
    2
 40
12.7
 49
0
 74
    0
 49
-12.7
 74
    0
  0
LTYPE
  5
36
330
5
100
AcDbSymbolTableRecord
100
AcDbLinetypeTableRecord
  2
DASHED
 70
    0
  3
Dashed _ _ _ _ _ _ _ _ _ _ _ _ _ _ _ _ _
 72
   65
 73
    2
 40
19.05
 49
12.7
 74
    0
 49
-6.35
 74
    0
  0
LTYPE
  5
37
330
5
100
AcDbSymbolTableRecord
100
AcDbLinetypeTableRecord
  2
DASHEDTINY
 70
    0
  3
Dashed (.15x) _ _ _ _ _ _ _ _ _ _ _ _ _ _ _ _ _
 72
   65
 73
    2
 40
2.8575
 49
1.905
 74
    0
 49
-0.9525
 74
    0
  0
LTYPE
  5
38
330
5
100
AcDbSymbolTableRecord
100
AcDbLinetypeTableRecord
  2
DASHED2
 70
    0
  3
Dashed (.5x) _ _ _ _ _ _ _ _ _ _ _ _ _ _ _ _ _
 72
   65
 73
    2
 40
9.524999999999999
 49
6.35
 74
    0
 49
-3.175
 74
    0
  0
LTYPE
  5
39
330
5
100
AcDbSymbolTableRecord
100
AcDbLinetypeTableRecord
  2
DASHEDX2
 70
    0
  3
Dashed (2x) ____  ____  ____  ____  ____  ___
 72
   65
 73
    2
 40
38.09999999999999
 49
25.4
 74
    0
 49
-12.7
 74
    0
  0
LTYPE
  5
3A
330
5
100
AcDbSymbolTableRecord
100
AcDbLinetypeTableRecord
  2
DASHDOT
 70
    0
  3
Dash dot __ . __ . __ . __ . __ . __ . __ . __
 72
   65
 73
    4
 40
25.4
 49
12.7
 74
    0
 49
-6.35
 74
    0
 49
0
 74
    0
 49
-6.35
 74
    0
  0
LTYPE
  5
3B
330
5
100
AcDbSymbolTableRecord
100
AcDbLinetypeTableRecord
  2
DASHDOTTINY
 70
    0
  3
Dash dot (.15x) _._._._._._._._._._._._._._._.
 72
   65
 73
    4
 40
3.81
 49
1.905
 74
    0
 49
-0.9525
 74
    0
 49
0
 74
    0
 49
-0.9525
 74
    0
  0
LTYPE
  5
3C
330
5
100
AcDbSymbolTableRecord
100
AcDbLinetypeTableRecord
  2
DASHDOT2
 70
    0
  3
Dash dot (.5x) _._._._._._._._._._._._._._._.
 72
   65
 73
    4
 40
12.7
 49
6.35
 74
    0
 49
-3.175
 74
    0
 49
0
 74
    0
 49
-3.175
 74
    0
  0
LTYPE
  5
3D
330
5
100
AcDbSymbolTableRecord
100
AcDbLinetypeTableRecord
  2
DASHDOTX2
 70
    0
  3
Dash dot (2x) ____  .  ____  .  ____  .  ___
 72
   65
 73
    4
 40
50.8
 49
25.4
 74
    0
 49
-12.7
 74
    0
 49
0
 74
    0
 49
-12.7
 74
    0
  0
LTYPE
  5
3E
330
5
100
AcDbSymbolTableRecord
100
AcDbLinetypeTableRecord
  2
DIVIDE
 70
    0
  3
Divide ____ . . ____ . . ____ . . ____ . . ____
 72
   65
 73
    6
 40
31.75
 49
12.7
 74
    0
 49
-6.35
 74
    0
 49
0
 74
    0
 49
-6.35
 74
    0
 49
0
 74
    0
 49
-6.35
 74
    0
  0
LTYPE
  5
3F
330
5
100
AcDbSymbolTableRecord
100
AcDbLinetypeTableRecord
  2
DIVIDETINY
 70
    0
  3
Divide (.15x) __..__..__..__..__..__..__..__.._
 72
   65
 73
    6
 40
4.7625
 49
1.905
 74
    0
 49
-0.9525
 74
    0
 49
0
 74
    0
 49
-0.9525
 74
    0
 49
0
 74
    0
 49
-0.9525
 74
    0
  0
LTYPE
  5
40
330
5
100
AcDbSymbolTableRecord
100
AcDbLinetypeTableRecord
  2
DIVIDE2
 70
    0
  3
Divide (.5x) __..__..__..__..__..__..__..__.._
 72
   65
 73
    6
 40
15.875
 49
6.35
 74
    0
 49
-3.175
 74
    0
 49
0
 74
    0
 49
-3.175
 74
    0
 49
0
 74
    0
 49
-3.175
 74
    0
  0
LTYPE
  5
41
330
5
100
AcDbSymbolTableRecord
100
AcDbLinetypeTableRecord
  2
DIVIDEX2
 70
    0
  3
Divide (2x) ________  .  .  ________  .  .  _
 72
   65
 73
    6
 40
63.5
 49
25.4
 74
    0
 49
-12.7
 74
    0
 49
0
 74
    0
 49
-12.7
 74
    0
 49
0
 74
    0
 49
-12.7
 74
    0
  0
LTYPE
  5
42
330
5
100
AcDbSymbolTableRecord
100
AcDbLinetypeTableRecord
  2
BORDER
 70
    0
  3
Border __ __ . __ __ . __ __ . __ __ . __ __ .
 72
   65
 73
    6
 40
44.45
 49
12.7
 74
    0
 49
-6.35
 74
    0
 49
12.7
 74
    0
 49
-6.35
 74
    0
 49
0
 74
    0
 49
-6.35
 74
    0
  0
LTYPE
  5
43
330
5
100
AcDbSymbolTableRecord
100
AcDbLinetypeTableRecord
  2
BORDERTINY
 70
    0
  3
Border (.15x) __.__.__.__.__.__.__.__.__.__.__.
 72
   65
 73
    6
 40
6.6675
 49
1.905
 74
    0
 49
-0.9525
 74
    0
 49
1.905
 74
    0
 49
-0.9525
 74
    0
 49
0
 74
    0
 49
-0.9525
 74
    0
  0
LTYPE
  5
44
330
5
100
AcDbSymbolTableRecord
100
AcDbLinetypeTableRecord
  2
BORDER2
 70
    0
  3
Border (.5x) __.__.__.__.__.__.__.__.__.__.__.
 72
   65
 73
    6
 40
22.225
 49
6.35
 74
    0
 49
-3.175
 74
    0
 49
6.35
 74
    0
 49
-3.175
 74
    0
 49
0
 74
    0
 49
-3.175
 74
    0
  0
LTYPE
  5
45
330
5
100
AcDbSymbolTableRecord
100
AcDbLinetypeTableRecord
  2
BORDERX2
 70
    0
  3
Border (2x) ____  ____  .  ____  ____  .  ___
 72
   65
 73
    6
 40
88.89999999999999
 49
25.4
 74
    0
 49
-12.7
 74
    0
 49
25.4
 74
    0
 49
-12.7
 74
    0
 49
0
 74
    0
 49
-12.7
 74
    0
  0
LTYPE
  5
46
330
5
100
AcDbSymbolTableRecord
100
AcDbLinetypeTableRecord
  2
CENTER
 70
    0
  3
Center ____ _ ____ _ ____ _ ____ _ ____ _ ____
 72
   65
 73
    4
 40
50.8
 49
31.75
 74
    0
 49
-6.35
 74
    0
 49
6.35
 74
    0
 49
-6.35
 74
    0
  0
LTYPE
  5
47
330
5
100
AcDbSymbolTableRecord
100
AcDbLinetypeTableRecord
  2
CENTERTINY
 70
    0
  3
Center (.15x) ___ _ ___ _ ___ _ ___ _ ___ _ ___
 72
   65
 73
    4
 40
7.619999999999999
 49
4.7625
 74
    0
 49
-0.9525
 74
    0
 49
0.9525
 74
    0
 49
-0.9525
 74
    0
  0
LTYPE
  5
48
330
5
100
AcDbSymbolTableRecord
100
AcDbLinetypeTableRecord
  2
CENTER2
 70
    0
  3
Center (.5x) ___ _ ___ _ ___ _ ___ _ ___ _ ___
 72
   65
 73
    4
 40
28.575
 49
19.05
 74
    0
 49
-3.175
 74
    0
 49
3.175
 74
    0
 49
-3.175
 74
    0
  0
LTYPE
  5
49
330
5
100
AcDbSymbolTableRecord
100
AcDbLinetypeTableRecord
  2
CENTERX2
 70
    0
  3
Center (2x) ________  __  ________  __  _____
 72
   65
 73
    4
 40
101.6
 49
63.5
 74
    0
 49
-12.7
 74
    0
 49
12.7
 74
    0
 49
-12.7
 74
    0
  0
ENDTAB
  0
TABLE
  2
LAYER
  5
2
330
0
100
AcDbSymbolTable
 70
    1
  0
LAYER
  5
10
330
2
100
AcDbSymbolTableRecord
100
AcDbLayerTableRecord
  2
0
 70
    5
 62
    7
  6
CONTINUOUS
370
    0
390
F
  0
LAYER
  5
4A
330
2
100
AcDbSymbolTableRecord
100
AcDbLayerTableRecord
  2
Guides
 70
    5
 62
    3
  6
CONTINUOUS
370
    0
390
F
1001
LibreCad
1070
    1
  0
LAYER
  5
4B
330
2
100
AcDbSymbolTableRecord
100
AcDbLayerTableRecord
  2
HookFrontView
 70
    0
 62
    1
  6
CONTINUOUS
370
    0
390
F
  0
LAYER
  5
4C
330
2
100
AcDbSymbolTableRecord
100
AcDbLayerTableRecord
  2
measures
 70
    4
 62
    7
  6
CONTINUOUS
370
    0
390
F
  0
ENDTAB
  0
TABLE
  2
STYLE
  5
3
330
0
100
AcDbSymbolTable
 70
    3
  0
STYLE
  5
4D
330
2
100
AcDbSymbolTableRecord
100
AcDbTextStyleTableRecord
  2
Standard
 70
    0
 40
0
 41
1
 50
0
 71
    0
 42
1
  3
txt
  4

  0
ENDTAB
  0
TABLE
  2
VIEW
  5
6
330
0
100
AcDbSymbolTable
 70
    0
  0
ENDTAB
  0
TABLE
  2
UCS
  5
7
330
0
100
AcDbSymbolTable
 70
    0
  0
ENDTAB
  0
TABLE
  2
APPID
  5
9
330
0
100
AcDbSymbolTable
 70
    1
  0
APPID
  5
12
330
9
100
AcDbSymbolTableRecord
100
AcDbRegAppTableRecord
  2
ACAD
 70
    0
  0
APPID
  5
4E
330
9
100
AcDbSymbolTableRecord
100
AcDbRegAppTableRecord
  2
LibreCad
 70
    0
  0
ENDTAB
  0
TABLE
  2
DIMSTYLE
  5
A
330
0
100
AcDbSymbolTable
 70
    1
100
AcDbDimStyleTable
 71
    1
  0
DIMSTYLE
105
4F
330
A
100
AcDbSymbolTableRecord
100
AcDbDimStyleTableRecord
  2
Standard
 70
    0
 40
1
 41
2.5
 42
0.625
 43
0.38
 44
1.25
 45
0
 46
0
 47
0
 48
0
 49
1
140
15
141
0.09
142
0
143
25.4
144
1
145
0
146
1
147
0.625
148
0
 71
    0
 72
    0
 73
    0
 74
    1
 75
    0
 76
    0
 77
    0
 78
    1
 79
    0
170
    0
171
    2
172
    0
173
    0
174
    0
175
    0
176
    0
177
    0
178
    0
179
    2
271
    4
272
    4
273
    2
274
    2
275
    0
276
    0
277
    2
278
    0
279
    0
280
    0
281
    0
282
    0
283
    1
284
    0
285
    0
286
    0
288
    0
289
    3
340
standard
341

371
   -2
372
   -2
  0
ENDTAB
  0
TABLE
  2
BLOCK_RECORD
  5
1
330
0
100
AcDbSymbolTable
 70
    2
  0
BLOCK_RECORD
  5
1F
330
1
100
AcDbSymbolTableRecord
100
AcDbBlockTableRecord
  2
*Model_Space
 70
    0
280
    1
281
    0
  0
BLOCK_RECORD
  5
1E
330
1
100
AcDbSymbolTableRecord
100
AcDbBlockTableRecord
  2
*Paper_Space
 70
    0
280
    1
281
    0
  0
BLOCK_RECORD
  5
50
330
1
100
AcDbSymbolTableRecord
100
AcDbBlockTableRecord
  2
*D7
 70
    0
280
    1
281
    0
  0
BLOCK_RECORD
  5
53
330
1
100
AcDbSymbolTableRecord
100
AcDbBlockTableRecord
  2
*D9
 70
    0
280
    1
281
    0
  0
BLOCK_RECORD
  5
56
330
1
100
AcDbSymbolTableRecord
100
AcDbBlockTableRecord
  2
*D12
 70
    0
280
    1
281
    0
  0
BLOCK_RECORD
  5
59
330
1
100
AcDbSymbolTableRecord
100
AcDbBlockTableRecord
  2
*D4
 70
    0
280
    1
281
    0
  0
BLOCK_RECORD
  5
5C
330
1
100
AcDbSymbolTableRecord
100
AcDbBlockTableRecord
  2
*D5
 70
    0
280
    1
281
    0
  0
BLOCK_RECORD
  5
5F
330
1
100
AcDbSymbolTableRecord
100
AcDbBlockTableRecord
  2
*D10
 70
    0
280
    1
281
    0
  0
BLOCK_RECORD
  5
62
330
1
100
AcDbSymbolTableRecord
100
AcDbBlockTableRecord
  2
*D1
 70
    0
280
    1
281
    0
  0
BLOCK_RECORD
  5
65
330
1
100
AcDbSymbolTableRecord
100
AcDbBlockTableRecord
  2
*D6
 70
    0
280
    1
281
    0
  0
BLOCK_RECORD
  5
68
330
1
100
AcDbSymbolTableRecord
100
AcDbBlockTableRecord
  2
*D13
 70
    0
280
    1
281
    0
  0
BLOCK_RECORD
  5
6B
330
1
100
AcDbSymbolTableRecord
100
AcDbBlockTableRecord
  2
*D11
 70
    0
280
    1
281
    0
  0
BLOCK_RECORD
  5
6E
330
1
100
AcDbSymbolTableRecord
100
AcDbBlockTableRecord
  2
*D3
 70
    0
280
    1
281
    0
  0
BLOCK_RECORD
  5
71
330
1
100
AcDbSymbolTableRecord
100
AcDbBlockTableRecord
  2
*D2
 70
    0
280
    1
281
    0
  0
BLOCK_RECORD
  5
74
330
1
100
AcDbSymbolTableRecord
100
AcDbBlockTableRecord
  2
*D8
 70
    0
280
    1
281
    0
  0
ENDTAB
  0
ENDSEC
  0
SECTION
  2
BLOCKS
  0
BLOCK
  5
20
330
1F
100
AcDbEntity
  8
0
100
AcDbBlockBegin
  2
*Model_Space
 70
    0
 10
0
 20
0
 30
0
  3
*Model_Space
  1

  0
ENDBLK
  5
21
330
1F
100
AcDbEntity
  8
0
100
AcDbBlockEnd
  0
BLOCK
  5
1C
330
1B
100
AcDbEntity
  8
0
100
AcDbBlockBegin
  2
*Paper_Space
 70
    0
 10
0
 20
0
 30
0
  3
*Paper_Space
  1

  0
ENDBLK
  5
1D
330
1F
100
AcDbEntity
  8
0
100
AcDbBlockEnd
  0
BLOCK
  5
51
330
50
100
AcDbEntity
  8
0
100
AcDbBlockBegin
  2
*D7
 70
    1
 10
0
 20
0
  3
*D7
  1

  0
LINE
  5
77
100
AcDbEntity
  8
measures
  6
ByBlock
 62
    0
370
   -2
100
AcDbLine
 10
675.9767910639664
 20
190.905334644089
 11
784.1333897652771
 21
190.905334644089
  0
SOLID
  5
78
100
AcDbEntity
  8
measures
  6
ByBlock
 62
    0
370
   -2
100
AcDbTrace
 10
675.9767910639664
 20
190.905334644089
 30
0
 11
678.4767910639664
 21
191.3216193018618
 31
0
 12
678.4767910639664
 22
190.4890499863161
 32
0
 13
678.4767910639664
 23
190.4890499863161
 33
0
  0
SOLID
  5
79
100
AcDbEntity
  8
measures
  6
ByBlock
 62
    0
370
   -2
100
AcDbTrace
 10
784.1333897652771
 20
190.905334644089
 30
0
 11
781.6333897652771
 21
190.4890499863161
 31
0
 12
781.6333897652771
 22
191.3216193018618
 32
0
 13
781.6333897652771
 23
191.3216193018618
 33
0
  0
MTEXT
  5
7A
100
AcDbEntity
  8
measures
  6
CONTINUOUS
 62
    0
370
   -2
100
AcDbMText
 10
730.0550904146218
 20
199.030334644089
 30
0
 40
15
 41
75.00000000000279
 71
    5
 72
    1
  1
108.1566
  7
standard
210
0
220
0
230
1
 50
0
 73
    2
 44
1
  0
LINE
  5
7B
100
AcDbEntity
  8
measures
  6
ByBlock
 62
    0
370
   -2
100
AcDbLine
 10
675.9767910639664
 20
256.4386837525079
 11
675.9767910639664
 21
189.655334644089
  0
LINE
  5
7C
100
AcDbEntity
  8
measures
  6
ByBlock
 62
    0
370
   -2
100
AcDbLine
 10
784.1333897652771
 20
256.4386837525079
 11
784.1333897652771
 21
189.655334644089
  0
ENDBLK
  5
52
330
50
100
AcDbEntity
  8
0
100
AcDbBlockEnd
  0
BLOCK
  5
54
330
53
100
AcDbEntity
  8
0
100
AcDbBlockBegin
  2
*D9
 70
    1
 10
0
 20
0
  3
*D9
  1

  0
LINE
  5
7D
100
AcDbEntity
  8
measures
  6
ByBlock
 62
    0
370
   -2
100
AcDbLine
 10
1076.388088317985
 20
311.5904109106983
 11
817.5464949770192
 21
311.5904109106983
  0
LINE
  5
7E
100
AcDbEntity
  8
measures
  6
ByBlock
 62
    0
370
   -2
100
AcDbLine
 10
730.9421247025783
 20
366.5058867458172
 11
776.1271004398966
 21
411.6498762197579
  0
ARC
  5
7F
100
AcDbEntity
  8
measures
  6
ByBlock
 62
    0
370
   -2
100
AcDbCircle
 10
675.9767910639664
 20
311.5904109106983
 40
140.3197039130528
100
AcDbArc
 50
0
 51
44.97400236189031
  0
SOLID
  5
80
100
AcDbEntity
  8
measures
  6
ByBlock
 62
    0
370
   -2
100
AcDbTrace
 10
816.2964949770192
 20
311.5904109106983
 30
0
 11
815.8579565596347
 21
314.0866034058346
 31
0
 12
816.69049284049
 22
314.0940200255318
 32
0
 13
816.69049284049
 23
314.0940200255318
 33
0
  0
SOLID
  5
81
100
AcDbEntity
  8
measures
  6
ByBlock
 62
    0
370
   -2
100
AcDbTrace
 10
775.2428159972534
 20
410.7663938914121
 30
0
 11
777.2910564701676
 21
409.2737439386726
 31
0
 12
776.6968554033397
 22
408.6905657863308
 32
0
 13
776.6968554033397
 23
408.6905657863308
 33
0
  0
MTEXT
  5
82
100
AcDbEntity
  8
measures
  6
CONTINUOUS
 62
    0
370
   -2
100
AcDbMText
 10
806.2049517252796
 20
365.498070217232
 30
0
 40
15
 41
60
 71
    8
 72
    1
  1
44.97%%D
  7
standard
210
0
220
0
230
1
 50
292.4870011809452
 73
    2
 44
1
  0
ENDBLK
  5
55
330
53
100
AcDbEntity
  8
0
100
AcDbBlockEnd
  0
BLOCK
  5
57
330
56
100
AcDbEntity
  8
0
100
AcDbBlockBegin
  2
*D12
 70
    1
 10
0
 20
0
  3
*D12
  1

  0
LINE
  5
83
100
AcDbEntity
  8
measures
  6
ByBlock
 62
    0
370
   -2
100
AcDbLine
 10
2294.67910779322
 20
-1649.491349139681
 11
2294.67910779322
 21
-805.4456691149584
  0
SOLID
  5
84
100
AcDbEntity
  8
measures
  6
ByBlock
 62
    0
370
   -2
100
AcDbTrace
 10
2294.67910779322
 20
-1649.491349139681
 30
0
 11
2294.262823135447
 21
-1646.991349139681
 31
0
 12
2295.095392450993
 22
-1646.991349139681
 32
0
 13
2295.095392450993
 23
-1646.991349139681
 33
0
  0
SOLID
  5
85
100
AcDbEntity
  8
measures
  6
ByBlock
 62
    0
370
   -2
100
AcDbTrace
 10
2294.67910779322
 20
-805.4456691149584
 30
0
 11
2295.095392450993
 21
-807.9456691149584
 31
0
 12
2294.262823135447
 22
-807.9456691149584
 32
0
 13
2294.262823135447
 23
-807.9456691149584
 33
0
  0
MTEXT
  5
86
100
AcDbEntity
  8
measures
  6
CONTINUOUS
 62
    0
370
   -2
100
AcDbMText
 10
2286.55410779322
 20
-1227.46850912732
 30
0
 40
15
 41
86.6666666666676
 71
    5
 72
    1
  1
844.0457
  7
standard
210
0
220
0
230
1
 50
90
 73
    2
 44
1
  0
LINE
  5
87
100
AcDbEntity
  8
measures
  6
ByBlock
 62
    0
370
   -2
100
AcDbLine
 10
3030.698253192748
 20
-1649.491349139681
 11
2293.42910779322
 21
-1649.491349139681
  0
LINE
  5
88
100
AcDbEntity
  8
measures
  6
ByBlock
 62
    0
370
   -2
100
AcDbLine
 10
3043.736202668846
 20
-805.4456691149584
 11
2293.42910779322
 21
-805.4456691149584
  0
ENDBLK
  5
58
330
56
100
AcDbEntity
  8
0
100
AcDbBlockEnd
  0
BLOCK
  5
5A
330
59
100
AcDbEntity
  8
0
100
AcDbBlockBegin
  2
*D4
 70
    1
 10
0
 20
0
  3
*D4
  1

  0
LINE
  5
89
100
AcDbEntity
  8
measures
  6
ByBlock
 62
    0
370
   -2
100
AcDbLine
 10
1130.400637023919
 20
257.0636837525079
 11
1130.400637023919
 21
311.5904109106983
  0
SOLID
  5
8A
100
AcDbEntity
  8
measures
  6
ByBlock
 62
    0
370
   -2
100
AcDbTrace
 10
1130.400637023919
 20
257.0636837525079
 30
0
 11
1129.984352366146
 21
259.5636837525079
 31
0
 12
1130.816921681691
 22
259.5636837525079
 32
0
 13
1130.816921681691
 23
259.5636837525079
 33
0
  0
SOLID
  5
8B
100
AcDbEntity
  8
measures
  6
ByBlock
 62
    0
370
   -2
100
AcDbTrace
 10
1130.400637023919
 20
311.5904109106983
 30
0
 11
1130.816921681691
 21
309.0904109106983
 31
0
 12
1129.984352366146
 22
309.0904109106983
 32
0
 13
1129.984352366146
 23
309.0904109106983
 33
0
  0
MTEXT
  5
8C
100
AcDbEntity
  8
measures
  6
CONTINUOUS
 62
    0
370
   -2
100
AcDbMText
 10
1122.275637023919
 20
348.048744244033
 30
0
 40
15
 41
71.66666666666947
 71
    5
 72
    1
  1
54.5267
  7
standard
210
0
220
0
230
1
 50
90
 73
    2
 44
1
  0
LINE
  5
8D
100
AcDbEntity
  8
measures
  6
ByBlock
 62
    0
370
   -2
100
AcDbLine
 10
1001.52599299293
 20
257.0636837525079
 11
1131.650637023919
 21
257.0636837525079
  0
LINE
  5
8E
100
AcDbEntity
  8
measures
  6
ByBlock
 62
    0
370
   -2
100
AcDbLine
 10
1001.52599299293
 20
311.5904109106983
 11
1131.650637023919
 21
311.5904109106983
  0
ENDBLK
  5
5B
330
59
100
AcDbEntity
  8
0
100
AcDbBlockEnd
  0
BLOCK
  5
5D
330
5C
100
AcDbEntity
  8
0
100
AcDbBlockBegin
  2
*D5
 70
    1
 10
0
 20
0
  3
*D5
  1

  0
LINE
  5
8F
100
AcDbEntity
  8
measures
  6
ByBlock
 62
    0
370
   -2
100
AcDbLine
 10
1098.218860586963
 20
311.5904109106983
 11
1098.218860586963
 21
366.0641455816443
  0
SOLID
  5
90
100
AcDbEntity
  8
measures
  6
ByBlock
 62
    0
370
   -2
100
AcDbTrace
 10
1098.218860586963
 20
311.5904109106983
 30
0
 11
1097.80257592919
 21
314.0904109106983
 31
0
 12
1098.635145244736
 22
314.0904109106983
 32
0
 13
1098.635145244736
 23
314.0904109106983
 33
0
  0
SOLID
  5
91
100
AcDbEntity
  8
measures
  6
ByBlock
 62
    0
370
   -2
100
AcDbTrace
 10
1098.218860586963
 20
366.0641455816443
 30
0
 11
1098.635145244736
 21
363.5641455816443
 31
0
 12
1097.80257592919
 22
363.5641455816443
 32
0
 13
1097.80257592919
 23
363.5641455816443
 33
0
  0
MTEXT
  5
92
100
AcDbEntity
  8
measures
  6
CONTINUOUS
 62
    0
370
   -2
100
AcDbMText
 10
1090.093860586963
 20
403.355812248312
 30
0
 40
15
 41
73.33333333333519
 71
    5
 72
    1
  1
54.4737
  7
standard
210
0
220
0
230
1
 50
90
 73
    2
 44
1
  0
LINE
  5
93
100
AcDbEntity
  8
measures
  6
ByBlock
 62
    0
370
   -2
100
AcDbLine
 10
1001.52599299293
 20
311.5904109106983
 11
1099.468860586963
 21
311.5904109106983
  0
LINE
  5
94
100
AcDbEntity
  8
measures
  6
ByBlock
 62
    0
370
   -2
100
AcDbLine
 10
1001.52599299293
 20
366.0641455816443
 11
1099.468860586963
 21
366.0641455816443
  0
ENDBLK
  5
5E
330
5C
100
AcDbEntity
  8
0
100
AcDbBlockEnd
  0
BLOCK
  5
60
330
5F
100
AcDbEntity
  8
0
100
AcDbBlockBegin
  2
*D10
 70
    1
 10
0
 20
0
  3
*D10
  1

  0
LINE
  5
95
100
AcDbEntity
  8
measures
  6
ByBlock
 62
    0
370
   -2
100
AcDbLine
 10
816.9214949770192
 20
311.5904109106983
 11
844.0374931449664
 21
311.5904109106983
  0
LINE
  5
96
100
AcDbEntity
  8
measures
  6
ByBlock
 62
    0
370
   -2
100
AcDbLine
 10
946.1833449384545
 20
366.5068880838987
 11
890.1830903790727
 21
422.7106324067901
  0
ARC
  5
97
100
AcDbEntity
  8
measures
  6
ByBlock
 62
    0
370
   -2
100
AcDbCircle
 10
1000.90099299293
 20
311.5904109106983
 40
155.6134998479639
100
AcDbArc
 50
134.8960902288958
 51
180
  0
SOLID
  5
98
100
AcDbEntity
  8
measures
  6
ByBlock
 62
    0
370
   -2
100
AcDbTrace
 10
845.2874931449664
 20
311.5904109106983
 30
0
 11
844.8913035067274
 21
314.0936741183632
 31
0
 12
845.7238459618063
 22
314.0869863923397
 32
0
 13
845.7238459618063
 23
314.0869863923397
 33
0
  0
SOLID
  5
99
100
AcDbEntity
  8
measures
  6
ByBlock
 62
    0
370
   -2
100
AcDbTrace
 10
891.0653694204141
 20
421.8251474022815
 30
0
 11
889.6048132550626
 21
419.7538993234288
 31
0
 12
889.0124479428616
 22
420.3389420586963
 32
0
 13
889.0124479428616
 23
420.3389420586963
 33
0
  0
MTEXT
  5
9A
100
AcDbEntity
  8
measures
  6
CONTINUOUS
 62
    0
370
   -2
100
AcDbMText
 10
856.6097166306515
 20
371.5111619113882
 30
0
 40
15
 41
55.00000000000094
 71
    8
 72
    1
  1
45.10%%D
  7
standard
210
0
220
0
230
1
 50
427.448045114448
 73
    2
 44
1
  0
ENDBLK
  5
61
330
5F
100
AcDbEntity
  8
0
100
AcDbBlockEnd
  0
BLOCK
  5
63
330
62
100
AcDbEntity
  8
0
100
AcDbBlockBegin
  2
*D1
 70
    1
 10
0
 20
0
  3
*D1
  1

  0
LINE
  5
9B
100
AcDbEntity
  8
measures
  6
ByBlock
 62
    0
370
   -2
100
AcDbLine
 10
1343.101212124019
 20
777.585991364505
 11
1343.101212124019
 21
94.53689633320499
  0
SOLID
  5
9C
100
AcDbEntity
  8
measures
  6
ByBlock
 62
    0
370
   -2
100
AcDbTrace
 10
1343.101212124019
 20
777.585991364505
 30
0
 11
1343.517496781791
 21
775.085991364505
 31
0
 12
1342.684927466246
 22
775.085991364505
 32
0
 13
1342.684927466246
 23
775.085991364505
 33
0
  0
SOLID
  5
9D
100
AcDbEntity
  8
measures
  6
ByBlock
 62
    0
370
   -2
100
AcDbTrace
 10
1343.101212124019
 20
94.53689633320499
 30
0
 11
1342.684927466246
 21
97.03689633320499
 31
0
 12
1343.517496781791
 22
97.03689633320499
 32
0
 13
1343.517496781791
 23
97.03689633320499
 33
0
  0
MTEXT
  5
9E
100
AcDbEntity
  8
measures
  6
CONTINUOUS
 62
    0
370
   -2
100
AcDbMText
 10
1334.976212124019
 20
436.061443848855
 30
0
 40
15
 41
80.00000000000186
 71
    5
 72
    1
  1
683.0491
  7
standard
210
0
220
0
230
1
 50
90
 73
    2
 44
1
  0
LINE
  5
9F
100
AcDbEntity
  8
measures
  6
ByBlock
 62
    0
370
   -2
100
AcDbLine
 10
1001.52599299293
 20
777.585991364505
 11
1344.351212124019
 21
777.585991364505
  0
LINE
  5
A0
100
AcDbEntity
  8
measures
  6
ByBlock
 62
    0
370
   -2
100
AcDbLine
 10
1001.52599299293
 20
94.53689633320499
 11
1344.351212124019
 21
94.53689633320499
  0
ENDBLK
  5
64
330
62
100
AcDbEntity
  8
0
100
AcDbBlockEnd
  0
BLOCK
  5
66
330
65
100
AcDbEntity
  8
0
100
AcDbBlockBegin
  2
*D6
 70
    1
 10
0
 20
0
  3
*D6
  1

  0
LINE
  5
A1
100
AcDbEntity
  8
measures
  6
ByBlock
 62
    0
370
   -2
100
AcDbLine
 10
730.4999824812568
 20
432.1029348664593
 11
946.6244844591251
 21
432.1029348664593
  0
SOLID
  5
A2
100
AcDbEntity
  8
measures
  6
ByBlock
 62
    0
370
   -2
100
AcDbTrace
 10
730.4999824812568
 20
432.1029348664593
 30
0
 11
732.9999824812568
 21
432.5192195242322
 31
0
 12
732.9999824812568
 22
431.6866502086865
 32
0
 13
732.9999824812568
 23
431.6866502086865
 33
0
  0
SOLID
  5
A3
100
AcDbEntity
  8
measures
  6
ByBlock
 62
    0
370
   -2
100
AcDbTrace
 10
946.6244844591251
 20
432.1029348664593
 30
0
 11
944.1244844591251
 21
431.6866502086865
 31
0
 12
944.1244844591251
 22
432.5192195242322
 32
0
 13
944.1244844591251
 23
432.5192195242322
 33
0
  0
MTEXT
  5
A4
100
AcDbEntity
  8
measures
  6
CONTINUOUS
 62
    0
370
   -2
100
AcDbMText
 10
838.5622334701909
 20
440.2279348664593
 30
0
 40
15
 41
76.66666666666852
 71
    5
 72
    1
  1
216.1245
  7
standard
210
0
220
0
230
1
 50
0
 73
    2
 44
1
  0
LINE
  5
A5
100
AcDbEntity
  8
measures
  6
ByBlock
 62
    0
370
   -2
100
AcDbLine
 10
730.4999824812568
 20
366.6891455816443
 11
730.4999824812568
 21
433.3529348664593
  0
LINE
  5
A6
100
AcDbEntity
  8
measures
  6
ByBlock
 62
    0
370
   -2
100
AcDbLine
 10
946.6244844591251
 20
366.6891455816443
 11
946.6244844591251
 21
433.3529348664593
  0
ENDBLK
  5
67
330
65
100
AcDbEntity
  8
0
100
AcDbBlockEnd
  0
BLOCK
  5
69
330
68
100
AcDbEntity
  8
0
100
AcDbBlockBegin
  2
*D13
 70
    1
 10
0
 20
0
  3
*D13
  1

  0
LINE
  5
A7
100
AcDbEntity
  8
measures
  6
ByBlock
 62
    0
370
   -2
100
AcDbLine
 10
784.1333897652771
 20
24.63294640568888
 11
892.6667211407491
 21
24.63294640568888
  0
SOLID
  5
A8
100
AcDbEntity
  8
measures
  6
ByBlock
 62
    0
370
   -2
100
AcDbTrace
 10
784.1333897652771
 20
24.63294640568888
 30
0
 11
786.6333897652771
 21
25.04923106346173
 31
0
 12
786.6333897652771
 22
24.21666174791604
 32
0
 13
786.6333897652771
 23
24.21666174791604
 33
0
  0
SOLID
  5
A9
100
AcDbEntity
  8
measures
  6
ByBlock
 62
    0
370
   -2
100
AcDbTrace
 10
892.6667211407491
 20
24.63294640568888
 30
0
 11
890.1667211407491
 21
24.21666174791604
 31
0
 12
890.1667211407491
 22
25.04923106346173
 32
0
 13
890.1667211407491
 23
25.04923106346173
 33
0
  0
MTEXT
  5
AA
100
AcDbEntity
  8
measures
  6
CONTINUOUS
 62
    0
370
   -2
100
AcDbMText
 10
838.4000554530131
 20
32.75794640568888
 30
0
 40
15
 41
78.33333333333707
 71
    5
 72
    1
  1
108.5333
  7
standard
210
0
220
0
230
1
 50
0
 73
    2
 44
1
  0
LINE
  5
AB
100
AcDbEntity
  8
measures
  6
ByBlock
 62
    0
370
   -2
100
AcDbLine
 10
784.1333897652771
 20
93.91189633320499
 11
784.1333897652771
 21
23.38294640568888
  0
LINE
  5
AC
100
AcDbEntity
  8
measures
  6
ByBlock
 62
    0
370
   -2
100
AcDbLine
 10
892.6667211407491
 20
93.91189633320499
 11
892.6667211407491
 21
23.38294640568888
  0
ENDBLK
  5
6A
330
68
100
AcDbEntity
  8
0
100
AcDbBlockEnd
  0
BLOCK
  5
6C
330
6B
100
AcDbEntity
  8
0
100
AcDbBlockBegin
  2
*D11
 70
    1
 10
0
 20
0
  3
*D11
  1

  0
LINE
  5
AD
100
AcDbEntity
  8
measures
  6
ByBlock
 62
    0
370
   -2
100
AcDbLine
 10
2555.837555638514
 20
-1649.491349139681
 11
2555.837555638514
 21
-1248.197915263518
  0
SOLID
  5
AE
100
AcDbEntity
  8
measures
  6
ByBlock
 62
    0
370
   -2
100
AcDbTrace
 10
2555.837555638514
 20
-1649.491349139681
 30
0
 11
2555.421270980741
 21
-1646.991349139681
 31
0
 12
2556.253840296286
 22
-1646.991349139681
 32
0
 13
2556.253840296286
 23
-1646.991349139681
 33
0
  0
SOLID
  5
AF
100
AcDbEntity
  8
measures
  6
ByBlock
 62
    0
370
   -2
100
AcDbTrace
 10
2555.837555638514
 20
-1248.197915263518
 30
0
 11
2556.253840296286
 21
-1250.697915263518
 31
0
 12
2555.421270980741
 22
-1250.697915263518
 32
0
 13
2555.421270980741
 23
-1250.697915263518
 33
0
  0
MTEXT
  5
B0
100
AcDbEntity
  8
measures
  6
CONTINUOUS
 62
    0
370
   -2
100
AcDbMText
 10
2547.712555638514
 20
-1448.844632201599
 30
0
 40
15
 41
81.66666666666761
 71
    5
 72
    1
  1
401.2934
  7
standard
210
0
220
0
230
1
 50
90
 73
    2
 44
1
  0
LINE
  5
B1
100
AcDbEntity
  8
measures
  6
ByBlock
 62
    0
370
   -2
100
AcDbLine
 10
2980.334408130997
 20
-1649.491349139681
 11
2554.587555638514
 21
-1649.491349139681
  0
LINE
  5
B2
100
AcDbEntity
  8
measures
  6
ByBlock
 62
    0
370
   -2
100
AcDbLine
 10
2946.307161467762
 20
-1248.197915263518
 11
2554.587555638514
 21
-1248.197915263518
  0
ENDBLK
  5
6D
330
6B
100
AcDbEntity
  8
0
100
AcDbBlockEnd
  0
BLOCK
  5
6F
330
6E
100
AcDbEntity
  8
0
100
AcDbBlockBegin
  2
*D3
 70
    1
 10
0
 20
0
  3
*D3
  1

  0
LINE
  5
B3
100
AcDbEntity
  8
measures
  6
ByBlock
 62
    0
370
   -2
100
AcDbLine
 10
1156.130545302156
 20
94.53689633320499
 11
1156.130545302156
 21
257.0636837525079
  0
SOLID
  5
B4
100
AcDbEntity
  8
measures
  6
ByBlock
 62
    0
370
   -2
100
AcDbTrace
 10
1156.130545302156
 20
94.53689633320499
 30
0
 11
1155.714260644384
 21
97.03689633320499
 31
0
 12
1156.546829959929
 22
97.03689633320499
 32
0
 13
1156.546829959929
 23
97.03689633320499
 33
0
  0
SOLID
  5
B5
100
AcDbEntity
  8
measures
  6
ByBlock
 62
    0
370
   -2
100
AcDbTrace
 10
1156.130545302156
 20
257.0636837525079
 30
0
 11
1156.546829959929
 21
254.5636837525079
 31
0
 12
1155.714260644384
 22
254.5636837525079
 32
0
 13
1155.714260644384
 23
254.5636837525079
 33
0
  0
MTEXT
  5
B6
100
AcDbEntity
  8
measures
  6
CONTINUOUS
 62
    0
370
   -2
100
AcDbMText
 10
1148.005545302156
 20
175.8002900428564
 30
0
 40
15
 41
78.33333333333613
 71
    5
 72
    1
  1
162.5268
  7
standard
210
0
220
0
230
1
 50
90
 73
    2
 44
1
  0
LINE
  5
B7
100
AcDbEntity
  8
measures
  6
ByBlock
 62
    0
370
   -2
100
AcDbLine
 10
893.291721140749
 20
94.53689633320499
 11
1157.380545302156
 21
94.53689633320499
  0
LINE
  5
B8
100
AcDbEntity
  8
measures
  6
ByBlock
 62
    0
370
   -2
100
AcDbLine
 10
893.291721140749
 20
257.0636837525079
 11
1157.380545302156
 21
257.0636837525079
  0
ENDBLK
  5
70
330
6E
100
AcDbEntity
  8
0
100
AcDbBlockEnd
  0
BLOCK
  5
72
330
71
100
AcDbEntity
  8
0
100
AcDbBlockBegin
  2
*D2
 70
    1
 10
0
 20
0
  3
*D2
  1

  0
LINE
  5
B9
100
AcDbEntity
  8
measures
  6
ByBlock
 62
    0
370
   -2
100
AcDbLine
 10
1226.458961262673
 20
94.53689633320494
 11
1226.458961262673
 21
366.0641455816443
  0
SOLID
  5
BA
100
AcDbEntity
  8
measures
  6
ByBlock
 62
    0
370
   -2
100
AcDbTrace
 10
1226.458961262673
 20
94.53689633320494
 30
0
 11
1226.0426766049
 21
97.03689633320494
 31
0
 12
1226.875245920446
 22
97.03689633320494
 32
0
 13
1226.875245920446
 23
97.03689633320494
 33
0
  0
SOLID
  5
BB
100
AcDbEntity
  8
measures
  6
ByBlock
 62
    0
370
   -2
100
AcDbTrace
 10
1226.458961262673
 20
366.0641455816443
 30
0
 11
1226.875245920446
 21
363.5641455816443
 31
0
 12
1226.0426766049
 22
363.5641455816443
 32
0
 13
1226.0426766049
 23
363.5641455816443
 33
0
  0
MTEXT
  5
BC
100
AcDbEntity
  8
measures
  6
CONTINUOUS
 62
    0
370
   -2
100
AcDbMText
 10
1218.333961262673
 20
230.3005209574246
 30
0
 40
15
 41
78.33333333333425
 71
    5
 72
    1
  1
271.5272
  7
standard
210
0
220
0
230
1
 50
90
 73
    2
 44
1
  0
LINE
  5
BD
100
AcDbEntity
  8
measures
  6
ByBlock
 62
    0
370
   -2
100
AcDbLine
 10
893.2917211407491
 20
94.53689633320499
 11
1227.708961262673
 21
94.53689633320494
  0
LINE
  5
BE
100
AcDbEntity
  8
measures
  6
ByBlock
 62
    0
370
   -2
100
AcDbLine
 10
893.2917211407491
 20
366.0641455816443
 11
1227.708961262673
 21
366.0641455816443
  0
ENDBLK
  5
73
330
71
100
AcDbEntity
  8
0
100
AcDbBlockEnd
  0
BLOCK
  5
75
330
74
100
AcDbEntity
  8
0
100
AcDbBlockBegin
  2
*D8
 70
    1
 10
0
 20
0
  3
*D8
  1

  0
LINE
  5
BF
100
AcDbEntity
  8
measures
  6
ByBlock
 62
    0
370
   -2
100
AcDbLine
 10
892.666721140749
 20
190.905334644089
 11
1000.90099299293
 21
190.905334644089
  0
SOLID
  5
C0
100
AcDbEntity
  8
measures
  6
ByBlock
 62
    0
370
   -2
100
AcDbTrace
 10
892.666721140749
 20
190.905334644089
 30
0
 11
895.166721140749
 21
191.3216193018618
 31
0
 12
895.166721140749
 22
190.4890499863161
 32
0
 13
895.166721140749
 23
190.4890499863161
 33
0
  0
SOLID
  5
C1
100
AcDbEntity
  8
measures
  6
ByBlock
 62
    0
370
   -2
100
AcDbTrace
 10
1000.90099299293
 20
190.905334644089
 30
0
 11
998.4009929929301
 21
190.4890499863161
 31
0
 12
998.4009929929301
 22
191.3216193018618
 32
0
 13
998.4009929929301
 23
191.3216193018618
 33
0
  0
MTEXT
  5
C2
100
AcDbEntity
  8
measures
  6
CONTINUOUS
 62
    0
370
   -2
100
AcDbMText
 10
946.7838570668396
 20
199.030334644089
 30
0
 40
15
 41
80.00000000000188
 71
    5
 72
    1
  1
108.2343
  7
standard
210
0
220
0
230
1
 50
0
 73
    2
 44
1
  0
LINE
  5
C3
100
AcDbEntity
  8
measures
  6
ByBlock
 62
    0
370
   -2
100
AcDbLine
 10
892.666721140749
 20
256.4386837525079
 11
892.666721140749
 21
189.655334644089
  0
LINE
  5
C4
100
AcDbEntity
  8
measures
  6
ByBlock
 62
    0
370
   -2
100
AcDbLine
 10
1000.90099299293
 20
256.4386837525079
 11
1000.90099299293
 21
189.655334644089
  0
ENDBLK
  5
76
330
74
100
AcDbEntity
  8
0
100
AcDbBlockEnd
  0
ENDSEC
  0
SECTION
  2
ENTITIES
  0
IMAGE
  5
C7
100
AcDbEntity
  8
0
  6
ByLayer
 62
  256
370
   -1
100
AcDbRasterImage
 10
2302.819207629308
 20
-1683.100277135794
 30
0
 11
1
 21
0
 31
0
 12
6.123233995736766e-17
 22
1
 32
0
 13
1895
 23
967
340
C5
 70
    1
280
    0
281
   50
282
   50
283
    0
360
C6
  0
IMAGE
  5
CA
100
AcDbEntity
  8
0
  6
ByLayer
 62
  256
370
   -1
100
AcDbRasterImage
 10
0
 20
0
 30
0
 11
1
 21
0
 31
0
 12
6.123233995736766e-17
 22
1
 32
0
 13
1895
 23
967
340
C8
 70
    1
280
    0
281
   50
282
   50
283
    0
360
C9
  0
LINE
  5
CB
100
AcDbEntity
  8
Guides
  6
ByLayer
 62
  256
370
   -1
100
AcDbLine
 10
759.5813299609996
 20
94.53689633320499
 11
909.5813299609996
 21
94.53689633320499
  0
LINE
  5
CC
100
AcDbEntity
  8
Guides
  6
ByLayer
 62
  256
370
   -1
100
AcDbLine
 10
724.7246766044685
 20
777.585991364505
 11
874.7246766044685
 21
777.585991364505
  0
LINE
  5
CD
100
AcDbEntity
  8
Guides
  6
ByLayer
 62
  256
370
   -1
100
AcDbLine
 10
767.3444350790297
 20
366.0641455816443
 11
917.3444350790297
 21
366.0641455816443
  0
LINE
  5
CE
100
AcDbEntity
  8
Guides
  6
ByLayer
 62
  256
370
   -1
100
AcDbLine
 10
819.7105093280182
 20
257.0636837525079
 11
969.7105093280182
 21
257.0636837525079
  0
LINE
  5
CF
100
AcDbEntity
  8
Guides
  6
ByLayer
 62
  256
370
   -1
100
AcDbLine
 10
925.7630883179851
 20
311.5904109106983
 11
1075.763088317985
 21
311.5904109106983
  0
LINE
  5
D0
100
AcDbEntity
  8
Guides
  6
ByLayer
 62
  256
370
   -1
100
AcDbLine
 10
675.9767910639664
 20
184.9708328420393
 11
675.9767910639664
 21
334.9708328420393
  0
LINE
  5
D1
100
AcDbEntity
  8
Guides
  6
ByLayer
 62
  256
370
   -1
100
AcDbLine
 10
730.4999824812568
 20
291.0641455816495
 11
730.4999824812568
 21
441.0641455816495
  0
LINE
  5
D2
100
AcDbEntity
  8
Guides
  6
ByLayer
 62
  256
370
   -1
100
AcDbLine
 10
784.1333897652771
 20
182.0442667116668
 11
784.1333897652771
 21
332.0442667116668
  0
LINE
  5
D3
100
AcDbEntity
  8
Guides
  6
ByLayer
 62
  256
370
   -1
100
AcDbLine
 10
892.6667211407491
 20
181.8675665424788
 11
892.6667211407491
 21
331.8675665424788
  0
LINE
  5
D4
100
AcDbEntity
  8
Guides
  6
ByLayer
 62
  256
370
   -1
100
AcDbLine
 10
1000.90099299293
 20
236.4140354406066
 11
1000.90099299293
 21
386.4140354406066
  0
LINE
  5
D5
100
AcDbEntity
  8
Guides
  6
ByLayer
 62
  256
370
   -1
100
AcDbLine
 10
946.6244844591251
 20
291.0830315277819
 11
946.6244844591251
 21
441.0830315277819
  0
DIMENSION
  5
D6
100
AcDbEntity
  8
measures
  6
ByLayer
 62
  256
370
   -1
100
AcDbDimension
  2
*D1
 10
1343.101212124019
 20
94.53689633320495
 30
0
 11
1334.976212124019
 21
436.061443848855
 31
0
 70
   32
 71
    5
  3
Standard
 53
0
210
0
220
0
230
1
100
AcDbAlignedDimension
 13
1000.90099299293
 23
777.585991364505
 33
0
 14
1000.90099299293
 24
94.53689633320499
 34
0
 50
90
100
AcDbRotatedDimension
  0
DIMENSION
  5
D7
100
AcDbEntity
  8
measures
  6
ByLayer
 62
  256
370
   -1
100
AcDbDimension
  2
*D2
 10
1226.458961262673
 20
366.0641455816443
 30
0
 11
1218.333961262673
 21
230.3005209574246
 31
0
 70
   32
 71
    5
  3
Standard
 53
0
210
0
220
0
230
1
100
AcDbAlignedDimension
 13
892.6667211407491
 23
94.53689633320499
 33
0
 14
892.6667211407491
 24
366.0641455816443
 34
0
 50
90
100
AcDbRotatedDimension
  0
DIMENSION
  5
D8
100
AcDbEntity
  8
measures
  6
ByLayer
 62
  256
370
   -1
100
AcDbDimension
  2
*D3
 10
1156.130545302156
 20
257.0636837525079
 30
0
 11
1148.005545302156
 21
175.8002900428564
 31
0
 70
   32
 71
    5
  3
Standard
 53
0
210
0
220
0
230
1
100
AcDbAlignedDimension
 13
892.666721140749
 23
94.53689633320499
 33
0
 14
892.666721140749
 24
257.0636837525079
 34
0
 50
90
100
AcDbRotatedDimension
  0
DIMENSION
  5
D9
100
AcDbEntity
  8
measures
  6
ByLayer
 62
  256
370
   -1
100
AcDbDimension
  2
*D4
 10
1130.400637023919
 20
311.5904109106983
 30
0
 11
1122.275637023919
 21
284.3270473316031
 31
0
 70
   32
 71
    5
  3
Standard
 53
0
210
0
220
0
230
1
100
AcDbAlignedDimension
 13
1000.90099299293
 23
257.0636837525079
 33
0
 14
1000.90099299293
 24
311.5904109106983
 34
0
 50
90
100
AcDbRotatedDimension
  0
DIMENSION
  5
DA
100
AcDbEntity
  8
measures
  6
ByLayer
 62
  256
370
   -1
100
AcDbDimension
  2
*D5
 10
1098.218860586963
 20
366.0641455816443
 30
0
 11
1090.093860586963
 21
338.8272782461713
 31
0
 70
   32
 71
    5
  3
Standard
 53
0
210
0
220
0
230
1
100
AcDbAlignedDimension
 13
1000.90099299293
 23
311.5904109106983
 33
0
 14
1000.90099299293
 24
366.0641455816443
 34
0
 50
90
100
AcDbRotatedDimension
  0
DIMENSION
  5
DB
100
AcDbEntity
  8
measures
  6
ByLayer
 62
  256
370
   -1
100
AcDbDimension
  2
*D6
 10
946.6244844591251
 20
432.1029348664593
 30
0
 11
838.5622334701909
 21
440.2279348664593
 31
0
 70
   32
 71
    5
  3
Standard
 53
0
210
0
220
0
230
1
100
AcDbAlignedDimension
 13
730.4999824812568
 23
366.0641455816443
 33
0
 14
946.6244844591251
 24
366.0641455816443
 34
0
100
AcDbRotatedDimension
  0
DIMENSION
  5
DC
100
AcDbEntity
  8
measures
  6
ByLayer
 62
  256
370
   -1
100
AcDbDimension
  2
*D7
 10
784.1333897652771
 20
190.905334644089
 30
0
 11
730.0550904146218
 21
199.030334644089
 31
0
 70
   32
 71
    5
  3
Standard
 53
0
210
0
220
0
230
1
100
AcDbAlignedDimension
 13
675.9767910639664
 23
257.0636837525079
 33
0
 14
784.1333897652771
 24
257.0636837525079
 34
0
100
AcDbRotatedDimension
  0
DIMENSION
  5
DD
100
AcDbEntity
  8
measures
  6
ByLayer
 62
  256
370
   -1
100
AcDbDimension
  2
*D8
 10
1000.90099299293
 20
190.905334644089
 30
0
 11
946.7838570668396
 21
199.030334644089
 31
0
 70
   32
 71
    5
  3
Standard
 53
0
210
0
220
0
230
1
100
AcDbAlignedDimension
 13
892.666721140749
 23
257.0636837525079
 33
0
 14
1000.90099299293
 24
257.0636837525079
 34
0
100
AcDbRotatedDimension
  0
DIMENSION
  5
DE
100
AcDbEntity
  8
measures
  6
ByLayer
 62
  256
370
   -1
100
AcDbDimension
  2
*D9
 10
730.4999824812568
 20
366.0641455816443
 30
0
 11
0
 21
0
 31
0
 70
   34
 71
    5
  3
Standard
 53
0
210
0
220
0
230
1
100
AcDb2LineAngularDimension
 13
925.7630883179851
 23
311.5904109106983
 33
0
 14
1075.763088317985
 24
311.5904109106983
 34
0
 15
675.9767910639664
 25
311.5904109106983
 35
0
 16
815.9886363540544
 26
320.8803239733302
 36
0
  0
DIMENSION
  5
DF
100
AcDbEntity
  8
measures
  6
ByLayer
 62
  256
370
   -1
100
AcDbDimension
  2
*D10
 10
946.6244844591251
 20
366.0641455816443
 30
0
 11
0
 21
0
 31
0
 70
   34
 71
    5
  3
Standard
 53
0
210
0
220
0
230
1
100
AcDb2LineAngularDimension
 13
1076.388088317985
 23
311.5904109106983
 33
0
 14
817.5464949770192
 24
311.5904109106983
 34
0
 15
1000.90099299293
 25
311.5904109106983
 35
0
 16
848.1602313357555
 26
341.3531571435036
 36
0
  0
LINE
  5
E0
100
AcDbEntity
  8
Guides
  6
ByLayer
 62
  256
370
   -1
100
AcDbLine
 10
2916.226274214307
 20
-1649.491349139681
 11
3066.226274214307
 21
-1649.491349139681
  0
LINE
  5
E1
100
AcDbEntity
  8
Guides
  6
ByLayer
 62
  256
370
   -1
100
AcDbLine
 10
3101.416605280379
 20
-805.4456691149584
 11
3251.416605280379
 21
-805.4456691149584
  0
LINE
  5
E2
100
AcDbEntity
  8
Guides
  6
ByLayer
 62
  256
370
   -1
100
AcDbLine
 10
3142.316208394432
 20
-1248.197915263518
 11
3292.316208394432
 21
-1248.197915263518
  0
DIMENSION
  5
E3
100
AcDbEntity
  8
measures
  6
ByLayer
 62
  256
370
   -1
100
AcDbDimension
  2
*D11
 10
2555.837555638514
 20
-1248.197915263518
 30
0
 11
2547.712555638514
 21
-1448.844632201599
 31
0
 70
   32
 71
    5
  3
Standard
 53
0
210
0
220
0
230
1
100
AcDbAlignedDimension
 13
2980.959408130997
 23
-1649.491349139681
 33
0
 14
2946.932161467762
 24
-1248.197915263518
 34
0
 50
90
100
AcDbRotatedDimension
  0
DIMENSION
  5
E4
100
AcDbEntity
  8
measures
  6
ByLayer
 62
  256
370
   -1
100
AcDbDimension
  2
*D12
 10
2294.67910779322
 20
-805.4456691149584
 30
0
 11
2286.55410779322
 21
-1227.46850912732
 31
0
 70
   32
 71
    5
  3
Standard
 53
0
210
0
220
0
230
1
100
AcDbAlignedDimension
 13
3031.323253192748
 23
-1649.491349139681
 33
0
 14
3044.361202668846
 24
-805.4456691149584
 34
0
 50
90
100
AcDbRotatedDimension
  0
DIMENSION
  5
E5
100
AcDbEntity
  8
measures
  6
ByLayer
 62
  256
370
   -1
100
AcDbDimension
  2
*D13
 10
896.0234255069336
 20
24.63294640568888
 30
0
 11
838.4000554530131
 21
32.75794640568888
 31
0
 70
   32
 71
    5
  3
Standard
 53
0
210
0
220
0
230
1
100
AcDbAlignedDimension
 13
784.1333897652771
 23
94.53689633320499
 33
0
 14
892.6667211407491
 24
94.53689633320499
 34
0
100
AcDbRotatedDimension
  0
LINE
  5
E6
100
AcDbEntity
  8
HookFrontView
  6
ByLayer
 62
  256
370
   -1
100
AcDbLine
 10
784.1333897652771
 20
94.53689633320499
 11
892.6667211407491
 21
94.53689633320499
  0
LINE
  5
E7
100
AcDbEntity
  8
HookFrontView
  6
ByLayer
 62
  256
370
   -1
100
AcDbLine
 10
892.6667211407491
 20
94.53689633320499
 11
892.6667211407491
 21
257.0636837525079
  0
LINE
  5
E8
100
AcDbEntity
  8
HookFrontView
  6
ByLayer
 62
  256
370
   -1
100
AcDbLine
 10
892.6667211407491
 20
257.0636837525079
 11
1000.90099299293
 21
257.0636837525079
  0
LINE
  5
E9
100
AcDbEntity
  8
HookFrontView
  6
ByLayer
 62
  256
370
   -1
100
AcDbLine
 10
1000.90099299293
 20
257.0636837525079
 11
1000.90099299293
 21
311.5904109106983
  0
LINE
  5
EA
100
AcDbEntity
  8
HookFrontView
  6
ByLayer
 62
  256
370
   -1
100
AcDbLine
 10
1000.90099299293
 20
311.5904109106983
 11
946.6244844591251
 21
366.0641455816443
  0
LINE
  5
EB
100
AcDbEntity
  8
HookFrontView
  6
ByLayer
 62
  256
370
   -1
100
AcDbLine
 10
946.6244844591251
 20
366.0641455816443
 11
730.4999824812568
 21
366.0641455816443
  0
LINE
  5
EC
100
AcDbEntity
  8
HookFrontView
  6
ByLayer
 62
  256
370
   -1
100
AcDbLine
 10
730.4999824812568
 20
366.0641455816443
 11
675.9767910639664
 21
311.5904109106983
  0
LINE
  5
ED
100
AcDbEntity
  8
HookFrontView
  6
ByLayer
 62
  256
370
   -1
100
AcDbLine
 10
675.9767910639664
 20
311.5904109106983
 11
675.9767910639664
 21
257.0636837525079
  0
LINE
  5
EE
100
AcDbEntity
  8
HookFrontView
  6
ByLayer
 62
  256
370
   -1
100
AcDbLine
 10
675.9767910639664
 20
257.0636837525079
 11
784.1333897652771
 21
257.0636837525079
  0
LINE
  5
EF
100
AcDbEntity
  8
HookFrontView
  6
ByLayer
 62
  256
370
   -1
100
AcDbLine
 10
784.1333897652771
 20
257.0636837525079
 11
784.1333897652771
 21
94.53689633320499
  0
ENDSEC
  0
SECTION
  2
OBJECTS
  0
DICTIONARY
  5
C
330
0
100
AcDbDictionary
281
    1
  3
ACAD_GROUP
350
D
  3
ACAD_IMAGE_DICT
350
F0
  0
DICTIONARY
  5
D
330
C
100
AcDbDictionary
281
    1
  0
IMAGEDEF_REACTOR
  5
C6
330
C7
100
AcDbRasterImageDefReactor
 90
    2
330
C7
  0
IMAGEDEF_REACTOR
  5
C9
330
CA
100
AcDbRasterImageDefReactor
 90
    2
330
CA
  0
DICTIONARY
  5
F0
330
C
100
AcDbDictionary
281
    1
  3
firstDraftBoxWithMountsTopViewBig
350
C5
  3
firstDraftBoxWithMountsFrontViewBig
350
C8
  0
IMAGEDEF
  5
C5
102
{ACAD_REACTORS
330
C6
102
}
100
AcDbRasterImageDef
 90
    0
  1
/home/bob/Desktop/RC/Radio & Misc/CameraBox/firstDraftBoxWithMountsTopViewBig.png
 10
1895
 20
967
 11
1
 21
1
280
    1
281
    0
  0
IMAGEDEF
  5
C8
102
{ACAD_REACTORS
330
C9
102
}
100
AcDbRasterImageDef
 90
    0
  1
/home/bob/Desktop/RC/Radio & Misc/CameraBox/firstDraftBoxWithMountsFrontViewBig.png
 10
1895
 20
967
 11
1
 21
1
280
    1
281
    0
  0
ENDSEC
  0
EOF
