999
dxfrw 0.6.3
  0
SECTION
  2
HEADER
  9
$ACADVER
  1
AC1021
  9
$DWGCODEPAGE
  3
ANSI_1252
  9
$INSBASE
 10
0
 20
0
 30
0
  9
$EXTMIN
 10
-158.290125563228
 20
-250.5681138653854
 30
0
  9
$EXTMAX
 10
906.816381641117
 20
355.1664880304495
 30
0
  9
$LIMMIN
 10
0
 20
0
  9
$LIMMAX
 10
12
 20
9
  9
$ORTHOMODE
 70
    0
  9
$REGENMODE
 70
    1
  9
$FILLMODE
 70
    1
  9
$QTEXTMODE
 70
    0
  9
$MIRRTEXT
 70
    1
  9
$LTSCALE
 40
1
  9
$ATTMODE
 70
    1
  9
$TEXTSIZE
 40
0.2
  9
$TRACEWID
 40
0.05
  9
$TEXTSTYLE
  7
STANDARD
  9
$CLAYER
  8
0
  9
$CELTYPE
  6
BYLAYER
  9
$CECOLOR
 62
  256
  9
$CELTSCALE
 40
1
  9
$DISPSILH
 70
    0
  9
$DIMSCALE
 40
1
  9
$DIMASZ
 40
0.18
  9
$DIMEXO
 40
0.0625
  9
$DIMDLI
 40
0.38
  9
$DIMRND
 40
0
  9
$DIMDLE
 40
0
  9
$DIMEXE
 40
0.18
  9
$DIMTP
 40
0
  9
$DIMTM
 40
0
  9
$DIMTXT
 40
10
  9
$DIMCEN
 40
0.09
  9
$DIMTSZ
 40
0
  9
$DIMTOL
 70
    0
  9
$DIMLIM
 70
    0
  9
$DIMTIH
 70
    1
  9
$DIMTOH
 70
    1
  9
$DIMSE1
 70
    0
  9
$DIMSE2
 70
    0
  9
$DIMTAD
 70
    0
  9
$DIMZIN
 70
    0
  9
$DIMBLK
  1

  9
$DIMASO
 70
    1
  9
$DIMSHO
 70
    1
  9
$DIMPOST
  1

  9
$DIMAPOST
  1

  9
$DIMALT
 70
    0
  9
$DIMALTD
 70
    2
  9
$DIMALTF
 40
25.4
  9
$DIMLFAC
 40
1
  9
$DIMTOFL
 70
    0
  9
$DIMTVP
 40
0
  9
$DIMTIX
 70
    0
  9
$DIMSOXD
 70
    0
  9
$DIMSAH
 70
    0
  9
$DIMBLK1
  1

  9
$DIMBLK2
  1

  9
$DIMSTYLE
  2
STANDARD
  9
$DIMCLRD
 70
    0
  9
$DIMCLRE
 70
    0
  9
$DIMCLRT
 70
    0
  9
$DIMTFAC
 40
1
  9
$DIMGAP
 40
0.09
  9
$DIMJUST
 70
    0
  9
$DIMSD1
 70
    0
  9
$DIMSD2
 70
    0
  9
$DIMTOLJ
 70
    0
  9
$DIMTZIN
 70
    8
  9
$DIMALTZ
 70
    0
  9
$DIMALTTZ
 70
    0
  9
$DIMUPT
 70
    0
  9
$DIMDEC
 70
    4
  9
$DIMTDEC
 70
    2
  9
$DIMALTU
 70
    2
  9
$DIMALTTD
 70
    3
  9
$DIMTXSTY
  7
standard
  9
$DIMAUNIT
 70
    0
  9
$DIMADEC
 70
    0
  9
$DIMALTRND
 40
0
  9
$DIMAZIN
 70
    0
  9
$DIMDSEP
 70
    0
  9
$DIMATFIT
 70
    3
  9
$DIMFRAC
 70
    0
  9
$DIMLDRBLK
  1
STANDARD
  9
$DIMLUNIT
 70
    2
  9
$DIMLWD
 70
   -2
  9
$DIMLWE
 70
   -2
  9
$DIMTMOVE
 70
    0
  9
$DIMFXL
 40
1
  9
$DIMFXLON
 70
    0
  9
$DIMJOGANG
 40
0.7854
  9
$DIMTFILL
 70
    0
  9
$DIMTFILLCLR
 70
    0
  9
$DIMARCSYM
 70
    0
  9
$DIMLTYPE
  6

  9
$DIMLTEX1
  6

  9
$DIMLTEX2
  6

  9
$LUNITS
 70
    2
  9
$LUPREC
 70
    3
  9
$SKETCHINC
 40
0.1
  9
$FILLETRAD
 40
0.5
  9
$AUNITS
 70
    0
  9
$AUPREC
 70
    0
  9
$MENU
  1
.
  9
$ELEVATION
 40
0
  9
$PELEVATION
 40
0
  9
$THICKNESS
 40
0
  9
$LIMCHECK
 70
    0
  9
$CHAMFERA
 40
0.5
  9
$CHAMFERB
 40
0.5
  9
$CHAMFERC
 40
0
  9
$CHAMFERD
 40
0
  9
$SKPOLY
 70
    0
  9
$USRTIMER
 70
    1
  9
$ANGBASE
 50
0
  9
$ANGDIR
 70
    0
  9
$PDMODE
 70
    0
  9
$PDSIZE
 40
0
  9
$PLINEWID
 40
0
  9
$SPLFRAME
 70
    0
  9
$SPLINETYPE
 70
    6
  9
$SPLINESEGS
 70
    8
  9
$HANDSEED
  5
20000
  9
$SURFTAB1
 70
    6
  9
$SURFTAB2
 70
    6
  9
$SURFTYPE
 70
    6
  9
$SURFU
 70
    6
  9
$SURFV
 70
    6
  9
$UCSBASE
  2

  9
$UCSNAME
  2

  9
$UCSORG
 10
0
 20
0
 30
0
  9
$UCSXDIR
 10
1
 20
0
 30
0
  9
$UCSYDIR
 10
0
 20
1
 30
0
  9
$UCSORTHOREF
  2

  9
$UCSORTHOVIEW
 70
    0
  9
$UCSORGTOP
 10
0
 20
0
 30
0
  9
$UCSORGBOTTOM
 10
0
 20
0
 30
0
  9
$UCSORGLEFT
 10
0
 20
0
 30
0
  9
$UCSORGRIGHT
 10
0
 20
0
 30
0
  9
$UCSORGFRONT
 10
0
 20
0
 30
0
  9
$UCSORGBACK
 10
0
 20
0
 30
0
  9
$PUCSBASE
  2

  9
$PUCSNAME
  2

  9
$PUCSORG
 10
0
 20
0
 30
0
  9
$PUCSXDIR
 10
1
 20
0
 30
0
  9
$PUCSYDIR
 10
0
 20
1
 30
0
  9
$PUCSORTHOREF
  2

  9
$PUCSORTHOVIEW
 70
    0
  9
$PUCSORGTOP
 10
0
 20
0
 30
0
  9
$PUCSORGBOTTOM
 10
0
 20
0
 30
0
  9
$PUCSORGLEFT
 10
0
 20
0
 30
0
  9
$PUCSORGRIGHT
 10
0
 20
0
 30
0
  9
$PUCSORGFRONT
 10
0
 20
0
 30
0
  9
$PUCSORGBACK
 10
0
 20
0
 30
0
  9
$USERI1
 70
    0
  9
$USERI2
 70
    0
  9
$USERI3
 70
    0
  9
$USERI4
 70
    0
  9
$USERI5
 70
    0
  9
$USERR1
 40
0
  9
$USERR2
 40
0
  9
$USERR3
 40
0
  9
$USERR4
 40
0
  9
$USERR5
 40
0
  9
$WORLDVIEW
 70
    1
  9
$SHADEDGE
 70
    3
  9
$SHADEDIF
 70
   70
  9
$TILEMODE
 70
    1
  9
$MAXACTVP
 70
   64
  9
$PINSBASE
 10
0
 20
0
 30
0
  9
$PLIMCHECK
 70
    0
  9
$PEXTMIN
 10
1e+20
 20
1e+20
 30
1e+20
  9
$PEXTMAX
 10
-1e+20
 20
-1e+20
 30
-1e+20
  9
$GRIDMODE
 70
    1
  9
$SNAPSTYLE
 70
    0
  9
$GRIDUNIT
 10
0
 20
0
  9
$PLIMMIN
 10
0
 20
0
  9
$PLIMMAX
 10
0
 20
0
  9
$UNITMODE
 70
    0
  9
$VISRETAIN
 70
    1
  9
$PLINEGEN
 70
    0
  9
$PSLTSCALE
 70
    1
  9
$TREEDEPTH
 70
 3020
  9
$CMLSTYLE
  2
Standard
  9
$CMLJUST
 70
    0
  9
$CMLSCALE
 40
20
  9
$PROXYGRAPHICS
 70
    1
  9
$MEASUREMENT
 70
    1
  9
$CELWEIGHT
370
   -1
  9
$ENDCAPS
280
    0
  9
$JOINSTYLE
280
    0
  9
$LWDISPLAY
290
    0
  9
$INSUNITS
 70
    4
  9
$HYPERLINKBASE
  1

  9
$STYLESHEET
  1

  9
$XEDIT
290
    1
  9
$CEPSNTYPE
380
    0
  9
$PSTYLEMODE
290
    1
  9
$EXTNAMES
290
    1
  9
$PSVPSCALE
 40
1
  9
$OLESTARTUP
290
    0
  9
$SORTENTS
280
  127
  9
$INDEXCTL
280
    0
  9
$HIDETEXT
280
    1
  9
$XCLIPFRAME
290
    0
  9
$HALOGAP
280
    0
  9
$OBSCOLOR
 70
  257
  9
$OBSLTYPE
280
    0
  9
$INTERSECTIONDISPLAY
280
    0
  9
$INTERSECTIONCOLOR
 70
  257
  9
$DIMASSOC
280
    1
  9
$PROJECTNAME
  1

  9
$CAMERADISPLAY
290
    0
  9
$LENSLENGTH
 40
50
  9
$CAMERAHEIGHT
 40
0
  9
$STEPSPERSEC
 40
2
  9
$STEPSIZE
 40
50
  9
$3DDWFPREC
 40
2
  9
$PSOLWIDTH
 40
5
  9
$PSOLHEIGHT
 40
80
  9
$LOFTANG1
 40
1.570796326794897
  9
$LOFTANG2
 40
1.570796326794897
  9
$LOFTMAG1
 40
0
  9
$LOFTMAG2
 40
0
  9
$LOFTPARAM
 70
    7
  9
$LOFTNORMALS
280
    1
  9
$LATITUDE
 40
1
  9
$LONGITUDE
 40
1
  9
$NORTHDIRECTION
 40
0
  9
$TIMEZONE
 70
-8000
  9
$LIGHTGLYPHDISPLAY
280
    1
  9
$TILEMODELIGHTSYNCH
280
    1
  9
$SOLIDHIST
280
    1
  9
$SHOWHIST
280
    1
  9
$DWFFRAME
280
    2
  9
$DGNFRAME
280
    0
  9
$REALWORLDSCALE
290
    1
  9
$INTERFERECOLOR
 62
    1
  9
$CSHADOW
280
    0
  9
$SHADOWPLANELOCATION
 40
0
  0
ENDSEC
  0
SECTION
  2
CLASSES
  0
ENDSEC
  0
SECTION
  2
TABLES
  0
TABLE
  2
VPORT
  5
8
330
0
100
AcDbSymbolTable
 70
    1
  0
VPORT
  5
31
330
2
100
AcDbSymbolTableRecord
100
AcDbViewportTableRecord
  2
*ACTIVE
 70
    0
 10
0
 20
0
 11
1
 21
1
 12
581.5559103741807
 22
389.6208942185488
 13
0
 23
0
 14
10
 24
10
 15
10
 25
10
 16
0
 26
0
 36
1
 17
0
 27
0
 37
0
 40
1242.186171973528
 41
1.703703703703704
 42
50
 43
0
 44
0
 50
0
 51
0
 71
    0
 72
  100
 73
    1
 74
    3
 75
    0
 76
    1
 77
    0
 78
    0
281
    0
 65
    1
110
0
120
0
130
0
111
1
121
0
131
0
112
0
122
1
132
0
 79
    0
146
0
348
10020
 60
    7
 61
    5
292
1
282
    1
141
0
142
0
 63
  250
421
3358443
  0
ENDTAB
  0
TABLE
  2
LTYPE
  5
5
330
0
100
AcDbSymbolTable
 70
    4
  0
LTYPE
  5
14
330
5
100
AcDbSymbolTableRecord
100
AcDbLinetypeTableRecord
  2
ByBlock
 70
    0
  3

 72
   65
 73
    0
 40
0
  0
LTYPE
  5
15
330
5
100
AcDbSymbolTableRecord
100
AcDbLinetypeTableRecord
  2
ByLayer
 70
    0
  3

 72
   65
 73
    0
 40
0
  0
LTYPE
  5
16
330
5
100
AcDbSymbolTableRecord
100
AcDbLinetypeTableRecord
  2
Continuous
 70
    0
  3
Solid line
 72
   65
 73
    0
 40
0
  0
LTYPE
  5
32
330
5
100
AcDbSymbolTableRecord
100
AcDbLinetypeTableRecord
  2
DOT
 70
    0
  3
Dot . . . . . . . . . . . . . . . . . . . . . .
 72
   65
 73
    2
 40
6.35
 49
0
 74
    0
 49
-6.35
 74
    0
  0
LTYPE
  5
33
330
5
100
AcDbSymbolTableRecord
100
AcDbLinetypeTableRecord
  2
DOTTINY
 70
    0
  3
Dot (.15x) .....................................
 72
   65
 73
    2
 40
0.9525
 49
0
 74
    0
 49
-0.9525
 74
    0
  0
LTYPE
  5
34
330
5
100
AcDbSymbolTableRecord
100
AcDbLinetypeTableRecord
  2
DOT2
 70
    0
  3
Dot (.5x) .....................................
 72
   65
 73
    2
 40
3.175
 49
0
 74
    0
 49
-3.175
 74
    0
  0
LTYPE
  5
35
330
5
100
AcDbSymbolTableRecord
100
AcDbLinetypeTableRecord
  2
DOTX2
 70
    0
  3
Dot (2x) .  .  .  .  .  .  .  .  .  .  .  .  .
 72
   65
 73
    2
 40
12.7
 49
0
 74
    0
 49
-12.7
 74
    0
  0
LTYPE
  5
36
330
5
100
AcDbSymbolTableRecord
100
AcDbLinetypeTableRecord
  2
DASHED
 70
    0
  3
Dashed _ _ _ _ _ _ _ _ _ _ _ _ _ _ _ _ _
 72
   65
 73
    2
 40
19.05
 49
12.7
 74
    0
 49
-6.35
 74
    0
  0
LTYPE
  5
37
330
5
100
AcDbSymbolTableRecord
100
AcDbLinetypeTableRecord
  2
DASHEDTINY
 70
    0
  3
Dashed (.15x) _ _ _ _ _ _ _ _ _ _ _ _ _ _ _ _ _
 72
   65
 73
    2
 40
2.8575
 49
1.905
 74
    0
 49
-0.9525
 74
    0
  0
LTYPE
  5
38
330
5
100
AcDbSymbolTableRecord
100
AcDbLinetypeTableRecord
  2
DASHED2
 70
    0
  3
Dashed (.5x) _ _ _ _ _ _ _ _ _ _ _ _ _ _ _ _ _
 72
   65
 73
    2
 40
9.524999999999999
 49
6.35
 74
    0
 49
-3.175
 74
    0
  0
LTYPE
  5
39
330
5
100
AcDbSymbolTableRecord
100
AcDbLinetypeTableRecord
  2
DASHEDX2
 70
    0
  3
Dashed (2x) ____  ____  ____  ____  ____  ___
 72
   65
 73
    2
 40
38.09999999999999
 49
25.4
 74
    0
 49
-12.7
 74
    0
  0
LTYPE
  5
3A
330
5
100
AcDbSymbolTableRecord
100
AcDbLinetypeTableRecord
  2
DASHDOT
 70
    0
  3
Dash dot __ . __ . __ . __ . __ . __ . __ . __
 72
   65
 73
    4
 40
25.4
 49
12.7
 74
    0
 49
-6.35
 74
    0
 49
0
 74
    0
 49
-6.35
 74
    0
  0
LTYPE
  5
3B
330
5
100
AcDbSymbolTableRecord
100
AcDbLinetypeTableRecord
  2
DASHDOTTINY
 70
    0
  3
Dash dot (.15x) _._._._._._._._._._._._._._._.
 72
   65
 73
    4
 40
3.81
 49
1.905
 74
    0
 49
-0.9525
 74
    0
 49
0
 74
    0
 49
-0.9525
 74
    0
  0
LTYPE
  5
3C
330
5
100
AcDbSymbolTableRecord
100
AcDbLinetypeTableRecord
  2
DASHDOT2
 70
    0
  3
Dash dot (.5x) _._._._._._._._._._._._._._._.
 72
   65
 73
    4
 40
12.7
 49
6.35
 74
    0
 49
-3.175
 74
    0
 49
0
 74
    0
 49
-3.175
 74
    0
  0
LTYPE
  5
3D
330
5
100
AcDbSymbolTableRecord
100
AcDbLinetypeTableRecord
  2
DASHDOTX2
 70
    0
  3
Dash dot (2x) ____  .  ____  .  ____  .  ___
 72
   65
 73
    4
 40
50.8
 49
25.4
 74
    0
 49
-12.7
 74
    0
 49
0
 74
    0
 49
-12.7
 74
    0
  0
LTYPE
  5
3E
330
5
100
AcDbSymbolTableRecord
100
AcDbLinetypeTableRecord
  2
DIVIDE
 70
    0
  3
Divide ____ . . ____ . . ____ . . ____ . . ____
 72
   65
 73
    6
 40
31.75
 49
12.7
 74
    0
 49
-6.35
 74
    0
 49
0
 74
    0
 49
-6.35
 74
    0
 49
0
 74
    0
 49
-6.35
 74
    0
  0
LTYPE
  5
3F
330
5
100
AcDbSymbolTableRecord
100
AcDbLinetypeTableRecord
  2
DIVIDETINY
 70
    0
  3
Divide (.15x) __..__..__..__..__..__..__..__.._
 72
   65
 73
    6
 40
4.7625
 49
1.905
 74
    0
 49
-0.9525
 74
    0
 49
0
 74
    0
 49
-0.9525
 74
    0
 49
0
 74
    0
 49
-0.9525
 74
    0
  0
LTYPE
  5
40
330
5
100
AcDbSymbolTableRecord
100
AcDbLinetypeTableRecord
  2
DIVIDE2
 70
    0
  3
Divide (.5x) __..__..__..__..__..__..__..__.._
 72
   65
 73
    6
 40
15.875
 49
6.35
 74
    0
 49
-3.175
 74
    0
 49
0
 74
    0
 49
-3.175
 74
    0
 49
0
 74
    0
 49
-3.175
 74
    0
  0
LTYPE
  5
41
330
5
100
AcDbSymbolTableRecord
100
AcDbLinetypeTableRecord
  2
DIVIDEX2
 70
    0
  3
Divide (2x) ________  .  .  ________  .  .  _
 72
   65
 73
    6
 40
63.5
 49
25.4
 74
    0
 49
-12.7
 74
    0
 49
0
 74
    0
 49
-12.7
 74
    0
 49
0
 74
    0
 49
-12.7
 74
    0
  0
LTYPE
  5
42
330
5
100
AcDbSymbolTableRecord
100
AcDbLinetypeTableRecord
  2
BORDER
 70
    0
  3
Border __ __ . __ __ . __ __ . __ __ . __ __ .
 72
   65
 73
    6
 40
44.45
 49
12.7
 74
    0
 49
-6.35
 74
    0
 49
12.7
 74
    0
 49
-6.35
 74
    0
 49
0
 74
    0
 49
-6.35
 74
    0
  0
LTYPE
  5
43
330
5
100
AcDbSymbolTableRecord
100
AcDbLinetypeTableRecord
  2
BORDERTINY
 70
    0
  3
Border (.15x) __.__.__.__.__.__.__.__.__.__.__.
 72
   65
 73
    6
 40
6.6675
 49
1.905
 74
    0
 49
-0.9525
 74
    0
 49
1.905
 74
    0
 49
-0.9525
 74
    0
 49
0
 74
    0
 49
-0.9525
 74
    0
  0
LTYPE
  5
44
330
5
100
AcDbSymbolTableRecord
100
AcDbLinetypeTableRecord
  2
BORDER2
 70
    0
  3
Border (.5x) __.__.__.__.__.__.__.__.__.__.__.
 72
   65
 73
    6
 40
22.225
 49
6.35
 74
    0
 49
-3.175
 74
    0
 49
6.35
 74
    0
 49
-3.175
 74
    0
 49
0
 74
    0
 49
-3.175
 74
    0
  0
LTYPE
  5
45
330
5
100
AcDbSymbolTableRecord
100
AcDbLinetypeTableRecord
  2
BORDERX2
 70
    0
  3
Border (2x) ____  ____  .  ____  ____  .  ___
 72
   65
 73
    6
 40
88.89999999999999
 49
25.4
 74
    0
 49
-12.7
 74
    0
 49
25.4
 74
    0
 49
-12.7
 74
    0
 49
0
 74
    0
 49
-12.7
 74
    0
  0
LTYPE
  5
46
330
5
100
AcDbSymbolTableRecord
100
AcDbLinetypeTableRecord
  2
CENTER
 70
    0
  3
Center ____ _ ____ _ ____ _ ____ _ ____ _ ____
 72
   65
 73
    4
 40
50.8
 49
31.75
 74
    0
 49
-6.35
 74
    0
 49
6.35
 74
    0
 49
-6.35
 74
    0
  0
LTYPE
  5
47
330
5
100
AcDbSymbolTableRecord
100
AcDbLinetypeTableRecord
  2
CENTERTINY
 70
    0
  3
Center (.15x) ___ _ ___ _ ___ _ ___ _ ___ _ ___
 72
   65
 73
    4
 40
7.619999999999999
 49
4.7625
 74
    0
 49
-0.9525
 74
    0
 49
0.9525
 74
    0
 49
-0.9525
 74
    0
  0
LTYPE
  5
48
330
5
100
AcDbSymbolTableRecord
100
AcDbLinetypeTableRecord
  2
CENTER2
 70
    0
  3
Center (.5x) ___ _ ___ _ ___ _ ___ _ ___ _ ___
 72
   65
 73
    4
 40
28.575
 49
19.05
 74
    0
 49
-3.175
 74
    0
 49
3.175
 74
    0
 49
-3.175
 74
    0
  0
LTYPE
  5
49
330
5
100
AcDbSymbolTableRecord
100
AcDbLinetypeTableRecord
  2
CENTERX2
 70
    0
  3
Center (2x) ________  __  ________  __  _____
 72
   65
 73
    4
 40
101.6
 49
63.5
 74
    0
 49
-12.7
 74
    0
 49
12.7
 74
    0
 49
-12.7
 74
    0
  0
ENDTAB
  0
TABLE
  2
LAYER
  5
2
330
0
100
AcDbSymbolTable
 70
    1
  0
LAYER
  5
10
330
2
100
AcDbSymbolTableRecord
100
AcDbLayerTableRecord
  2
0
 70
    4
 62
    7
  6
CONTINUOUS
370
   -3
390
F
  0
LAYER
  5
4A
330
2
100
AcDbSymbolTableRecord
100
AcDbLayerTableRecord
  2
OUTLINE
 70
    0
 62
    4
  6
CONTINUOUS
370
   -3
390
F
  0
ENDTAB
  0
TABLE
  2
STYLE
  5
3
330
0
100
AcDbSymbolTable
 70
    3
  0
STYLE
  5
4B
330
2
100
AcDbSymbolTableRecord
100
AcDbTextStyleTableRecord
  2
Standard
 70
    0
 40
0
 41
1
 50
0
 71
    0
 42
1
  3
txt
  4

  0
ENDTAB
  0
TABLE
  2
VIEW
  5
6
330
0
100
AcDbSymbolTable
 70
    0
  0
ENDTAB
  0
TABLE
  2
UCS
  5
7
330
0
100
AcDbSymbolTable
 70
    0
  0
ENDTAB
  0
TABLE
  2
APPID
  5
9
330
0
100
AcDbSymbolTable
 70
    1
  0
APPID
  5
12
330
9
100
AcDbSymbolTableRecord
100
AcDbRegAppTableRecord
  2
ACAD
 70
    0
  0
APPID
  5
4C
330
9
100
AcDbSymbolTableRecord
100
AcDbRegAppTableRecord
  2
LibreCad
 70
    0
  0
ENDTAB
  0
TABLE
  2
DIMSTYLE
  5
A
330
0
100
AcDbSymbolTable
 70
    1
100
AcDbDimStyleTable
 71
    1
  0
DIMSTYLE
105
4D
330
A
100
AcDbSymbolTableRecord
100
AcDbDimStyleTableRecord
  2
Standard
 70
    0
 40
1
 41
0.18
 42
0.0625
 43
0.38
 44
0.18
 45
0
 46
0
 47
0
 48
0
 49
1
140
10
141
0.09
142
0
143
25.4
144
1
145
0
146
1
147
0.09
148
0
 71
    0
 72
    0
 73
    1
 74
    1
 75
    0
 76
    0
 77
    0
 78
    0
 79
    0
170
    0
171
    2
172
    0
173
    0
174
    0
175
    0
176
    0
177
    0
178
    0
179
    0
271
    4
272
    4
273
    2
274
    2
275
    0
276
    0
277
    2
278
    0
279
    0
280
    0
281
    0
282
    0
283
    1
284
    0
285
    0
286
    0
288
    0
289
    3
340
standard
341

371
   -2
372
   -2
  0
ENDTAB
  0
TABLE
  2
BLOCK_RECORD
  5
1
330
0
100
AcDbSymbolTable
 70
    2
  0
BLOCK_RECORD
  5
1F
330
1
100
AcDbSymbolTableRecord
100
AcDbBlockTableRecord
  2
*Model_Space
 70
    0
280
    1
281
    0
  0
BLOCK_RECORD
  5
1E
330
1
100
AcDbSymbolTableRecord
100
AcDbBlockTableRecord
  2
*Paper_Space
 70
    0
280
    1
281
    0
  0
BLOCK_RECORD
  5
4E
330
1
100
AcDbSymbolTableRecord
100
AcDbBlockTableRecord
  2
*D1
 70
    0
280
    1
281
    0
  0
BLOCK_RECORD
  5
51
330
1
100
AcDbSymbolTableRecord
100
AcDbBlockTableRecord
  2
*D3
 70
    0
280
    1
281
    0
  0
BLOCK_RECORD
  5
54
330
1
100
AcDbSymbolTableRecord
100
AcDbBlockTableRecord
  2
*D2
 70
    0
280
    1
281
    0
  0
BLOCK_RECORD
  5
57
330
1
100
AcDbSymbolTableRecord
100
AcDbBlockTableRecord
  2
*D4
 70
    0
280
    1
281
    0
  0
ENDTAB
  0
ENDSEC
  0
SECTION
  2
BLOCKS
  0
BLOCK
  5
20
330
1F
100
AcDbEntity
  8
0
100
AcDbBlockBegin
  2
*Model_Space
 70
    0
 10
0
 20
0
 30
0
  3
*Model_Space
  1

  0
ENDBLK
  5
21
330
1F
100
AcDbEntity
  8
0
100
AcDbBlockEnd
  0
BLOCK
  5
1C
330
1B
100
AcDbEntity
  8
0
100
AcDbBlockBegin
  2
*Paper_Space
 70
    0
 10
0
 20
0
 30
0
  3
*Paper_Space
  1

  0
ENDBLK
  5
1D
330
1F
100
AcDbEntity
  8
0
100
AcDbBlockEnd
  0
BLOCK
  5
4F
330
4E
100
AcDbEntity
  8
0
100
AcDbBlockBegin
  2
*D1
 70
    1
 10
0
 20
0
  3
*D1
  1

  0
LINE
  5
5A
100
AcDbEntity
  8
0
  6
ByBlock
 62
    0
370
   -2
100
AcDbLine
 10
-131.0679033410055
 20
249.9999999999999
 11
-131.0679033410055
 21
5.089999999999971
  0
SOLID
  5
5B
100
AcDbEntity
  8
0
  6
ByBlock
 62
    0
370
   -2
100
AcDbTrace
 10
-131.0679033410055
 20
249.9999999999999
 30
0
 11
-131.0379308456458
 21
249.8199999999999
 31
0
 12
-131.0978758363651
 22
249.8199999999999
 32
0
 13
-131.0978758363651
 23
249.8199999999999
 33
0
  0
SOLID
  5
5C
100
AcDbEntity
  8
0
  6
ByBlock
 62
    0
370
   -2
100
AcDbTrace
 10
-131.0679033410055
 20
-250
 30
0
 11
-131.0978758363651
 21
-249.82
 31
0
 12
-131.0379308456458
 22
-249.82
 32
0
 13
-131.0379308456458
 23
-249.82
 33
0
  0
LINE
  5
5D
100
AcDbEntity
  8
0
  6
ByBlock
 62
    0
370
   -2
100
AcDbLine
 10
-131.0679033410055
 20
-5.090000000000028
 11
-131.0679033410055
 21
-250
  0
MTEXT
  5
5E
100
AcDbEntity
  8
0
  6
CONTINUOUS
 62
    0
370
   -2
100
AcDbMText
 10
-131.0679033410055
 20
-2.842170943040401e-14
 30
0
 40
10
 41
54.44444444444507
 71
    5
 72
    1
  1
500.0000
  7
standard
210
0
220
0
230
1
 50
0
 73
    2
 44
1
  0
LINE
  5
5F
100
AcDbEntity
  8
0
  6
ByBlock
 62
    0
370
   -2
100
AcDbLine
 10
-0.0625
 20
250
 11
-131.2479033410055
 21
249.9999999999999
  0
LINE
  5
60
100
AcDbEntity
  8
0
  6
ByBlock
 62
    0
370
   -2
100
AcDbLine
 10
-0.0625
 20
-250
 11
-131.2479033410055
 21
-250
  0
ENDBLK
  5
50
330
4E
100
AcDbEntity
  8
0
100
AcDbBlockEnd
  0
BLOCK
  5
52
330
51
100
AcDbEntity
  8
0
100
AcDbBlockBegin
  2
*D3
 70
    1
 10
0
 20
0
  3
*D3
  1

  0
LINE
  5
61
100
AcDbEntity
  8
0
  6
ByBlock
 62
    0
370
   -2
100
AcDbLine
 10
837.9486038633391
 20
21
 11
837.9486038633391
 21
5.089999999999998
  0
SOLID
  5
62
100
AcDbEntity
  8
0
  6
ByBlock
 62
    0
370
   -2
100
AcDbTrace
 10
837.9486038633391
 20
21
 30
0
 11
837.9785763586988
 21
20.82
 31
0
 12
837.9186313679795
 22
20.82
 32
0
 13
837.9186313679795
 23
20.82
 33
0
  0
SOLID
  5
63
100
AcDbEntity
  8
0
  6
ByBlock
 62
    0
370
   -2
100
AcDbTrace
 10
837.9486038633391
 20
-21
 30
0
 11
837.9186313679795
 21
-20.82
 31
0
 12
837.9785763586988
 22
-20.82
 32
0
 13
837.9785763586988
 23
-20.82
 33
0
  0
LINE
  5
64
100
AcDbEntity
  8
0
  6
ByBlock
 62
    0
370
   -2
100
AcDbLine
 10
837.9486038633391
 20
-5.090000000000002
 11
837.9486038633391
 21
-21
  0
MTEXT
  5
65
100
AcDbEntity
  8
0
  6
CONTINUOUS
 62
    0
370
   -2
100
AcDbMText
 10
882.9274927522281
 20
-1.77635683940025e-15
 30
0
 40
10
 41
47.77777777777779
 71
    5
 72
    1
  1
42.0000
  7
standard
210
0
220
0
230
1
 50
0
 73
    2
 44
1
  0
LINE
  5
66
100
AcDbEntity
  8
0
  6
ByBlock
 62
    0
370
   -2
100
AcDbLine
 10
805.0625
 20
21
 11
838.1286038633391
 21
21
  0
LINE
  5
67
100
AcDbEntity
  8
0
  6
ByBlock
 62
    0
370
   -2
100
AcDbLine
 10
805.0625
 20
-21
 11
838.1286038633391
 21
-21
  0
ENDBLK
  5
53
330
51
100
AcDbEntity
  8
0
100
AcDbBlockEnd
  0
BLOCK
  5
55
330
54
100
AcDbEntity
  8
0
100
AcDbBlockBegin
  2
*D2
 70
    1
 10
0
 20
0
  3
*D2
  1

  0
LINE
  5
68
100
AcDbEntity
  8
0
  6
ByBlock
 62
    0
370
   -2
100
AcDbLine
 10
805
 20
350.1664880304495
 11
429.8122222222225
 21
350.1664880304494
  0
SOLID
  5
69
100
AcDbEntity
  8
0
  6
ByBlock
 62
    0
370
   -2
100
AcDbTrace
 10
805
 20
350.1664880304495
 30
0
 11
804.8200000000001
 21
350.1365155350899
 31
0
 12
804.8200000000001
 22
350.1964605258091
 32
0
 13
804.8200000000001
 23
350.1964605258091
 33
0
  0
SOLID
  5
6A
100
AcDbEntity
  8
0
  6
ByBlock
 62
    0
370
   -2
100
AcDbTrace
 10
3.155443620884047e-30
 20
350.1664880304495
 30
0
 11
0.18
 21
350.1964605258091
 31
0
 12
0.18
 22
350.1365155350899
 32
0
 13
0.18
 23
350.1365155350899
 33
0
  0
LINE
  5
6B
100
AcDbEntity
  8
0
  6
ByBlock
 62
    0
370
   -2
100
AcDbLine
 10
375.1877777777775
 20
350.1664880304494
 11
3.155443620884047e-30
 21
350.1664880304495
  0
MTEXT
  5
6C
100
AcDbEntity
  8
0
  6
CONTINUOUS
 62
    0
370
   -2
100
AcDbMText
 10
402.5
 20
350.1664880304495
 30
0
 40
10
 41
54.44444444444507
 71
    5
 72
    1
  1
805.0000
  7
standard
210
0
220
0
230
1
 50
0
 73
    2
 44
1
  0
LINE
  5
6D
100
AcDbEntity
  8
0
  6
ByBlock
 62
    0
370
   -2
100
AcDbLine
 10
805
 20
1.233022296607285
 11
805
 21
350.3464880304495
  0
LINE
  5
6E
100
AcDbEntity
  8
0
  6
ByBlock
 62
    0
370
   -2
100
AcDbLine
 10
3.827021247335479e-18
 20
-1.893737363298601
 11
1.102182119232933e-17
 21
350.3464880304495
  0
ENDBLK
  5
56
330
54
100
AcDbEntity
  8
0
100
AcDbBlockEnd
  0
BLOCK
  5
58
330
57
100
AcDbEntity
  8
0
100
AcDbBlockBegin
  2
*D4
 70
    1
 10
0
 20
0
  3
*D4
  1

  0
LINE
  5
6F
100
AcDbEntity
  8
0
  6
ByBlock
 62
    0
370
   -2
100
AcDbLine
 10
-70.17145212104032
 20
50.00000000000001
 11
-70.17145212104032
 21
5.090000000000003
  0
SOLID
  5
70
100
AcDbEntity
  8
0
  6
ByBlock
 62
    0
370
   -2
100
AcDbTrace
 10
-70.17145212104032
 20
50.00000000000001
 30
0
 11
-70.14147962568067
 21
49.82000000000001
 31
0
 12
-70.20142461639996
 22
49.82000000000001
 32
0
 13
-70.20142461639996
 23
49.82000000000001
 33
0
  0
SOLID
  5
71
100
AcDbEntity
  8
0
  6
ByBlock
 62
    0
370
   -2
100
AcDbTrace
 10
-70.17145212104032
 20
-50
 30
0
 11
-70.20142461639996
 21
-49.82
 31
0
 12
-70.14147962568067
 22
-49.82
 32
0
 13
-70.14147962568067
 23
-49.82
 33
0
  0
LINE
  5
72
100
AcDbEntity
  8
0
  6
ByBlock
 62
    0
370
   -2
100
AcDbLine
 10
-70.17145212104032
 20
-5.089999999999996
 11
-70.17145212104032
 21
-50
  0
MTEXT
  5
73
100
AcDbEntity
  8
0
  6
CONTINUOUS
 62
    0
370
   -2
100
AcDbMText
 10
-70.17145212104032
 20
3.552713678800501e-15
 30
0
 40
10
 41
52.22222222222223
 71
    5
 72
    1
  1
100.0000
  7
standard
210
0
220
0
230
1
 50
0
 73
    2
 44
1
  0
LINE
  5
74
100
AcDbEntity
  8
0
  6
ByBlock
 62
    0
370
   -2
100
AcDbLine
 10
-0.0625
 20
50
 11
-70.35145212104032
 21
50.00000000000001
  0
LINE
  5
75
100
AcDbEntity
  8
0
  6
ByBlock
 62
    0
370
   -2
100
AcDbLine
 10
-0.0625
 20
-50
 11
-70.35145212104032
 21
-50
  0
ENDBLK
  5
59
330
57
100
AcDbEntity
  8
0
100
AcDbBlockEnd
  0
ENDSEC
  0
SECTION
  2
ENTITIES
  0
LINE
  5
76
100
AcDbEntity
  8
OUTLINE
  6
CONTINUOUS
 62
  256
370
   -1
100
AcDbLine
 10
0
 20
0
 11
0
 21
250
  0
LINE
  5
77
100
AcDbEntity
  8
OUTLINE
  6
CONTINUOUS
 62
  256
370
   -1
100
AcDbLine
 10
0
 20
250
 11
8.170748975402695
 21
250.3430988929286
  0
LINE
  5
78
100
AcDbEntity
  8
OUTLINE
  6
CONTINUOUS
 62
  256
370
   -1
100
AcDbLine
 10
8.170748975402695
 20
250.3430988929286
 11
16.34583783862375
 21
250.5313982245715
  0
LINE
  5
79
100
AcDbEntity
  8
OUTLINE
  6
CONTINUOUS
 62
  256
370
   -1
100
AcDbLine
 10
16.34583783862375
 20
250.5313982245715
 11
24.52382800852056
 21
250.5681138653854
  0
LINE
  5
7A
100
AcDbEntity
  8
OUTLINE
  6
CONTINUOUS
 62
  256
370
   -1
100
AcDbLine
 10
24.52382800852056
 20
250.5681138653854
 11
32.7032809039505
 21
250.456461685827
  0
LINE
  5
7B
100
AcDbEntity
  8
OUTLINE
  6
CONTINUOUS
 62
  256
370
   -1
100
AcDbLine
 10
32.7032809039505
 20
250.456461685827
 11
40.88275794377098
 21
250.1996575563531
  0
LINE
  5
7C
100
AcDbEntity
  8
OUTLINE
  6
CONTINUOUS
 62
  256
370
   -1
100
AcDbLine
 10
40.88275794377098
 20
250.1996575563531
 11
49.06082054683938
 21
249.8009173474207
  0
LINE
  5
7D
100
AcDbEntity
  8
OUTLINE
  6
CONTINUOUS
 62
  256
370
   -1
100
AcDbLine
 10
49.06082054683938
 20
249.8009173474207
 11
57.23603013201309
 21
249.2634569294864
  0
LINE
  5
7E
100
AcDbEntity
  8
OUTLINE
  6
CONTINUOUS
 62
  256
370
   -1
100
AcDbLine
 10
57.23603013201309
 20
249.2634569294864
 11
65.40694811814951
 21
248.5904921730071
  0
LINE
  5
7F
100
AcDbEntity
  8
OUTLINE
  6
CONTINUOUS
 62
  256
370
   -1
100
AcDbLine
 10
65.40694811814951
 20
248.5904921730071
 11
73.57213592410604
 21
247.7852389484396
  0
LINE
  5
80
100
AcDbEntity
  8
OUTLINE
  6
CONTINUOUS
 62
  256
370
   -1
100
AcDbLine
 10
73.57213592410604
 20
247.7852389484396
 11
81.73015136836665
 21
246.8509055858025
  0
LINE
  5
81
100
AcDbEntity
  8
OUTLINE
  6
CONTINUOUS
 62
  256
370
   -1
100
AcDbLine
 10
81.73015136836665
 20
246.8509055858025
 11
89.87796808222011
 21
245.7873825743936
  0
LINE
  5
82
100
AcDbEntity
  8
OUTLINE
  6
CONTINUOUS
 62
  256
370
   -1
100
AcDbLine
 10
89.87796808222011
 20
245.7873825743936
 11
98.00849705755485
 21
244.5860518191227
  0
LINE
  5
83
100
AcDbEntity
  8
OUTLINE
  6
CONTINUOUS
 62
  256
370
   -1
100
AcDbLine
 10
98.00849705755485
 20
244.5860518191227
 11
106.1140071565197
 21
243.2369503811812
  0
LINE
  5
84
100
AcDbEntity
  8
OUTLINE
  6
CONTINUOUS
 62
  256
370
   -1
100
AcDbLine
 10
106.1140071565197
 20
243.2369503811812
 11
114.1867672412638
 21
241.7301153217607
  0
LINE
  5
85
100
AcDbEntity
  8
OUTLINE
  6
CONTINUOUS
 62
  256
370
   -1
100
AcDbLine
 10
114.1867672412638
 20
241.7301153217607
 11
122.2190461739357
 21
240.055583702053
  0
LINE
  5
86
100
AcDbEntity
  8
OUTLINE
  6
CONTINUOUS
 62
  256
370
   -1
100
AcDbLine
 10
122.2190461739357
 20
240.055583702053
 11
130.2031128166847
 21
238.2033925832494
  0
LINE
  5
87
100
AcDbEntity
  8
OUTLINE
  6
CONTINUOUS
 62
  256
370
   -1
100
AcDbLine
 10
130.2031128166847
 20
238.2033925832494
 11
138.1312360316594
 21
236.1635790265416
  0
LINE
  5
88
100
AcDbEntity
  8
OUTLINE
  6
CONTINUOUS
 62
  256
370
   -1
100
AcDbLine
 10
138.1312360316594
 20
236.1635790265416
 11
145.9956846810088
 21
233.9261800931209
  0
LINE
  5
89
100
AcDbEntity
  8
OUTLINE
  6
CONTINUOUS
 62
  256
370
   -1
100
AcDbLine
 10
145.9956846810088
 20
233.9261800931209
 11
153.7887276268818
 21
231.4812328441793
  0
LINE
  5
8A
100
AcDbEntity
  8
OUTLINE
  6
CONTINUOUS
 62
  256
370
   -1
100
AcDbLine
 10
153.7887276268818
 20
231.4812328441793
 11
161.5026345618686
 21
228.8187760433833
  0
LINE
  5
8B
100
AcDbEntity
  8
OUTLINE
  6
CONTINUOUS
 62
  256
370
   -1
100
AcDbLine
 10
161.5026345618686
 20
228.8187760433833
 11
169.1332476565795
 21
225.9361723386777
  0
LINE
  5
8C
100
AcDbEntity
  8
OUTLINE
  6
CONTINUOUS
 62
  256
370
   -1
100
AcDbLine
 10
169.1332476565795
 20
225.9361723386777
 11
176.6881599507691
 21
222.8548746607987
  0
LINE
  5
8D
100
AcDbEntity
  8
OUTLINE
  6
CONTINUOUS
 62
  256
370
   -1
100
AcDbLine
 10
176.6881599507691
 20
222.8548746607987
 11
184.1773769916726
 21
219.6012817863377
  0
LINE
  5
8E
100
AcDbEntity
  8
OUTLINE
  6
CONTINUOUS
 62
  256
370
   -1
100
AcDbLine
 10
184.1773769916726
 20
219.6012817863377
 11
191.6109043265255
 21
216.2017924918861
  0
LINE
  5
8F
100
AcDbEntity
  8
OUTLINE
  6
CONTINUOUS
 62
  256
370
   -1
100
AcDbLine
 10
191.6109043265255
 20
216.2017924918861
 11
198.9987475025628
 21
212.6828055540354
  0
LINE
  5
90
100
AcDbEntity
  8
OUTLINE
  6
CONTINUOUS
 62
  256
370
   -1
100
AcDbLine
 10
198.9987475025628
 20
212.6828055540354
 11
206.3509120670201
 21
209.0707197493768
  0
LINE
  5
91
100
AcDbEntity
  8
OUTLINE
  6
CONTINUOUS
 62
  256
370
   -1
100
AcDbLine
 10
206.3509120670201
 20
209.0707197493768
 11
213.6774035671326
 21
205.3919338545019
  0
LINE
  5
92
100
AcDbEntity
  8
OUTLINE
  6
CONTINUOUS
 62
  256
370
   -1
100
AcDbLine
 10
213.6774035671326
 20
205.3919338545019
 11
220.9882275501355
 21
201.6728466460019
  0
LINE
  5
93
100
AcDbEntity
  8
OUTLINE
  6
CONTINUOUS
 62
  256
370
   -1
100
AcDbLine
 10
220.9882275501355
 20
201.6728466460019
 11
228.2933895632644
 21
197.9398569004684
  0
LINE
  5
94
100
AcDbEntity
  8
OUTLINE
  6
CONTINUOUS
 62
  256
370
   -1
100
AcDbLine
 10
228.2933895632644
 20
197.9398569004684
 11
235.6028951537543
 21
194.2193633944927
  0
LINE
  5
95
100
AcDbEntity
  8
OUTLINE
  6
CONTINUOUS
 62
  256
370
   -1
100
AcDbLine
 10
235.6028951537543
 20
194.2193633944927
 11
242.9267459405698
 21
190.5377541837953
  0
LINE
  5
96
100
AcDbEntity
  8
OUTLINE
  6
CONTINUOUS
 62
  256
370
   -1
100
AcDbLine
 10
242.9267459405698
 20
190.5377541837953
 11
250.2721783184209
 21
186.9138705912104
  0
LINE
  5
97
100
AcDbEntity
  8
OUTLINE
  6
CONTINUOUS
 62
  256
370
   -1
100
AcDbLine
 10
250.2721783184209
 20
186.9138705912104
 11
257.6388195735038
 21
183.3457874829742
  0
LINE
  5
98
100
AcDbEntity
  8
OUTLINE
  6
CONTINUOUS
 62
  256
370
   -1
100
AcDbLine
 10
257.6388195735038
 20
183.3457874829742
 11
265.0249995276457
 21
179.8280387405325
  0
LINE
  5
99
100
AcDbEntity
  8
OUTLINE
  6
CONTINUOUS
 62
  256
370
   -1
100
AcDbLine
 10
265.0249995276457
 20
179.8280387405325
 11
272.4290480026734
 21
176.3551582453312
  0
LINE
  5
9A
100
AcDbEntity
  8
OUTLINE
  6
CONTINUOUS
 62
  256
370
   -1
100
AcDbLine
 10
272.4290480026734
 20
176.3551582453312
 11
279.8492948204138
 21
172.9216798788162
  0
LINE
  5
9B
100
AcDbEntity
  8
OUTLINE
  6
CONTINUOUS
 62
  256
370
   -1
100
AcDbLine
 10
279.8492948204138
 20
172.9216798788162
 11
287.284069802694
 21
169.5221375224336
  0
LINE
  5
9C
100
AcDbEntity
  8
OUTLINE
  6
CONTINUOUS
 62
  256
370
   -1
100
AcDbLine
 10
287.284069802694
 20
169.5221375224336
 11
294.7317027713408
 21
166.1510650576292
  0
LINE
  5
9D
100
AcDbEntity
  8
OUTLINE
  6
CONTINUOUS
 62
  256
370
   -1
100
AcDbLine
 10
294.7317027713408
 20
166.1510650576292
 11
302.1905235481813
 21
162.8029963658489
  0
LINE
  5
9E
100
AcDbEntity
  8
OUTLINE
  6
CONTINUOUS
 62
  256
370
   -1
100
AcDbLine
 10
302.1905235481813
 20
162.8029963658489
 11
309.6588619550423
 21
159.4724653285387
  0
LINE
  5
9F
100
AcDbEntity
  8
OUTLINE
  6
CONTINUOUS
 62
  256
370
   -1
100
AcDbLine
 10
309.6588619550423
 20
159.4724653285387
 11
317.1350478137508
 21
156.1540058271445
  0
LINE
  5
A0
100
AcDbEntity
  8
OUTLINE
  6
CONTINUOUS
 62
  256
370
   -1
100
AcDbLine
 10
317.1350478137508
 20
156.1540058271445
 11
324.6174468095352
 21
152.8422688507162
  0
LINE
  5
A1
100
AcDbEntity
  8
OUTLINE
  6
CONTINUOUS
 62
  256
370
   -1
100
AcDbLine
 10
324.6174468095352
 20
152.8422688507162
 11
332.1063427115756
 21
149.538168659676
  0
LINE
  5
A2
100
AcDbEntity
  8
OUTLINE
  6
CONTINUOUS
 62
  256
370
   -1
100
AcDbLine
 10
332.1063427115756
 20
149.538168659676
 11
339.6048651932026
 21
146.2519124705663
  0
LINE
  5
A3
100
AcDbEntity
  8
OUTLINE
  6
CONTINUOUS
 62
  256
370
   -1
100
AcDbLine
 10
339.6048651932026
 20
146.2519124705663
 11
347.1163744587109
 21
142.9944602709362
  0
LINE
  5
A4
100
AcDbEntity
  8
OUTLINE
  6
CONTINUOUS
 62
  256
370
   -1
100
AcDbLine
 10
347.1163744587109
 20
142.9944602709362
 11
354.6442307123955
 21
139.7767720483352
  0
LINE
  5
A5
100
AcDbEntity
  8
OUTLINE
  6
CONTINUOUS
 62
  256
370
   -1
100
AcDbLine
 10
354.6442307123955
 20
139.7767720483352
 11
362.1917941585511
 21
136.6098077903124
  0
LINE
  5
A6
100
AcDbEntity
  8
OUTLINE
  6
CONTINUOUS
 62
  256
370
   -1
100
AcDbLine
 10
362.1917941585511
 20
136.6098077903124
 11
369.7624250014725
 21
133.5045274844171
  0
LINE
  5
A7
100
AcDbEntity
  8
OUTLINE
  6
CONTINUOUS
 62
  256
370
   -1
100
AcDbLine
 10
369.7624250014725
 20
133.5045274844171
 11
377.3594834454546
 21
130.4718911181985
  0
LINE
  5
A8
100
AcDbEntity
  8
OUTLINE
  6
CONTINUOUS
 62
  256
370
   -1
100
AcDbLine
 10
377.3594834454546
 20
130.4718911181985
 11
384.986329694792
 21
127.5228586792059
  0
LINE
  5
A9
100
AcDbEntity
  8
OUTLINE
  6
CONTINUOUS
 62
  256
370
   -1
100
AcDbLine
 10
384.986329694792
 20
127.5228586792059
 11
392.6463239537797
 21
124.6683901549885
  0
LINE
  5
AA
100
AcDbEntity
  8
OUTLINE
  6
CONTINUOUS
 62
  256
370
   -1
100
AcDbLine
 10
392.6463239537797
 20
124.6683901549885
 11
400.3428264267123
 21
121.9194455330955
  0
LINE
  5
AB
100
AcDbEntity
  8
OUTLINE
  6
CONTINUOUS
 62
  256
370
   -1
100
AcDbLine
 10
400.3428264267123
 20
121.9194455330955
 11
408.0788447995157
 21
119.2859332582619
  0
LINE
  5
AC
100
AcDbEntity
  8
OUTLINE
  6
CONTINUOUS
 62
  256
370
   -1
100
AcDbLine
 10
408.0788447995157
 20
119.2859332582619
 11
415.8531248669676
 21
116.7650487894421
  0
LINE
  5
AD
100
AcDbEntity
  8
OUTLINE
  6
CONTINUOUS
 62
  256
370
   -1
100
AcDbLine
 10
415.8531248669676
 20
116.7650487894421
 11
423.6615829525376
 21
114.3455474290378
  0
LINE
  5
AE
100
AcDbEntity
  8
OUTLINE
  6
CONTINUOUS
 62
  256
370
   -1
100
AcDbLine
 10
423.6615829525376
 20
114.3455474290378
 11
431.5000845003385
 21
112.0160327091393
  0
LINE
  5
AF
100
AcDbEntity
  8
OUTLINE
  6
CONTINUOUS
 62
  256
370
   -1
100
AcDbLine
 10
431.5000845003385
 20
112.0160327091393
 11
439.3644949544828
 21
109.7651081618369
  0
LINE
  5
B0
100
AcDbEntity
  8
OUTLINE
  6
CONTINUOUS
 62
  256
370
   -1
100
AcDbLine
 10
439.3644949544828
 20
109.7651081618369
 11
447.2506797590831
 21
107.5813773192212
  0
LINE
  5
B1
100
AcDbEntity
  8
OUTLINE
  6
CONTINUOUS
 62
  256
370
   -1
100
AcDbLine
 10
447.2506797590831
 20
107.5813773192212
 11
455.1545043582517
 21
105.4534437133823
  0
LINE
  5
B2
100
AcDbEntity
  8
OUTLINE
  6
CONTINUOUS
 62
  256
370
   -1
100
AcDbLine
 10
455.1545043582517
 20
105.4534437133823
 11
463.0718341961016
 21
103.3699108764108
  0
LINE
  5
B3
100
AcDbEntity
  8
OUTLINE
  6
CONTINUOUS
 62
  256
370
   -1
100
AcDbLine
 10
463.0718341961016
 20
103.3699108764108
 11
470.9985347167449
 21
101.319382340397
  0
LINE
  5
B4
100
AcDbEntity
  8
OUTLINE
  6
CONTINUOUS
 62
  256
370
   -1
100
AcDbLine
 10
470.9985347167449
 20
101.319382340397
 11
478.9304713642944
 21
99.29046163743125
  0
LINE
  5
B5
100
AcDbEntity
  8
OUTLINE
  6
CONTINUOUS
 62
  256
370
   -1
100
AcDbLine
 10
478.9304713642944
 20
99.29046163743125
 11
486.8635463902328
 21
97.27185055454714
  0
LINE
  5
B6
100
AcDbEntity
  8
OUTLINE
  6
CONTINUOUS
 62
  256
370
   -1
100
AcDbLine
 10
486.8635463902328
 20
97.27185055454714
 11
494.7954874617573
 21
95.25712371039828
  0
LINE
  5
B7
100
AcDbEntity
  8
OUTLINE
  6
CONTINUOUS
 62
  256
370
   -1
100
AcDbLine
 10
494.7954874617573
 20
95.25712371039828
 11
502.7266509616574
 21
93.24687291339914
  0
LINE
  5
B8
100
AcDbEntity
  8
OUTLINE
  6
CONTINUOUS
 62
  256
370
   -1
100
AcDbLine
 10
502.7266509616574
 20
93.24687291339914
 11
510.6575974684139
 21
91.2422350594255
  0
LINE
  5
B9
100
AcDbEntity
  8
OUTLINE
  6
CONTINUOUS
 62
  256
370
   -1
100
AcDbLine
 10
510.6575974684139
 20
91.2422350594255
 11
518.5888875605064
 21
89.24434704435295
  0
LINE
  5
BA
100
AcDbEntity
  8
OUTLINE
  6
CONTINUOUS
 62
  256
370
   -1
100
AcDbLine
 10
518.5888875605064
 20
89.24434704435295
 11
526.5210818164161
 21
87.25434576405735
  0
LINE
  5
BB
100
AcDbEntity
  8
OUTLINE
  6
CONTINUOUS
 62
  256
370
   -1
100
AcDbLine
 10
526.5210818164161
 20
87.25434576405735
 11
534.4547408146225
 21
85.27336811441427
  0
LINE
  5
BC
100
AcDbEntity
  8
OUTLINE
  6
CONTINUOUS
 62
  256
370
   -1
100
AcDbLine
 10
534.4547408146225
 20
85.27336811441427
 11
542.3904251336065
 21
83.30255099129948
  0
LINE
  5
BD
100
AcDbEntity
  8
OUTLINE
  6
CONTINUOUS
 62
  256
370
   -1
100
AcDbLine
 10
542.3904251336065
 20
83.30255099129948
 11
550.3286953518482
 21
81.3430312905887
  0
LINE
  5
BE
100
AcDbEntity
  8
OUTLINE
  6
CONTINUOUS
 62
  256
370
   -1
100
AcDbLine
 10
550.3286953518482
 20
81.3430312905887
 11
558.2701120478278
 21
79.39594590815759
  0
LINE
  5
BF
100
AcDbEntity
  8
OUTLINE
  6
CONTINUOUS
 62
  256
370
   -1
100
AcDbLine
 10
558.2701120478278
 20
79.39594590815759
 11
566.2152318378828
 21
77.46242080439994
  0
LINE
  5
C0
100
AcDbEntity
  8
OUTLINE
  6
CONTINUOUS
 62
  256
370
   -1
100
AcDbLine
 10
566.2152318378828
 20
77.46242080439994
 11
574.1642447289214
 21
75.54257010065473
  0
LINE
  5
C1
100
AcDbEntity
  8
OUTLINE
  6
CONTINUOUS
 62
  256
370
   -1
100
AcDbLine
 10
574.1642447289214
 20
75.54257010065473
 11
582.116682525781
 21
73.63469128588311
  0
LINE
  5
C2
100
AcDbEntity
  8
OUTLINE
  6
CONTINUOUS
 62
  256
370
   -1
100
AcDbLine
 10
582.116682525781
 20
73.63469128588311
 11
590.0720084151619
 21
71.73689246354178
  0
LINE
  5
C3
100
AcDbEntity
  8
OUTLINE
  6
CONTINUOUS
 62
  256
370
   -1
100
AcDbLine
 10
590.0720084151619
 20
71.73689246354178
 11
598.0296855837638
 21
69.84728173708748
  0
LINE
  5
C4
100
AcDbEntity
  8
OUTLINE
  6
CONTINUOUS
 62
  256
370
   -1
100
AcDbLine
 10
598.0296855837638
 20
69.84728173708748
 11
605.9891772182868
 21
67.96396720997687
  0
LINE
  5
C5
100
AcDbEntity
  8
OUTLINE
  6
CONTINUOUS
 62
  256
370
   -1
100
AcDbLine
 10
605.9891772182868
 20
67.96396720997687
 11
613.9499465054314
 21
66.0850569856667
  0
LINE
  5
C6
100
AcDbEntity
  8
OUTLINE
  6
CONTINUOUS
 62
  256
370
   -1
100
AcDbLine
 10
613.9499465054314
 20
66.0850569856667
 11
621.9114566318968
 21
64.20865916761366
  0
LINE
  5
C7
100
AcDbEntity
  8
OUTLINE
  6
CONTINUOUS
 62
  256
370
   -1
100
AcDbLine
 10
621.9114566318968
 20
64.20865916761366
 11
629.8731707843833
 21
62.33288185927442
  0
LINE
  5
C8
100
AcDbEntity
  8
OUTLINE
  6
CONTINUOUS
 62
  256
370
   -1
100
AcDbLine
 10
629.8731707843833
 20
62.33288185927442
 11
637.8345521495912
 21
60.45583316410575
  0
LINE
  5
C9
100
AcDbEntity
  8
OUTLINE
  6
CONTINUOUS
 62
  256
370
   -1
100
AcDbLine
 10
637.8345521495912
 20
60.45583316410575
 11
645.7950653804741
 21
58.57562646550776
  0
LINE
  5
CA
100
AcDbEntity
  8
OUTLINE
  6
CONTINUOUS
 62
  256
370
   -1
100
AcDbLine
 10
645.7950653804741
 20
58.57562646550776
 11
653.7544045892706
 21
56.69120142393075
  0
LINE
  5
CB
100
AcDbEntity
  8
OUTLINE
  6
CONTINUOUS
 62
  256
370
   -1
100
AcDbLine
 10
653.7544045892706
 20
56.69120142393075
 11
661.7127406945178
 21
54.80321466718979
  0
LINE
  5
CC
100
AcDbEntity
  8
OUTLINE
  6
CONTINUOUS
 62
  256
370
   -1
100
AcDbLine
 10
661.7127406945178
 20
54.80321466718979
 11
669.6703040119852
 21
52.91253671102064
  0
LINE
  5
CD
100
AcDbEntity
  8
OUTLINE
  6
CONTINUOUS
 62
  256
370
   -1
100
AcDbLine
 10
669.6703040119852
 20
52.91253671102064
 11
677.6273248574415
 21
51.02003807115909
  0
LINE
  5
CE
100
AcDbEntity
  8
OUTLINE
  6
CONTINUOUS
 62
  256
370
   -1
100
AcDbLine
 10
677.6273248574415
 20
51.02003807115909
 11
685.584033546656
 21
49.1265892633409
  0
LINE
  5
CF
100
AcDbEntity
  8
OUTLINE
  6
CONTINUOUS
 62
  256
370
   -1
100
AcDbLine
 10
685.584033546656
 20
49.1265892633409
 11
693.5406603953974
 21
47.23306080330183
  0
LINE
  5
D0
100
AcDbEntity
  8
OUTLINE
  6
CONTINUOUS
 62
  256
370
   -1
100
AcDbLine
 10
693.5406603953974
 20
47.23306080330183
 11
701.497435719435
 21
45.34032320677765
  0
LINE
  5
D1
100
AcDbEntity
  8
OUTLINE
  6
CONTINUOUS
 62
  256
370
   -1
100
AcDbLine
 10
701.497435719435
 20
45.34032320677765
 11
709.4545898345376
 21
43.44924698950414
  0
LINE
  5
D2
100
AcDbEntity
  8
OUTLINE
  6
CONTINUOUS
 62
  256
370
   -1
100
AcDbLine
 10
709.4545898345376
 20
43.44924698950414
 11
717.4123530564743
 21
41.56070266721707
  0
LINE
  5
D3
100
AcDbEntity
  8
OUTLINE
  6
CONTINUOUS
 62
  256
370
   -1
100
AcDbLine
 10
717.4123530564743
 20
41.56070266721707
 11
725.370955439687
 21
39.67555977099817
  0
LINE
  5
D4
100
AcDbEntity
  8
OUTLINE
  6
CONTINUOUS
 62
  256
370
   -1
100
AcDbLine
 10
725.370955439687
 20
39.67555977099817
 11
733.3305457167369
 21
37.79438141944814
  0
LINE
  5
D5
100
AcDbEntity
  8
OUTLINE
  6
CONTINUOUS
 62
  256
370
   -1
100
AcDbLine
 10
733.3305457167369
 20
37.79438141944814
 11
741.2910764116665
 21
35.91699143765376
  0
LINE
  5
D6
100
AcDbEntity
  8
OUTLINE
  6
CONTINUOUS
 62
  256
370
   -1
100
AcDbLine
 10
741.2910764116665
 20
35.91699143765376
 11
749.2524710493529
 21
34.04310438482751
  0
LINE
  5
D7
100
AcDbEntity
  8
OUTLINE
  6
CONTINUOUS
 62
  256
370
   -1
100
AcDbLine
 10
749.2524710493529
 20
34.04310438482751
 11
757.214653154673
 21
32.17243482018186
  0
LINE
  5
D8
100
AcDbEntity
  8
OUTLINE
  6
CONTINUOUS
 62
  256
370
   -1
100
AcDbLine
 10
757.214653154673
 20
32.17243482018186
 11
765.1775462525031
 21
30.30469730292932
  0
LINE
  5
D9
100
AcDbEntity
  8
OUTLINE
  6
CONTINUOUS
 62
  256
370
   -1
100
AcDbLine
 10
765.1775462525031
 20
30.30469730292932
 11
773.1410738677208
 21
28.43960639228236
  0
LINE
  5
DA
100
AcDbEntity
  8
OUTLINE
  6
CONTINUOUS
 62
  256
370
   -1
100
AcDbLine
 10
773.1410738677208
 20
28.43960639228236
 11
781.1051595252025
 21
26.57687664745348
  0
LINE
  5
DB
100
AcDbEntity
  8
OUTLINE
  6
CONTINUOUS
 62
  256
370
   -1
100
AcDbLine
 10
781.1051595252025
 20
26.57687664745348
 11
789.0697267498249
 21
24.71622262765514
  0
LINE
  5
DC
100
AcDbEntity
  8
OUTLINE
  6
CONTINUOUS
 62
  256
370
   -1
100
AcDbLine
 10
789.0697267498249
 20
24.71622262765514
 11
797.034699066465
 21
22.85735889209983
  0
LINE
  5
DD
100
AcDbEntity
  8
OUTLINE
  6
CONTINUOUS
 62
  256
370
   -1
100
AcDbLine
 10
797.034699066465
 20
22.85735889209983
 11
805
 21
21
  0
LINE
  5
DE
100
AcDbEntity
  8
OUTLINE
  6
CONTINUOUS
 62
  256
370
   -1
100
AcDbLine
 10
805
 20
21
 11
805
 21
0
  0
LINE
  5
DF
100
AcDbEntity
  8
OUTLINE
  6
CONTINUOUS
 62
  256
370
   -1
100
AcDbLine
 10
0
 20
0
 11
0
 21
-250
  0
LINE
  5
E0
100
AcDbEntity
  8
OUTLINE
  6
CONTINUOUS
 62
  256
370
   -1
100
AcDbLine
 10
0
 20
-250
 11
8.170748975402695
 21
-250.3430988929286
  0
LINE
  5
E1
100
AcDbEntity
  8
OUTLINE
  6
CONTINUOUS
 62
  256
370
   -1
100
AcDbLine
 10
8.170748975402695
 20
-250.3430988929286
 11
16.34583783862375
 21
-250.5313982245715
  0
LINE
  5
E2
100
AcDbEntity
  8
OUTLINE
  6
CONTINUOUS
 62
  256
370
   -1
100
AcDbLine
 10
16.34583783862375
 20
-250.5313982245715
 11
24.52382800852056
 21
-250.5681138653854
  0
LINE
  5
E3
100
AcDbEntity
  8
OUTLINE
  6
CONTINUOUS
 62
  256
370
   -1
100
AcDbLine
 10
24.52382800852056
 20
-250.5681138653854
 11
32.7032809039505
 21
-250.456461685827
  0
LINE
  5
E4
100
AcDbEntity
  8
OUTLINE
  6
CONTINUOUS
 62
  256
370
   -1
100
AcDbLine
 10
32.7032809039505
 20
-250.456461685827
 11
40.88275794377098
 21
-250.1996575563531
  0
LINE
  5
E5
100
AcDbEntity
  8
OUTLINE
  6
CONTINUOUS
 62
  256
370
   -1
100
AcDbLine
 10
40.88275794377098
 20
-250.1996575563531
 11
49.06082054683938
 21
-249.8009173474207
  0
LINE
  5
E6
100
AcDbEntity
  8
OUTLINE
  6
CONTINUOUS
 62
  256
370
   -1
100
AcDbLine
 10
49.06082054683938
 20
-249.8009173474207
 11
57.23603013201309
 21
-249.2634569294864
  0
LINE
  5
E7
100
AcDbEntity
  8
OUTLINE
  6
CONTINUOUS
 62
  256
370
   -1
100
AcDbLine
 10
57.23603013201309
 20
-249.2634569294864
 11
65.40694811814951
 21
-248.5904921730071
  0
LINE
  5
E8
100
AcDbEntity
  8
OUTLINE
  6
CONTINUOUS
 62
  256
370
   -1
100
AcDbLine
 10
65.40694811814951
 20
-248.5904921730071
 11
73.57213592410604
 21
-247.7852389484396
  0
LINE
  5
E9
100
AcDbEntity
  8
OUTLINE
  6
CONTINUOUS
 62
  256
370
   -1
100
AcDbLine
 10
73.57213592410604
 20
-247.7852389484396
 11
81.73015136836665
 21
-246.8509055858025
  0
LINE
  5
EA
100
AcDbEntity
  8
OUTLINE
  6
CONTINUOUS
 62
  256
370
   -1
100
AcDbLine
 10
81.73015136836665
 20
-246.8509055858025
 11
89.87796808222011
 21
-245.7873825743936
  0
LINE
  5
EB
100
AcDbEntity
  8
OUTLINE
  6
CONTINUOUS
 62
  256
370
   -1
100
AcDbLine
 10
89.87796808222011
 20
-245.7873825743936
 11
98.00849705755485
 21
-244.5860518191227
  0
LINE
  5
EC
100
AcDbEntity
  8
OUTLINE
  6
CONTINUOUS
 62
  256
370
   -1
100
AcDbLine
 10
98.00849705755485
 20
-244.5860518191227
 11
106.1140071565197
 21
-243.2369503811812
  0
LINE
  5
ED
100
AcDbEntity
  8
OUTLINE
  6
CONTINUOUS
 62
  256
370
   -1
100
AcDbLine
 10
106.1140071565197
 20
-243.2369503811812
 11
114.1867672412638
 21
-241.7301153217607
  0
LINE
  5
EE
100
AcDbEntity
  8
OUTLINE
  6
CONTINUOUS
 62
  256
370
   -1
100
AcDbLine
 10
114.1867672412638
 20
-241.7301153217607
 11
122.2190461739357
 21
-240.055583702053
  0
LINE
  5
EF
100
AcDbEntity
  8
OUTLINE
  6
CONTINUOUS
 62
  256
370
   -1
100
AcDbLine
 10
122.2190461739357
 20
-240.055583702053
 11
130.2031128166847
 21
-238.2033925832494
  0
LINE
  5
F0
100
AcDbEntity
  8
OUTLINE
  6
CONTINUOUS
 62
  256
370
   -1
100
AcDbLine
 10
130.2031128166847
 20
-238.2033925832494
 11
138.1312360316594
 21
-236.1635790265416
  0
LINE
  5
F1
100
AcDbEntity
  8
OUTLINE
  6
CONTINUOUS
 62
  256
370
   -1
100
AcDbLine
 10
138.1312360316594
 20
-236.1635790265416
 11
145.9956846810088
 21
-233.9261800931209
  0
LINE
  5
F2
100
AcDbEntity
  8
OUTLINE
  6
CONTINUOUS
 62
  256
370
   -1
100
AcDbLine
 10
145.9956846810088
 20
-233.9261800931209
 11
153.7887276268818
 21
-231.4812328441793
  0
LINE
  5
F3
100
AcDbEntity
  8
OUTLINE
  6
CONTINUOUS
 62
  256
370
   -1
100
AcDbLine
 10
153.7887276268818
 20
-231.4812328441793
 11
161.5026345618686
 21
-228.8187760433833
  0
LINE
  5
F4
100
AcDbEntity
  8
OUTLINE
  6
CONTINUOUS
 62
  256
370
   -1
100
AcDbLine
 10
161.5026345618686
 20
-228.8187760433833
 11
169.1332476565795
 21
-225.9361723386777
  0
LINE
  5
F5
100
AcDbEntity
  8
OUTLINE
  6
CONTINUOUS
 62
  256
370
   -1
100
AcDbLine
 10
169.1332476565795
 20
-225.9361723386777
 11
176.6881599507691
 21
-222.8548746607987
  0
LINE
  5
F6
100
AcDbEntity
  8
OUTLINE
  6
CONTINUOUS
 62
  256
370
   -1
100
AcDbLine
 10
176.6881599507691
 20
-222.8548746607987
 11
184.1773769916726
 21
-219.6012817863377
  0
LINE
  5
F7
100
AcDbEntity
  8
OUTLINE
  6
CONTINUOUS
 62
  256
370
   -1
100
AcDbLine
 10
184.1773769916726
 20
-219.6012817863377
 11
191.6109043265255
 21
-216.2017924918861
  0
LINE
  5
F8
100
AcDbEntity
  8
OUTLINE
  6
CONTINUOUS
 62
  256
370
   -1
100
AcDbLine
 10
191.6109043265255
 20
-216.2017924918861
 11
198.9987475025628
 21
-212.6828055540354
  0
LINE
  5
F9
100
AcDbEntity
  8
OUTLINE
  6
CONTINUOUS
 62
  256
370
   -1
100
AcDbLine
 10
198.9987475025628
 20
-212.6828055540354
 11
206.3509120670201
 21
-209.0707197493768
  0
LINE
  5
FA
100
AcDbEntity
  8
OUTLINE
  6
CONTINUOUS
 62
  256
370
   -1
100
AcDbLine
 10
206.3509120670201
 20
-209.0707197493768
 11
213.6774035671326
 21
-205.3919338545019
  0
LINE
  5
FB
100
AcDbEntity
  8
OUTLINE
  6
CONTINUOUS
 62
  256
370
   -1
100
AcDbLine
 10
213.6774035671326
 20
-205.3919338545019
 11
220.9882275501355
 21
-201.6728466460019
  0
LINE
  5
FC
100
AcDbEntity
  8
OUTLINE
  6
CONTINUOUS
 62
  256
370
   -1
100
AcDbLine
 10
220.9882275501355
 20
-201.6728466460019
 11
228.2933895632644
 21
-197.9398569004684
  0
LINE
  5
FD
100
AcDbEntity
  8
OUTLINE
  6
CONTINUOUS
 62
  256
370
   -1
100
AcDbLine
 10
228.2933895632644
 20
-197.9398569004684
 11
235.6028951537543
 21
-194.2193633944927
  0
LINE
  5
FE
100
AcDbEntity
  8
OUTLINE
  6
CONTINUOUS
 62
  256
370
   -1
100
AcDbLine
 10
235.6028951537543
 20
-194.2193633944927
 11
242.9267459405698
 21
-190.5377541837953
  0
LINE
  5
FF
100
AcDbEntity
  8
OUTLINE
  6
CONTINUOUS
 62
  256
370
   -1
100
AcDbLine
 10
242.9267459405698
 20
-190.5377541837953
 11
250.2721783184209
 21
-186.9138705912104
  0
LINE
  5
100
100
AcDbEntity
  8
OUTLINE
  6
CONTINUOUS
 62
  256
370
   -1
100
AcDbLine
 10
250.2721783184209
 20
-186.9138705912104
 11
257.6388195735038
 21
-183.3457874829742
  0
LINE
  5
101
100
AcDbEntity
  8
OUTLINE
  6
CONTINUOUS
 62
  256
370
   -1
100
AcDbLine
 10
257.6388195735038
 20
-183.3457874829742
 11
265.0249995276457
 21
-179.8280387405325
  0
LINE
  5
102
100
AcDbEntity
  8
OUTLINE
  6
CONTINUOUS
 62
  256
370
   -1
100
AcDbLine
 10
265.0249995276457
 20
-179.8280387405325
 11
272.4290480026734
 21
-176.3551582453312
  0
LINE
  5
103
100
AcDbEntity
  8
OUTLINE
  6
CONTINUOUS
 62
  256
370
   -1
100
AcDbLine
 10
272.4290480026734
 20
-176.3551582453312
 11
279.8492948204138
 21
-172.9216798788162
  0
LINE
  5
104
100
AcDbEntity
  8
OUTLINE
  6
CONTINUOUS
 62
  256
370
   -1
100
AcDbLine
 10
279.8492948204138
 20
-172.9216798788162
 11
287.284069802694
 21
-169.5221375224336
  0
LINE
  5
105
100
AcDbEntity
  8
OUTLINE
  6
CONTINUOUS
 62
  256
370
   -1
100
AcDbLine
 10
287.284069802694
 20
-169.5221375224336
 11
294.7317027713408
 21
-166.1510650576292
  0
LINE
  5
106
100
AcDbEntity
  8
OUTLINE
  6
CONTINUOUS
 62
  256
370
   -1
100
AcDbLine
 10
294.7317027713408
 20
-166.1510650576292
 11
302.1905235481813
 21
-162.8029963658489
  0
LINE
  5
107
100
AcDbEntity
  8
OUTLINE
  6
CONTINUOUS
 62
  256
370
   -1
100
AcDbLine
 10
302.1905235481813
 20
-162.8029963658489
 11
309.6588619550423
 21
-159.4724653285387
  0
LINE
  5
108
100
AcDbEntity
  8
OUTLINE
  6
CONTINUOUS
 62
  256
370
   -1
100
AcDbLine
 10
309.6588619550423
 20
-159.4724653285387
 11
317.1350478137508
 21
-156.1540058271445
  0
LINE
  5
109
100
AcDbEntity
  8
OUTLINE
  6
CONTINUOUS
 62
  256
370
   -1
100
AcDbLine
 10
317.1350478137508
 20
-156.1540058271445
 11
324.6174468095352
 21
-152.8422688507162
  0
LINE
  5
10A
100
AcDbEntity
  8
OUTLINE
  6
CONTINUOUS
 62
  256
370
   -1
100
AcDbLine
 10
324.6174468095352
 20
-152.8422688507162
 11
332.1063427115756
 21
-149.538168659676
  0
LINE
  5
10B
100
AcDbEntity
  8
OUTLINE
  6
CONTINUOUS
 62
  256
370
   -1
100
AcDbLine
 10
332.1063427115756
 20
-149.538168659676
 11
339.6048651932026
 21
-146.2519124705663
  0
LINE
  5
10C
100
AcDbEntity
  8
OUTLINE
  6
CONTINUOUS
 62
  256
370
   -1
100
AcDbLine
 10
339.6048651932026
 20
-146.2519124705663
 11
347.1163744587109
 21
-142.9944602709362
  0
LINE
  5
10D
100
AcDbEntity
  8
OUTLINE
  6
CONTINUOUS
 62
  256
370
   -1
100
AcDbLine
 10
347.1163744587109
 20
-142.9944602709362
 11
354.6442307123955
 21
-139.7767720483352
  0
LINE
  5
10E
100
AcDbEntity
  8
OUTLINE
  6
CONTINUOUS
 62
  256
370
   -1
100
AcDbLine
 10
354.6442307123955
 20
-139.7767720483352
 11
362.1917941585511
 21
-136.6098077903124
  0
LINE
  5
10F
100
AcDbEntity
  8
OUTLINE
  6
CONTINUOUS
 62
  256
370
   -1
100
AcDbLine
 10
362.1917941585511
 20
-136.6098077903124
 11
369.7624250014725
 21
-133.5045274844171
  0
LINE
  5
110
100
AcDbEntity
  8
OUTLINE
  6
CONTINUOUS
 62
  256
370
   -1
100
AcDbLine
 10
369.7624250014725
 20
-133.5045274844171
 11
377.3594834454546
 21
-130.4718911181985
  0
LINE
  5
111
100
AcDbEntity
  8
OUTLINE
  6
CONTINUOUS
 62
  256
370
   -1
100
AcDbLine
 10
377.3594834454546
 20
-130.4718911181985
 11
384.986329694792
 21
-127.5228586792059
  0
LINE
  5
112
100
AcDbEntity
  8
OUTLINE
  6
CONTINUOUS
 62
  256
370
   -1
100
AcDbLine
 10
384.986329694792
 20
-127.5228586792059
 11
392.6463239537797
 21
-124.6683901549885
  0
LINE
  5
113
100
AcDbEntity
  8
OUTLINE
  6
CONTINUOUS
 62
  256
370
   -1
100
AcDbLine
 10
392.6463239537797
 20
-124.6683901549885
 11
400.3428264267123
 21
-121.9194455330955
  0
LINE
  5
114
100
AcDbEntity
  8
OUTLINE
  6
CONTINUOUS
 62
  256
370
   -1
100
AcDbLine
 10
400.3428264267123
 20
-121.9194455330955
 11
408.0788447995157
 21
-119.2859332582619
  0
LINE
  5
115
100
AcDbEntity
  8
OUTLINE
  6
CONTINUOUS
 62
  256
370
   -1
100
AcDbLine
 10
408.0788447995157
 20
-119.2859332582619
 11
415.8531248669676
 21
-116.7650487894421
  0
LINE
  5
116
100
AcDbEntity
  8
OUTLINE
  6
CONTINUOUS
 62
  256
370
   -1
100
AcDbLine
 10
415.8531248669676
 20
-116.7650487894421
 11
423.6615829525376
 21
-114.3455474290378
  0
LINE
  5
117
100
AcDbEntity
  8
OUTLINE
  6
CONTINUOUS
 62
  256
370
   -1
100
AcDbLine
 10
423.6615829525376
 20
-114.3455474290378
 11
431.5000845003385
 21
-112.0160327091393
  0
LINE
  5
118
100
AcDbEntity
  8
OUTLINE
  6
CONTINUOUS
 62
  256
370
   -1
100
AcDbLine
 10
431.5000845003385
 20
-112.0160327091393
 11
439.3644949544828
 21
-109.7651081618369
  0
LINE
  5
119
100
AcDbEntity
  8
OUTLINE
  6
CONTINUOUS
 62
  256
370
   -1
100
AcDbLine
 10
439.3644949544828
 20
-109.7651081618369
 11
447.2506797590831
 21
-107.5813773192212
  0
LINE
  5
11A
100
AcDbEntity
  8
OUTLINE
  6
CONTINUOUS
 62
  256
370
   -1
100
AcDbLine
 10
447.2506797590831
 20
-107.5813773192212
 11
455.1545043582517
 21
-105.4534437133823
  0
LINE
  5
11B
100
AcDbEntity
  8
OUTLINE
  6
CONTINUOUS
 62
  256
370
   -1
100
AcDbLine
 10
455.1545043582517
 20
-105.4534437133823
 11
463.0718341961016
 21
-103.3699108764108
  0
LINE
  5
11C
100
AcDbEntity
  8
OUTLINE
  6
CONTINUOUS
 62
  256
370
   -1
100
AcDbLine
 10
463.0718341961016
 20
-103.3699108764108
 11
470.9985347167449
 21
-101.319382340397
  0
LINE
  5
11D
100
AcDbEntity
  8
OUTLINE
  6
CONTINUOUS
 62
  256
370
   -1
100
AcDbLine
 10
470.9985347167449
 20
-101.319382340397
 11
478.9304713642944
 21
-99.29046163743125
  0
LINE
  5
11E
100
AcDbEntity
  8
OUTLINE
  6
CONTINUOUS
 62
  256
370
   -1
100
AcDbLine
 10
478.9304713642944
 20
-99.29046163743125
 11
486.8635463902328
 21
-97.27185055454714
  0
LINE
  5
11F
100
AcDbEntity
  8
OUTLINE
  6
CONTINUOUS
 62
  256
370
   -1
100
AcDbLine
 10
486.8635463902328
 20
-97.27185055454714
 11
494.7954874617573
 21
-95.25712371039828
  0
LINE
  5
120
100
AcDbEntity
  8
OUTLINE
  6
CONTINUOUS
 62
  256
370
   -1
100
AcDbLine
 10
494.7954874617573
 20
-95.25712371039828
 11
502.7266509616574
 21
-93.24687291339914
  0
LINE
  5
121
100
AcDbEntity
  8
OUTLINE
  6
CONTINUOUS
 62
  256
370
   -1
100
AcDbLine
 10
502.7266509616574
 20
-93.24687291339914
 11
510.6575974684139
 21
-91.2422350594255
  0
LINE
  5
122
100
AcDbEntity
  8
OUTLINE
  6
CONTINUOUS
 62
  256
370
   -1
100
AcDbLine
 10
510.6575974684139
 20
-91.2422350594255
 11
518.5888875605064
 21
-89.24434704435295
  0
LINE
  5
123
100
AcDbEntity
  8
OUTLINE
  6
CONTINUOUS
 62
  256
370
   -1
100
AcDbLine
 10
518.5888875605064
 20
-89.24434704435295
 11
526.5210818164161
 21
-87.25434576405735
  0
LINE
  5
124
100
AcDbEntity
  8
OUTLINE
  6
CONTINUOUS
 62
  256
370
   -1
100
AcDbLine
 10
526.5210818164161
 20
-87.25434576405735
 11
534.4547408146225
 21
-85.27336811441427
  0
LINE
  5
125
100
AcDbEntity
  8
OUTLINE
  6
CONTINUOUS
 62
  256
370
   -1
100
AcDbLine
 10
534.4547408146225
 20
-85.27336811441427
 11
542.3904251336065
 21
-83.30255099129948
  0
LINE
  5
126
100
AcDbEntity
  8
OUTLINE
  6
CONTINUOUS
 62
  256
370
   -1
100
AcDbLine
 10
542.3904251336065
 20
-83.30255099129948
 11
550.3286953518482
 21
-81.3430312905887
  0
LINE
  5
127
100
AcDbEntity
  8
OUTLINE
  6
CONTINUOUS
 62
  256
370
   -1
100
AcDbLine
 10
550.3286953518482
 20
-81.3430312905887
 11
558.2701120478278
 21
-79.39594590815759
  0
LINE
  5
128
100
AcDbEntity
  8
OUTLINE
  6
CONTINUOUS
 62
  256
370
   -1
100
AcDbLine
 10
558.2701120478278
 20
-79.39594590815759
 11
566.2152318378828
 21
-77.46242080439994
  0
LINE
  5
129
100
AcDbEntity
  8
OUTLINE
  6
CONTINUOUS
 62
  256
370
   -1
100
AcDbLine
 10
566.2152318378828
 20
-77.46242080439994
 11
574.1642447289214
 21
-75.54257010065473
  0
LINE
  5
12A
100
AcDbEntity
  8
OUTLINE
  6
CONTINUOUS
 62
  256
370
   -1
100
AcDbLine
 10
574.1642447289214
 20
-75.54257010065473
 11
582.116682525781
 21
-73.63469128588311
  0
LINE
  5
12B
100
AcDbEntity
  8
OUTLINE
  6
CONTINUOUS
 62
  256
370
   -1
100
AcDbLine
 10
582.116682525781
 20
-73.63469128588311
 11
590.0720084151619
 21
-71.73689246354178
  0
LINE
  5
12C
100
AcDbEntity
  8
OUTLINE
  6
CONTINUOUS
 62
  256
370
   -1
100
AcDbLine
 10
590.0720084151619
 20
-71.73689246354178
 11
598.0296855837638
 21
-69.84728173708748
  0
LINE
  5
12D
100
AcDbEntity
  8
OUTLINE
  6
CONTINUOUS
 62
  256
370
   -1
100
AcDbLine
 10
598.0296855837638
 20
-69.84728173708748
 11
605.9891772182868
 21
-67.96396720997687
  0
LINE
  5
12E
100
AcDbEntity
  8
OUTLINE
  6
CONTINUOUS
 62
  256
370
   -1
100
AcDbLine
 10
605.9891772182868
 20
-67.96396720997687
 11
613.9499465054314
 21
-66.0850569856667
  0
LINE
  5
12F
100
AcDbEntity
  8
OUTLINE
  6
CONTINUOUS
 62
  256
370
   -1
100
AcDbLine
 10
613.9499465054314
 20
-66.0850569856667
 11
621.9114566318968
 21
-64.20865916761366
  0
LINE
  5
130
100
AcDbEntity
  8
OUTLINE
  6
CONTINUOUS
 62
  256
370
   -1
100
AcDbLine
 10
621.9114566318968
 20
-64.20865916761366
 11
629.8731707843833
 21
-62.33288185927442
  0
LINE
  5
131
100
AcDbEntity
  8
OUTLINE
  6
CONTINUOUS
 62
  256
370
   -1
100
AcDbLine
 10
629.8731707843833
 20
-62.33288185927442
 11
637.8345521495912
 21
-60.45583316410575
  0
LINE
  5
132
100
AcDbEntity
  8
OUTLINE
  6
CONTINUOUS
 62
  256
370
   -1
100
AcDbLine
 10
637.8345521495912
 20
-60.45583316410575
 11
645.7950653804741
 21
-58.57562646550776
  0
LINE
  5
133
100
AcDbEntity
  8
OUTLINE
  6
CONTINUOUS
 62
  256
370
   -1
100
AcDbLine
 10
645.7950653804741
 20
-58.57562646550776
 11
653.7544045892706
 21
-56.69120142393075
  0
LINE
  5
134
100
AcDbEntity
  8
OUTLINE
  6
CONTINUOUS
 62
  256
370
   -1
100
AcDbLine
 10
653.7544045892706
 20
-56.69120142393075
 11
661.7127406945178
 21
-54.80321466718979
  0
LINE
  5
135
100
AcDbEntity
  8
OUTLINE
  6
CONTINUOUS
 62
  256
370
   -1
100
AcDbLine
 10
661.7127406945178
 20
-54.80321466718979
 11
669.6703040119852
 21
-52.91253671102064
  0
LINE
  5
136
100
AcDbEntity
  8
OUTLINE
  6
CONTINUOUS
 62
  256
370
   -1
100
AcDbLine
 10
669.6703040119852
 20
-52.91253671102064
 11
677.6273248574415
 21
-51.02003807115909
  0
LINE
  5
137
100
AcDbEntity
  8
OUTLINE
  6
CONTINUOUS
 62
  256
370
   -1
100
AcDbLine
 10
677.6273248574415
 20
-51.02003807115909
 11
685.584033546656
 21
-49.1265892633409
  0
LINE
  5
138
100
AcDbEntity
  8
OUTLINE
  6
CONTINUOUS
 62
  256
370
   -1
100
AcDbLine
 10
685.584033546656
 20
-49.1265892633409
 11
693.5406603953974
 21
-47.23306080330183
  0
LINE
  5
139
100
AcDbEntity
  8
OUTLINE
  6
CONTINUOUS
 62
  256
370
   -1
100
AcDbLine
 10
693.5406603953974
 20
-47.23306080330183
 11
701.497435719435
 21
-45.34032320677765
  0
LINE
  5
13A
100
AcDbEntity
  8
OUTLINE
  6
CONTINUOUS
 62
  256
370
   -1
100
AcDbLine
 10
701.497435719435
 20
-45.34032320677765
 11
709.4545898345376
 21
-43.44924698950414
  0
LINE
  5
13B
100
AcDbEntity
  8
OUTLINE
  6
CONTINUOUS
 62
  256
370
   -1
100
AcDbLine
 10
709.4545898345376
 20
-43.44924698950414
 11
717.4123530564743
 21
-41.56070266721707
  0
LINE
  5
13C
100
AcDbEntity
  8
OUTLINE
  6
CONTINUOUS
 62
  256
370
   -1
100
AcDbLine
 10
717.4123530564743
 20
-41.56070266721707
 11
725.370955439687
 21
-39.67555977099817
  0
LINE
  5
13D
100
AcDbEntity
  8
OUTLINE
  6
CONTINUOUS
 62
  256
370
   -1
100
AcDbLine
 10
725.370955439687
 20
-39.67555977099817
 11
733.3305457167369
 21
-37.79438141944814
  0
LINE
  5
13E
100
AcDbEntity
  8
OUTLINE
  6
CONTINUOUS
 62
  256
370
   -1
100
AcDbLine
 10
733.3305457167369
 20
-37.79438141944814
 11
741.2910764116665
 21
-35.91699143765376
  0
LINE
  5
13F
100
AcDbEntity
  8
OUTLINE
  6
CONTINUOUS
 62
  256
370
   -1
100
AcDbLine
 10
741.2910764116665
 20
-35.91699143765376
 11
749.2524710493529
 21
-34.04310438482751
  0
LINE
  5
140
100
AcDbEntity
  8
OUTLINE
  6
CONTINUOUS
 62
  256
370
   -1
100
AcDbLine
 10
749.2524710493529
 20
-34.04310438482751
 11
757.214653154673
 21
-32.17243482018186
  0
LINE
  5
141
100
AcDbEntity
  8
OUTLINE
  6
CONTINUOUS
 62
  256
370
   -1
100
AcDbLine
 10
757.214653154673
 20
-32.17243482018186
 11
765.1775462525031
 21
-30.30469730292932
  0
LINE
  5
142
100
AcDbEntity
  8
OUTLINE
  6
CONTINUOUS
 62
  256
370
   -1
100
AcDbLine
 10
765.1775462525031
 20
-30.30469730292932
 11
773.1410738677208
 21
-28.43960639228236
  0
LINE
  5
143
100
AcDbEntity
  8
OUTLINE
  6
CONTINUOUS
 62
  256
370
   -1
100
AcDbLine
 10
773.1410738677208
 20
-28.43960639228236
 11
781.1051595252025
 21
-26.57687664745348
  0
LINE
  5
144
100
AcDbEntity
  8
OUTLINE
  6
CONTINUOUS
 62
  256
370
   -1
100
AcDbLine
 10
781.1051595252025
 20
-26.57687664745348
 11
789.0697267498249
 21
-24.71622262765514
  0
LINE
  5
145
100
AcDbEntity
  8
OUTLINE
  6
CONTINUOUS
 62
  256
370
   -1
100
AcDbLine
 10
789.0697267498249
 20
-24.71622262765514
 11
797.034699066465
 21
-22.85735889209983
  0
LINE
  5
146
100
AcDbEntity
  8
OUTLINE
  6
CONTINUOUS
 62
  256
370
   -1
100
AcDbLine
 10
797.034699066465
 20
-22.85735889209983
 11
805
 21
-21
  0
LINE
  5
147
100
AcDbEntity
  8
OUTLINE
  6
CONTINUOUS
 62
  256
370
   -1
100
AcDbLine
 10
805
 20
-21
 11
805
 21
0
  0
DIMENSION
  5
148
100
AcDbEntity
  8
0
  6
ByLayer
 62
  256
370
   -1
100
AcDbDimension
  2
*D1
 10
-131.0679033410055
 20
-250
 30
0
 11
-131.0679033410055
 21
-2.842170943040401e-14
 31
0
 70
   32
 71
    5
  3
Standard
 53
0
210
0
220
0
230
1
100
AcDbAlignedDimension
 13
0
 23
250
 33
0
 14
0
 24
-250
 34
0
 50
90
100
AcDbRotatedDimension
  0
DIMENSION
  5
149
100
AcDbEntity
  8
0
  6
ByLayer
 62
  256
370
   -1
100
AcDbDimension
  2
*D2
 10
2.15612984280248e-14
 20
350.1664880304495
 30
0
 11
402.5
 21
350.1664880304495
 31
0
 70
   32
 71
    5
  3
Standard
 53
0
210
0
220
0
230
1
100
AcDbAlignedDimension
 13
805
 23
1.170522296607285
 33
0
 14
0
 24
-1.956237363298601
 34
0
100
AcDbRotatedDimension
  0
DIMENSION
  5
14A
100
AcDbEntity
  8
0
  6
ByLayer
 62
  256
370
   -1
100
AcDbDimension
  2
*D3
 10
837.9486038633391
 20
-21
 30
0
 11
837.9486038633391
 21
-1.77635683940025e-15
 31
0
 70
   32
 71
    5
  3
Standard
 53
0
210
0
220
0
230
1
100
AcDbAlignedDimension
 13
805
 23
21
 33
0
 14
805
 24
-21
 34
0
 50
90
100
AcDbRotatedDimension
  0
LINE
  5
14B
100
AcDbEntity
  8
OUTLINE
  6
ByLayer
 62
  256
370
   -1
100
AcDbLine
 10
0
 20
0
 11
0
 21
50
  0
LINE
  5
14C
100
AcDbEntity
  8
OUTLINE
  6
ByLayer
 62
  256
370
   -1
100
AcDbLine
 10
0
 20
50
 11
1.634149795080539
 21
50.06861977858572
  0
LINE
  5
14D
100
AcDbEntity
  8
OUTLINE
  6
ByLayer
 62
  256
370
   -1
100
AcDbLine
 10
1.634149795080539
 20
50.06861977858572
 11
3.26916756772475
 21
50.1062796449143
  0
LINE
  5
14E
100
AcDbEntity
  8
OUTLINE
  6
ByLayer
 62
  256
370
   -1
100
AcDbLine
 10
3.26916756772475
 20
50.1062796449143
 11
4.904765601704113
 21
50.11362277307708
  0
LINE
  5
14F
100
AcDbEntity
  8
OUTLINE
  6
ByLayer
 62
  256
370
   -1
100
AcDbLine
 10
4.904765601704113
 20
50.11362277307708
 11
6.5406561807901
 21
50.09129233716541
  0
LINE
  5
150
100
AcDbEntity
  8
OUTLINE
  6
ByLayer
 62
  256
370
   -1
100
AcDbLine
 10
6.5406561807901
 20
50.09129233716541
 11
8.176551588754197
 21
50.03993151127062
  0
LINE
  5
151
100
AcDbEntity
  8
OUTLINE
  6
ByLayer
 62
  256
370
   -1
100
AcDbLine
 10
8.176551588754197
 20
50.03993151127062
 11
9.812164109367878
 21
49.96018346948414
  0
LINE
  5
152
100
AcDbEntity
  8
OUTLINE
  6
ByLayer
 62
  256
370
   -1
100
AcDbLine
 10
9.812164109367878
 20
49.96018346948414
 11
11.44720602640262
 21
49.85269138589729
  0
LINE
  5
153
100
AcDbEntity
  8
OUTLINE
  6
ByLayer
 62
  256
370
   -1
100
AcDbLine
 10
11.44720602640262
 20
49.85269138589729
 11
13.0813896236299
 21
49.71809843460142
  0
LINE
  5
154
100
AcDbEntity
  8
OUTLINE
  6
ByLayer
 62
  256
370
   -1
100
AcDbLine
 10
13.0813896236299
 20
49.71809843460142
 11
14.71442718482121
 21
49.55704778968792
  0
LINE
  5
155
100
AcDbEntity
  8
OUTLINE
  6
ByLayer
 62
  256
370
   -1
100
AcDbLine
 10
14.71442718482121
 20
49.55704778968792
 11
16.34603027367333
 21
49.37018111716051
  0
LINE
  5
156
100
AcDbEntity
  8
OUTLINE
  6
ByLayer
 62
  256
370
   -1
100
AcDbLine
 10
16.34603027367333
 20
49.37018111716051
 11
17.97559361644402
 21
49.15747651487872
  0
LINE
  5
157
100
AcDbEntity
  8
OUTLINE
  6
ByLayer
 62
  256
370
   -1
100
AcDbLine
 10
17.97559361644402
 20
49.15747651487872
 11
19.60169941151097
 21
48.91721036382454
  0
LINE
  5
158
100
AcDbEntity
  8
OUTLINE
  6
ByLayer
 62
  256
370
   -1
100
AcDbLine
 10
19.60169941151097
 20
48.91721036382454
 11
21.22280143130394
 21
48.64739007623624
  0
LINE
  5
159
100
AcDbEntity
  8
OUTLINE
  6
ByLayer
 62
  256
370
   -1
100
AcDbLine
 10
21.22280143130394
 20
48.64739007623624
 11
22.83735344825276
 21
48.34602306435215
  0
LINE
  5
15A
100
AcDbEntity
  8
OUTLINE
  6
ByLayer
 62
  256
370
   -1
100
AcDbLine
 10
22.83735344825276
 20
48.34602306435215
 11
24.44380923478714
 21
48.01111674041061
  0
LINE
  5
15B
100
AcDbEntity
  8
OUTLINE
  6
ByLayer
 62
  256
370
   -1
100
AcDbLine
 10
24.44380923478714
 20
48.01111674041061
 11
26.04062256333694
 21
47.64067851664988
  0
LINE
  5
15C
100
AcDbEntity
  8
OUTLINE
  6
ByLayer
 62
  256
370
   -1
100
AcDbLine
 10
26.04062256333694
 20
47.64067851664988
 11
27.62624720633188
 21
47.23271580530832
  0
LINE
  5
15D
100
AcDbEntity
  8
OUTLINE
  6
ByLayer
 62
  256
370
   -1
100
AcDbLine
 10
27.62624720633188
 20
47.23271580530832
 11
29.19913693620176
 21
46.78523601862418
  0
LINE
  5
15E
100
AcDbEntity
  8
OUTLINE
  6
ByLayer
 62
  256
370
   -1
100
AcDbLine
 10
29.19913693620176
 20
46.78523601862418
 11
30.75774552537636
 21
46.29624656883586
  0
LINE
  5
15F
100
AcDbEntity
  8
OUTLINE
  6
ByLayer
 62
  256
370
   -1
100
AcDbLine
 10
30.75774552537636
 20
46.29624656883586
 11
32.30052691237372
 21
45.76375520867666
  0
LINE
  5
160
100
AcDbEntity
  8
OUTLINE
  6
ByLayer
 62
  256
370
   -1
100
AcDbLine
 10
32.30052691237372
 20
45.76375520867666
 11
33.8266495313159
 21
45.18723446773554
  0
LINE
  5
161
100
AcDbEntity
  8
OUTLINE
  6
ByLayer
 62
  256
370
   -1
100
AcDbLine
 10
33.8266495313159
 20
45.18723446773554
 11
35.33763199015382
 21
44.57097493215974
  0
LINE
  5
162
100
AcDbEntity
  8
OUTLINE
  6
ByLayer
 62
  256
370
   -1
100
AcDbLine
 10
35.33763199015382
 20
44.57097493215974
 11
36.83547539833452
 21
43.92025635726754
  0
LINE
  5
163
100
AcDbEntity
  8
OUTLINE
  6
ByLayer
 62
  256
370
   -1
100
AcDbLine
 10
36.83547539833452
 20
43.92025635726754
 11
38.32218086530511
 21
43.24035849837722
  0
LINE
  5
164
100
AcDbEntity
  8
OUTLINE
  6
ByLayer
 62
  256
370
   -1
100
AcDbLine
 10
38.32218086530511
 20
43.24035849837722
 11
39.79974950051256
 21
42.53656111080709
  0
LINE
  5
165
100
AcDbEntity
  8
OUTLINE
  6
ByLayer
 62
  256
370
   -1
100
AcDbLine
 10
39.79974950051256
 20
42.53656111080709
 11
41.27018241340402
 21
41.81414394987536
  0
LINE
  5
166
100
AcDbEntity
  8
OUTLINE
  6
ByLayer
 62
  256
370
   -1
100
AcDbLine
 10
41.27018241340402
 20
41.81414394987536
 11
42.73548071342652
 21
41.07838677090038
  0
LINE
  5
167
100
AcDbEntity
  8
OUTLINE
  6
ByLayer
 62
  256
370
   -1
100
AcDbLine
 10
42.73548071342652
 20
41.07838677090038
 11
44.1976455100271
 21
40.33456932920038
  0
LINE
  5
168
100
AcDbEntity
  8
OUTLINE
  6
ByLayer
 62
  256
370
   -1
100
AcDbLine
 10
44.1976455100271
 20
40.33456932920038
 11
45.65867791265288
 21
39.58797138009368
  0
LINE
  5
169
100
AcDbEntity
  8
OUTLINE
  6
ByLayer
 62
  256
370
   -1
100
AcDbLine
 10
45.65867791265288
 20
39.58797138009368
 11
47.12057903075086
 21
38.84387267889854
  0
LINE
  5
16A
100
AcDbEntity
  8
OUTLINE
  6
ByLayer
 62
  256
370
   -1
100
AcDbLine
 10
47.12057903075086
 20
38.84387267889854
 11
48.58534918811396
 21
38.10755083675906
  0
LINE
  5
16B
100
AcDbEntity
  8
OUTLINE
  6
ByLayer
 62
  256
370
   -1
100
AcDbLine
 10
48.58534918811396
 20
38.10755083675906
 11
50.05443566368419
 21
37.38277411824208
  0
LINE
  5
16C
100
AcDbEntity
  8
OUTLINE
  6
ByLayer
 62
  256
370
   -1
100
AcDbLine
 10
50.05443566368419
 20
37.38277411824208
 11
51.52776391470076
 21
36.66915749659484
  0
LINE
  5
16D
100
AcDbEntity
  8
OUTLINE
  6
ByLayer
 62
  256
370
   -1
100
AcDbLine
 10
51.52776391470076
 20
36.66915749659484
 11
53.00499990552915
 21
35.9656077481065
  0
LINE
  5
16E
100
AcDbEntity
  8
OUTLINE
  6
ByLayer
 62
  256
370
   -1
100
AcDbLine
 10
53.00499990552915
 20
35.9656077481065
 11
54.48580960053469
 21
35.27103164906624
  0
LINE
  5
16F
100
AcDbEntity
  8
OUTLINE
  6
ByLayer
 62
  256
370
   -1
100
AcDbLine
 10
54.48580960053469
 20
35.27103164906624
 11
55.96985896408276
 21
34.58433597576325
  0
LINE
  5
170
100
AcDbEntity
  8
OUTLINE
  6
ByLayer
 62
  256
370
   -1
100
AcDbLine
 10
55.96985896408276
 20
34.58433597576325
 11
57.4568139605388
 21
33.90442750448673
  0
LINE
  5
171
100
AcDbEntity
  8
OUTLINE
  6
ByLayer
 62
  256
370
   -1
100
AcDbLine
 10
57.4568139605388
 20
33.90442750448673
 11
58.94634055426816
 21
33.23021301152584
  0
LINE
  5
172
100
AcDbEntity
  8
OUTLINE
  6
ByLayer
 62
  256
370
   -1
100
AcDbLine
 10
58.94634055426816
 20
33.23021301152584
 11
60.43810470963626
 21
32.56059927316979
  0
LINE
  5
173
100
AcDbEntity
  8
OUTLINE
  6
ByLayer
 62
  256
370
   -1
100
AcDbLine
 10
60.43810470963626
 20
32.56059927316979
 11
61.93177239100847
 21
31.89449306570774
  0
LINE
  5
174
100
AcDbEntity
  8
OUTLINE
  6
ByLayer
 62
  256
370
   -1
100
AcDbLine
 10
61.93177239100847
 20
31.89449306570774
 11
63.42700956275016
 21
31.2308011654289
  0
LINE
  5
175
100
AcDbEntity
  8
OUTLINE
  6
ByLayer
 62
  256
370
   -1
100
AcDbLine
 10
63.42700956275016
 20
31.2308011654289
 11
64.92348936190704
 21
30.56845377014324
  0
LINE
  5
176
100
AcDbEntity
  8
OUTLINE
  6
ByLayer
 62
  256
370
   -1
100
AcDbLine
 10
64.92348936190704
 20
30.56845377014324
 11
66.42126854231513
 21
29.9076337319352
  0
LINE
  5
177
100
AcDbEntity
  8
OUTLINE
  6
ByLayer
 62
  256
370
   -1
100
AcDbLine
 10
66.42126854231513
 20
29.9076337319352
 11
67.92097303864053
 21
29.25038249411326
  0
LINE
  5
178
100
AcDbEntity
  8
OUTLINE
  6
ByLayer
 62
  256
370
   -1
100
AcDbLine
 10
67.92097303864053
 20
29.25038249411326
 11
69.42327489174218
 21
28.59889205418724
  0
LINE
  5
179
100
AcDbEntity
  8
OUTLINE
  6
ByLayer
 62
  256
370
   -1
100
AcDbLine
 10
69.42327489174218
 20
28.59889205418724
 11
70.9288461424791
 21
27.95535440966704
  0
LINE
  5
17A
100
AcDbEntity
  8
OUTLINE
  6
ByLayer
 62
  256
370
   -1
100
AcDbLine
 10
70.9288461424791
 20
27.95535440966704
 11
72.43835883171022
 21
27.32196155806248
  0
LINE
  5
17B
100
AcDbEntity
  8
OUTLINE
  6
ByLayer
 62
  256
370
   -1
100
AcDbLine
 10
72.43835883171022
 20
27.32196155806248
 11
73.9524850002945
 21
26.70090549688342
  0
LINE
  5
17C
100
AcDbEntity
  8
OUTLINE
  6
ByLayer
 62
  256
370
   -1
100
AcDbLine
 10
73.9524850002945
 20
26.70090549688342
 11
75.47189668909093
 21
26.0943782236397
  0
LINE
  5
17D
100
AcDbEntity
  8
OUTLINE
  6
ByLayer
 62
  256
370
   -1
100
AcDbLine
 10
75.47189668909093
 20
26.0943782236397
 11
76.99726593895841
 21
25.50457173584118
  0
LINE
  5
17E
100
AcDbEntity
  8
OUTLINE
  6
ByLayer
 62
  256
370
   -1
100
AcDbLine
 10
76.99726593895841
 20
25.50457173584118
 11
78.52926479075595
 21
24.9336780309977
  0
LINE
  5
17F
100
AcDbEntity
  8
OUTLINE
  6
ByLayer
 62
  256
370
   -1
100
AcDbLine
 10
78.52926479075595
 20
24.9336780309977
 11
80.06856528534246
 21
24.3838891066191
  0
LINE
  5
180
100
AcDbEntity
  8
OUTLINE
  6
ByLayer
 62
  256
370
   -1
100
AcDbLine
 10
80.06856528534246
 20
24.3838891066191
 11
81.61576895990315
 21
23.85718665165238
  0
LINE
  5
181
100
AcDbEntity
  8
OUTLINE
  6
ByLayer
 62
  256
370
   -1
100
AcDbLine
 10
81.61576895990315
 20
23.85718665165238
 11
83.17062497339353
 21
23.35300975788842
  0
LINE
  5
182
100
AcDbEntity
  8
OUTLINE
  6
ByLayer
 62
  256
370
   -1
100
AcDbLine
 10
83.17062497339353
 20
23.35300975788842
 11
84.73231659050752
 21
22.86910948580756
  0
LINE
  5
183
100
AcDbEntity
  8
OUTLINE
  6
ByLayer
 62
  256
370
   -1
100
AcDbLine
 10
84.73231659050752
 20
22.86910948580756
 11
86.3000169000677
 21
22.40320654182786
  0
LINE
  5
184
100
AcDbEntity
  8
OUTLINE
  6
ByLayer
 62
  256
370
   -1
100
AcDbLine
 10
86.3000169000677
 20
22.40320654182786
 11
87.87289899089656
 21
21.95302163236738
  0
LINE
  5
185
100
AcDbEntity
  8
OUTLINE
  6
ByLayer
 62
  256
370
   -1
100
AcDbLine
 10
87.87289899089656
 20
21.95302163236738
 11
89.45013595181662
 21
21.51627546384424
  0
LINE
  5
186
100
AcDbEntity
  8
OUTLINE
  6
ByLayer
 62
  256
370
   -1
100
AcDbLine
 10
89.45013595181662
 20
21.51627546384424
 11
91.03090087165035
 21
21.09068874267646
  0
LINE
  5
187
100
AcDbEntity
  8
OUTLINE
  6
ByLayer
 62
  256
370
   -1
100
AcDbLine
 10
91.03090087165035
 20
21.09068874267646
 11
92.61436683922032
 21
20.67398217528216
  0
LINE
  5
188
100
AcDbEntity
  8
OUTLINE
  6
ByLayer
 62
  256
370
   -1
100
AcDbLine
 10
92.61436683922032
 20
20.67398217528216
 11
94.19970694334899
 21
20.2638764680794
  0
LINE
  5
189
100
AcDbEntity
  8
OUTLINE
  6
ByLayer
 62
  256
370
   -1
100
AcDbLine
 10
94.19970694334899
 20
20.2638764680794
 11
95.78609427285889
 21
19.85809232748625
  0
LINE
  5
18A
100
AcDbEntity
  8
OUTLINE
  6
ByLayer
 62
  256
370
   -1
100
AcDbLine
 10
95.78609427285889
 20
19.85809232748625
 11
97.37270927804656
 21
19.45437011090943
  0
LINE
  5
18B
100
AcDbEntity
  8
OUTLINE
  6
ByLayer
 62
  256
370
   -1
100
AcDbLine
 10
97.37270927804656
 20
19.45437011090943
 11
98.95909749235148
 21
19.05142474207966
  0
LINE
  5
18C
100
AcDbEntity
  8
OUTLINE
  6
ByLayer
 62
  256
370
   -1
100
AcDbLine
 10
98.95909749235148
 20
19.05142474207966
 11
100.5453301923315
 21
18.64937458267983
  0
LINE
  5
18D
100
AcDbEntity
  8
OUTLINE
  6
ByLayer
 62
  256
370
   -1
100
AcDbLine
 10
100.5453301923315
 20
18.64937458267983
 11
102.1315194936828
 21
18.2484470118851
  0
LINE
  5
18E
100
AcDbEntity
  8
OUTLINE
  6
ByLayer
 62
  256
370
   -1
100
AcDbLine
 10
102.1315194936828
 20
18.2484470118851
 11
103.7177775121013
 21
17.84886940887059
  0
LINE
  5
18F
100
AcDbEntity
  8
OUTLINE
  6
ByLayer
 62
  256
370
   -1
100
AcDbLine
 10
103.7177775121013
 20
17.84886940887059
 11
105.3042163632832
 21
17.45086915281147
  0
LINE
  5
190
100
AcDbEntity
  8
OUTLINE
  6
ByLayer
 62
  256
370
   -1
100
AcDbLine
 10
105.3042163632832
 20
17.45086915281147
 11
106.8909481629245
 21
17.05467362288286
  0
LINE
  5
191
100
AcDbEntity
  8
OUTLINE
  6
ByLayer
 62
  256
370
   -1
100
AcDbLine
 10
106.8909481629245
 20
17.05467362288286
 11
108.4780850267213
 21
16.6605101982599
  0
LINE
  5
192
100
AcDbEntity
  8
OUTLINE
  6
ByLayer
 62
  256
370
   -1
100
AcDbLine
 10
108.4780850267213
 20
16.6605101982599
 11
110.0657390703696
 21
16.26860625811774
  0
LINE
  5
193
100
AcDbEntity
  8
OUTLINE
  6
ByLayer
 62
  256
370
   -1
100
AcDbLine
 10
110.0657390703696
 20
16.26860625811774
 11
111.6540224095656
 21
15.87918918163152
  0
LINE
  5
194
100
AcDbEntity
  8
OUTLINE
  6
ByLayer
 62
  256
370
   -1
100
AcDbLine
 10
111.6540224095656
 20
15.87918918163152
 11
113.2430463675766
 21
15.49248416087999
  0
LINE
  5
195
100
AcDbEntity
  8
OUTLINE
  6
ByLayer
 62
  256
370
   -1
100
AcDbLine
 10
113.2430463675766
 20
15.49248416087999
 11
114.8328489457843
 21
15.10851402013095
  0
LINE
  5
196
100
AcDbEntity
  8
OUTLINE
  6
ByLayer
 62
  256
370
   -1
100
AcDbLine
 10
114.8328489457843
 20
15.10851402013095
 11
116.4233365051562
 21
14.72693825717662
  0
LINE
  5
197
100
AcDbEntity
  8
OUTLINE
  6
ByLayer
 62
  256
370
   -1
100
AcDbLine
 10
116.4233365051562
 20
14.72693825717662
 11
118.0144016830324
 21
14.34737849270836
  0
LINE
  5
198
100
AcDbEntity
  8
OUTLINE
  6
ByLayer
 62
  256
370
   -1
100
AcDbLine
 10
118.0144016830324
 20
14.34737849270836
 11
119.6059371167528
 21
13.9694563474175
  0
LINE
  5
199
100
AcDbEntity
  8
OUTLINE
  6
ByLayer
 62
  256
370
   -1
100
AcDbLine
 10
119.6059371167528
 20
13.9694563474175
 11
121.1978354436574
 21
13.59279344199538
  0
LINE
  5
19A
100
AcDbEntity
  8
OUTLINE
  6
ByLayer
 62
  256
370
   -1
100
AcDbLine
 10
121.1978354436574
 20
13.59279344199538
 11
122.7899893010863
 21
13.21701139713334
  0
LINE
  5
19B
100
AcDbEntity
  8
OUTLINE
  6
ByLayer
 62
  256
370
   -1
100
AcDbLine
 10
122.7899893010863
 20
13.21701139713334
 11
124.3822913263794
 21
12.84173183352273
  0
LINE
  5
19C
100
AcDbEntity
  8
OUTLINE
  6
ByLayer
 62
  256
370
   -1
100
AcDbLine
 10
124.3822913263794
 20
12.84173183352273
 11
125.9746341568767
 21
12.46657637185488
  0
LINE
  5
19D
100
AcDbEntity
  8
OUTLINE
  6
ByLayer
 62
  256
370
   -1
100
AcDbLine
 10
125.9746341568767
 20
12.46657637185488
 11
127.5669104299183
 21
12.09116663282115
  0
LINE
  5
19E
100
AcDbEntity
  8
OUTLINE
  6
ByLayer
 62
  256
370
   -1
100
AcDbLine
 10
127.5669104299183
 20
12.09116663282115
 11
129.1590130760948
 21
11.71512529310155
  0
LINE
  5
19F
100
AcDbEntity
  8
OUTLINE
  6
ByLayer
 62
  256
370
   -1
100
AcDbLine
 10
129.1590130760948
 20
11.71512529310155
 11
130.7508809178541
 21
11.33824028478615
  0
LINE
  5
1A0
100
AcDbEntity
  8
OUTLINE
  6
ByLayer
 62
  256
370
   -1
100
AcDbLine
 10
130.7508809178541
 20
11.33824028478615
 11
132.3425481389036
 21
10.96064293343796
  0
LINE
  5
1A1
100
AcDbEntity
  8
OUTLINE
  6
ByLayer
 62
  256
370
   -1
100
AcDbLine
 10
132.3425481389036
 20
10.96064293343796
 11
133.9340608023971
 21
10.58250734220413
  0
LINE
  5
1A2
100
AcDbEntity
  8
OUTLINE
  6
ByLayer
 62
  256
370
   -1
100
AcDbLine
 10
133.9340608023971
 20
10.58250734220413
 11
135.5254649714883
 21
10.20400761423182
  0
LINE
  5
1A3
100
AcDbEntity
  8
OUTLINE
  6
ByLayer
 62
  256
370
   -1
100
AcDbLine
 10
135.5254649714883
 20
10.20400761423182
 11
137.1168067093312
 21
9.82531785266818
  0
LINE
  5
1A4
100
AcDbEntity
  8
OUTLINE
  6
ByLayer
 62
  256
370
   -1
100
AcDbLine
 10
137.1168067093312
 20
9.82531785266818
 11
138.7081320790795
 21
9.446612160660367
  0
LINE
  5
1A5
100
AcDbEntity
  8
OUTLINE
  6
ByLayer
 62
  256
370
   -1
100
AcDbLine
 10
138.7081320790795
 20
9.446612160660367
 11
140.299487143887
 21
9.06806464135553
  0
LINE
  5
1A6
100
AcDbEntity
  8
OUTLINE
  6
ByLayer
 62
  256
370
   -1
100
AcDbLine
 10
140.299487143887
 20
9.06806464135553
 11
141.8909179669075
 21
8.689849397900828
  0
LINE
  5
1A7
100
AcDbEntity
  8
OUTLINE
  6
ByLayer
 62
  256
370
   -1
100
AcDbLine
 10
141.8909179669075
 20
8.689849397900828
 11
143.4824706112949
 21
8.312140533443415
  0
LINE
  5
1A8
100
AcDbEntity
  8
OUTLINE
  6
ByLayer
 62
  256
370
   -1
100
AcDbLine
 10
143.4824706112949
 20
8.312140533443415
 11
145.0741910879374
 21
7.935111954199634
  0
LINE
  5
1A9
100
AcDbEntity
  8
OUTLINE
  6
ByLayer
 62
  256
370
   -1
100
AcDbLine
 10
145.0741910879374
 20
7.935111954199634
 11
146.6661091433474
 21
7.558876283889629
  0
LINE
  5
1AA
100
AcDbEntity
  8
OUTLINE
  6
ByLayer
 62
  256
370
   -1
100
AcDbLine
 10
146.6661091433474
 20
7.558876283889629
 11
148.2582152823333
 21
7.183398287530753
  0
LINE
  5
1AB
100
AcDbEntity
  8
OUTLINE
  6
ByLayer
 62
  256
370
   -1
100
AcDbLine
 10
148.2582152823333
 20
7.183398287530753
 11
149.8504942098706
 21
6.808620876965502
  0
LINE
  5
1AC
100
AcDbEntity
  8
OUTLINE
  6
ByLayer
 62
  256
370
   -1
100
AcDbLine
 10
149.8504942098706
 20
6.808620876965502
 11
151.4429306309346
 21
6.434486964036373
  0
LINE
  5
1AD
100
AcDbEntity
  8
OUTLINE
  6
ByLayer
 62
  256
370
   -1
100
AcDbLine
 10
151.4429306309346
 20
6.434486964036373
 11
153.0355092505006
 21
6.060939460585864
  0
LINE
  5
1AE
100
AcDbEntity
  8
OUTLINE
  6
ByLayer
 62
  256
370
   -1
100
AcDbLine
 10
153.0355092505006
 20
6.060939460585864
 11
154.6282147735442
 21
5.687921278456472
  0
LINE
  5
1AF
100
AcDbEntity
  8
OUTLINE
  6
ByLayer
 62
  256
370
   -1
100
AcDbLine
 10
154.6282147735442
 20
5.687921278456472
 11
156.2210319050405
 21
5.315375329490696
  0
LINE
  5
1B0
100
AcDbEntity
  8
OUTLINE
  6
ByLayer
 62
  256
370
   -1
100
AcDbLine
 10
156.2210319050405
 20
5.315375329490696
 11
157.813945349965
 21
4.943244525531028
  0
LINE
  5
1B1
100
AcDbEntity
  8
OUTLINE
  6
ByLayer
 62
  256
370
   -1
100
AcDbLine
 10
157.813945349965
 20
4.943244525531028
 11
159.406939813293
 21
4.571471778419966
  0
LINE
  5
1B2
100
AcDbEntity
  8
OUTLINE
  6
ByLayer
 62
  256
370
   -1
100
AcDbLine
 10
159.406939813293
 20
4.571471778419966
 11
161
 21
4.2
  0
LINE
  5
1B3
100
AcDbEntity
  8
OUTLINE
  6
ByLayer
 62
  256
370
   -1
100
AcDbLine
 10
161
 20
4.2
 11
161
 21
0
  0
LINE
  5
1B4
100
AcDbEntity
  8
OUTLINE
  6
ByLayer
 62
  256
370
   -1
100
AcDbLine
 10
0
 20
0
 11
0
 21
-50
  0
LINE
  5
1B5
100
AcDbEntity
  8
OUTLINE
  6
ByLayer
 62
  256
370
   -1
100
AcDbLine
 10
0
 20
-50
 11
1.634149795080539
 21
-50.06861977858572
  0
LINE
  5
1B6
100
AcDbEntity
  8
OUTLINE
  6
ByLayer
 62
  256
370
   -1
100
AcDbLine
 10
1.634149795080539
 20
-50.06861977858572
 11
3.26916756772475
 21
-50.1062796449143
  0
LINE
  5
1B7
100
AcDbEntity
  8
OUTLINE
  6
ByLayer
 62
  256
370
   -1
100
AcDbLine
 10
3.26916756772475
 20
-50.1062796449143
 11
4.904765601704113
 21
-50.11362277307708
  0
LINE
  5
1B8
100
AcDbEntity
  8
OUTLINE
  6
ByLayer
 62
  256
370
   -1
100
AcDbLine
 10
4.904765601704113
 20
-50.11362277307708
 11
6.5406561807901
 21
-50.09129233716541
  0
LINE
  5
1B9
100
AcDbEntity
  8
OUTLINE
  6
ByLayer
 62
  256
370
   -1
100
AcDbLine
 10
6.5406561807901
 20
-50.09129233716541
 11
8.176551588754197
 21
-50.03993151127062
  0
LINE
  5
1BA
100
AcDbEntity
  8
OUTLINE
  6
ByLayer
 62
  256
370
   -1
100
AcDbLine
 10
8.176551588754197
 20
-50.03993151127062
 11
9.812164109367878
 21
-49.96018346948414
  0
LINE
  5
1BB
100
AcDbEntity
  8
OUTLINE
  6
ByLayer
 62
  256
370
   -1
100
AcDbLine
 10
9.812164109367878
 20
-49.96018346948414
 11
11.44720602640262
 21
-49.85269138589729
  0
LINE
  5
1BC
100
AcDbEntity
  8
OUTLINE
  6
ByLayer
 62
  256
370
   -1
100
AcDbLine
 10
11.44720602640262
 20
-49.85269138589729
 11
13.0813896236299
 21
-49.71809843460142
  0
LINE
  5
1BD
100
AcDbEntity
  8
OUTLINE
  6
ByLayer
 62
  256
370
   -1
100
AcDbLine
 10
13.0813896236299
 20
-49.71809843460142
 11
14.71442718482121
 21
-49.55704778968792
  0
LINE
  5
1BE
100
AcDbEntity
  8
OUTLINE
  6
ByLayer
 62
  256
370
   -1
100
AcDbLine
 10
14.71442718482121
 20
-49.55704778968792
 11
16.34603027367333
 21
-49.37018111716051
  0
LINE
  5
1BF
100
AcDbEntity
  8
OUTLINE
  6
ByLayer
 62
  256
370
   -1
100
AcDbLine
 10
16.34603027367333
 20
-49.37018111716051
 11
17.97559361644402
 21
-49.15747651487872
  0
LINE
  5
1C0
100
AcDbEntity
  8
OUTLINE
  6
ByLayer
 62
  256
370
   -1
100
AcDbLine
 10
17.97559361644402
 20
-49.15747651487872
 11
19.60169941151097
 21
-48.91721036382454
  0
LINE
  5
1C1
100
AcDbEntity
  8
OUTLINE
  6
ByLayer
 62
  256
370
   -1
100
AcDbLine
 10
19.60169941151097
 20
-48.91721036382454
 11
21.22280143130394
 21
-48.64739007623624
  0
LINE
  5
1C2
100
AcDbEntity
  8
OUTLINE
  6
ByLayer
 62
  256
370
   -1
100
AcDbLine
 10
21.22280143130394
 20
-48.64739007623624
 11
22.83735344825276
 21
-48.34602306435215
  0
LINE
  5
1C3
100
AcDbEntity
  8
OUTLINE
  6
ByLayer
 62
  256
370
   -1
100
AcDbLine
 10
22.83735344825276
 20
-48.34602306435215
 11
24.44380923478714
 21
-48.01111674041061
  0
LINE
  5
1C4
100
AcDbEntity
  8
OUTLINE
  6
ByLayer
 62
  256
370
   -1
100
AcDbLine
 10
24.44380923478714
 20
-48.01111674041061
 11
26.04062256333694
 21
-47.64067851664988
  0
LINE
  5
1C5
100
AcDbEntity
  8
OUTLINE
  6
ByLayer
 62
  256
370
   -1
100
AcDbLine
 10
26.04062256333694
 20
-47.64067851664988
 11
27.62624720633188
 21
-47.23271580530832
  0
LINE
  5
1C6
100
AcDbEntity
  8
OUTLINE
  6
ByLayer
 62
  256
370
   -1
100
AcDbLine
 10
27.62624720633188
 20
-47.23271580530832
 11
29.19913693620176
 21
-46.78523601862418
  0
LINE
  5
1C7
100
AcDbEntity
  8
OUTLINE
  6
ByLayer
 62
  256
370
   -1
100
AcDbLine
 10
29.19913693620176
 20
-46.78523601862418
 11
30.75774552537636
 21
-46.29624656883586
  0
LINE
  5
1C8
100
AcDbEntity
  8
OUTLINE
  6
ByLayer
 62
  256
370
   -1
100
AcDbLine
 10
30.75774552537636
 20
-46.29624656883586
 11
32.30052691237372
 21
-45.76375520867666
  0
LINE
  5
1C9
100
AcDbEntity
  8
OUTLINE
  6
ByLayer
 62
  256
370
   -1
100
AcDbLine
 10
32.30052691237372
 20
-45.76375520867666
 11
33.8266495313159
 21
-45.18723446773554
  0
LINE
  5
1CA
100
AcDbEntity
  8
OUTLINE
  6
ByLayer
 62
  256
370
   -1
100
AcDbLine
 10
33.8266495313159
 20
-45.18723446773554
 11
35.33763199015382
 21
-44.57097493215974
  0
LINE
  5
1CB
100
AcDbEntity
  8
OUTLINE
  6
ByLayer
 62
  256
370
   -1
100
AcDbLine
 10
35.33763199015382
 20
-44.57097493215974
 11
36.83547539833452
 21
-43.92025635726754
  0
LINE
  5
1CC
100
AcDbEntity
  8
OUTLINE
  6
ByLayer
 62
  256
370
   -1
100
AcDbLine
 10
36.83547539833452
 20
-43.92025635726754
 11
38.32218086530511
 21
-43.24035849837722
  0
LINE
  5
1CD
100
AcDbEntity
  8
OUTLINE
  6
ByLayer
 62
  256
370
   -1
100
AcDbLine
 10
38.32218086530511
 20
-43.24035849837722
 11
39.79974950051256
 21
-42.53656111080709
  0
LINE
  5
1CE
100
AcDbEntity
  8
OUTLINE
  6
ByLayer
 62
  256
370
   -1
100
AcDbLine
 10
39.79974950051256
 20
-42.53656111080709
 11
41.27018241340402
 21
-41.81414394987536
  0
LINE
  5
1CF
100
AcDbEntity
  8
OUTLINE
  6
ByLayer
 62
  256
370
   -1
100
AcDbLine
 10
41.27018241340402
 20
-41.81414394987536
 11
42.73548071342652
 21
-41.07838677090038
  0
LINE
  5
1D0
100
AcDbEntity
  8
OUTLINE
  6
ByLayer
 62
  256
370
   -1
100
AcDbLine
 10
42.73548071342652
 20
-41.07838677090038
 11
44.1976455100271
 21
-40.33456932920038
  0
LINE
  5
1D1
100
AcDbEntity
  8
OUTLINE
  6
ByLayer
 62
  256
370
   -1
100
AcDbLine
 10
44.1976455100271
 20
-40.33456932920038
 11
45.65867791265288
 21
-39.58797138009368
  0
LINE
  5
1D2
100
AcDbEntity
  8
OUTLINE
  6
ByLayer
 62
  256
370
   -1
100
AcDbLine
 10
45.65867791265288
 20
-39.58797138009368
 11
47.12057903075086
 21
-38.84387267889854
  0
LINE
  5
1D3
100
AcDbEntity
  8
OUTLINE
  6
ByLayer
 62
  256
370
   -1
100
AcDbLine
 10
47.12057903075086
 20
-38.84387267889854
 11
48.58534918811396
 21
-38.10755083675906
  0
LINE
  5
1D4
100
AcDbEntity
  8
OUTLINE
  6
ByLayer
 62
  256
370
   -1
100
AcDbLine
 10
48.58534918811396
 20
-38.10755083675906
 11
50.05443566368419
 21
-37.38277411824208
  0
LINE
  5
1D5
100
AcDbEntity
  8
OUTLINE
  6
ByLayer
 62
  256
370
   -1
100
AcDbLine
 10
50.05443566368419
 20
-37.38277411824208
 11
51.52776391470076
 21
-36.66915749659484
  0
LINE
  5
1D6
100
AcDbEntity
  8
OUTLINE
  6
ByLayer
 62
  256
370
   -1
100
AcDbLine
 10
51.52776391470076
 20
-36.66915749659484
 11
53.00499990552915
 21
-35.9656077481065
  0
LINE
  5
1D7
100
AcDbEntity
  8
OUTLINE
  6
ByLayer
 62
  256
370
   -1
100
AcDbLine
 10
53.00499990552915
 20
-35.9656077481065
 11
54.48580960053469
 21
-35.27103164906624
  0
LINE
  5
1D8
100
AcDbEntity
  8
OUTLINE
  6
ByLayer
 62
  256
370
   -1
100
AcDbLine
 10
54.48580960053469
 20
-35.27103164906624
 11
55.96985896408276
 21
-34.58433597576325
  0
LINE
  5
1D9
100
AcDbEntity
  8
OUTLINE
  6
ByLayer
 62
  256
370
   -1
100
AcDbLine
 10
55.96985896408276
 20
-34.58433597576325
 11
57.4568139605388
 21
-33.90442750448673
  0
LINE
  5
1DA
100
AcDbEntity
  8
OUTLINE
  6
ByLayer
 62
  256
370
   -1
100
AcDbLine
 10
57.4568139605388
 20
-33.90442750448673
 11
58.94634055426816
 21
-33.23021301152584
  0
LINE
  5
1DB
100
AcDbEntity
  8
OUTLINE
  6
ByLayer
 62
  256
370
   -1
100
AcDbLine
 10
58.94634055426816
 20
-33.23021301152584
 11
60.43810470963626
 21
-32.56059927316979
  0
LINE
  5
1DC
100
AcDbEntity
  8
OUTLINE
  6
ByLayer
 62
  256
370
   -1
100
AcDbLine
 10
60.43810470963626
 20
-32.56059927316979
 11
61.93177239100847
 21
-31.89449306570774
  0
LINE
  5
1DD
100
AcDbEntity
  8
OUTLINE
  6
ByLayer
 62
  256
370
   -1
100
AcDbLine
 10
61.93177239100847
 20
-31.89449306570774
 11
63.42700956275016
 21
-31.2308011654289
  0
LINE
  5
1DE
100
AcDbEntity
  8
OUTLINE
  6
ByLayer
 62
  256
370
   -1
100
AcDbLine
 10
63.42700956275016
 20
-31.2308011654289
 11
64.92348936190704
 21
-30.56845377014324
  0
LINE
  5
1DF
100
AcDbEntity
  8
OUTLINE
  6
ByLayer
 62
  256
370
   -1
100
AcDbLine
 10
64.92348936190704
 20
-30.56845377014324
 11
66.42126854231513
 21
-29.9076337319352
  0
LINE
  5
1E0
100
AcDbEntity
  8
OUTLINE
  6
ByLayer
 62
  256
370
   -1
100
AcDbLine
 10
66.42126854231513
 20
-29.9076337319352
 11
67.92097303864053
 21
-29.25038249411326
  0
LINE
  5
1E1
100
AcDbEntity
  8
OUTLINE
  6
ByLayer
 62
  256
370
   -1
100
AcDbLine
 10
67.92097303864053
 20
-29.25038249411326
 11
69.42327489174218
 21
-28.59889205418724
  0
LINE
  5
1E2
100
AcDbEntity
  8
OUTLINE
  6
ByLayer
 62
  256
370
   -1
100
AcDbLine
 10
69.42327489174218
 20
-28.59889205418724
 11
70.9288461424791
 21
-27.95535440966704
  0
LINE
  5
1E3
100
AcDbEntity
  8
OUTLINE
  6
ByLayer
 62
  256
370
   -1
100
AcDbLine
 10
70.9288461424791
 20
-27.95535440966704
 11
72.43835883171022
 21
-27.32196155806248
  0
LINE
  5
1E4
100
AcDbEntity
  8
OUTLINE
  6
ByLayer
 62
  256
370
   -1
100
AcDbLine
 10
72.43835883171022
 20
-27.32196155806248
 11
73.9524850002945
 21
-26.70090549688342
  0
LINE
  5
1E5
100
AcDbEntity
  8
OUTLINE
  6
ByLayer
 62
  256
370
   -1
100
AcDbLine
 10
73.9524850002945
 20
-26.70090549688342
 11
75.47189668909093
 21
-26.0943782236397
  0
LINE
  5
1E6
100
AcDbEntity
  8
OUTLINE
  6
ByLayer
 62
  256
370
   -1
100
AcDbLine
 10
75.47189668909093
 20
-26.0943782236397
 11
76.99726593895841
 21
-25.50457173584118
  0
LINE
  5
1E7
100
AcDbEntity
  8
OUTLINE
  6
ByLayer
 62
  256
370
   -1
100
AcDbLine
 10
76.99726593895841
 20
-25.50457173584118
 11
78.52926479075595
 21
-24.9336780309977
  0
LINE
  5
1E8
100
AcDbEntity
  8
OUTLINE
  6
ByLayer
 62
  256
370
   -1
100
AcDbLine
 10
78.52926479075595
 20
-24.9336780309977
 11
80.06856528534246
 21
-24.3838891066191
  0
LINE
  5
1E9
100
AcDbEntity
  8
OUTLINE
  6
ByLayer
 62
  256
370
   -1
100
AcDbLine
 10
80.06856528534246
 20
-24.3838891066191
 11
81.61576895990315
 21
-23.85718665165238
  0
LINE
  5
1EA
100
AcDbEntity
  8
OUTLINE
  6
ByLayer
 62
  256
370
   -1
100
AcDbLine
 10
81.61576895990315
 20
-23.85718665165238
 11
83.17062497339353
 21
-23.35300975788842
  0
LINE
  5
1EB
100
AcDbEntity
  8
OUTLINE
  6
ByLayer
 62
  256
370
   -1
100
AcDbLine
 10
83.17062497339353
 20
-23.35300975788842
 11
84.73231659050752
 21
-22.86910948580756
  0
LINE
  5
1EC
100
AcDbEntity
  8
OUTLINE
  6
ByLayer
 62
  256
370
   -1
100
AcDbLine
 10
84.73231659050752
 20
-22.86910948580756
 11
86.3000169000677
 21
-22.40320654182786
  0
LINE
  5
1ED
100
AcDbEntity
  8
OUTLINE
  6
ByLayer
 62
  256
370
   -1
100
AcDbLine
 10
86.3000169000677
 20
-22.40320654182786
 11
87.87289899089656
 21
-21.95302163236738
  0
LINE
  5
1EE
100
AcDbEntity
  8
OUTLINE
  6
ByLayer
 62
  256
370
   -1
100
AcDbLine
 10
87.87289899089656
 20
-21.95302163236738
 11
89.45013595181662
 21
-21.51627546384424
  0
LINE
  5
1EF
100
AcDbEntity
  8
OUTLINE
  6
ByLayer
 62
  256
370
   -1
100
AcDbLine
 10
89.45013595181662
 20
-21.51627546384424
 11
91.03090087165035
 21
-21.09068874267646
  0
LINE
  5
1F0
100
AcDbEntity
  8
OUTLINE
  6
ByLayer
 62
  256
370
   -1
100
AcDbLine
 10
91.03090087165035
 20
-21.09068874267646
 11
92.61436683922032
 21
-20.67398217528216
  0
LINE
  5
1F1
100
AcDbEntity
  8
OUTLINE
  6
ByLayer
 62
  256
370
   -1
100
AcDbLine
 10
92.61436683922032
 20
-20.67398217528216
 11
94.19970694334899
 21
-20.2638764680794
  0
LINE
  5
1F2
100
AcDbEntity
  8
OUTLINE
  6
ByLayer
 62
  256
370
   -1
100
AcDbLine
 10
94.19970694334899
 20
-20.2638764680794
 11
95.78609427285889
 21
-19.85809232748625
  0
LINE
  5
1F3
100
AcDbEntity
  8
OUTLINE
  6
ByLayer
 62
  256
370
   -1
100
AcDbLine
 10
95.78609427285889
 20
-19.85809232748625
 11
97.37270927804656
 21
-19.45437011090943
  0
LINE
  5
1F4
100
AcDbEntity
  8
OUTLINE
  6
ByLayer
 62
  256
370
   -1
100
AcDbLine
 10
97.37270927804656
 20
-19.45437011090943
 11
98.95909749235148
 21
-19.05142474207966
  0
LINE
  5
1F5
100
AcDbEntity
  8
OUTLINE
  6
ByLayer
 62
  256
370
   -1
100
AcDbLine
 10
98.95909749235148
 20
-19.05142474207966
 11
100.5453301923315
 21
-18.64937458267983
  0
LINE
  5
1F6
100
AcDbEntity
  8
OUTLINE
  6
ByLayer
 62
  256
370
   -1
100
AcDbLine
 10
100.5453301923315
 20
-18.64937458267983
 11
102.1315194936828
 21
-18.2484470118851
  0
LINE
  5
1F7
100
AcDbEntity
  8
OUTLINE
  6
ByLayer
 62
  256
370
   -1
100
AcDbLine
 10
102.1315194936828
 20
-18.2484470118851
 11
103.7177775121013
 21
-17.84886940887059
  0
LINE
  5
1F8
100
AcDbEntity
  8
OUTLINE
  6
ByLayer
 62
  256
370
   -1
100
AcDbLine
 10
103.7177775121013
 20
-17.84886940887059
 11
105.3042163632832
 21
-17.45086915281147
  0
LINE
  5
1F9
100
AcDbEntity
  8
OUTLINE
  6
ByLayer
 62
  256
370
   -1
100
AcDbLine
 10
105.3042163632832
 20
-17.45086915281147
 11
106.8909481629245
 21
-17.05467362288286
  0
LINE
  5
1FA
100
AcDbEntity
  8
OUTLINE
  6
ByLayer
 62
  256
370
   -1
100
AcDbLine
 10
106.8909481629245
 20
-17.05467362288286
 11
108.4780850267213
 21
-16.6605101982599
  0
LINE
  5
1FB
100
AcDbEntity
  8
OUTLINE
  6
ByLayer
 62
  256
370
   -1
100
AcDbLine
 10
108.4780850267213
 20
-16.6605101982599
 11
110.0657390703696
 21
-16.26860625811774
  0
LINE
  5
1FC
100
AcDbEntity
  8
OUTLINE
  6
ByLayer
 62
  256
370
   -1
100
AcDbLine
 10
110.0657390703696
 20
-16.26860625811774
 11
111.6540224095656
 21
-15.87918918163152
  0
LINE
  5
1FD
100
AcDbEntity
  8
OUTLINE
  6
ByLayer
 62
  256
370
   -1
100
AcDbLine
 10
111.6540224095656
 20
-15.87918918163152
 11
113.2430463675766
 21
-15.49248416087999
  0
LINE
  5
1FE
100
AcDbEntity
  8
OUTLINE
  6
ByLayer
 62
  256
370
   -1
100
AcDbLine
 10
113.2430463675766
 20
-15.49248416087999
 11
114.8328489457843
 21
-15.10851402013095
  0
LINE
  5
1FF
100
AcDbEntity
  8
OUTLINE
  6
ByLayer
 62
  256
370
   -1
100
AcDbLine
 10
114.8328489457843
 20
-15.10851402013095
 11
116.4233365051562
 21
-14.72693825717662
  0
LINE
  5
200
100
AcDbEntity
  8
OUTLINE
  6
ByLayer
 62
  256
370
   -1
100
AcDbLine
 10
116.4233365051562
 20
-14.72693825717662
 11
118.0144016830324
 21
-14.34737849270836
  0
LINE
  5
201
100
AcDbEntity
  8
OUTLINE
  6
ByLayer
 62
  256
370
   -1
100
AcDbLine
 10
118.0144016830324
 20
-14.34737849270836
 11
119.6059371167528
 21
-13.9694563474175
  0
LINE
  5
202
100
AcDbEntity
  8
OUTLINE
  6
ByLayer
 62
  256
370
   -1
100
AcDbLine
 10
119.6059371167528
 20
-13.9694563474175
 11
121.1978354436574
 21
-13.59279344199538
  0
LINE
  5
203
100
AcDbEntity
  8
OUTLINE
  6
ByLayer
 62
  256
370
   -1
100
AcDbLine
 10
121.1978354436574
 20
-13.59279344199538
 11
122.7899893010863
 21
-13.21701139713334
  0
LINE
  5
204
100
AcDbEntity
  8
OUTLINE
  6
ByLayer
 62
  256
370
   -1
100
AcDbLine
 10
122.7899893010863
 20
-13.21701139713334
 11
124.3822913263794
 21
-12.84173183352273
  0
LINE
  5
205
100
AcDbEntity
  8
OUTLINE
  6
ByLayer
 62
  256
370
   -1
100
AcDbLine
 10
124.3822913263794
 20
-12.84173183352273
 11
125.9746341568767
 21
-12.46657637185488
  0
LINE
  5
206
100
AcDbEntity
  8
OUTLINE
  6
ByLayer
 62
  256
370
   -1
100
AcDbLine
 10
125.9746341568767
 20
-12.46657637185488
 11
127.5669104299183
 21
-12.09116663282115
  0
LINE
  5
207
100
AcDbEntity
  8
OUTLINE
  6
ByLayer
 62
  256
370
   -1
100
AcDbLine
 10
127.5669104299183
 20
-12.09116663282115
 11
129.1590130760948
 21
-11.71512529310155
  0
LINE
  5
208
100
AcDbEntity
  8
OUTLINE
  6
ByLayer
 62
  256
370
   -1
100
AcDbLine
 10
129.1590130760948
 20
-11.71512529310155
 11
130.7508809178541
 21
-11.33824028478615
  0
LINE
  5
209
100
AcDbEntity
  8
OUTLINE
  6
ByLayer
 62
  256
370
   -1
100
AcDbLine
 10
130.7508809178541
 20
-11.33824028478615
 11
132.3425481389036
 21
-10.96064293343796
  0
LINE
  5
20A
100
AcDbEntity
  8
OUTLINE
  6
ByLayer
 62
  256
370
   -1
100
AcDbLine
 10
132.3425481389036
 20
-10.96064293343796
 11
133.9340608023971
 21
-10.58250734220413
  0
LINE
  5
20B
100
AcDbEntity
  8
OUTLINE
  6
ByLayer
 62
  256
370
   -1
100
AcDbLine
 10
133.9340608023971
 20
-10.58250734220413
 11
135.5254649714883
 21
-10.20400761423182
  0
LINE
  5
20C
100
AcDbEntity
  8
OUTLINE
  6
ByLayer
 62
  256
370
   -1
100
AcDbLine
 10
135.5254649714883
 20
-10.20400761423182
 11
137.1168067093312
 21
-9.82531785266818
  0
LINE
  5
20D
100
AcDbEntity
  8
OUTLINE
  6
ByLayer
 62
  256
370
   -1
100
AcDbLine
 10
137.1168067093312
 20
-9.82531785266818
 11
138.7081320790795
 21
-9.446612160660367
  0
LINE
  5
20E
100
AcDbEntity
  8
OUTLINE
  6
ByLayer
 62
  256
370
   -1
100
AcDbLine
 10
138.7081320790795
 20
-9.446612160660367
 11
140.299487143887
 21
-9.06806464135553
  0
LINE
  5
20F
100
AcDbEntity
  8
OUTLINE
  6
ByLayer
 62
  256
370
   -1
100
AcDbLine
 10
140.299487143887
 20
-9.06806464135553
 11
141.8909179669075
 21
-8.689849397900828
  0
LINE
  5
210
100
AcDbEntity
  8
OUTLINE
  6
ByLayer
 62
  256
370
   -1
100
AcDbLine
 10
141.8909179669075
 20
-8.689849397900828
 11
143.4824706112949
 21
-8.312140533443415
  0
LINE
  5
211
100
AcDbEntity
  8
OUTLINE
  6
ByLayer
 62
  256
370
   -1
100
AcDbLine
 10
143.4824706112949
 20
-8.312140533443415
 11
145.0741910879374
 21
-7.935111954199634
  0
LINE
  5
212
100
AcDbEntity
  8
OUTLINE
  6
ByLayer
 62
  256
370
   -1
100
AcDbLine
 10
145.0741910879374
 20
-7.935111954199634
 11
146.6661091433474
 21
-7.558876283889629
  0
LINE
  5
213
100
AcDbEntity
  8
OUTLINE
  6
ByLayer
 62
  256
370
   -1
100
AcDbLine
 10
146.6661091433474
 20
-7.558876283889629
 11
148.2582152823333
 21
-7.183398287530753
  0
LINE
  5
214
100
AcDbEntity
  8
OUTLINE
  6
ByLayer
 62
  256
370
   -1
100
AcDbLine
 10
148.2582152823333
 20
-7.183398287530753
 11
149.8504942098706
 21
-6.808620876965502
  0
LINE
  5
215
100
AcDbEntity
  8
OUTLINE
  6
ByLayer
 62
  256
370
   -1
100
AcDbLine
 10
149.8504942098706
 20
-6.808620876965502
 11
151.4429306309346
 21
-6.434486964036373
  0
LINE
  5
216
100
AcDbEntity
  8
OUTLINE
  6
ByLayer
 62
  256
370
   -1
100
AcDbLine
 10
151.4429306309346
 20
-6.434486964036373
 11
153.0355092505006
 21
-6.060939460585864
  0
LINE
  5
217
100
AcDbEntity
  8
OUTLINE
  6
ByLayer
 62
  256
370
   -1
100
AcDbLine
 10
153.0355092505006
 20
-6.060939460585864
 11
154.6282147735442
 21
-5.687921278456472
  0
LINE
  5
218
100
AcDbEntity
  8
OUTLINE
  6
ByLayer
 62
  256
370
   -1
100
AcDbLine
 10
154.6282147735442
 20
-5.687921278456472
 11
156.2210319050405
 21
-5.315375329490696
  0
LINE
  5
219
100
AcDbEntity
  8
OUTLINE
  6
ByLayer
 62
  256
370
   -1
100
AcDbLine
 10
156.2210319050405
 20
-5.315375329490696
 11
157.813945349965
 21
-4.943244525531028
  0
LINE
  5
21A
100
AcDbEntity
  8
OUTLINE
  6
ByLayer
 62
  256
370
   -1
100
AcDbLine
 10
157.813945349965
 20
-4.943244525531028
 11
159.406939813293
 21
-4.571471778419966
  0
LINE
  5
21B
100
AcDbEntity
  8
OUTLINE
  6
ByLayer
 62
  256
370
   -1
100
AcDbLine
 10
159.406939813293
 20
-4.571471778419966
 11
161
 21
-4.2
  0
LINE
  5
21C
100
AcDbEntity
  8
OUTLINE
  6
ByLayer
 62
  256
370
   -1
100
AcDbLine
 10
161
 20
-4.2
 11
161
 21
0
  0
DIMENSION
  5
21D
100
AcDbEntity
  8
0
  6
ByLayer
 62
  256
370
   -1
100
AcDbDimension
  2
*D4
 10
-70.17145212104032
 20
-49.99999999999999
 30
0
 11
-70.17145212104032
 21
3.552713678800501e-15
 31
0
 70
   32
 71
    5
  3
Standard
 53
0
210
0
220
0
230
1
100
AcDbAlignedDimension
 13
0
 23
50
 33
0
 14
0
 24
-50
 34
0
 50
90
100
AcDbRotatedDimension
  0
ENDSEC
  0
SECTION
  2
OBJECTS
  0
DICTIONARY
  5
C
330
0
100
AcDbDictionary
281
    1
  3
ACAD_GROUP
350
D
  0
DICTIONARY
  5
D
330
C
100
AcDbDictionary
281
    1
  0
ENDSEC
  0
EOF
