999
dxfrw 0.6.3
  0
SECTION
  2
HEADER
  9
$ACADVER
  1
AC1009
  9
$DWGCODEPAGE
  3
ANSI_1252
  9
$INSBASE
 10
0
 20
0
 30
0
  9
$EXTMIN
 10
-158.290125563228
 20
-250
 30
0
  9
$EXTMAX
 10
906.816381641117
 20
355.1664880304495
 30
0
  9
$LIMMIN
 10
0
 20
0
  9
$LIMMAX
 10
12
 20
9
  9
$ORTHOMODE
 70
    0
  9
$REGENMODE
 70
    1
  9
$FILLMODE
 70
    1
  9
$QTEXTMODE
 70
    0
  9
$MIRRTEXT
 70
    1
  9
$DRAGMODE
 70
    2
  9
$LTSCALE
 40
1
  9
$OSMODE
 70
    0
  9
$ATTMODE
 70
    1
  9
$TEXTSIZE
 40
0.2
  9
$TRACEWID
 40
0.05
  9
$TEXTSTYLE
  7
STANDARD
  9
$CLAYER
  8
MEASURES
  9
$CELTYPE
  6
BYLAYER
  9
$CECOLOR
 62
  256
  9
$DIMSCALE
 40
1
  9
$DIMASZ
 40
0.18
  9
$DIMEXO
 40
0.0625
  9
$DIMDLI
 40
0.38
  9
$DIMRND
 40
0
  9
$DIMDLE
 40
0
  9
$DIMEXE
 40
0.18
  9
$DIMTP
 40
0
  9
$DIMTM
 40
0
  9
$DIMTXT
 40
10
  9
$DIMCEN
 40
0.09
  9
$DIMTSZ
 40
0
  9
$DIMTOL
 70
    0
  9
$DIMLIM
 70
    0
  9
$DIMTIH
 70
    1
  9
$DIMTOH
 70
    1
  9
$DIMSE1
 70
    0
  9
$DIMSE2
 70
    0
  9
$DIMTAD
 70
    0
  9
$DIMZIN
 70
    0
  9
$DIMBLK
  1

  9
$DIMASO
 70
    1
  9
$DIMSHO
 70
    1
  9
$DIMPOST
  1

  9
$DIMAPOST
  1

  9
$DIMALT
 70
    0
  9
$DIMALTD
 70
    2
  9
$DIMALTF
 40
25.4
  9
$DIMLFAC
 40
1
  9
$DIMTOFL
 70
    0
  9
$DIMTVP
 40
0
  9
$DIMTIX
 70
    0
  9
$DIMSOXD
 70
    0
  9
$DIMSAH
 70
    0
  9
$DIMBLK1
  1

  9
$DIMBLK2
  1

  9
$DIMSTYLE
  2
STANDARD
  9
$DIMCLRD
 70
    0
  9
$DIMCLRE
 70
    0
  9
$DIMCLRT
 70
    0
  9
$DIMTFAC
 40
1
  9
$DIMGAP
 40
0.09
  9
$LUNITS
 70
    2
  9
$LUPREC
 70
    3
  9
$SKETCHINC
 40
0.1
  9
$FILLETRAD
 40
0.5
  9
$AUNITS
 70
    0
  9
$AUPREC
 70
    0
  9
$MENU
  1
.
  9
$ELEVATION
 40
0
  9
$PELEVATION
 40
0
  9
$THICKNESS
 40
0
  9
$LIMCHECK
 70
    0
  9
$BLIPMODE
 70
    0
  9
$CHAMFERA
 40
0.5
  9
$CHAMFERB
 40
0.5
  9
$SKPOLY
 70
    0
  9
$USRTIMER
 70
    1
  9
$ANGBASE
 50
0
  9
$ANGDIR
 70
    0
  9
$PDMODE
 70
    0
  9
$PDSIZE
 40
0
  9
$PLINEWID
 40
0
  9
$COORDS
 70
    2
  9
$SPLFRAME
 70
    0
  9
$SPLINETYPE
 70
    6
  9
$SPLINESEGS
 70
    8
  9
$ATTDIA
 70
    1
  9
$ATTREQ
 70
    1
  9
$HANDLING
 70
    1
  9
$HANDSEED
  5
20000
  9
$SURFTAB1
 70
    6
  9
$SURFTAB2
 70
    6
  9
$SURFTYPE
 70
    6
  9
$SURFU
 70
    6
  9
$SURFV
 70
    6
  9
$UCSNAME
  2

  9
$UCSORG
 10
0
 20
0
 30
0
  9
$UCSXDIR
 10
1
 20
0
 30
0
  9
$UCSYDIR
 10
0
 20
1
 30
0
  9
$PUCSNAME
  2

  9
$PUCSORG
 10
0
 20
0
 30
0
  9
$PUCSXDIR
 10
1
 20
0
 30
0
  9
$PUCSYDIR
 10
0
 20
1
 30
0
  9
$USERI1
 70
    0
  9
$USERI2
 70
    0
  9
$USERI3
 70
    0
  9
$USERI4
 70
    0
  9
$USERI5
 70
    0
  9
$USERR1
 40
0
  9
$USERR2
 40
0
  9
$USERR3
 40
0
  9
$USERR4
 40
0
  9
$USERR5
 40
0
  9
$WORLDVIEW
 70
    1
  9
$SHADEDGE
 70
    3
  9
$SHADEDIF
 70
   70
  9
$TILEMODE
 70
    1
  9
$MAXACTVP
 70
   64
  9
$PLIMCHECK
 70
    0
  9
$PEXTMIN
 10
1e+20
 20
1e+20
 30
1e+20
  9
$PEXTMAX
 10
-1e+20
 20
-1e+20
 30
-1e+20
  9
$GRIDMODE
 70
    1
  9
$SNAPSTYLE
 70
    0
  9
$GRIDUNIT
 10
0
 20
0
  9
$PLIMMIN
 10
0
 20
0
  9
$PLIMMAX
 10
0
 20
0
  9
$UNITMODE
 70
    0
  9
$VISRETAIN
 70
    1
  9
$PLINEGEN
 70
    0
  9
$PSLTSCALE
 70
    1
  0
ENDSEC
  0
SECTION
  2
TABLES
  0
TABLE
  2
VPORT
 70
    1
  0
VPORT
  2
*ACTIVE
 70
    0
 10
0
 20
0
 11
1
 21
1
 12
187.6520445430414
 22
69.71873307509863
 13
0
 23
0
 14
10
 24
10
 15
10
 25
10
 16
0
 26
0
 36
1
 17
0
 27
0
 37
0
 40
391.1492556940598
 41
1.703703703703704
 42
50
 43
0
 44
0
 50
0
 51
0
 71
    0
 72
  100
 73
    1
 74
    3
 75
    0
 76
    1
 77
    0
 78
    0
  0
ENDTAB
  0
TABLE
  2
LTYPE
 70
    4
  0
LTYPE
  2
BYBLOCK
 70
    0
  3

 72
   65
 73
    0
 40
0
  0
LTYPE
  2
BYLAYER
 70
    0
  3

 72
   65
 73
    0
 40
0
  0
LTYPE
  2
CONTINUOUS
 70
    0
  3
Solid line
 72
   65
 73
    0
 40
0
  0
LTYPE
  2
DOT
 70
    0
  3
Dot . . . . . . . . . . . . . . . . . . . . . .
 72
   65
 73
    2
 40
6.35
 49
0
 49
-6.35
  0
LTYPE
  2
DOTTINY
 70
    0
  3
Dot (.15x) .....................................
 72
   65
 73
    2
 40
0.9525
 49
0
 49
-0.9525
  0
LTYPE
  2
DOT2
 70
    0
  3
Dot (.5x) .....................................
 72
   65
 73
    2
 40
3.175
 49
0
 49
-3.175
  0
LTYPE
  2
DOTX2
 70
    0
  3
Dot (2x) .  .  .  .  .  .  .  .  .  .  .  .  .
 72
   65
 73
    2
 40
12.7
 49
0
 49
-12.7
  0
LTYPE
  2
DASHED
 70
    0
  3
Dashed _ _ _ _ _ _ _ _ _ _ _ _ _ _ _ _ _
 72
   65
 73
    2
 40
19.05
 49
12.7
 49
-6.35
  0
LTYPE
  2
DASHEDTINY
 70
    0
  3
Dashed (.15x) _ _ _ _ _ _ _ _ _ _ _ _ _ _ _ _ _
 72
   65
 73
    2
 40
2.8575
 49
1.905
 49
-0.9525
  0
LTYPE
  2
DASHED2
 70
    0
  3
Dashed (.5x) _ _ _ _ _ _ _ _ _ _ _ _ _ _ _ _ _
 72
   65
 73
    2
 40
9.524999999999999
 49
6.35
 49
-3.175
  0
LTYPE
  2
DASHEDX2
 70
    0
  3
Dashed (2x) ____  ____  ____  ____  ____  ___
 72
   65
 73
    2
 40
38.09999999999999
 49
25.4
 49
-12.7
  0
LTYPE
  2
DASHDOT
 70
    0
  3
Dash dot __ . __ . __ . __ . __ . __ . __ . __
 72
   65
 73
    4
 40
25.4
 49
12.7
 49
-6.35
 49
0
 49
-6.35
  0
LTYPE
  2
DASHDOTTINY
 70
    0
  3
Dash dot (.15x) _._._._._._._._._._._._._._._.
 72
   65
 73
    4
 40
3.81
 49
1.905
 49
-0.9525
 49
0
 49
-0.9525
  0
LTYPE
  2
DASHDOT2
 70
    0
  3
Dash dot (.5x) _._._._._._._._._._._._._._._.
 72
   65
 73
    4
 40
12.7
 49
6.35
 49
-3.175
 49
0
 49
-3.175
  0
LTYPE
  2
DASHDOTX2
 70
    0
  3
Dash dot (2x) ____  .  ____  .  ____  .  ___
 72
   65
 73
    4
 40
50.8
 49
25.4
 49
-12.7
 49
0
 49
-12.7
  0
LTYPE
  2
DIVIDE
 70
    0
  3
Divide ____ . . ____ . . ____ . . ____ . . ____
 72
   65
 73
    6
 40
31.75
 49
12.7
 49
-6.35
 49
0
 49
-6.35
 49
0
 49
-6.35
  0
LTYPE
  2
DIVIDETINY
 70
    0
  3
Divide (.15x) __..__..__..__..__..__..__..__.._
 72
   65
 73
    6
 40
4.7625
 49
1.905
 49
-0.9525
 49
0
 49
-0.9525
 49
0
 49
-0.9525
  0
LTYPE
  2
DIVIDE2
 70
    0
  3
Divide (.5x) __..__..__..__..__..__..__..__.._
 72
   65
 73
    6
 40
15.875
 49
6.35
 49
-3.175
 49
0
 49
-3.175
 49
0
 49
-3.175
  0
LTYPE
  2
DIVIDEX2
 70
    0
  3
Divide (2x) ________  .  .  ________  .  .  _
 72
   65
 73
    6
 40
63.5
 49
25.4
 49
-12.7
 49
0
 49
-12.7
 49
0
 49
-12.7
  0
LTYPE
  2
BORDER
 70
    0
  3
Border __ __ . __ __ . __ __ . __ __ . __ __ .
 72
   65
 73
    6
 40
44.45
 49
12.7
 49
-6.35
 49
12.7
 49
-6.35
 49
0
 49
-6.35
  0
LTYPE
  2
BORDERTINY
 70
    0
  3
Border (.15x) __.__.__.__.__.__.__.__.__.__.__.
 72
   65
 73
    6
 40
6.6675
 49
1.905
 49
-0.9525
 49
1.905
 49
-0.9525
 49
0
 49
-0.9525
  0
LTYPE
  2
BORDER2
 70
    0
  3
Border (.5x) __.__.__.__.__.__.__.__.__.__.__.
 72
   65
 73
    6
 40
22.225
 49
6.35
 49
-3.175
 49
6.35
 49
-3.175
 49
0
 49
-3.175
  0
LTYPE
  2
BORDERX2
 70
    0
  3
Border (2x) ____  ____  .  ____  ____  .  ___
 72
   65
 73
    6
 40
88.89999999999999
 49
25.4
 49
-12.7
 49
25.4
 49
-12.7
 49
0
 49
-12.7
  0
LTYPE
  2
CENTER
 70
    0
  3
Center ____ _ ____ _ ____ _ ____ _ ____ _ ____
 72
   65
 73
    4
 40
50.8
 49
31.75
 49
-6.35
 49
6.35
 49
-6.35
  0
LTYPE
  2
CENTERTINY
 70
    0
  3
Center (.15x) ___ _ ___ _ ___ _ ___ _ ___ _ ___
 72
   65
 73
    4
 40
7.619999999999999
 49
4.7625
 49
-0.9525
 49
0.9525
 49
-0.9525
  0
LTYPE
  2
CENTER2
 70
    0
  3
Center (.5x) ___ _ ___ _ ___ _ ___ _ ___ _ ___
 72
   65
 73
    4
 40
28.575
 49
19.05
 49
-3.175
 49
3.175
 49
-3.175
  0
LTYPE
  2
CENTERX2
 70
    0
  3
Center (2x) ________  __  ________  __  _____
 72
   65
 73
    4
 40
101.6
 49
63.5
 49
-12.7
 49
12.7
 49
-12.7
  0
ENDTAB
  0
TABLE
  2
LAYER
 70
    1
  0
LAYER
  2
0
 70
    0
 62
    7
  6
CONTINUOUS
  0
LAYER
  2
MEASURES
 70
    0
 62
    1
  6
CONTINUOUS
  0
ENDTAB
  0
TABLE
  2
STYLE
 70
    3
  0
STYLE
  2
STANDARD
 70
    0
 40
0
 41
1
 50
0
 71
    0
 42
1
  3
STANDARD
  4

  0
ENDTAB
  0
TABLE
  2
VIEW
 70
    0
  0
ENDTAB
  0
TABLE
  2
UCS
 70
    0
  0
ENDTAB
  0
TABLE
  2
APPID
 70
    1
  0
APPID
  2
ACAD
 70
    0
  0
APPID
  2
LIBRECAD
 70
    0
  0
ENDTAB
  0
TABLE
  2
DIMSTYLE
 70
    1
  0
DIMSTYLE
  2
STANDARD
 70
    0
  3

  4

  5

  6

  7

 40
1
 41
0.18
 42
0.0625
 43
0.38
 44
0.18
 45
0
 46
0
 47
0
 48
0
 49
1
140
10
141
0.09
142
0
143
25.4
144
1
145
0
146
1
147
0.09
 71
    0
 72
    0
 73
    1
 74
    1
 75
    0
 76
    0
 77
    0
 78
    0
170
    0
171
    2
172
    0
173
    0
174
    0
175
    0
176
    0
177
    0
178
    0
  0
ENDTAB
  0
ENDSEC
  0
SECTION
  2
BLOCKS
  0
BLOCK
  8
0
  2
$MODEL_SPACE
 70
    0
 10
0
 20
0
 30
0
  3
$MODEL_SPACE
  1

  0
ENDBLK
  8
0
  0
BLOCK
  8
0
  2
$PAPER_SPACE
 70
    0
 10
0
 20
0
 30
0
  3
$PAPER_SPACE
  1

  0
ENDBLK
  8
0
  0
BLOCK
  8
0
  2
*D8
 70
    1
 10
0
 20
0
  3
*D8
  1

  0
LINE
  5
31
  8
MEASURES
  6
BYBLOCK
 62
    0
 10
-41.93137559797505
 20
50.00000000000001
 11
-41.93137559797506
 21
5.090000000000003
  0
SOLID
  5
32
  8
MEASURES
  6
BYBLOCK
 62
    0
 10
-41.93137559797505
 20
50.00000000000001
 30
0
 11
-41.9014031026154
 21
49.82000000000001
 31
0
 12
-41.96134809333469
 22
49.82000000000001
 32
0
 13
-41.96134809333469
 23
49.82000000000001
 33
0
  0
SOLID
  5
33
  8
MEASURES
  6
BYBLOCK
 62
    0
 10
-41.93137559797506
 20
-50
 30
0
 11
-41.9613480933347
 21
-49.82
 31
0
 12
-41.90140310261541
 22
-49.82
 32
0
 13
-41.90140310261541
 23
-49.82
 33
0
  0
LINE
  5
34
  8
MEASURES
  6
BYBLOCK
 62
    0
 10
-41.93137559797506
 20
-5.089999999999996
 11
-41.93137559797506
 21
-50
  0
TEXT
  5
35
  8
MEASURES
  6
CONTINUOUS
 62
    0
 10
-41.93137559797505
 20
3.552713678800501e-15
 30
0
 40
10
  1
100.0000
 50
0
 41
1
 51
0
  7
STANDARD
 71
    0
 72
    1
 11
-41.93137559797505
 21
3.552713678800501e-15
 31
0
210
0
220
0
230
1
 73
    2
  0
LINE
  5
36
  8
MEASURES
  6
BYBLOCK
 62
    0
 10
-0.0625
 20
50
 11
-42.11137559797505
 21
50.00000000000001
  0
LINE
  5
37
  8
MEASURES
  6
BYBLOCK
 62
    0
 10
-0.06250000000000003
 20
-50
 11
-42.11137559797506
 21
-50
  0
ENDBLK
  8
0
  0
BLOCK
  8
0
  2
*D9
 70
    1
 10
0
 20
0
  3
*D9
  1

  0
LINE
  5
38
  8
MEASURES
  6
BYBLOCK
 62
    0
 10
120.7473959003739
 20
-4.199999999999997
 11
120.7473959003739
 21
4.199999999999998
  0
SOLID
  5
39
  8
MEASURES
  6
BYBLOCK
 62
    0
 10
120.7473959003739
 20
-4.199999999999997
 30
0
 11
120.7174234050143
 21
-4.019999999999997
 31
0
 12
120.7773683957336
 22
-4.019999999999997
 32
0
 13
120.7773683957336
 23
-4.019999999999997
 33
0
  0
SOLID
  5
3A
  8
MEASURES
  6
BYBLOCK
 62
    0
 10
120.7473959003739
 20
4.199999999999998
 30
0
 11
120.7773683957336
 21
4.019999999999998
 31
0
 12
120.7174234050143
 22
4.019999999999998
 32
0
 13
120.7174234050143
 23
4.019999999999998
 33
0
  0
TEXT
  5
3B
  8
MEASURES
  6
CONTINUOUS
 62
    0
 10
145.0373959003739
 20
4.440892098500626e-16
 30
0
 40
10
  1
8.4000
 50
0
 41
1
 51
0
  7
STANDARD
 71
    0
 72
    1
 11
145.0373959003739
 21
4.440892098500626e-16
 31
0
210
0
220
0
230
1
 73
    2
  0
LINE
  5
3C
  8
MEASURES
  6
BYBLOCK
 62
    0
 10
100.0435
 20
-4.199999999999998
 11
120.9273959003739
 21
-4.199999999999997
  0
LINE
  5
3D
  8
MEASURES
  6
BYBLOCK
 62
    0
 10
100.0435
 20
4.199999999999998
 11
120.9273959003739
 21
4.199999999999998
  0
ENDBLK
  8
0
  0
BLOCK
  8
0
  2
*D7
 70
    1
 10
0
 20
0
  3
*D7
  1

  0
LINE
  5
3E
  8
MEASURES
  6
BYBLOCK
 62
    0
 10
0
 20
-72.42692148741146
 11
27.67827777777746
 21
-72.42692148741146
  0
SOLID
  5
3F
  8
MEASURES
  6
BYBLOCK
 62
    0
 10
0
 20
-72.42692148741146
 30
0
 11
0.18
 21
-72.39694899205182
 31
0
 12
0.18
 22
-72.45689398277111
 32
0
 13
0.18
 23
-72.45689398277111
 33
0
  0
SOLID
  5
40
  8
MEASURES
  6
BYBLOCK
 62
    0
 10
99.98099999999999
 20
-72.42692148741146
 30
0
 11
99.80099999999999
 21
-72.45689398277111
 31
0
 12
99.80099999999999
 22
-72.39694899205182
 32
0
 13
99.80099999999999
 23
-72.39694899205182
 33
0
  0
LINE
  5
41
  8
MEASURES
  6
BYBLOCK
 62
    0
 10
72.30272222222253
 20
-72.42692148741146
 11
99.98099999999999
 21
-72.42692148741146
  0
TEXT
  5
42
  8
MEASURES
  6
CONTINUOUS
 62
    0
 10
49.9905
 20
-72.42692148741146
 30
0
 40
10
  1
99.9810
 50
0
 41
1
 51
0
  7
STANDARD
 71
    0
 72
    1
 11
49.9905
 21
-72.42692148741146
 31
0
210
0
220
0
230
1
 73
    2
  0
LINE
  5
43
  8
MEASURES
  6
BYBLOCK
 62
    0
 10
-1.148106374200644e-17
 20
-0.0625
 11
-3.306546357697853e-17
 21
-72.60692148741147
  0
LINE
  5
44
  8
MEASURES
  6
BYBLOCK
 62
    0
 10
99.98099999999999
 20
-0.0625
 11
99.98099999999999
 21
-72.60692148741147
  0
ENDBLK
  8
0
  0
BLOCK
  8
0
  2
*D1
 70
    0
 10
0
 20
0
  3
*D1
  1

  0
LINE
  5
45
  8
MEASURES
  6
BYBLOCK
 62
    0
 10
-131.0679033410055
 20
249.9999999999999
 11
-131.0679033410055
 21
5.089999999999971
  0
SOLID
  5
46
  8
MEASURES
  6
BYBLOCK
 62
    0
 10
-131.0679033410055
 20
249.9999999999999
 30
0
 11
-131.0379308456458
 21
249.8199999999999
 31
0
 12
-131.0978758363651
 22
249.8199999999999
 32
0
 13
-131.0978758363651
 23
249.8199999999999
 33
0
  0
SOLID
  5
47
  8
MEASURES
  6
BYBLOCK
 62
    0
 10
-131.0679033410055
 20
-250
 30
0
 11
-131.0978758363651
 21
-249.82
 31
0
 12
-131.0379308456458
 22
-249.82
 32
0
 13
-131.0379308456458
 23
-249.82
 33
0
  0
LINE
  5
48
  8
MEASURES
  6
BYBLOCK
 62
    0
 10
-131.0679033410055
 20
-5.090000000000028
 11
-131.0679033410055
 21
-250
  0
TEXT
  5
49
  8
MEASURES
  6
CONTINUOUS
 62
    0
 10
-131.0679033410055
 20
-2.842170943040401e-14
 30
0
 40
10
  1
500.0000
 50
0
 41
1
 51
0
  7
STANDARD
 71
    0
 72
    1
 11
-131.0679033410055
 21
-2.842170943040401e-14
 31
0
210
0
220
0
230
1
 73
    2
  0
LINE
  5
4A
  8
MEASURES
  6
BYBLOCK
 62
    0
 10
-0.0625
 20
250
 11
-131.2479033410055
 21
249.9999999999999
  0
LINE
  5
4B
  8
MEASURES
  6
BYBLOCK
 62
    0
 10
-0.0625
 20
-250
 11
-131.2479033410055
 21
-250
  0
ENDBLK
  8
0
  0
BLOCK
  8
0
  2
*D3
 70
    0
 10
0
 20
0
  3
*D3
  1

  0
LINE
  5
4C
  8
MEASURES
  6
BYBLOCK
 62
    0
 10
837.9486038633391
 20
21
 11
837.9486038633391
 21
5.089999999999998
  0
SOLID
  5
4D
  8
MEASURES
  6
BYBLOCK
 62
    0
 10
837.9486038633391
 20
21
 30
0
 11
837.9785763586988
 21
20.82
 31
0
 12
837.9186313679795
 22
20.82
 32
0
 13
837.9186313679795
 23
20.82
 33
0
  0
SOLID
  5
4E
  8
MEASURES
  6
BYBLOCK
 62
    0
 10
837.9486038633391
 20
-21
 30
0
 11
837.9186313679795
 21
-20.82
 31
0
 12
837.9785763586988
 22
-20.82
 32
0
 13
837.9785763586988
 23
-20.82
 33
0
  0
LINE
  5
4F
  8
MEASURES
  6
BYBLOCK
 62
    0
 10
837.9486038633391
 20
-5.090000000000002
 11
837.9486038633391
 21
-21
  0
TEXT
  5
50
  8
MEASURES
  6
CONTINUOUS
 62
    0
 10
882.9274927522281
 20
-1.77635683940025e-15
 30
0
 40
10
  1
42.0000
 50
0
 41
1
 51
0
  7
STANDARD
 71
    0
 72
    1
 11
882.9274927522281
 21
-1.77635683940025e-15
 31
0
210
0
220
0
230
1
 73
    2
  0
LINE
  5
51
  8
MEASURES
  6
BYBLOCK
 62
    0
 10
805.0625
 20
21
 11
838.1286038633391
 21
21
  0
LINE
  5
52
  8
MEASURES
  6
BYBLOCK
 62
    0
 10
805.0625
 20
-21
 11
838.1286038633391
 21
-21
  0
ENDBLK
  8
0
  0
BLOCK
  8
0
  2
*D5
 70
    0
 10
0
 20
0
  3
*D5
  1

  0
LINE
  5
53
  8
MEASURES
  6
BYBLOCK
 62
    0
 10
173.2258511738601
 20
4.200000000000004
 11
173.2258511738601
 21
-4.2
  0
SOLID
  5
54
  8
MEASURES
  6
BYBLOCK
 62
    0
 10
173.2258511738601
 20
4.200000000000004
 30
0
 11
173.2558236692198
 21
4.020000000000004
 31
0
 12
173.1958786785005
 22
4.020000000000004
 32
0
 13
173.1958786785005
 23
4.020000000000004
 33
0
  0
SOLID
  5
55
  8
MEASURES
  6
BYBLOCK
 62
    0
 10
173.2258511738601
 20
-4.2
 30
0
 11
173.1958786785005
 21
-4.02
 31
0
 12
173.2558236692198
 22
-4.02
 32
0
 13
173.2558236692198
 23
-4.02
 33
0
  0
TEXT
  5
56
  8
MEASURES
  6
CONTINUOUS
 62
    0
 10
197.5158511738601
 20
1.77635683940025e-15
 30
0
 40
10
  1
8.4000
 50
0
 41
1
 51
0
  7
STANDARD
 71
    0
 72
    1
 11
197.5158511738601
 21
1.77635683940025e-15
 31
0
210
0
220
0
230
1
 73
    2
  0
LINE
  5
57
  8
MEASURES
  6
BYBLOCK
 62
    0
 10
161.0625
 20
4.200000000000003
 11
173.4058511738602
 21
4.200000000000004
  0
LINE
  5
58
  8
MEASURES
  6
BYBLOCK
 62
    0
 10
161.0625
 20
-4.2
 11
173.4058511738602
 21
-4.2
  0
ENDBLK
  8
0
  0
BLOCK
  8
0
  2
*D6
 70
    0
 10
0
 20
0
  3
*D6
  1

  0
LINE
  5
59
  8
MEASURES
  6
BYBLOCK
 62
    0
 10
0
 20
76.71535762811325
 11
55.4099999999997
 21
76.71535762811325
  0
SOLID
  5
5A
  8
MEASURES
  6
BYBLOCK
 62
    0
 10
0
 20
76.71535762811325
 30
0
 11
0.18
 21
76.7453301234729
 31
0
 12
0.18
 22
76.68538513275361
 32
0
 13
0.18
 23
76.68538513275361
 33
0
  0
SOLID
  5
5B
  8
MEASURES
  6
BYBLOCK
 62
    0
 10
161
 20
76.71535762811325
 30
0
 11
160.82
 21
76.68538513275361
 31
0
 12
160.82
 22
76.7453301234729
 32
0
 13
160.82
 23
76.7453301234729
 33
0
  0
LINE
  5
5C
  8
MEASURES
  6
BYBLOCK
 62
    0
 10
105.5900000000003
 20
76.71535762811325
 11
161
 21
76.71535762811325
  0
TEXT
  5
5D
  8
MEASURES
  6
CONTINUOUS
 62
    0
 10
80.5
 20
76.71535762811325
 30
0
 40
10
  1
161.0000
 50
0
 41
1
 51
0
  7
STANDARD
 71
    0
 72
    1
 11
80.5
 21
76.71535762811325
 31
0
210
0
220
0
230
1
 73
    2
  0
LINE
  5
5E
  8
MEASURES
  6
BYBLOCK
 62
    0
 10
3.827021247335479e-18
 20
0.0625
 11
1.102182119232618e-17
 21
76.89535762811326
  0
LINE
  5
5F
  8
MEASURES
  6
BYBLOCK
 62
    0
 10
161
 20
0.0625
 11
161
 21
76.89535762811326
  0
ENDBLK
  8
0
  0
BLOCK
  8
0
  2
*D2
 70
    0
 10
0
 20
0
  3
*D2
  1

  0
LINE
  5
60
  8
MEASURES
  6
BYBLOCK
 62
    0
 10
805
 20
350.1664880304495
 11
429.8122222222225
 21
350.1664880304494
  0
SOLID
  5
61
  8
MEASURES
  6
BYBLOCK
 62
    0
 10
805
 20
350.1664880304495
 30
0
 11
804.8200000000001
 21
350.1365155350899
 31
0
 12
804.8200000000001
 22
350.1964605258091
 32
0
 13
804.8200000000001
 23
350.1964605258091
 33
0
  0
SOLID
  5
62
  8
MEASURES
  6
BYBLOCK
 62
    0
 10
3.155443620884047e-30
 20
350.1664880304495
 30
0
 11
0.18
 21
350.1964605258091
 31
0
 12
0.18
 22
350.1365155350899
 32
0
 13
0.18
 23
350.1365155350899
 33
0
  0
LINE
  5
63
  8
MEASURES
  6
BYBLOCK
 62
    0
 10
375.1877777777775
 20
350.1664880304494
 11
3.155443620884047e-30
 21
350.1664880304495
  0
TEXT
  5
64
  8
MEASURES
  6
CONTINUOUS
 62
    0
 10
402.5
 20
350.1664880304495
 30
0
 40
10
  1
805.0000
 50
0
 41
1
 51
0
  7
STANDARD
 71
    0
 72
    1
 11
402.5
 21
350.1664880304495
 31
0
210
0
220
0
230
1
 73
    2
  0
LINE
  5
65
  8
MEASURES
  6
BYBLOCK
 62
    0
 10
805
 20
1.233022296607285
 11
805
 21
350.3464880304495
  0
LINE
  5
66
  8
MEASURES
  6
BYBLOCK
 62
    0
 10
3.827021247335479e-18
 20
-1.893737363298601
 11
1.102182119232933e-17
 21
350.3464880304495
  0
ENDBLK
  8
0
  0
BLOCK
  8
0
  2
*D4
 70
    0
 10
0
 20
0
  3
*D4
  1

  0
LINE
  5
67
  8
MEASURES
  6
BYBLOCK
 62
    0
 10
-70.17145212104032
 20
50.00000000000001
 11
-70.17145212104032
 21
5.090000000000003
  0
SOLID
  5
68
  8
MEASURES
  6
BYBLOCK
 62
    0
 10
-70.17145212104032
 20
50.00000000000001
 30
0
 11
-70.14147962568067
 21
49.82000000000001
 31
0
 12
-70.20142461639996
 22
49.82000000000001
 32
0
 13
-70.20142461639996
 23
49.82000000000001
 33
0
  0
SOLID
  5
69
  8
MEASURES
  6
BYBLOCK
 62
    0
 10
-70.17145212104032
 20
-50
 30
0
 11
-70.20142461639996
 21
-49.82
 31
0
 12
-70.14147962568067
 22
-49.82
 32
0
 13
-70.14147962568067
 23
-49.82
 33
0
  0
LINE
  5
6A
  8
MEASURES
  6
BYBLOCK
 62
    0
 10
-70.17145212104032
 20
-5.089999999999996
 11
-70.17145212104032
 21
-50
  0
TEXT
  5
6B
  8
MEASURES
  6
CONTINUOUS
 62
    0
 10
-70.17145212104032
 20
3.552713678800501e-15
 30
0
 40
10
  1
100.0000
 50
0
 41
1
 51
0
  7
STANDARD
 71
    0
 72
    1
 11
-70.17145212104032
 21
3.552713678800501e-15
 31
0
210
0
220
0
230
1
 73
    2
  0
LINE
  5
6C
  8
MEASURES
  6
BYBLOCK
 62
    0
 10
-0.0625
 20
50
 11
-70.35145212104032
 21
50.00000000000001
  0
LINE
  5
6D
  8
MEASURES
  6
BYBLOCK
 62
    0
 10
-0.0625
 20
-50
 11
-70.35145212104032
 21
-50
  0
ENDBLK
  8
0
  0
ENDSEC
  0
SECTION
  2
ENTITIES
  0
LINE
  5
6E
  8
0
  6
BYLAYER
 62
  256
 10
0
 20
0
 11
0
 21
50
  0
LINE
  5
6F
  8
0
  6
BYLAYER
 62
  256
 10
0
 20
50
 11
1.014807022745015
 21
50.06861977858572
  0
LINE
  5
70
  8
0
  6
BYLAYER
 62
  256
 10
1.014807022745015
 20
50.06861977858572
 11
2.03015305955707
 21
50.1062796449143
  0
LINE
  5
71
  8
0
  6
BYLAYER
 62
  256
 10
2.03015305955707
 20
50.1062796449143
 11
3.045859438658254
 21
50.11362277307708
  0
LINE
  5
72
  8
0
  6
BYLAYER
 62
  256
 10
3.045859438658254
 20
50.11362277307708
 11
4.061747488270652
 21
50.09129233716541
  0
LINE
  5
73
  8
0
  6
BYLAYER
 62
  256
 10
4.061747488270652
 20
50.09129233716541
 11
5.077638536616356
 21
50.03993151127062
  0
LINE
  5
74
  8
0
  6
BYLAYER
 62
  256
 10
5.077638536616356
 20
50.03993151127062
 11
6.093353911917452
 21
49.96018346948414
  0
LINE
  5
75
  8
0
  6
BYLAYER
 62
  256
 10
6.093353911917452
 20
49.96018346948414
 11
7.108714942396027
 21
49.85269138589729
  0
LINE
  5
76
  8
0
  6
BYLAYER
 62
  256
 10
7.108714942396027
 20
49.85269138589729
 11
8.123542956274168
 21
49.71809843460142
  0
LINE
  5
77
  8
0
  6
BYLAYER
 62
  256
 10
8.123542956274168
 20
49.71809843460142
 11
9.137659281773971
 21
49.55704778968792
  0
LINE
  5
78
  8
0
  6
BYLAYER
 62
  256
 10
9.137659281773971
 20
49.55704778968792
 11
10.15088479995114
 21
49.37018111716051
  0
LINE
  5
79
  8
0
  6
BYLAYER
 62
  256
 10
10.15088479995114
 20
49.37018111716051
 11
11.16284363581174
 21
49.15747651487872
  0
LINE
  5
7A
  8
0
  6
BYLAYER
 62
  256
 10
11.16284363581174
 20
49.15747651487872
 11
12.17265533454831
 21
48.91721036382454
  0
LINE
  5
7B
  8
0
  6
BYLAYER
 62
  256
 10
12.17265533454831
 20
48.91721036382454
 11
13.17935968883975
 21
48.64739007623624
  0
LINE
  5
7C
  8
0
  6
BYLAYER
 62
  256
 10
13.17935968883975
 20
48.64739007623624
 11
14.18199649136496
 21
48.34602306435215
  0
LINE
  5
7D
  8
0
  6
BYLAYER
 62
  256
 10
14.18199649136496
 20
48.34602306435215
 11
15.17960553480281
 21
48.01111674041061
  0
LINE
  5
7E
  8
0
  6
BYLAYER
 62
  256
 10
15.17960553480281
 20
48.01111674041061
 11
16.17122661183224
 21
47.64067851664988
  0
LINE
  5
7F
  8
0
  6
BYLAYER
 62
  256
 10
16.17122661183224
 20
47.64067851664988
 11
17.15589951513209
 21
47.23271580530832
  0
LINE
  5
80
  8
0
  6
BYLAYER
 62
  256
 10
17.15589951513209
 20
47.23271580530832
 11
18.13266403738129
 21
46.78523601862418
  0
LINE
  5
81
  8
0
  6
BYLAYER
 62
  256
 10
18.13266403738129
 20
46.78523601862418
 11
19.10055997125872
 21
46.29624656883586
  0
LINE
  5
82
  8
0
  6
BYLAYER
 62
  256
 10
19.10055997125872
 20
46.29624656883586
 11
20.05862721258408
 21
45.76375520867666
  0
LINE
  5
83
  8
0
  6
BYLAYER
 62
  256
 10
20.05862721258408
 20
45.76375520867666
 11
21.00634935894718
 21
45.18723446773554
  0
LINE
  5
84
  8
0
  6
BYLAYER
 62
  256
 10
21.00634935894718
 20
45.18723446773554
 11
21.94466946588552
 21
44.57097493215974
  0
LINE
  5
85
  8
0
  6
BYLAYER
 62
  256
 10
21.94466946588552
 20
44.57097493215974
 11
22.87483022236574
 21
43.92025635726754
  0
LINE
  5
86
  8
0
  6
BYLAYER
 62
  256
 10
22.87483022236574
 20
43.92025635726754
 11
23.79807431735447
 21
43.24035849837722
  0
LINE
  5
87
  8
0
  6
BYLAYER
 62
  256
 10
23.79807431735447
 20
43.24035849837722
 11
24.7156444398183
 21
42.53656111080709
  0
LINE
  5
88
  8
0
  6
BYLAYER
 62
  256
 10
24.7156444398183
 20
42.53656111080709
 11
25.6287832787239
 21
41.81414394987536
  0
LINE
  5
89
  8
0
  6
BYLAYER
 62
  256
 10
25.6287832787239
 20
41.81414394987536
 11
26.53873352303787
 21
41.07838677090038
  0
LINE
  5
8A
  8
0
  6
BYLAYER
 62
  256
 10
26.53873352303787
 20
41.07838677090038
 11
27.44673786172683
 21
40.33456932920038
  0
LINE
  5
8B
  8
0
  6
BYLAYER
 62
  256
 10
27.44673786172683
 20
40.33456932920038
 11
28.35403898375744
 21
39.58797138009368
  0
LINE
  5
8C
  8
0
  6
BYLAYER
 62
  256
 10
28.35403898375744
 20
39.58797138009368
 11
29.26187957809628
 21
38.84387267889854
  0
LINE
  5
8D
  8
0
  6
BYLAYER
 62
  256
 10
29.26187957809628
 20
38.84387267889854
 11
30.17150184581877
 21
38.10755083675906
  0
LINE
  5
8E
  8
0
  6
BYLAYER
 62
  256
 10
30.17150184581877
 20
38.10755083675906
 11
31.08380454714788
 21
37.38277411824208
  0
LINE
  5
8F
  8
0
  6
BYLAYER
 62
  256
 10
31.08380454714788
 20
37.38277411824208
 11
31.99874139102917
 21
36.66915749659484
  0
LINE
  5
90
  8
0
  6
BYLAYER
 62
  256
 10
31.99874139102917
 20
36.66915749659484
 11
32.9161049413336
 21
35.9656077481065
  0
LINE
  5
91
  8
0
  6
BYLAYER
 62
  256
 10
32.9161049413336
 20
35.9656077481065
 11
33.83568776193204
 21
35.27103164906624
  0
LINE
  5
92
  8
0
  6
BYLAYER
 62
  256
 10
33.83568776193204
 20
35.27103164906624
 11
34.7572824166954
 21
34.58433597576325
  0
LINE
  5
93
  8
0
  6
BYLAYER
 62
  256
 10
34.7572824166954
 20
34.58433597576325
 11
35.68068146949459
 21
33.90442750448673
  0
LINE
  5
94
  8
0
  6
BYLAYER
 62
  256
 10
35.68068146949459
 20
33.90442750448673
 11
36.60567748420053
 21
33.23021301152584
  0
LINE
  5
95
  8
0
  6
BYLAYER
 62
  256
 10
36.60567748420053
 20
33.23021301152584
 11
37.53206302468411
 21
32.56059927316979
  0
LINE
  5
96
  8
0
  6
BYLAYER
 62
  256
 10
37.53206302468411
 20
32.56059927316979
 11
38.45963065481626
 21
31.89449306570774
  0
LINE
  5
97
  8
0
  6
BYLAYER
 62
  256
 10
38.45963065481626
 20
31.89449306570774
 11
39.38817293846785
 21
31.2308011654289
  0
LINE
  5
98
  8
0
  6
BYLAYER
 62
  256
 10
39.38817293846785
 20
31.2308011654289
 11
40.31748689374427
 21
30.56845377014324
  0
LINE
  5
99
  8
0
  6
BYLAYER
 62
  256
 10
40.31748689374427
 20
30.56845377014324
 11
41.2476077647777
 21
29.9076337319352
  0
LINE
  5
9A
  8
0
  6
BYLAYER
 62
  256
 10
41.2476077647777
 20
29.9076337319352
 11
42.17892425699576
 21
29.25038249411326
  0
LINE
  5
9B
  8
0
  6
BYLAYER
 62
  256
 10
42.17892425699576
 20
29.25038249411326
 11
43.11185370777189
 21
28.59889205418724
  0
LINE
  5
9C
  8
0
  6
BYLAYER
 62
  256
 10
43.11185370777189
 20
28.59889205418724
 11
44.04681345447952
 21
27.95535440966704
  0
LINE
  5
9D
  8
0
  6
BYLAYER
 62
  256
 10
44.04681345447952
 20
27.95535440966704
 11
44.98422083449204
 21
27.32196155806248
  0
LINE
  5
9E
  8
0
  6
BYLAYER
 62
  256
 10
44.98422083449204
 20
27.32196155806248
 11
45.92449318518288
 21
26.70090549688342
  0
LINE
  5
9F
  8
0
  6
BYLAYER
 62
  256
 10
45.92449318518288
 20
26.70090549688342
 11
46.86804784392547
 21
26.0943782236397
  0
LINE
  5
A0
  8
0
  6
BYLAYER
 62
  256
 10
46.86804784392547
 20
26.0943782236397
 11
47.81530214809317
 21
25.50457173584118
  0
LINE
  5
A1
  8
0
  6
BYLAYER
 62
  256
 10
47.81530214809317
 20
25.50457173584118
 11
48.76667343505945
 21
24.9336780309977
  0
LINE
  5
A2
  8
0
  6
BYLAYER
 62
  256
 10
48.76667343505945
 20
24.9336780309977
 11
49.72257904219767
 21
24.3838891066191
  0
LINE
  5
A3
  8
0
  6
BYLAYER
 62
  256
 10
49.72257904219767
 20
24.3838891066191
 11
50.68339252409986
 21
23.85718665165238
  0
LINE
  5
A4
  8
0
  6
BYLAYER
 62
  256
 10
50.68339252409986
 20
23.85718665165238
 11
51.64895810847738
 21
23.35300975788842
  0
LINE
  5
A5
  8
0
  6
BYLAYER
 62
  256
 10
51.64895810847738
 20
23.35300975788842
 11
52.61876860270517
 21
22.86910948580756
  0
LINE
  5
A6
  8
0
  6
BYLAYER
 62
  256
 10
52.61876860270517
 20
22.86910948580756
 11
53.59231049494204
 21
22.40320654182786
  0
LINE
  5
A7
  8
0
  6
BYLAYER
 62
  256
 10
53.59231049494204
 20
22.40320654182786
 11
54.56907027334676
 21
21.95302163236738
  0
LINE
  5
A8
  8
0
  6
BYLAYER
 62
  256
 10
54.56907027334676
 20
21.95302163236738
 11
55.54853442607812
 21
21.51627546384424
  0
LINE
  5
A9
  8
0
  6
BYLAYER
 62
  256
 10
55.54853442607812
 20
21.51627546384424
 11
56.53018944129487
 21
21.09068874267646
  0
LINE
  5
AA
  8
0
  6
BYLAYER
 62
  256
 10
56.53018944129487
 20
21.09068874267646
 11
57.51352180715582
 21
20.67398217528216
  0
LINE
  5
AB
  8
0
  6
BYLAYER
 62
  256
 10
57.51352180715582
 20
20.67398217528216
 11
58.49801801181972
 21
20.2638764680794
  0
LINE
  5
AC
  8
0
  6
BYLAYER
 62
  256
 10
58.49801801181972
 20
20.2638764680794
 11
59.48316454344537
 21
19.85809232748625
  0
LINE
  5
AD
  8
0
  6
BYLAYER
 62
  256
 10
59.48316454344537
 20
19.85809232748625
 11
60.46845246166691
 21
19.45437011090943
  0
LINE
  5
AE
  8
0
  6
BYLAYER
 62
  256
 10
60.46845246166691
 20
19.45437011090943
 11
61.45359954275027
 21
19.05142474207966
  0
LINE
  5
AF
  8
0
  6
BYLAYER
 62
  256
 10
61.45359954275027
 20
19.05142474207966
 11
62.43865004943786
 21
18.64937458267983
  0
LINE
  5
B0
  8
0
  6
BYLAYER
 62
  256
 10
62.43865004943786
 20
18.64937458267983
 11
63.42367360557702
 21
18.2484470118851
  0
LINE
  5
B1
  8
0
  6
BYLAYER
 62
  256
 10
63.42367360557702
 20
18.2484470118851
 11
64.40873983501491
 21
17.84886940887059
  0
LINE
  5
B2
  8
0
  6
BYLAYER
 62
  256
 10
64.40873983501491
 20
17.84886940887059
 11
65.39391836159886
 21
17.45086915281147
  0
LINE
  5
B3
  8
0
  6
BYLAYER
 62
  256
 10
65.39391836159886
 20
17.45086915281147
 11
66.37927880917611
 21
17.05467362288286
  0
LINE
  5
B4
  8
0
  6
BYLAYER
 62
  256
 10
66.37927880917611
 20
17.05467362288286
 11
67.36489080159393
 21
16.6605101982599
  0
LINE
  5
B5
  8
0
  6
BYLAYER
 62
  256
 10
67.36489080159393
 20
16.6605101982599
 11
68.35082396269952
 21
16.26860625811774
  0
LINE
  5
B6
  8
0
  6
BYLAYER
 62
  256
 10
68.35082396269952
 20
16.26860625811774
 11
69.33714791634024
 21
15.87918918163152
  0
LINE
  5
B7
  8
0
  6
BYLAYER
 62
  256
 10
69.33714791634024
 20
15.87918918163152
 11
70.32393179426506
 21
15.49248416087999
  0
LINE
  5
B8
  8
0
  6
BYLAYER
 62
  256
 10
70.32393179426506
 20
15.49248416087999
 11
71.31119919533205
 21
15.10851402013095
  0
LINE
  5
B9
  8
0
  6
BYLAYER
 62
  256
 10
71.31119919533205
 20
15.10851402013095
 11
72.298891969702
 21
14.72693825717662
  0
LINE
  5
BA
  8
0
  6
BYLAYER
 62
  256
 10
72.298891969702
 20
14.72693825717662
 11
73.28694344516312
 21
14.34737849270836
  0
LINE
  5
BB
  8
0
  6
BYLAYER
 62
  256
 10
73.28694344516312
 20
14.34737849270836
 11
74.27528694950348
 21
13.9694563474175
  0
LINE
  5
BC
  8
0
  6
BYLAYER
 62
  256
 10
74.27528694950348
 20
13.9694563474175
 11
75.26385581051125
 21
13.59279344199538
  0
LINE
  5
BD
  8
0
  6
BYLAYER
 62
  256
 10
75.26385581051125
 20
13.59279344199538
 11
76.25258335597459
 21
13.21701139713334
  0
LINE
  5
BE
  8
0
  6
BYLAYER
 62
  256
 10
76.25258335597459
 20
13.21701139713334
 11
77.24140291368161
 21
12.84173183352273
  0
LINE
  5
BF
  8
0
  6
BYLAYER
 62
  256
 10
77.24140291368161
 20
12.84173183352273
 11
78.23024781142043
 21
12.46657637185488
  0
LINE
  5
C0
  8
0
  6
BYLAYER
 62
  256
 10
78.23024781142043
 20
12.46657637185488
 11
79.21905137697927
 21
12.09116663282115
  0
LINE
  5
C1
  8
0
  6
BYLAYER
 62
  256
 10
79.21905137697927
 20
12.09116663282115
 11
80.20774712025487
 21
11.71512529310155
  0
LINE
  5
C2
  8
0
  6
BYLAYER
 62
  256
 10
80.20774712025487
 20
11.71512529310155
 11
81.19629704998739
 21
11.33824028478615
  0
LINE
  5
C3
  8
0
  6
BYLAYER
 62
  256
 10
81.19629704998739
 20
11.33824028478615
 11
82.18472239425913
 21
10.96064293343796
  0
LINE
  5
C4
  8
0
  6
BYLAYER
 62
  256
 10
82.18472239425913
 20
10.96064293343796
 11
83.17305175828861
 21
10.58250734220413
  0
LINE
  5
C5
  8
0
  6
BYLAYER
 62
  256
 10
83.17305175828861
 20
10.58250734220413
 11
84.16131374729423
 21
10.20400761423182
  0
LINE
  5
C6
  8
0
  6
BYLAYER
 62
  256
 10
84.16131374729423
 20
10.20400761423182
 11
85.14953696649468
 21
9.82531785266818
  0
LINE
  5
C7
  8
0
  6
BYLAYER
 62
  256
 10
85.14953696649468
 20
9.82531785266818
 11
86.13775002110836
 21
9.446612160660367
  0
LINE
  5
C8
  8
0
  6
BYLAYER
 62
  256
 10
86.13775002110836
 20
9.446612160660367
 11
87.12598151635383
 21
9.06806464135553
  0
LINE
  5
C9
  8
0
  6
BYLAYER
 62
  256
 10
87.12598151635383
 20
9.06806464135553
 11
88.11426005744956
 21
8.689849397900828
  0
LINE
  5
CA
  8
0
  6
BYLAYER
 62
  256
 10
88.11426005744956
 20
8.689849397900828
 11
89.10261424961413
 21
8.312140533443415
  0
LINE
  5
CB
  8
0
  6
BYLAYER
 62
  256
 10
89.10261424961413
 20
8.312140533443415
 11
90.09107266560913
 21
7.935111954199634
  0
LINE
  5
CC
  8
0
  6
BYLAYER
 62
  256
 10
90.09107266560913
 20
7.935111954199634
 11
91.07965377801874
 21
7.558876283889629
  0
LINE
  5
CD
  8
0
  6
BYLAYER
 62
  256
 10
91.07965377801874
 20
7.558876283889629
 11
92.06835169032898
 21
7.183398287530753
  0
LINE
  5
CE
  8
0
  6
BYLAYER
 62
  256
 10
92.06835169032898
 20
7.183398287530753
 11
93.05715690432963
 21
6.808620876965502
  0
LINE
  5
CF
  8
0
  6
BYLAYER
 62
  256
 10
93.05715690432963
 20
6.808620876965502
 11
94.04605992181038
 21
6.434486964036373
  0
LINE
  5
D0
  8
0
  6
BYLAYER
 62
  256
 10
94.04605992181038
 20
6.434486964036373
 11
95.03505124456088
 21
6.060939460585864
  0
LINE
  5
D1
  8
0
  6
BYLAYER
 62
  256
 10
95.03505124456088
 20
6.060939460585864
 11
96.02412137437094
 21
5.687921278456472
  0
LINE
  5
D2
  8
0
  6
BYLAYER
 62
  256
 10
96.02412137437094
 20
5.687921278456472
 11
97.01326081303014
 21
5.315375329490696
  0
LINE
  5
D3
  8
0
  6
BYLAYER
 62
  256
 10
97.01326081303014
 20
5.315375329490696
 11
98.00246006232827
 21
4.943244525531028
  0
LINE
  5
D4
  8
0
  6
BYLAYER
 62
  256
 10
98.00246006232827
 20
4.943244525531028
 11
98.99170962405496
 21
4.571471778419966
  0
LINE
  5
D5
  8
0
  6
BYLAYER
 62
  256
 10
98.99170962405496
 20
4.571471778419966
 11
99.98099999999999
 21
4.2
  0
LINE
  5
D6
  8
0
  6
BYLAYER
 62
  256
 10
99.98099999999999
 20
4.2
 11
99.98099999999999
 21
0
  0
LINE
  5
D7
  8
0
  6
BYLAYER
 62
  256
 10
0
 20
0
 11
0
 21
-50
  0
LINE
  5
D8
  8
0
  6
BYLAYER
 62
  256
 10
0
 20
-50
 11
1.014807022745015
 21
-50.06861977858572
  0
LINE
  5
D9
  8
0
  6
BYLAYER
 62
  256
 10
1.014807022745015
 20
-50.06861977858572
 11
2.03015305955707
 21
-50.1062796449143
  0
LINE
  5
DA
  8
0
  6
BYLAYER
 62
  256
 10
2.03015305955707
 20
-50.1062796449143
 11
3.045859438658254
 21
-50.11362277307708
  0
LINE
  5
DB
  8
0
  6
BYLAYER
 62
  256
 10
3.045859438658254
 20
-50.11362277307708
 11
4.061747488270652
 21
-50.09129233716541
  0
LINE
  5
DC
  8
0
  6
BYLAYER
 62
  256
 10
4.061747488270652
 20
-50.09129233716541
 11
5.077638536616356
 21
-50.03993151127062
  0
LINE
  5
DD
  8
0
  6
BYLAYER
 62
  256
 10
5.077638536616356
 20
-50.03993151127062
 11
6.093353911917452
 21
-49.96018346948414
  0
LINE
  5
DE
  8
0
  6
BYLAYER
 62
  256
 10
6.093353911917452
 20
-49.96018346948414
 11
7.108714942396027
 21
-49.85269138589729
  0
LINE
  5
DF
  8
0
  6
BYLAYER
 62
  256
 10
7.108714942396027
 20
-49.85269138589729
 11
8.123542956274168
 21
-49.71809843460142
  0
LINE
  5
E0
  8
0
  6
BYLAYER
 62
  256
 10
8.123542956274168
 20
-49.71809843460142
 11
9.137659281773971
 21
-49.55704778968792
  0
LINE
  5
E1
  8
0
  6
BYLAYER
 62
  256
 10
9.137659281773971
 20
-49.55704778968792
 11
10.15088479995114
 21
-49.37018111716051
  0
LINE
  5
E2
  8
0
  6
BYLAYER
 62
  256
 10
10.15088479995114
 20
-49.37018111716051
 11
11.16284363581174
 21
-49.15747651487872
  0
LINE
  5
E3
  8
0
  6
BYLAYER
 62
  256
 10
11.16284363581174
 20
-49.15747651487872
 11
12.17265533454831
 21
-48.91721036382454
  0
LINE
  5
E4
  8
0
  6
BYLAYER
 62
  256
 10
12.17265533454831
 20
-48.91721036382454
 11
13.17935968883975
 21
-48.64739007623624
  0
LINE
  5
E5
  8
0
  6
BYLAYER
 62
  256
 10
13.17935968883975
 20
-48.64739007623624
 11
14.18199649136496
 21
-48.34602306435215
  0
LINE
  5
E6
  8
0
  6
BYLAYER
 62
  256
 10
14.18199649136496
 20
-48.34602306435215
 11
15.17960553480281
 21
-48.01111674041061
  0
LINE
  5
E7
  8
0
  6
BYLAYER
 62
  256
 10
15.17960553480281
 20
-48.01111674041061
 11
16.17122661183224
 21
-47.64067851664988
  0
LINE
  5
E8
  8
0
  6
BYLAYER
 62
  256
 10
16.17122661183224
 20
-47.64067851664988
 11
17.15589951513209
 21
-47.23271580530832
  0
LINE
  5
E9
  8
0
  6
BYLAYER
 62
  256
 10
17.15589951513209
 20
-47.23271580530832
 11
18.13266403738129
 21
-46.78523601862418
  0
LINE
  5
EA
  8
0
  6
BYLAYER
 62
  256
 10
18.13266403738129
 20
-46.78523601862418
 11
19.10055997125872
 21
-46.29624656883586
  0
LINE
  5
EB
  8
0
  6
BYLAYER
 62
  256
 10
19.10055997125872
 20
-46.29624656883586
 11
20.05862721258408
 21
-45.76375520867666
  0
LINE
  5
EC
  8
0
  6
BYLAYER
 62
  256
 10
20.05862721258408
 20
-45.76375520867666
 11
21.00634935894718
 21
-45.18723446773554
  0
LINE
  5
ED
  8
0
  6
BYLAYER
 62
  256
 10
21.00634935894718
 20
-45.18723446773554
 11
21.94466946588552
 21
-44.57097493215974
  0
LINE
  5
EE
  8
0
  6
BYLAYER
 62
  256
 10
21.94466946588552
 20
-44.57097493215974
 11
22.87483022236574
 21
-43.92025635726754
  0
LINE
  5
EF
  8
0
  6
BYLAYER
 62
  256
 10
22.87483022236574
 20
-43.92025635726754
 11
23.79807431735447
 21
-43.24035849837722
  0
LINE
  5
F0
  8
0
  6
BYLAYER
 62
  256
 10
23.79807431735447
 20
-43.24035849837722
 11
24.7156444398183
 21
-42.53656111080709
  0
LINE
  5
F1
  8
0
  6
BYLAYER
 62
  256
 10
24.7156444398183
 20
-42.53656111080709
 11
25.6287832787239
 21
-41.81414394987536
  0
LINE
  5
F2
  8
0
  6
BYLAYER
 62
  256
 10
25.6287832787239
 20
-41.81414394987536
 11
26.53873352303787
 21
-41.07838677090038
  0
LINE
  5
F3
  8
0
  6
BYLAYER
 62
  256
 10
26.53873352303787
 20
-41.07838677090038
 11
27.44673786172683
 21
-40.33456932920038
  0
LINE
  5
F4
  8
0
  6
BYLAYER
 62
  256
 10
27.44673786172683
 20
-40.33456932920038
 11
28.35403898375744
 21
-39.58797138009368
  0
LINE
  5
F5
  8
0
  6
BYLAYER
 62
  256
 10
28.35403898375744
 20
-39.58797138009368
 11
29.26187957809628
 21
-38.84387267889854
  0
LINE
  5
F6
  8
0
  6
BYLAYER
 62
  256
 10
29.26187957809628
 20
-38.84387267889854
 11
30.17150184581877
 21
-38.10755083675906
  0
LINE
  5
F7
  8
0
  6
BYLAYER
 62
  256
 10
30.17150184581877
 20
-38.10755083675906
 11
31.08380454714788
 21
-37.38277411824208
  0
LINE
  5
F8
  8
0
  6
BYLAYER
 62
  256
 10
31.08380454714788
 20
-37.38277411824208
 11
31.99874139102917
 21
-36.66915749659484
  0
LINE
  5
F9
  8
0
  6
BYLAYER
 62
  256
 10
31.99874139102917
 20
-36.66915749659484
 11
32.9161049413336
 21
-35.9656077481065
  0
LINE
  5
FA
  8
0
  6
BYLAYER
 62
  256
 10
32.9161049413336
 20
-35.9656077481065
 11
33.83568776193204
 21
-35.27103164906624
  0
LINE
  5
FB
  8
0
  6
BYLAYER
 62
  256
 10
33.83568776193204
 20
-35.27103164906624
 11
34.7572824166954
 21
-34.58433597576325
  0
LINE
  5
FC
  8
0
  6
BYLAYER
 62
  256
 10
34.7572824166954
 20
-34.58433597576325
 11
35.68068146949459
 21
-33.90442750448673
  0
LINE
  5
FD
  8
0
  6
BYLAYER
 62
  256
 10
35.68068146949459
 20
-33.90442750448673
 11
36.60567748420053
 21
-33.23021301152584
  0
LINE
  5
FE
  8
0
  6
BYLAYER
 62
  256
 10
36.60567748420053
 20
-33.23021301152584
 11
37.53206302468411
 21
-32.56059927316979
  0
LINE
  5
FF
  8
0
  6
BYLAYER
 62
  256
 10
37.53206302468411
 20
-32.56059927316979
 11
38.45963065481626
 21
-31.89449306570774
  0
LINE
  5
100
  8
0
  6
BYLAYER
 62
  256
 10
38.45963065481626
 20
-31.89449306570774
 11
39.38817293846785
 21
-31.2308011654289
  0
LINE
  5
101
  8
0
  6
BYLAYER
 62
  256
 10
39.38817293846785
 20
-31.2308011654289
 11
40.31748689374427
 21
-30.56845377014324
  0
LINE
  5
102
  8
0
  6
BYLAYER
 62
  256
 10
40.31748689374427
 20
-30.56845377014324
 11
41.2476077647777
 21
-29.9076337319352
  0
LINE
  5
103
  8
0
  6
BYLAYER
 62
  256
 10
41.2476077647777
 20
-29.9076337319352
 11
42.17892425699576
 21
-29.25038249411326
  0
LINE
  5
104
  8
0
  6
BYLAYER
 62
  256
 10
42.17892425699576
 20
-29.25038249411326
 11
43.11185370777189
 21
-28.59889205418724
  0
LINE
  5
105
  8
0
  6
BYLAYER
 62
  256
 10
43.11185370777189
 20
-28.59889205418724
 11
44.04681345447952
 21
-27.95535440966704
  0
LINE
  5
106
  8
0
  6
BYLAYER
 62
  256
 10
44.04681345447952
 20
-27.95535440966704
 11
44.98422083449204
 21
-27.32196155806248
  0
LINE
  5
107
  8
0
  6
BYLAYER
 62
  256
 10
44.98422083449204
 20
-27.32196155806248
 11
45.92449318518288
 21
-26.70090549688342
  0
LINE
  5
108
  8
0
  6
BYLAYER
 62
  256
 10
45.92449318518288
 20
-26.70090549688342
 11
46.86804784392547
 21
-26.0943782236397
  0
LINE
  5
109
  8
0
  6
BYLAYER
 62
  256
 10
46.86804784392547
 20
-26.0943782236397
 11
47.81530214809317
 21
-25.50457173584118
  0
LINE
  5
10A
  8
0
  6
BYLAYER
 62
  256
 10
47.81530214809317
 20
-25.50457173584118
 11
48.76667343505945
 21
-24.9336780309977
  0
LINE
  5
10B
  8
0
  6
BYLAYER
 62
  256
 10
48.76667343505945
 20
-24.9336780309977
 11
49.72257904219767
 21
-24.3838891066191
  0
LINE
  5
10C
  8
0
  6
BYLAYER
 62
  256
 10
49.72257904219767
 20
-24.3838891066191
 11
50.68339252409986
 21
-23.85718665165238
  0
LINE
  5
10D
  8
0
  6
BYLAYER
 62
  256
 10
50.68339252409986
 20
-23.85718665165238
 11
51.64895810847738
 21
-23.35300975788842
  0
LINE
  5
10E
  8
0
  6
BYLAYER
 62
  256
 10
51.64895810847738
 20
-23.35300975788842
 11
52.61876860270517
 21
-22.86910948580756
  0
LINE
  5
10F
  8
0
  6
BYLAYER
 62
  256
 10
52.61876860270517
 20
-22.86910948580756
 11
53.59231049494204
 21
-22.40320654182786
  0
LINE
  5
110
  8
0
  6
BYLAYER
 62
  256
 10
53.59231049494204
 20
-22.40320654182786
 11
54.56907027334676
 21
-21.95302163236738
  0
LINE
  5
111
  8
0
  6
BYLAYER
 62
  256
 10
54.56907027334676
 20
-21.95302163236738
 11
55.54853442607812
 21
-21.51627546384424
  0
LINE
  5
112
  8
0
  6
BYLAYER
 62
  256
 10
55.54853442607812
 20
-21.51627546384424
 11
56.53018944129487
 21
-21.09068874267646
  0
LINE
  5
113
  8
0
  6
BYLAYER
 62
  256
 10
56.53018944129487
 20
-21.09068874267646
 11
57.51352180715582
 21
-20.67398217528216
  0
LINE
  5
114
  8
0
  6
BYLAYER
 62
  256
 10
57.51352180715582
 20
-20.67398217528216
 11
58.49801801181972
 21
-20.2638764680794
  0
LINE
  5
115
  8
0
  6
BYLAYER
 62
  256
 10
58.49801801181972
 20
-20.2638764680794
 11
59.48316454344537
 21
-19.85809232748625
  0
LINE
  5
116
  8
0
  6
BYLAYER
 62
  256
 10
59.48316454344537
 20
-19.85809232748625
 11
60.46845246166691
 21
-19.45437011090943
  0
LINE
  5
117
  8
0
  6
BYLAYER
 62
  256
 10
60.46845246166691
 20
-19.45437011090943
 11
61.45359954275027
 21
-19.05142474207966
  0
LINE
  5
118
  8
0
  6
BYLAYER
 62
  256
 10
61.45359954275027
 20
-19.05142474207966
 11
62.43865004943786
 21
-18.64937458267983
  0
LINE
  5
119
  8
0
  6
BYLAYER
 62
  256
 10
62.43865004943786
 20
-18.64937458267983
 11
63.42367360557702
 21
-18.2484470118851
  0
LINE
  5
11A
  8
0
  6
BYLAYER
 62
  256
 10
63.42367360557702
 20
-18.2484470118851
 11
64.40873983501491
 21
-17.84886940887059
  0
LINE
  5
11B
  8
0
  6
BYLAYER
 62
  256
 10
64.40873983501491
 20
-17.84886940887059
 11
65.39391836159886
 21
-17.45086915281147
  0
LINE
  5
11C
  8
0
  6
BYLAYER
 62
  256
 10
65.39391836159886
 20
-17.45086915281147
 11
66.37927880917611
 21
-17.05467362288286
  0
LINE
  5
11D
  8
0
  6
BYLAYER
 62
  256
 10
66.37927880917611
 20
-17.05467362288286
 11
67.36489080159393
 21
-16.6605101982599
  0
LINE
  5
11E
  8
0
  6
BYLAYER
 62
  256
 10
67.36489080159393
 20
-16.6605101982599
 11
68.35082396269952
 21
-16.26860625811774
  0
LINE
  5
11F
  8
0
  6
BYLAYER
 62
  256
 10
68.35082396269952
 20
-16.26860625811774
 11
69.33714791634024
 21
-15.87918918163152
  0
LINE
  5
120
  8
0
  6
BYLAYER
 62
  256
 10
69.33714791634024
 20
-15.87918918163152
 11
70.32393179426506
 21
-15.49248416087999
  0
LINE
  5
121
  8
0
  6
BYLAYER
 62
  256
 10
70.32393179426506
 20
-15.49248416087999
 11
71.31119919533205
 21
-15.10851402013095
  0
LINE
  5
122
  8
0
  6
BYLAYER
 62
  256
 10
71.31119919533205
 20
-15.10851402013095
 11
72.298891969702
 21
-14.72693825717662
  0
LINE
  5
123
  8
0
  6
BYLAYER
 62
  256
 10
72.298891969702
 20
-14.72693825717662
 11
73.28694344516312
 21
-14.34737849270836
  0
LINE
  5
124
  8
0
  6
BYLAYER
 62
  256
 10
73.28694344516312
 20
-14.34737849270836
 11
74.27528694950348
 21
-13.9694563474175
  0
LINE
  5
125
  8
0
  6
BYLAYER
 62
  256
 10
74.27528694950348
 20
-13.9694563474175
 11
75.26385581051125
 21
-13.59279344199538
  0
LINE
  5
126
  8
0
  6
BYLAYER
 62
  256
 10
75.26385581051125
 20
-13.59279344199538
 11
76.25258335597459
 21
-13.21701139713334
  0
LINE
  5
127
  8
0
  6
BYLAYER
 62
  256
 10
76.25258335597459
 20
-13.21701139713334
 11
77.24140291368161
 21
-12.84173183352273
  0
LINE
  5
128
  8
0
  6
BYLAYER
 62
  256
 10
77.24140291368161
 20
-12.84173183352273
 11
78.23024781142043
 21
-12.46657637185488
  0
LINE
  5
129
  8
0
  6
BYLAYER
 62
  256
 10
78.23024781142043
 20
-12.46657637185488
 11
79.21905137697927
 21
-12.09116663282115
  0
LINE
  5
12A
  8
0
  6
BYLAYER
 62
  256
 10
79.21905137697927
 20
-12.09116663282115
 11
80.20774712025487
 21
-11.71512529310155
  0
LINE
  5
12B
  8
0
  6
BYLAYER
 62
  256
 10
80.20774712025487
 20
-11.71512529310155
 11
81.19629704998739
 21
-11.33824028478615
  0
LINE
  5
12C
  8
0
  6
BYLAYER
 62
  256
 10
81.19629704998739
 20
-11.33824028478615
 11
82.18472239425913
 21
-10.96064293343796
  0
LINE
  5
12D
  8
0
  6
BYLAYER
 62
  256
 10
82.18472239425913
 20
-10.96064293343796
 11
83.17305175828861
 21
-10.58250734220413
  0
LINE
  5
12E
  8
0
  6
BYLAYER
 62
  256
 10
83.17305175828861
 20
-10.58250734220413
 11
84.16131374729423
 21
-10.20400761423182
  0
LINE
  5
12F
  8
0
  6
BYLAYER
 62
  256
 10
84.16131374729423
 20
-10.20400761423182
 11
85.14953696649468
 21
-9.82531785266818
  0
LINE
  5
130
  8
0
  6
BYLAYER
 62
  256
 10
85.14953696649468
 20
-9.82531785266818
 11
86.13775002110836
 21
-9.446612160660367
  0
LINE
  5
131
  8
0
  6
BYLAYER
 62
  256
 10
86.13775002110836
 20
-9.446612160660367
 11
87.12598151635383
 21
-9.06806464135553
  0
LINE
  5
132
  8
0
  6
BYLAYER
 62
  256
 10
87.12598151635383
 20
-9.06806464135553
 11
88.11426005744956
 21
-8.689849397900828
  0
LINE
  5
133
  8
0
  6
BYLAYER
 62
  256
 10
88.11426005744956
 20
-8.689849397900828
 11
89.10261424961413
 21
-8.312140533443415
  0
LINE
  5
134
  8
0
  6
BYLAYER
 62
  256
 10
89.10261424961413
 20
-8.312140533443415
 11
90.09107266560913
 21
-7.935111954199634
  0
LINE
  5
135
  8
0
  6
BYLAYER
 62
  256
 10
90.09107266560913
 20
-7.935111954199634
 11
91.07965377801874
 21
-7.558876283889629
  0
LINE
  5
136
  8
0
  6
BYLAYER
 62
  256
 10
91.07965377801874
 20
-7.558876283889629
 11
92.06835169032898
 21
-7.183398287530753
  0
LINE
  5
137
  8
0
  6
BYLAYER
 62
  256
 10
92.06835169032898
 20
-7.183398287530753
 11
93.05715690432963
 21
-6.808620876965502
  0
LINE
  5
138
  8
0
  6
BYLAYER
 62
  256
 10
93.05715690432963
 20
-6.808620876965502
 11
94.04605992181038
 21
-6.434486964036373
  0
LINE
  5
139
  8
0
  6
BYLAYER
 62
  256
 10
94.04605992181038
 20
-6.434486964036373
 11
95.03505124456088
 21
-6.060939460585864
  0
LINE
  5
13A
  8
0
  6
BYLAYER
 62
  256
 10
95.03505124456088
 20
-6.060939460585864
 11
96.02412137437094
 21
-5.687921278456472
  0
LINE
  5
13B
  8
0
  6
BYLAYER
 62
  256
 10
96.02412137437094
 20
-5.687921278456472
 11
97.01326081303014
 21
-5.315375329490696
  0
LINE
  5
13C
  8
0
  6
BYLAYER
 62
  256
 10
97.01326081303014
 20
-5.315375329490696
 11
98.00246006232827
 21
-4.943244525531028
  0
LINE
  5
13D
  8
0
  6
BYLAYER
 62
  256
 10
98.00246006232827
 20
-4.943244525531028
 11
98.99170962405496
 21
-4.571471778419966
  0
LINE
  5
13E
  8
0
  6
BYLAYER
 62
  256
 10
98.99170962405496
 20
-4.571471778419966
 11
99.98099999999999
 21
-4.2
  0
LINE
  5
13F
  8
0
  6
BYLAYER
 62
  256
 10
99.98099999999999
 20
-4.2
 11
99.98099999999999
 21
0
  0
INSERT
  5
140
  8
MEASURES
  6
BYLAYER
 62
  256
  2
*D7
 10
0
 20
0
 30
0
 41
1
 42
1
 43
1
 50
0
 70
    1
 71
    1
 44
0
 45
0
  0
INSERT
  5
141
  8
MEASURES
  6
BYLAYER
 62
  256
  2
*D8
 10
0
 20
0
 30
0
 41
1
 42
1
 43
1
 50
0
 70
    1
 71
    1
 44
0
 45
0
  0
INSERT
  5
142
  8
MEASURES
  6
BYLAYER
 62
  256
  2
*D9
 10
0
 20
0
 30
0
 41
1
 42
1
 43
1
 50
0
 70
    1
 71
    1
 44
0
 45
0
  0
ENDSEC
  0
EOF
