solid OpenSCAD_Model
  facet normal 0 1 -0
    outer loop
      vertex 0.789986 -22.62 30
      vertex -0.79 -22.62 32.39
      vertex 0.789986 -22.62 32.39
    endloop
  endfacet
  facet normal 0 1 0
    outer loop
      vertex -0.79 -22.62 32.39
      vertex 0.789986 -22.62 30
      vertex -0.79 -22.62 30
    endloop
  endfacet
  facet normal 0 1 0
    outer loop
      vertex 0.789986 -22.62 32.39
      vertex 1.57999 -22.62 33.96
      vertex 2.36999 -22.62 33.17
    endloop
  endfacet
  facet normal 0 1 0
    outer loop
      vertex -0.79 -22.62 32.39
      vertex 1.57999 -22.62 33.96
      vertex 0.789986 -22.62 32.39
    endloop
  endfacet
  facet normal 0 1 0
    outer loop
      vertex 0.789986 -22.62 32.39
      vertex 2.36999 -22.62 33.17
      vertex 2.36999 -22.62 32.39
    endloop
  endfacet
  facet normal 0 1 0
    outer loop
      vertex 1.57999 -22.62 33.96
      vertex -0.79 -22.62 32.39
      vertex -1.6 -22.62 33.96
    endloop
  endfacet
  facet normal 0 1 0
    outer loop
      vertex -1.6 -22.62 33.96
      vertex -0.79 -22.62 32.39
      vertex -2.36999 -22.62 33.17
    endloop
  endfacet
  facet normal 0 1 0
    outer loop
      vertex -2.36999 -22.62 33.17
      vertex -0.79 -22.62 32.39
      vertex -2.36999 -22.62 32.39
    endloop
  endfacet
  facet normal 0 -1 0
    outer loop
      vertex -0.79 -27.38 30
      vertex 0.789986 -27.38 32.39
      vertex -0.79 -27.38 32.39
    endloop
  endfacet
  facet normal 0 -1 -0
    outer loop
      vertex 0.789986 -27.38 32.39
      vertex -0.79 -27.38 30
      vertex 0.789986 -27.38 30
    endloop
  endfacet
  facet normal 0 -1 0
    outer loop
      vertex -0.79 -27.38 32.39
      vertex -1.6 -27.38 33.96
      vertex -2.36999 -27.38 33.17
    endloop
  endfacet
  facet normal 0 -1 0
    outer loop
      vertex -1.6 -27.38 33.96
      vertex -0.79 -27.38 32.39
      vertex 1.57999 -27.38 33.96
    endloop
  endfacet
  facet normal 0 -1 0
    outer loop
      vertex -0.79 -27.38 32.39
      vertex -2.36999 -27.38 33.17
      vertex -2.36999 -27.38 32.39
    endloop
  endfacet
  facet normal 0 -1 0
    outer loop
      vertex 0.789986 -27.38 32.39
      vertex 1.57999 -27.38 33.96
      vertex -0.79 -27.38 32.39
    endloop
  endfacet
  facet normal 0 -1 -0
    outer loop
      vertex 1.57999 -27.38 33.96
      vertex 0.789986 -27.38 32.39
      vertex 2.36999 -27.38 33.17
    endloop
  endfacet
  facet normal 0 -1 -0
    outer loop
      vertex 2.36999 -27.38 33.17
      vertex 0.789986 -27.38 32.39
      vertex 2.36999 -27.38 32.39
    endloop
  endfacet
  facet normal 0 0 -1
    outer loop
      vertex 0.789986 -27.38 32.39
      vertex 2.36999 -22.62 32.39
      vertex 2.36999 -27.38 32.39
    endloop
  endfacet
  facet normal -0 0 -1
    outer loop
      vertex 2.36999 -22.62 32.39
      vertex 0.789986 -27.38 32.39
      vertex 0.789986 -22.62 32.39
    endloop
  endfacet
  facet normal 1 -0 0
    outer loop
      vertex 2.36999 -27.38 33.17
      vertex 2.36999 -22.62 32.39
      vertex 2.36999 -22.62 33.17
    endloop
  endfacet
  facet normal 1 0 0
    outer loop
      vertex 2.36999 -22.62 32.39
      vertex 2.36999 -27.38 33.17
      vertex 2.36999 -27.38 32.39
    endloop
  endfacet
  facet normal 0.707107 -0 0.707107
    outer loop
      vertex 1.57999 -27.38 33.96
      vertex 2.36999 -22.62 33.17
      vertex 1.57999 -22.62 33.96
    endloop
  endfacet
  facet normal 0.707107 0 0.707107
    outer loop
      vertex 2.36999 -22.62 33.17
      vertex 1.57999 -27.38 33.96
      vertex 2.36999 -27.38 33.17
    endloop
  endfacet
  facet normal -0 0 1
    outer loop
      vertex -1.6 -22.62 33.96
      vertex 1.57999 -27.38 33.96
      vertex 1.57999 -22.62 33.96
    endloop
  endfacet
  facet normal 0 0 1
    outer loop
      vertex 1.57999 -27.38 33.96
      vertex -1.6 -22.62 33.96
      vertex -1.6 -27.38 33.96
    endloop
  endfacet
  facet normal -0.716115 0 0.697982
    outer loop
      vertex -2.36999 -27.38 33.17
      vertex -1.6 -22.62 33.96
      vertex -2.36999 -22.62 33.17
    endloop
  endfacet
  facet normal -0.716115 0 0.697982
    outer loop
      vertex -1.6 -22.62 33.96
      vertex -2.36999 -27.38 33.17
      vertex -1.6 -27.38 33.96
    endloop
  endfacet
  facet normal -1 0 0
    outer loop
      vertex -2.36999 -27.38 32.39
      vertex -2.36999 -22.62 33.17
      vertex -2.36999 -22.62 32.39
    endloop
  endfacet
  facet normal -1 -0 0
    outer loop
      vertex -2.36999 -22.62 33.17
      vertex -2.36999 -27.38 32.39
      vertex -2.36999 -27.38 33.17
    endloop
  endfacet
  facet normal 0 0 -1
    outer loop
      vertex -2.36999 -27.38 32.39
      vertex -0.79 -22.62 32.39
      vertex -0.79 -27.38 32.39
    endloop
  endfacet
  facet normal -0 0 -1
    outer loop
      vertex -0.79 -22.62 32.39
      vertex -2.36999 -27.38 32.39
      vertex -2.36999 -22.62 32.39
    endloop
  endfacet
  facet normal -1 0 0
    outer loop
      vertex -0.79 -27.38 30
      vertex -0.79 -22.62 32.39
      vertex -0.79 -22.62 30
    endloop
  endfacet
  facet normal -1 -0 0
    outer loop
      vertex -0.79 -22.62 32.39
      vertex -0.79 -27.38 30
      vertex -0.79 -27.38 32.39
    endloop
  endfacet
  facet normal 1 -0 0
    outer loop
      vertex 0.789986 -27.38 32.39
      vertex 0.789986 -22.62 30
      vertex 0.789986 -22.62 32.39
    endloop
  endfacet
  facet normal 1 0 0
    outer loop
      vertex 0.789986 -22.62 30
      vertex 0.789986 -27.38 32.39
      vertex 0.789986 -27.38 30
    endloop
  endfacet
  facet normal 0 1 -0
    outer loop
      vertex 0.789986 27.38 30
      vertex -0.79 27.38 32.39
      vertex 0.789986 27.38 32.39
    endloop
  endfacet
  facet normal 0 1 0
    outer loop
      vertex -0.79 27.38 32.39
      vertex 0.789986 27.38 30
      vertex -0.79 27.38 30
    endloop
  endfacet
  facet normal 0 1 0
    outer loop
      vertex 0.789986 27.38 32.39
      vertex 1.57999 27.38 33.96
      vertex 2.36999 27.38 33.17
    endloop
  endfacet
  facet normal 0 1 0
    outer loop
      vertex -0.79 27.38 32.39
      vertex 1.57999 27.38 33.96
      vertex 0.789986 27.38 32.39
    endloop
  endfacet
  facet normal 0 1 0
    outer loop
      vertex 0.789986 27.38 32.39
      vertex 2.36999 27.38 33.17
      vertex 2.36999 27.38 32.39
    endloop
  endfacet
  facet normal 0 1 0
    outer loop
      vertex 1.57999 27.38 33.96
      vertex -0.79 27.38 32.39
      vertex -1.6 27.38 33.96
    endloop
  endfacet
  facet normal 0 1 0
    outer loop
      vertex -1.6 27.38 33.96
      vertex -0.79 27.38 32.39
      vertex -2.36999 27.38 33.17
    endloop
  endfacet
  facet normal 0 1 0
    outer loop
      vertex -2.36999 27.38 33.17
      vertex -0.79 27.38 32.39
      vertex -2.36999 27.38 32.39
    endloop
  endfacet
  facet normal 0 -1 0
    outer loop
      vertex -0.79 22.62 30
      vertex 0.789986 22.62 32.39
      vertex -0.79 22.62 32.39
    endloop
  endfacet
  facet normal 0 -1 -0
    outer loop
      vertex 0.789986 22.62 32.39
      vertex -0.79 22.62 30
      vertex 0.789986 22.62 30
    endloop
  endfacet
  facet normal 0 -1 0
    outer loop
      vertex -0.79 22.62 32.39
      vertex -1.6 22.62 33.96
      vertex -2.36999 22.62 33.17
    endloop
  endfacet
  facet normal 0 -1 0
    outer loop
      vertex -1.6 22.62 33.96
      vertex -0.79 22.62 32.39
      vertex 1.57999 22.62 33.96
    endloop
  endfacet
  facet normal 0 -1 0
    outer loop
      vertex -0.79 22.62 32.39
      vertex -2.36999 22.62 33.17
      vertex -2.36999 22.62 32.39
    endloop
  endfacet
  facet normal 0 -1 0
    outer loop
      vertex 0.789986 22.62 32.39
      vertex 1.57999 22.62 33.96
      vertex -0.79 22.62 32.39
    endloop
  endfacet
  facet normal 0 -1 -0
    outer loop
      vertex 1.57999 22.62 33.96
      vertex 0.789986 22.62 32.39
      vertex 2.36999 22.62 33.17
    endloop
  endfacet
  facet normal 0 -1 -0
    outer loop
      vertex 2.36999 22.62 33.17
      vertex 0.789986 22.62 32.39
      vertex 2.36999 22.62 32.39
    endloop
  endfacet
  facet normal 0 0 -1
    outer loop
      vertex 0.789986 22.62 32.39
      vertex 2.36999 27.38 32.39
      vertex 2.36999 22.62 32.39
    endloop
  endfacet
  facet normal -0 0 -1
    outer loop
      vertex 2.36999 27.38 32.39
      vertex 0.789986 22.62 32.39
      vertex 0.789986 27.38 32.39
    endloop
  endfacet
  facet normal 1 -0 0
    outer loop
      vertex 2.36999 22.62 33.17
      vertex 2.36999 27.38 32.39
      vertex 2.36999 27.38 33.17
    endloop
  endfacet
  facet normal 1 0 0
    outer loop
      vertex 2.36999 27.38 32.39
      vertex 2.36999 22.62 33.17
      vertex 2.36999 22.62 32.39
    endloop
  endfacet
  facet normal 0.707107 -0 0.707107
    outer loop
      vertex 1.57999 22.62 33.96
      vertex 2.36999 27.38 33.17
      vertex 1.57999 27.38 33.96
    endloop
  endfacet
  facet normal 0.707107 0 0.707107
    outer loop
      vertex 2.36999 27.38 33.17
      vertex 1.57999 22.62 33.96
      vertex 2.36999 22.62 33.17
    endloop
  endfacet
  facet normal -0 0 1
    outer loop
      vertex -1.6 27.38 33.96
      vertex 1.57999 22.62 33.96
      vertex 1.57999 27.38 33.96
    endloop
  endfacet
  facet normal 0 0 1
    outer loop
      vertex 1.57999 22.62 33.96
      vertex -1.6 27.38 33.96
      vertex -1.6 22.62 33.96
    endloop
  endfacet
  facet normal -0.716115 0 0.697982
    outer loop
      vertex -2.36999 22.62 33.17
      vertex -1.6 27.38 33.96
      vertex -2.36999 27.38 33.17
    endloop
  endfacet
  facet normal -0.716115 0 0.697982
    outer loop
      vertex -1.6 27.38 33.96
      vertex -2.36999 22.62 33.17
      vertex -1.6 22.62 33.96
    endloop
  endfacet
  facet normal -1 0 0
    outer loop
      vertex -2.36999 22.62 32.39
      vertex -2.36999 27.38 33.17
      vertex -2.36999 27.38 32.39
    endloop
  endfacet
  facet normal -1 -0 0
    outer loop
      vertex -2.36999 27.38 33.17
      vertex -2.36999 22.62 32.39
      vertex -2.36999 22.62 33.17
    endloop
  endfacet
  facet normal 0 0 -1
    outer loop
      vertex -2.36999 22.62 32.39
      vertex -0.79 27.38 32.39
      vertex -0.79 22.62 32.39
    endloop
  endfacet
  facet normal -0 0 -1
    outer loop
      vertex -0.79 27.38 32.39
      vertex -2.36999 22.62 32.39
      vertex -2.36999 27.38 32.39
    endloop
  endfacet
  facet normal -1 0 0
    outer loop
      vertex -0.79 22.62 30
      vertex -0.79 27.38 32.39
      vertex -0.79 27.38 30
    endloop
  endfacet
  facet normal -1 -0 0
    outer loop
      vertex -0.79 27.38 32.39
      vertex -0.79 22.62 30
      vertex -0.79 22.62 32.39
    endloop
  endfacet
  facet normal 1 -0 0
    outer loop
      vertex 0.789986 22.62 32.39
      vertex 0.789986 27.38 30
      vertex 0.789986 27.38 32.39
    endloop
  endfacet
  facet normal 1 0 0
    outer loop
      vertex 0.789986 27.38 30
      vertex 0.789986 22.62 32.39
      vertex 0.789986 22.62 30
    endloop
  endfacet
  facet normal 0.999507 0.0314119 0
    outer loop
      vertex 4.74 32 30
      vertex 4.73065 32.2976 0
      vertex 4.73065 32.2976 30
    endloop
  endfacet
  facet normal 0.999507 0.0314119 0
    outer loop
      vertex 4.73065 32.2976 0
      vertex 4.74 32 30
      vertex 4.74 32 0
    endloop
  endfacet
  facet normal -1 0 0
    outer loop
      vertex -4.74 -32 0
      vertex -4.74 32 30
      vertex -4.74 32 0
    endloop
  endfacet
  facet normal -1 -0 0
    outer loop
      vertex -4.74 32 30
      vertex -4.74 -32 0
      vertex -4.74 -32 30
    endloop
  endfacet
  facet normal -0.0314119 0.999507 0
    outer loop
      vertex 0 36.74 0
      vertex -0.297626 36.7306 30
      vertex 0 36.74 30
    endloop
  endfacet
  facet normal -0.0314119 0.999507 0
    outer loop
      vertex -0.297626 36.7306 30
      vertex 0 36.74 0
      vertex -0.297626 36.7306 0
    endloop
  endfacet
  facet normal -0 0 1
    outer loop
      vertex -0.79 22.62 30
      vertex 0.789986 -22.62 30
      vertex 0.789986 22.62 30
    endloop
  endfacet
  facet normal 0 0 1
    outer loop
      vertex 0.789986 -22.62 30
      vertex -0.79 22.62 30
      vertex -0.79 -22.62 30
    endloop
  endfacet
  facet normal 0 0 1
    outer loop
      vertex 0.789986 27.38 30
      vertex 4.74 32 30
      vertex 4.73065 32.2976 30
    endloop
  endfacet
  facet normal 0 0 1
    outer loop
      vertex 4.74 32 30
      vertex 0.789986 22.62 30
      vertex 4.74 -32 30
    endloop
  endfacet
  facet normal 0 0 1
    outer loop
      vertex 0.789986 27.38 30
      vertex 4.73065 32.2976 30
      vertex 4.70262 32.5941 30
    endloop
  endfacet
  facet normal -0 0 1
    outer loop
      vertex 0.789986 -22.62 30
      vertex 4.74 -32 30
      vertex 0.789986 22.62 30
    endloop
  endfacet
  facet normal 0 0 1
    outer loop
      vertex 0.789986 27.38 30
      vertex 4.70262 32.5941 30
      vertex 4.65604 32.8882 30
    endloop
  endfacet
  facet normal -0 0 1
    outer loop
      vertex 0.789986 -27.38 30
      vertex 4.74 -32 30
      vertex 0.789986 -22.62 30
    endloop
  endfacet
  facet normal 0 0 1
    outer loop
      vertex 0.789986 27.38 30
      vertex 4.65604 32.8882 30
      vertex 4.59108 33.1788 30
    endloop
  endfacet
  facet normal 0 0 1
    outer loop
      vertex 4.74 -32 30
      vertex 0.789986 -27.38 30
      vertex 4.73065 -32.2976 30
    endloop
  endfacet
  facet normal 0 0 1
    outer loop
      vertex 0.789986 27.38 30
      vertex 4.59108 33.1788 30
      vertex 4.50801 33.4647 30
    endloop
  endfacet
  facet normal 0 0 1
    outer loop
      vertex 4.73065 -32.2976 30
      vertex 0.789986 -27.38 30
      vertex 4.70262 -32.5941 30
    endloop
  endfacet
  facet normal 0 0 1
    outer loop
      vertex 0.789986 27.38 30
      vertex 4.50801 33.4647 30
      vertex 4.40714 33.7449 30
    endloop
  endfacet
  facet normal 0 0 1
    outer loop
      vertex 4.70262 -32.5941 30
      vertex 0.789986 -27.38 30
      vertex 4.65604 -32.8882 30
    endloop
  endfacet
  facet normal 0 0 1
    outer loop
      vertex 0.789986 27.38 30
      vertex 4.40714 33.7449 30
      vertex 4.28888 34.0182 30
    endloop
  endfacet
  facet normal 0 0 1
    outer loop
      vertex 4.65604 -32.8882 30
      vertex 0.789986 -27.38 30
      vertex 4.59108 -33.1788 30
    endloop
  endfacet
  facet normal 0 0 1
    outer loop
      vertex 0.789986 27.38 30
      vertex 4.28888 34.0182 30
      vertex 4.15369 34.2835 30
    endloop
  endfacet
  facet normal 0 0 1
    outer loop
      vertex 4.59108 -33.1788 30
      vertex 0.789986 -27.38 30
      vertex 4.50801 -33.4647 30
    endloop
  endfacet
  facet normal 0 0 1
    outer loop
      vertex 0.789986 27.38 30
      vertex 4.15369 34.2835 30
      vertex 4.00211 34.5398 30
    endloop
  endfacet
  facet normal 0 0 1
    outer loop
      vertex 4.50801 -33.4647 30
      vertex 0.789986 -27.38 30
      vertex 4.40714 -33.7449 30
    endloop
  endfacet
  facet normal 0 0 1
    outer loop
      vertex 0.789986 27.38 30
      vertex 4.00211 34.5398 30
      vertex 3.83474 34.7861 30
    endloop
  endfacet
  facet normal 0 0 1
    outer loop
      vertex 4.40714 -33.7449 30
      vertex 0.789986 -27.38 30
      vertex 4.28888 -34.0182 30
    endloop
  endfacet
  facet normal 0 0 1
    outer loop
      vertex 0.789986 27.38 30
      vertex 3.83474 34.7861 30
      vertex 3.65223 35.0214 30
    endloop
  endfacet
  facet normal 0 0 1
    outer loop
      vertex 4.28888 -34.0182 30
      vertex 0.789986 -27.38 30
      vertex 4.15369 -34.2835 30
    endloop
  endfacet
  facet normal 0 0 1
    outer loop
      vertex 0.789986 27.38 30
      vertex 3.65223 35.0214 30
      vertex 3.45531 35.2448 30
    endloop
  endfacet
  facet normal 0 0 1
    outer loop
      vertex 4.15369 -34.2835 30
      vertex 0.789986 -27.38 30
      vertex 4.00211 -34.5398 30
    endloop
  endfacet
  facet normal 0 0 1
    outer loop
      vertex 0.789986 27.38 30
      vertex 3.45531 35.2448 30
      vertex 3.24475 35.4553 30
    endloop
  endfacet
  facet normal 0 0 1
    outer loop
      vertex 4.00211 -34.5398 30
      vertex 0.789986 -27.38 30
      vertex 3.83474 -34.7861 30
    endloop
  endfacet
  facet normal 0 0 1
    outer loop
      vertex 0.789986 27.38 30
      vertex 3.24475 35.4553 30
      vertex 3.02139 35.6522 30
    endloop
  endfacet
  facet normal 0 0 1
    outer loop
      vertex 3.83474 -34.7861 30
      vertex 0.789986 -27.38 30
      vertex 3.65223 -35.0214 30
    endloop
  endfacet
  facet normal 0 0 1
    outer loop
      vertex 0.789986 27.38 30
      vertex 3.02139 35.6522 30
      vertex 2.7861 35.8347 30
    endloop
  endfacet
  facet normal 0 0 1
    outer loop
      vertex 3.65223 -35.0214 30
      vertex 0.789986 -27.38 30
      vertex 3.45531 -35.2448 30
    endloop
  endfacet
  facet normal 0 0 1
    outer loop
      vertex 0.789986 27.38 30
      vertex 2.7861 35.8347 30
      vertex 2.53982 36.0021 30
    endloop
  endfacet
  facet normal 0 0 1
    outer loop
      vertex 3.45531 -35.2448 30
      vertex 0.789986 -27.38 30
      vertex 3.24475 -35.4553 30
    endloop
  endfacet
  facet normal 0 0 1
    outer loop
      vertex 0.789986 27.38 30
      vertex 2.53982 36.0021 30
      vertex 2.28351 36.1537 30
    endloop
  endfacet
  facet normal 0 0 1
    outer loop
      vertex 3.24475 -35.4553 30
      vertex 0.789986 -27.38 30
      vertex 3.02139 -35.6522 30
    endloop
  endfacet
  facet normal 0 0 1
    outer loop
      vertex 0.789986 27.38 30
      vertex 2.28351 36.1537 30
      vertex 2.01819 36.2889 30
    endloop
  endfacet
  facet normal 0 0 1
    outer loop
      vertex 3.02139 -35.6522 30
      vertex 0.789986 -27.38 30
      vertex 2.7861 -35.8347 30
    endloop
  endfacet
  facet normal 0 0 1
    outer loop
      vertex 0.789986 27.38 30
      vertex 2.01819 36.2889 30
      vertex 1.74491 36.4071 30
    endloop
  endfacet
  facet normal 0 0 1
    outer loop
      vertex 2.7861 -35.8347 30
      vertex 0.789986 -27.38 30
      vertex 2.53982 -36.0021 30
    endloop
  endfacet
  facet normal 0 0 1
    outer loop
      vertex 0.789986 27.38 30
      vertex 1.74491 36.4071 30
      vertex 1.46474 36.508 30
    endloop
  endfacet
  facet normal 0 0 1
    outer loop
      vertex 2.53982 -36.0021 30
      vertex 0.789986 -27.38 30
      vertex 2.28351 -36.1537 30
    endloop
  endfacet
  facet normal 0 0 1
    outer loop
      vertex 0.789986 27.38 30
      vertex 1.46474 36.508 30
      vertex 1.17879 36.5911 30
    endloop
  endfacet
  facet normal 0 0 1
    outer loop
      vertex 2.28351 -36.1537 30
      vertex 0.789986 -27.38 30
      vertex 2.01819 -36.2889 30
    endloop
  endfacet
  facet normal 0 0 1
    outer loop
      vertex 0.789986 27.38 30
      vertex 1.17879 36.5911 30
      vertex 0.888187 36.656 30
    endloop
  endfacet
  facet normal 0 0 1
    outer loop
      vertex 4.74 32 30
      vertex 0.789986 27.38 30
      vertex 0.789986 22.62 30
    endloop
  endfacet
  facet normal 0 0 1
    outer loop
      vertex 2.01819 -36.2889 30
      vertex 0.789986 -27.38 30
      vertex 1.74491 -36.4071 30
    endloop
  endfacet
  facet normal 0 0 1
    outer loop
      vertex 0.594079 36.7026 30
      vertex 0.789986 27.38 30
      vertex 0.888187 36.656 30
    endloop
  endfacet
  facet normal 0 0 1
    outer loop
      vertex 0.297626 36.7306 30
      vertex 0.789986 27.38 30
      vertex 0.594079 36.7026 30
    endloop
  endfacet
  facet normal 0 0 1
    outer loop
      vertex 0 36.74 30
      vertex 0.789986 27.38 30
      vertex 0.297626 36.7306 30
    endloop
  endfacet
  facet normal -0 0 1
    outer loop
      vertex -0.297626 36.7306 30
      vertex 0.789986 27.38 30
      vertex 0 36.74 30
    endloop
  endfacet
  facet normal -0 0 1
    outer loop
      vertex -0.594079 36.7026 30
      vertex 0.789986 27.38 30
      vertex -0.297626 36.7306 30
    endloop
  endfacet
  facet normal 0 0 1
    outer loop
      vertex -0.594079 36.7026 30
      vertex -0.79 27.38 30
      vertex 0.789986 27.38 30
    endloop
  endfacet
  facet normal 0 0 1
    outer loop
      vertex -4.74 32 30
      vertex -0.79 22.62 30
      vertex -0.79 27.38 30
    endloop
  endfacet
  facet normal 0 0 1
    outer loop
      vertex -0.79 22.62 30
      vertex -4.74 32 30
      vertex -0.79 -22.62 30
    endloop
  endfacet
  facet normal -0 0 1
    outer loop
      vertex -4.74 32 30
      vertex -0.79 27.38 30
      vertex -0.888187 36.656 30
    endloop
  endfacet
  facet normal -0 0 1
    outer loop
      vertex -0.888187 36.656 30
      vertex -0.79 27.38 30
      vertex -0.594079 36.7026 30
    endloop
  endfacet
  facet normal 0 0 1
    outer loop
      vertex 1.74491 -36.4071 30
      vertex 0.789986 -27.38 30
      vertex 1.46474 -36.508 30
    endloop
  endfacet
  facet normal 0 0 1
    outer loop
      vertex 1.46474 -36.508 30
      vertex 0.789986 -27.38 30
      vertex 1.17879 -36.5911 30
    endloop
  endfacet
  facet normal 0 0 1
    outer loop
      vertex 1.17879 -36.5911 30
      vertex 0.789986 -27.38 30
      vertex 0.888187 -36.656 30
    endloop
  endfacet
  facet normal 0 0 1
    outer loop
      vertex 0.789986 -27.38 30
      vertex 0.594079 -36.7026 30
      vertex 0.888187 -36.656 30
    endloop
  endfacet
  facet normal 0 0 1
    outer loop
      vertex 0.789986 -27.38 30
      vertex 0.297626 -36.7306 30
      vertex 0.594079 -36.7026 30
    endloop
  endfacet
  facet normal 0 0 1
    outer loop
      vertex 0.789986 -27.38 30
      vertex 0 -36.74 30
      vertex 0.297626 -36.7306 30
    endloop
  endfacet
  facet normal 0 0 1
    outer loop
      vertex 0.789986 -27.38 30
      vertex -0.297626 -36.7306 30
      vertex 0 -36.74 30
    endloop
  endfacet
  facet normal 0 0 1
    outer loop
      vertex 0.789986 -27.38 30
      vertex -0.594079 -36.7026 30
      vertex -0.297626 -36.7306 30
    endloop
  endfacet
  facet normal -0 0 1
    outer loop
      vertex -0.79 -27.38 30
      vertex -0.594079 -36.7026 30
      vertex 0.789986 -27.38 30
    endloop
  endfacet
  facet normal 0 0 1
    outer loop
      vertex -0.79 -27.38 30
      vertex -0.888187 -36.656 30
      vertex -0.594079 -36.7026 30
    endloop
  endfacet
  facet normal 0 0 1
    outer loop
      vertex -4.74 -32 30
      vertex -0.79 -22.62 30
      vertex -4.74 32 30
    endloop
  endfacet
  facet normal 0 0 1
    outer loop
      vertex -4.74 32 30
      vertex -0.888187 36.656 30
      vertex -1.17879 36.5911 30
    endloop
  endfacet
  facet normal 0 0 1
    outer loop
      vertex -0.79 -22.62 30
      vertex -4.74 -32 30
      vertex -0.79 -27.38 30
    endloop
  endfacet
  facet normal 0 0 1
    outer loop
      vertex -4.74 32 30
      vertex -1.17879 36.5911 30
      vertex -1.46474 36.508 30
    endloop
  endfacet
  facet normal 0 0 1
    outer loop
      vertex -0.79 -27.38 30
      vertex -4.74 -32 30
      vertex -0.888187 -36.656 30
    endloop
  endfacet
  facet normal 0 0 1
    outer loop
      vertex -4.74 32 30
      vertex -1.46474 36.508 30
      vertex -1.74491 36.4071 30
    endloop
  endfacet
  facet normal 0 0 1
    outer loop
      vertex -0.888187 -36.656 30
      vertex -4.74 -32 30
      vertex -1.17879 -36.5911 30
    endloop
  endfacet
  facet normal 0 0 1
    outer loop
      vertex -4.74 32 30
      vertex -1.74491 36.4071 30
      vertex -2.01819 36.2889 30
    endloop
  endfacet
  facet normal 0 0 1
    outer loop
      vertex -1.17879 -36.5911 30
      vertex -4.74 -32 30
      vertex -1.46474 -36.508 30
    endloop
  endfacet
  facet normal 0 0 1
    outer loop
      vertex -4.74 32 30
      vertex -2.01819 36.2889 30
      vertex -2.28351 36.1537 30
    endloop
  endfacet
  facet normal 0 0 1
    outer loop
      vertex -1.46474 -36.508 30
      vertex -4.74 -32 30
      vertex -1.74491 -36.4071 30
    endloop
  endfacet
  facet normal 0 0 1
    outer loop
      vertex -4.74 32 30
      vertex -2.28351 36.1537 30
      vertex -2.53982 36.0021 30
    endloop
  endfacet
  facet normal 0 0 1
    outer loop
      vertex -1.74491 -36.4071 30
      vertex -4.74 -32 30
      vertex -2.01819 -36.2889 30
    endloop
  endfacet
  facet normal 0 0 1
    outer loop
      vertex -4.74 32 30
      vertex -2.53982 36.0021 30
      vertex -2.7861 35.8347 30
    endloop
  endfacet
  facet normal 0 0 1
    outer loop
      vertex -2.01819 -36.2889 30
      vertex -4.74 -32 30
      vertex -2.28351 -36.1537 30
    endloop
  endfacet
  facet normal 0 0 1
    outer loop
      vertex -4.74 32 30
      vertex -2.7861 35.8347 30
      vertex -3.02139 35.6522 30
    endloop
  endfacet
  facet normal 0 0 1
    outer loop
      vertex -2.28351 -36.1537 30
      vertex -4.74 -32 30
      vertex -2.53982 -36.0021 30
    endloop
  endfacet
  facet normal 0 0 1
    outer loop
      vertex -4.74 32 30
      vertex -3.02139 35.6522 30
      vertex -3.24475 35.4553 30
    endloop
  endfacet
  facet normal 0 0 1
    outer loop
      vertex -2.53982 -36.0021 30
      vertex -4.74 -32 30
      vertex -2.7861 -35.8347 30
    endloop
  endfacet
  facet normal 0 0 1
    outer loop
      vertex -4.74 32 30
      vertex -3.24475 35.4553 30
      vertex -3.45531 35.2448 30
    endloop
  endfacet
  facet normal 0 0 1
    outer loop
      vertex -2.7861 -35.8347 30
      vertex -4.74 -32 30
      vertex -3.02139 -35.6522 30
    endloop
  endfacet
  facet normal 0 0 1
    outer loop
      vertex -4.74 32 30
      vertex -3.45531 35.2448 30
      vertex -3.65223 35.0214 30
    endloop
  endfacet
  facet normal 0 0 1
    outer loop
      vertex -3.02139 -35.6522 30
      vertex -4.74 -32 30
      vertex -3.24475 -35.4553 30
    endloop
  endfacet
  facet normal 0 0 1
    outer loop
      vertex -4.74 32 30
      vertex -3.65223 35.0214 30
      vertex -3.83474 34.7861 30
    endloop
  endfacet
  facet normal 0 0 1
    outer loop
      vertex -3.24475 -35.4553 30
      vertex -4.74 -32 30
      vertex -3.45531 -35.2448 30
    endloop
  endfacet
  facet normal 0 0 1
    outer loop
      vertex -4.74 32 30
      vertex -3.83474 34.7861 30
      vertex -4.00211 34.5398 30
    endloop
  endfacet
  facet normal 0 0 1
    outer loop
      vertex -3.45531 -35.2448 30
      vertex -4.74 -32 30
      vertex -3.65223 -35.0214 30
    endloop
  endfacet
  facet normal 0 0 1
    outer loop
      vertex -4.74 32 30
      vertex -4.00211 34.5398 30
      vertex -4.15369 34.2835 30
    endloop
  endfacet
  facet normal 0 0 1
    outer loop
      vertex -3.65223 -35.0214 30
      vertex -4.74 -32 30
      vertex -3.83474 -34.7861 30
    endloop
  endfacet
  facet normal 0 0 1
    outer loop
      vertex -4.74 32 30
      vertex -4.15369 34.2835 30
      vertex -4.28888 34.0182 30
    endloop
  endfacet
  facet normal 0 0 1
    outer loop
      vertex -3.83474 -34.7861 30
      vertex -4.74 -32 30
      vertex -4.00211 -34.5398 30
    endloop
  endfacet
  facet normal 0 0 1
    outer loop
      vertex -4.74 32 30
      vertex -4.28888 34.0182 30
      vertex -4.40714 33.7449 30
    endloop
  endfacet
  facet normal 0 0 1
    outer loop
      vertex -4.00211 -34.5398 30
      vertex -4.74 -32 30
      vertex -4.15369 -34.2835 30
    endloop
  endfacet
  facet normal 0 0 1
    outer loop
      vertex -4.74 32 30
      vertex -4.40714 33.7449 30
      vertex -4.50801 33.4647 30
    endloop
  endfacet
  facet normal 0 0 1
    outer loop
      vertex -4.15369 -34.2835 30
      vertex -4.74 -32 30
      vertex -4.28888 -34.0182 30
    endloop
  endfacet
  facet normal 0 0 1
    outer loop
      vertex -4.74 32 30
      vertex -4.50801 33.4647 30
      vertex -4.59108 33.1788 30
    endloop
  endfacet
  facet normal 0 0 1
    outer loop
      vertex -4.28888 -34.0182 30
      vertex -4.74 -32 30
      vertex -4.40714 -33.7449 30
    endloop
  endfacet
  facet normal 0 0 1
    outer loop
      vertex -4.74 32 30
      vertex -4.59108 33.1788 30
      vertex -4.65604 32.8882 30
    endloop
  endfacet
  facet normal 0 0 1
    outer loop
      vertex -4.40714 -33.7449 30
      vertex -4.74 -32 30
      vertex -4.50801 -33.4647 30
    endloop
  endfacet
  facet normal 0 0 1
    outer loop
      vertex -4.74 32 30
      vertex -4.65604 32.8882 30
      vertex -4.70262 32.5941 30
    endloop
  endfacet
  facet normal 0 0 1
    outer loop
      vertex -4.50801 -33.4647 30
      vertex -4.74 -32 30
      vertex -4.59108 -33.1788 30
    endloop
  endfacet
  facet normal 0 0 1
    outer loop
      vertex -4.74 32 30
      vertex -4.70262 32.5941 30
      vertex -4.73065 32.2976 30
    endloop
  endfacet
  facet normal 0 0 1
    outer loop
      vertex -4.59108 -33.1788 30
      vertex -4.74 -32 30
      vertex -4.65604 -32.8882 30
    endloop
  endfacet
  facet normal 0 0 1
    outer loop
      vertex -4.65604 -32.8882 30
      vertex -4.74 -32 30
      vertex -4.70262 -32.5941 30
    endloop
  endfacet
  facet normal 0 0 1
    outer loop
      vertex -4.70262 -32.5941 30
      vertex -4.74 -32 30
      vertex -4.73065 -32.2976 30
    endloop
  endfacet
  facet normal -0.995562 0.0941078 0
    outer loop
      vertex -4.73065 32.2976 0
      vertex -4.70262 32.5941 30
      vertex -4.70262 32.5941 0
    endloop
  endfacet
  facet normal -0.995562 0.0941078 0
    outer loop
      vertex -4.70262 32.5941 30
      vertex -4.73065 32.2976 0
      vertex -4.73065 32.2976 30
    endloop
  endfacet
  facet normal -0.999507 0.0314119 0
    outer loop
      vertex -4.74 32 0
      vertex -4.73065 32.2976 30
      vertex -4.73065 32.2976 0
    endloop
  endfacet
  facet normal -0.999507 0.0314119 0
    outer loop
      vertex -4.73065 32.2976 30
      vertex -4.74 32 0
      vertex -4.74 32 30
    endloop
  endfacet
  facet normal 1 -0 0
    outer loop
      vertex 4.74 -32 30
      vertex 4.74 32 0
      vertex 4.74 32 30
    endloop
  endfacet
  facet normal 1 0 0
    outer loop
      vertex 4.74 32 0
      vertex 4.74 -32 30
      vertex 4.74 -32 0
    endloop
  endfacet
  facet normal 0.995562 -0.0941078 0
    outer loop
      vertex 4.70262 -32.5941 30
      vertex 4.73065 -32.2976 0
      vertex 4.73065 -32.2976 30
    endloop
  endfacet
  facet normal 0.995562 -0.0941078 0
    outer loop
      vertex 4.73065 -32.2976 0
      vertex 4.70262 -32.5941 30
      vertex 4.70262 -32.5941 0
    endloop
  endfacet
  facet normal 0.999507 -0.0314119 0
    outer loop
      vertex 4.73065 -32.2976 30
      vertex 4.74 -32 0
      vertex 4.74 -32 30
    endloop
  endfacet
  facet normal 0.999507 -0.0314119 0
    outer loop
      vertex 4.74 -32 0
      vertex 4.73065 -32.2976 30
      vertex 4.73065 -32.2976 0
    endloop
  endfacet
  facet normal 0.612904 -0.790157 0
    outer loop
      vertex 2.7861 -35.8347 0
      vertex 3.02139 -35.6522 30
      vertex 2.7861 -35.8347 30
    endloop
  endfacet
  facet normal 0.612904 -0.790157 0
    outer loop
      vertex 3.02139 -35.6522 30
      vertex 2.7861 -35.8347 0
      vertex 3.02139 -35.6522 0
    endloop
  endfacet
  facet normal 0.827081 0.562083 0
    outer loop
      vertex 4.00211 34.5398 30
      vertex 3.83474 34.7861 0
      vertex 3.83474 34.7861 30
    endloop
  endfacet
  facet normal 0.827081 0.562083 0
    outer loop
      vertex 3.83474 34.7861 0
      vertex 4.00211 34.5398 30
      vertex 4.00211 34.5398 0
    endloop
  endfacet
  facet normal 0.661313 0.75011 -0
    outer loop
      vertex 3.24475 35.4553 0
      vertex 3.02139 35.6522 30
      vertex 3.24475 35.4553 30
    endloop
  endfacet
  facet normal 0.661313 0.75011 0
    outer loop
      vertex 3.02139 35.6522 30
      vertex 3.24475 35.4553 0
      vertex 3.02139 35.6522 0
    endloop
  endfacet
  facet normal -0.661313 0.75011 0
    outer loop
      vertex -3.02139 35.6522 0
      vertex -3.24475 35.4553 30
      vertex -3.02139 35.6522 30
    endloop
  endfacet
  facet normal -0.661313 0.75011 0
    outer loop
      vertex -3.24475 35.4553 30
      vertex -3.02139 35.6522 0
      vertex -3.24475 35.4553 0
    endloop
  endfacet
  facet normal -0.0314119 -0.999507 0
    outer loop
      vertex -0.297626 -36.7306 0
      vertex 0 -36.74 30
      vertex -0.297626 -36.7306 30
    endloop
  endfacet
  facet normal -0.0314119 -0.999507 -0
    outer loop
      vertex 0 -36.74 30
      vertex -0.297626 -36.7306 0
      vertex 0 -36.74 0
    endloop
  endfacet
  facet normal -0.940881 -0.338737 0
    outer loop
      vertex -4.40714 -33.7449 0
      vertex -4.50801 -33.4647 30
      vertex -4.50801 -33.4647 0
    endloop
  endfacet
  facet normal -0.940881 -0.338737 0
    outer loop
      vertex -4.50801 -33.4647 30
      vertex -4.40714 -33.7449 0
      vertex -4.40714 -33.7449 30
    endloop
  endfacet
  facet normal 0.917753 0.397151 0
    outer loop
      vertex 4.40714 33.7449 30
      vertex 4.28888 34.0182 0
      vertex 4.28888 34.0182 30
    endloop
  endfacet
  facet normal 0.917753 0.397151 0
    outer loop
      vertex 4.28888 34.0182 0
      vertex 4.40714 33.7449 30
      vertex 4.40714 33.7449 0
    endloop
  endfacet
  facet normal 0.397146 0.917755 -0
    outer loop
      vertex 2.01819 36.2889 0
      vertex 1.74491 36.4071 30
      vertex 2.01819 36.2889 30
    endloop
  endfacet
  facet normal 0.397146 0.917755 0
    outer loop
      vertex 1.74491 36.4071 30
      vertex 2.01819 36.2889 0
      vertex 1.74491 36.4071 0
    endloop
  endfacet
  facet normal -0.33874 0.94088 0
    outer loop
      vertex -1.46474 36.508 0
      vertex -1.74491 36.4071 30
      vertex -1.46474 36.508 30
    endloop
  endfacet
  facet normal -0.33874 0.94088 0
    outer loop
      vertex -1.74491 36.4071 30
      vertex -1.46474 36.508 0
      vertex -1.74491 36.4071 0
    endloop
  endfacet
  facet normal -0.860742 0.509042 0
    outer loop
      vertex -4.15369 34.2835 0
      vertex -4.00211 34.5398 30
      vertex -4.00211 34.5398 0
    endloop
  endfacet
  facet normal -0.860742 0.509042 0
    outer loop
      vertex -4.00211 34.5398 30
      vertex -4.15369 34.2835 0
      vertex -4.15369 34.2835 30
    endloop
  endfacet
  facet normal 0.278992 -0.960294 0
    outer loop
      vertex 1.17879 -36.5911 0
      vertex 1.46474 -36.508 30
      vertex 1.17879 -36.5911 30
    endloop
  endfacet
  facet normal 0.278992 -0.960294 0
    outer loop
      vertex 1.46474 -36.508 30
      vertex 1.17879 -36.5911 0
      vertex 1.46474 -36.508 0
    endloop
  endfacet
  facet normal -0.453987 -0.891009 0
    outer loop
      vertex -2.28351 -36.1537 0
      vertex -2.01819 -36.2889 30
      vertex -2.28351 -36.1537 30
    endloop
  endfacet
  facet normal -0.453987 -0.891009 -0
    outer loop
      vertex -2.01819 -36.2889 30
      vertex -2.28351 -36.1537 0
      vertex -2.01819 -36.2889 0
    endloop
  endfacet
  facet normal -0.612904 -0.790157 0
    outer loop
      vertex -3.02139 -35.6522 0
      vertex -2.7861 -35.8347 30
      vertex -3.02139 -35.6522 30
    endloop
  endfacet
  facet normal -0.612904 -0.790157 -0
    outer loop
      vertex -2.7861 -35.8347 30
      vertex -3.02139 -35.6522 0
      vertex -2.7861 -35.8347 0
    endloop
  endfacet
  facet normal 0.975916 0.218146 0
    outer loop
      vertex 4.65604 32.8882 30
      vertex 4.59108 33.1788 0
      vertex 4.59108 33.1788 30
    endloop
  endfacet
  facet normal 0.975916 0.218146 0
    outer loop
      vertex 4.59108 33.1788 0
      vertex 4.65604 32.8882 30
      vertex 4.65604 32.8882 0
    endloop
  endfacet
  facet normal 0.70711 0.707104 0
    outer loop
      vertex 3.45531 35.2448 30
      vertex 3.24475 35.4553 0
      vertex 3.24475 35.4553 30
    endloop
  endfacet
  facet normal 0.70711 0.707104 0
    outer loop
      vertex 3.24475 35.4553 0
      vertex 3.45531 35.2448 30
      vertex 3.45531 35.2448 0
    endloop
  endfacet
  facet normal 0.860742 0.509042 0
    outer loop
      vertex 4.15369 34.2835 30
      vertex 4.00211 34.5398 0
      vertex 4.00211 34.5398 30
    endloop
  endfacet
  facet normal 0.860742 0.509042 0
    outer loop
      vertex 4.00211 34.5398 0
      vertex 4.15369 34.2835 30
      vertex 4.15369 34.2835 0
    endloop
  endfacet
  facet normal 0.562084 0.82708 -0
    outer loop
      vertex 2.7861 35.8347 0
      vertex 2.53982 36.0021 30
      vertex 2.7861 35.8347 30
    endloop
  endfacet
  facet normal 0.562084 0.82708 0
    outer loop
      vertex 2.53982 36.0021 30
      vertex 2.7861 35.8347 0
      vertex 2.53982 36.0021 0
    endloop
  endfacet
  facet normal 0.509045 0.86074 -0
    outer loop
      vertex 2.53982 36.0021 0
      vertex 2.28351 36.1537 30
      vertex 2.53982 36.0021 30
    endloop
  endfacet
  facet normal 0.509045 0.86074 0
    outer loop
      vertex 2.28351 36.1537 30
      vertex 2.53982 36.0021 0
      vertex 2.28351 36.1537 0
    endloop
  endfacet
  facet normal 0.218142 0.975917 -0
    outer loop
      vertex 1.17879 36.5911 0
      vertex 0.888187 36.656 30
      vertex 1.17879 36.5911 30
    endloop
  endfacet
  facet normal 0.218142 0.975917 0
    outer loop
      vertex 0.888187 36.656 30
      vertex 1.17879 36.5911 0
      vertex 0.888187 36.656 0
    endloop
  endfacet
  facet normal 0.156431 0.987689 -0
    outer loop
      vertex 0.888187 36.656 0
      vertex 0.594079 36.7026 30
      vertex 0.888187 36.656 30
    endloop
  endfacet
  facet normal 0.156431 0.987689 0
    outer loop
      vertex 0.594079 36.7026 30
      vertex 0.888187 36.656 0
      vertex 0.594079 36.7026 0
    endloop
  endfacet
  facet normal 0.278992 0.960294 -0
    outer loop
      vertex 1.46474 36.508 0
      vertex 1.17879 36.5911 30
      vertex 1.46474 36.508 30
    endloop
  endfacet
  facet normal 0.278992 0.960294 0
    outer loop
      vertex 1.17879 36.5911 30
      vertex 1.46474 36.508 0
      vertex 1.17879 36.5911 0
    endloop
  endfacet
  facet normal -0.156431 0.987689 0
    outer loop
      vertex -0.594079 36.7026 0
      vertex -0.888187 36.656 30
      vertex -0.594079 36.7026 30
    endloop
  endfacet
  facet normal -0.156431 0.987689 0
    outer loop
      vertex -0.888187 36.656 30
      vertex -0.594079 36.7026 0
      vertex -0.888187 36.656 0
    endloop
  endfacet
  facet normal -0.987688 0.156434 0
    outer loop
      vertex -4.70262 32.5941 0
      vertex -4.65604 32.8882 30
      vertex -4.65604 32.8882 0
    endloop
  endfacet
  facet normal -0.987688 0.156434 0
    outer loop
      vertex -4.65604 32.8882 30
      vertex -4.70262 32.5941 0
      vertex -4.70262 32.5941 30
    endloop
  endfacet
  facet normal -0.218142 0.975917 0
    outer loop
      vertex -0.888187 36.656 0
      vertex -1.17879 36.5911 30
      vertex -0.888187 36.656 30
    endloop
  endfacet
  facet normal -0.218142 0.975917 0
    outer loop
      vertex -1.17879 36.5911 30
      vertex -0.888187 36.656 0
      vertex -1.17879 36.5911 0
    endloop
  endfacet
  facet normal -0.509045 0.86074 0
    outer loop
      vertex -2.28351 36.1537 0
      vertex -2.53982 36.0021 30
      vertex -2.28351 36.1537 30
    endloop
  endfacet
  facet normal -0.509045 0.86074 0
    outer loop
      vertex -2.53982 36.0021 30
      vertex -2.28351 36.1537 0
      vertex -2.53982 36.0021 0
    endloop
  endfacet
  facet normal -0.453987 0.891009 0
    outer loop
      vertex -2.01819 36.2889 0
      vertex -2.28351 36.1537 30
      vertex -2.01819 36.2889 30
    endloop
  endfacet
  facet normal -0.453987 0.891009 0
    outer loop
      vertex -2.28351 36.1537 30
      vertex -2.01819 36.2889 0
      vertex -2.28351 36.1537 0
    endloop
  endfacet
  facet normal -0.750109 0.661314 0
    outer loop
      vertex -3.65223 35.0214 0
      vertex -3.45531 35.2448 30
      vertex -3.45531 35.2448 0
    endloop
  endfacet
  facet normal -0.750109 0.661314 0
    outer loop
      vertex -3.45531 35.2448 30
      vertex -3.65223 35.0214 0
      vertex -3.65223 35.0214 30
    endloop
  endfacet
  facet normal -0.70711 0.707104 0
    outer loop
      vertex -3.45531 35.2448 0
      vertex -3.24475 35.4553 30
      vertex -3.24475 35.4553 0
    endloop
  endfacet
  facet normal -0.70711 0.707104 0
    outer loop
      vertex -3.24475 35.4553 30
      vertex -3.45531 35.2448 0
      vertex -3.45531 35.2448 30
    endloop
  endfacet
  facet normal -0.940881 0.338737 0
    outer loop
      vertex -4.50801 33.4647 0
      vertex -4.40714 33.7449 30
      vertex -4.40714 33.7449 0
    endloop
  endfacet
  facet normal -0.940881 0.338737 0
    outer loop
      vertex -4.40714 33.7449 30
      vertex -4.50801 33.4647 0
      vertex -4.50801 33.4647 30
    endloop
  endfacet
  facet normal 0.661313 -0.75011 0
    outer loop
      vertex 3.02139 -35.6522 0
      vertex 3.24475 -35.4553 30
      vertex 3.02139 -35.6522 30
    endloop
  endfacet
  facet normal 0.661313 -0.75011 0
    outer loop
      vertex 3.24475 -35.4553 30
      vertex 3.02139 -35.6522 0
      vertex 3.24475 -35.4553 0
    endloop
  endfacet
  facet normal 0.987688 -0.156434 0
    outer loop
      vertex 4.65604 -32.8882 30
      vertex 4.70262 -32.5941 0
      vertex 4.70262 -32.5941 30
    endloop
  endfacet
  facet normal 0.987688 -0.156434 0
    outer loop
      vertex 4.70262 -32.5941 0
      vertex 4.65604 -32.8882 30
      vertex 4.65604 -32.8882 0
    endloop
  endfacet
  facet normal 0.33874 -0.94088 0
    outer loop
      vertex 1.46474 -36.508 0
      vertex 1.74491 -36.4071 30
      vertex 1.46474 -36.508 30
    endloop
  endfacet
  facet normal 0.33874 -0.94088 0
    outer loop
      vertex 1.74491 -36.4071 30
      vertex 1.46474 -36.508 0
      vertex 1.74491 -36.4071 0
    endloop
  endfacet
  facet normal 0.509045 -0.86074 0
    outer loop
      vertex 2.28351 -36.1537 0
      vertex 2.53982 -36.0021 30
      vertex 2.28351 -36.1537 30
    endloop
  endfacet
  facet normal 0.509045 -0.86074 0
    outer loop
      vertex 2.53982 -36.0021 30
      vertex 2.28351 -36.1537 0
      vertex 2.53982 -36.0021 0
    endloop
  endfacet
  facet normal 0.0941075 -0.995562 0
    outer loop
      vertex 0.297626 -36.7306 0
      vertex 0.594079 -36.7026 30
      vertex 0.297626 -36.7306 30
    endloop
  endfacet
  facet normal 0.0941075 -0.995562 0
    outer loop
      vertex 0.594079 -36.7026 30
      vertex 0.297626 -36.7306 0
      vertex 0.594079 -36.7026 0
    endloop
  endfacet
  facet normal 0.156431 -0.987689 0
    outer loop
      vertex 0.594079 -36.7026 0
      vertex 0.888187 -36.656 30
      vertex 0.594079 -36.7026 30
    endloop
  endfacet
  facet normal 0.156431 -0.987689 0
    outer loop
      vertex 0.888187 -36.656 30
      vertex 0.594079 -36.7026 0
      vertex 0.888187 -36.656 0
    endloop
  endfacet
  facet normal -0.975916 -0.218146 0
    outer loop
      vertex -4.59108 -33.1788 0
      vertex -4.65604 -32.8882 30
      vertex -4.65604 -32.8882 0
    endloop
  endfacet
  facet normal -0.975916 -0.218146 0
    outer loop
      vertex -4.65604 -32.8882 30
      vertex -4.59108 -33.1788 0
      vertex -4.59108 -33.1788 30
    endloop
  endfacet
  facet normal 0 0 -1
    outer loop
      vertex -2.52 23.12 0
      vertex -0.839999 27.38 0
      vertex -0.839999 23.12 0
    endloop
  endfacet
  facet normal 0 0 -1
    outer loop
      vertex -0.839999 27.38 0
      vertex -4.74 32 0
      vertex -0.888187 36.656 0
    endloop
  endfacet
  facet normal 0 0 -1
    outer loop
      vertex -0.888187 36.656 0
      vertex -4.74 32 0
      vertex -1.17879 36.5911 0
    endloop
  endfacet
  facet normal 0 0 -1
    outer loop
      vertex -1.17879 36.5911 0
      vertex -4.74 32 0
      vertex -1.46474 36.508 0
    endloop
  endfacet
  facet normal 0 0 -1
    outer loop
      vertex -1.46474 36.508 0
      vertex -4.74 32 0
      vertex -1.74491 36.4071 0
    endloop
  endfacet
  facet normal 0 0 -1
    outer loop
      vertex -1.74491 36.4071 0
      vertex -4.74 32 0
      vertex -2.01819 36.2889 0
    endloop
  endfacet
  facet normal -0 0 -1
    outer loop
      vertex -0.839999 27.38 0
      vertex -2.52 23.12 0
      vertex -4.74 32 0
    endloop
  endfacet
  facet normal 0 0 -1
    outer loop
      vertex -2.01819 36.2889 0
      vertex -4.74 32 0
      vertex -2.28351 36.1537 0
    endloop
  endfacet
  facet normal 0 0 -1
    outer loop
      vertex -4.74 32 0
      vertex -2.52 16.36 0
      vertex -4.74 -32 0
    endloop
  endfacet
  facet normal 0 0 -1
    outer loop
      vertex -4.74 -32 0
      vertex -2.53982 -36.0021 0
      vertex -2.7861 -35.8347 0
    endloop
  endfacet
  facet normal 0 0 -1
    outer loop
      vertex -2.52 16.36 0
      vertex -4.74 32 0
      vertex -2.52 23.12 0
    endloop
  endfacet
  facet normal 0 0 -1
    outer loop
      vertex -4.74 -32 0
      vertex -2.7861 -35.8347 0
      vertex -3.02139 -35.6522 0
    endloop
  endfacet
  facet normal 0 0 -1
    outer loop
      vertex -2.28351 36.1537 0
      vertex -4.74 32 0
      vertex -2.53982 36.0021 0
    endloop
  endfacet
  facet normal 0 0 -1
    outer loop
      vertex -4.74 -32 0
      vertex -3.02139 -35.6522 0
      vertex -3.24475 -35.4553 0
    endloop
  endfacet
  facet normal 0 0 -1
    outer loop
      vertex -2.53982 36.0021 0
      vertex -4.74 32 0
      vertex -2.7861 35.8347 0
    endloop
  endfacet
  facet normal 0 0 -1
    outer loop
      vertex -4.74 -32 0
      vertex -3.24475 -35.4553 0
      vertex -3.45531 -35.2448 0
    endloop
  endfacet
  facet normal 0 0 -1
    outer loop
      vertex -2.7861 35.8347 0
      vertex -4.74 32 0
      vertex -3.02139 35.6522 0
    endloop
  endfacet
  facet normal 0 0 -1
    outer loop
      vertex -4.74 -32 0
      vertex -3.45531 -35.2448 0
      vertex -3.65223 -35.0214 0
    endloop
  endfacet
  facet normal 0 0 -1
    outer loop
      vertex -3.02139 35.6522 0
      vertex -4.74 32 0
      vertex -3.24475 35.4553 0
    endloop
  endfacet
  facet normal 0 0 -1
    outer loop
      vertex -4.74 -32 0
      vertex -3.65223 -35.0214 0
      vertex -3.83474 -34.7861 0
    endloop
  endfacet
  facet normal 0 0 -1
    outer loop
      vertex -3.24475 35.4553 0
      vertex -4.74 32 0
      vertex -3.45531 35.2448 0
    endloop
  endfacet
  facet normal 0 0 -1
    outer loop
      vertex -4.74 -32 0
      vertex -3.83474 -34.7861 0
      vertex -4.00211 -34.5398 0
    endloop
  endfacet
  facet normal 0 0 -1
    outer loop
      vertex -3.45531 35.2448 0
      vertex -4.74 32 0
      vertex -3.65223 35.0214 0
    endloop
  endfacet
  facet normal 0 0 -1
    outer loop
      vertex -4.74 -32 0
      vertex -4.00211 -34.5398 0
      vertex -4.15369 -34.2835 0
    endloop
  endfacet
  facet normal 0 0 -1
    outer loop
      vertex -3.65223 35.0214 0
      vertex -4.74 32 0
      vertex -3.83474 34.7861 0
    endloop
  endfacet
  facet normal 0 0 -1
    outer loop
      vertex -4.74 -32 0
      vertex -4.15369 -34.2835 0
      vertex -4.28888 -34.0182 0
    endloop
  endfacet
  facet normal 0 0 -1
    outer loop
      vertex -3.83474 34.7861 0
      vertex -4.74 32 0
      vertex -4.00211 34.5398 0
    endloop
  endfacet
  facet normal 0 0 -1
    outer loop
      vertex -4.74 -32 0
      vertex -4.28888 -34.0182 0
      vertex -4.40714 -33.7449 0
    endloop
  endfacet
  facet normal 0 0 -1
    outer loop
      vertex -4.00211 34.5398 0
      vertex -4.74 32 0
      vertex -4.15369 34.2835 0
    endloop
  endfacet
  facet normal 0 0 -1
    outer loop
      vertex -4.74 -32 0
      vertex -4.40714 -33.7449 0
      vertex -4.50801 -33.4647 0
    endloop
  endfacet
  facet normal 0 0 -1
    outer loop
      vertex -4.15369 34.2835 0
      vertex -4.74 32 0
      vertex -4.28888 34.0182 0
    endloop
  endfacet
  facet normal 0 0 -1
    outer loop
      vertex -4.74 -32 0
      vertex -4.50801 -33.4647 0
      vertex -4.59108 -33.1788 0
    endloop
  endfacet
  facet normal 0 0 -1
    outer loop
      vertex -4.28888 34.0182 0
      vertex -4.74 32 0
      vertex -4.40714 33.7449 0
    endloop
  endfacet
  facet normal 0 0 -1
    outer loop
      vertex -4.74 -32 0
      vertex -4.59108 -33.1788 0
      vertex -4.65604 -32.8882 0
    endloop
  endfacet
  facet normal 0 0 -1
    outer loop
      vertex -4.40714 33.7449 0
      vertex -4.74 32 0
      vertex -4.50801 33.4647 0
    endloop
  endfacet
  facet normal 0 0 -1
    outer loop
      vertex -4.74 -32 0
      vertex -4.65604 -32.8882 0
      vertex -4.70262 -32.5941 0
    endloop
  endfacet
  facet normal 0 0 -1
    outer loop
      vertex -4.50801 33.4647 0
      vertex -4.74 32 0
      vertex -4.59108 33.1788 0
    endloop
  endfacet
  facet normal 0 0 -1
    outer loop
      vertex -4.74 -32 0
      vertex -4.70262 -32.5941 0
      vertex -4.73065 -32.2976 0
    endloop
  endfacet
  facet normal 0 0 -1
    outer loop
      vertex -4.59108 33.1788 0
      vertex -4.74 32 0
      vertex -4.65604 32.8882 0
    endloop
  endfacet
  facet normal 0 0 -1
    outer loop
      vertex -4.65604 32.8882 0
      vertex -4.74 32 0
      vertex -4.70262 32.5941 0
    endloop
  endfacet
  facet normal 0 0 -1
    outer loop
      vertex -4.70262 32.5941 0
      vertex -4.74 32 0
      vertex -4.73065 32.2976 0
    endloop
  endfacet
  facet normal 0 0 -1
    outer loop
      vertex -0.839999 -26.88 0
      vertex -2.52 -26.88 0
      vertex -0.839999 -22.62 0
    endloop
  endfacet
  facet normal 0 0 -1
    outer loop
      vertex 0.839993 -22.62 0
      vertex 2.52 -26.88 0
      vertex 0.839993 -26.88 0
    endloop
  endfacet
  facet normal 0 0 -1
    outer loop
      vertex 2.52 -26.88 0
      vertex 0.839993 -22.62 0
      vertex 2.52 16.36 0
    endloop
  endfacet
  facet normal 0 0 -1
    outer loop
      vertex -0.839999 -22.62 0
      vertex 2.52 16.36 0
      vertex 0.839993 -22.62 0
    endloop
  endfacet
  facet normal 0 0 -1
    outer loop
      vertex -2.52 16.36 0
      vertex -0.839999 -22.62 0
      vertex -2.52 -26.88 0
    endloop
  endfacet
  facet normal 0 0 -1
    outer loop
      vertex -0.839999 -22.62 0
      vertex -2.52 16.36 0
      vertex 2.52 16.36 0
    endloop
  endfacet
  facet normal 0 0 -1
    outer loop
      vertex 2.52 -33.64 0
      vertex 4.74 -32 0
      vertex 4.73065 -32.2976 0
    endloop
  endfacet
  facet normal 0 0 -1
    outer loop
      vertex 4.74 -32 0
      vertex 2.52 16.36 0
      vertex 4.74 32 0
    endloop
  endfacet
  facet normal 0 0 -1
    outer loop
      vertex 2.52 -33.64 0
      vertex 4.73065 -32.2976 0
      vertex 4.70262 -32.5941 0
    endloop
  endfacet
  facet normal 0 0 -1
    outer loop
      vertex 2.52 23.12 0
      vertex 4.74 32 0
      vertex 2.52 16.36 0
    endloop
  endfacet
  facet normal 0 0 -1
    outer loop
      vertex 2.52 -33.64 0
      vertex 4.70262 -32.5941 0
      vertex 4.65604 -32.8882 0
    endloop
  endfacet
  facet normal 0 0 -1
    outer loop
      vertex 0.839993 27.38 0
      vertex 4.74 32 0
      vertex 2.52 23.12 0
    endloop
  endfacet
  facet normal 0 0 -1
    outer loop
      vertex 2.52 -33.64 0
      vertex 4.65604 -32.8882 0
      vertex 4.59108 -33.1788 0
    endloop
  endfacet
  facet normal -0 0 -1
    outer loop
      vertex 4.74 32 0
      vertex 0.839993 27.38 0
      vertex 4.73065 32.2976 0
    endloop
  endfacet
  facet normal 0 0 -1
    outer loop
      vertex 2.52 -33.64 0
      vertex 4.59108 -33.1788 0
      vertex 4.50801 -33.4647 0
    endloop
  endfacet
  facet normal -0 0 -1
    outer loop
      vertex 4.73065 32.2976 0
      vertex 0.839993 27.38 0
      vertex 4.70262 32.5941 0
    endloop
  endfacet
  facet normal 0 0 -1
    outer loop
      vertex 2.52 -33.64 0
      vertex 4.50801 -33.4647 0
      vertex 4.40714 -33.7449 0
    endloop
  endfacet
  facet normal -0 0 -1
    outer loop
      vertex 4.70262 32.5941 0
      vertex 0.839993 27.38 0
      vertex 4.65604 32.8882 0
    endloop
  endfacet
  facet normal 0 0 -1
    outer loop
      vertex 2.52 -33.64 0
      vertex 4.40714 -33.7449 0
      vertex 4.28888 -34.0182 0
    endloop
  endfacet
  facet normal -0 0 -1
    outer loop
      vertex 4.65604 32.8882 0
      vertex 0.839993 27.38 0
      vertex 4.59108 33.1788 0
    endloop
  endfacet
  facet normal 0 0 -1
    outer loop
      vertex 2.52 -33.64 0
      vertex 4.28888 -34.0182 0
      vertex 4.15369 -34.2835 0
    endloop
  endfacet
  facet normal -0 0 -1
    outer loop
      vertex 4.59108 33.1788 0
      vertex 0.839993 27.38 0
      vertex 4.50801 33.4647 0
    endloop
  endfacet
  facet normal 0 0 -1
    outer loop
      vertex 2.52 -33.64 0
      vertex 4.15369 -34.2835 0
      vertex 4.00211 -34.5398 0
    endloop
  endfacet
  facet normal -0 0 -1
    outer loop
      vertex 4.50801 33.4647 0
      vertex 0.839993 27.38 0
      vertex 4.40714 33.7449 0
    endloop
  endfacet
  facet normal 0 0 -1
    outer loop
      vertex 2.52 -33.64 0
      vertex 4.00211 -34.5398 0
      vertex 3.83474 -34.7861 0
    endloop
  endfacet
  facet normal -0 0 -1
    outer loop
      vertex 4.40714 33.7449 0
      vertex 0.839993 27.38 0
      vertex 4.28888 34.0182 0
    endloop
  endfacet
  facet normal 0 0 -1
    outer loop
      vertex 2.52 -33.64 0
      vertex 3.83474 -34.7861 0
      vertex 3.65223 -35.0214 0
    endloop
  endfacet
  facet normal -0 0 -1
    outer loop
      vertex 4.28888 34.0182 0
      vertex 0.839993 27.38 0
      vertex 4.15369 34.2835 0
    endloop
  endfacet
  facet normal 0 0 -1
    outer loop
      vertex 2.52 -33.64 0
      vertex 3.65223 -35.0214 0
      vertex 3.45531 -35.2448 0
    endloop
  endfacet
  facet normal -0 0 -1
    outer loop
      vertex 4.15369 34.2835 0
      vertex 0.839993 27.38 0
      vertex 4.00211 34.5398 0
    endloop
  endfacet
  facet normal 0 0 -1
    outer loop
      vertex 2.52 -33.64 0
      vertex 3.45531 -35.2448 0
      vertex 3.24475 -35.4553 0
    endloop
  endfacet
  facet normal -0 0 -1
    outer loop
      vertex 4.00211 34.5398 0
      vertex 0.839993 27.38 0
      vertex 3.83474 34.7861 0
    endloop
  endfacet
  facet normal 0 0 -1
    outer loop
      vertex 2.52 -33.64 0
      vertex 3.24475 -35.4553 0
      vertex 3.02139 -35.6522 0
    endloop
  endfacet
  facet normal -0 0 -1
    outer loop
      vertex 3.83474 34.7861 0
      vertex 0.839993 27.38 0
      vertex 3.65223 35.0214 0
    endloop
  endfacet
  facet normal 0 0 -1
    outer loop
      vertex 2.52 -33.64 0
      vertex 3.02139 -35.6522 0
      vertex 2.7861 -35.8347 0
    endloop
  endfacet
  facet normal -0 0 -1
    outer loop
      vertex 3.65223 35.0214 0
      vertex 0.839993 27.38 0
      vertex 3.45531 35.2448 0
    endloop
  endfacet
  facet normal 0 0 -1
    outer loop
      vertex 2.52 -33.64 0
      vertex 2.7861 -35.8347 0
      vertex 2.53982 -36.0021 0
    endloop
  endfacet
  facet normal -0 0 -1
    outer loop
      vertex 4.74 -32 0
      vertex 2.52 -33.64 0
      vertex 2.52 -26.88 0
    endloop
  endfacet
  facet normal 0 0 -1
    outer loop
      vertex 4.74 -32 0
      vertex 2.52 -26.88 0
      vertex 2.52 16.36 0
    endloop
  endfacet
  facet normal 0 0 -1
    outer loop
      vertex 2.28351 -36.1537 0
      vertex 2.52 -33.64 0
      vertex 2.53982 -36.0021 0
    endloop
  endfacet
  facet normal 0 0 -1
    outer loop
      vertex 2.01819 -36.2889 0
      vertex 2.52 -33.64 0
      vertex 2.28351 -36.1537 0
    endloop
  endfacet
  facet normal 0 0 -1
    outer loop
      vertex 1.74491 -36.4071 0
      vertex 2.52 -33.64 0
      vertex 2.01819 -36.2889 0
    endloop
  endfacet
  facet normal 0 0 -1
    outer loop
      vertex 1.46474 -36.508 0
      vertex 2.52 -33.64 0
      vertex 1.74491 -36.4071 0
    endloop
  endfacet
  facet normal 0 0 -1
    outer loop
      vertex 1.17879 -36.5911 0
      vertex 2.52 -33.64 0
      vertex 1.46474 -36.508 0
    endloop
  endfacet
  facet normal 0 0 -1
    outer loop
      vertex 0.888187 -36.656 0
      vertex 2.52 -33.64 0
      vertex 1.17879 -36.5911 0
    endloop
  endfacet
  facet normal 0 0 -1
    outer loop
      vertex 0.594079 -36.7026 0
      vertex 2.52 -33.64 0
      vertex 0.888187 -36.656 0
    endloop
  endfacet
  facet normal 0 0 -1
    outer loop
      vertex 0.297626 -36.7306 0
      vertex 2.52 -33.64 0
      vertex 0.594079 -36.7026 0
    endloop
  endfacet
  facet normal 0 0 -1
    outer loop
      vertex 0 -36.74 0
      vertex 2.52 -33.64 0
      vertex 0.297626 -36.7306 0
    endloop
  endfacet
  facet normal 0 0 -1
    outer loop
      vertex -2.52 -33.64 0
      vertex 0 -36.74 0
      vertex -0.297626 -36.7306 0
    endloop
  endfacet
  facet normal 0 0 -1
    outer loop
      vertex -2.52 -33.64 0
      vertex -0.297626 -36.7306 0
      vertex -0.594079 -36.7026 0
    endloop
  endfacet
  facet normal 0 0 -1
    outer loop
      vertex -2.52 -33.64 0
      vertex -0.594079 -36.7026 0
      vertex -0.888187 -36.656 0
    endloop
  endfacet
  facet normal 0 0 -1
    outer loop
      vertex -2.52 -33.64 0
      vertex -0.888187 -36.656 0
      vertex -1.17879 -36.5911 0
    endloop
  endfacet
  facet normal 0 0 -1
    outer loop
      vertex -2.52 -33.64 0
      vertex -1.17879 -36.5911 0
      vertex -1.46474 -36.508 0
    endloop
  endfacet
  facet normal 0 0 -1
    outer loop
      vertex -2.52 -33.64 0
      vertex -1.46474 -36.508 0
      vertex -1.74491 -36.4071 0
    endloop
  endfacet
  facet normal 0 0 -1
    outer loop
      vertex -2.52 -33.64 0
      vertex -1.74491 -36.4071 0
      vertex -2.01819 -36.2889 0
    endloop
  endfacet
  facet normal 0 0 -1
    outer loop
      vertex -2.52 -33.64 0
      vertex -2.01819 -36.2889 0
      vertex -2.28351 -36.1537 0
    endloop
  endfacet
  facet normal 0 0 -1
    outer loop
      vertex 0 -36.74 0
      vertex -2.52 -33.64 0
      vertex 2.52 -33.64 0
    endloop
  endfacet
  facet normal 0 0 -1
    outer loop
      vertex -4.74 -32 0
      vertex -2.52 -26.88 0
      vertex -2.52 -33.64 0
    endloop
  endfacet
  facet normal -0 0 -1
    outer loop
      vertex -2.52 -26.88 0
      vertex -4.74 -32 0
      vertex -2.52 16.36 0
    endloop
  endfacet
  facet normal 0 0 -1
    outer loop
      vertex -4.74 -32 0
      vertex -2.52 -33.64 0
      vertex -2.53982 -36.0021 0
    endloop
  endfacet
  facet normal 0 0 -1
    outer loop
      vertex -2.53982 -36.0021 0
      vertex -2.52 -33.64 0
      vertex -2.28351 -36.1537 0
    endloop
  endfacet
  facet normal -0 0 -1
    outer loop
      vertex 3.45531 35.2448 0
      vertex 0.839993 27.38 0
      vertex 3.24475 35.4553 0
    endloop
  endfacet
  facet normal -0 0 -1
    outer loop
      vertex 3.24475 35.4553 0
      vertex 0.839993 27.38 0
      vertex 3.02139 35.6522 0
    endloop
  endfacet
  facet normal -0 0 -1
    outer loop
      vertex 3.02139 35.6522 0
      vertex 0.839993 27.38 0
      vertex 2.7861 35.8347 0
    endloop
  endfacet
  facet normal -0 0 -1
    outer loop
      vertex 2.7861 35.8347 0
      vertex 0.839993 27.38 0
      vertex 2.53982 36.0021 0
    endloop
  endfacet
  facet normal -0 0 -1
    outer loop
      vertex 2.53982 36.0021 0
      vertex 0.839993 27.38 0
      vertex 2.28351 36.1537 0
    endloop
  endfacet
  facet normal -0 0 -1
    outer loop
      vertex 2.28351 36.1537 0
      vertex 0.839993 27.38 0
      vertex 2.01819 36.2889 0
    endloop
  endfacet
  facet normal -0 0 -1
    outer loop
      vertex 2.01819 36.2889 0
      vertex 0.839993 27.38 0
      vertex 1.74491 36.4071 0
    endloop
  endfacet
  facet normal -0 0 -1
    outer loop
      vertex 1.74491 36.4071 0
      vertex 0.839993 27.38 0
      vertex 1.46474 36.508 0
    endloop
  endfacet
  facet normal -0 0 -1
    outer loop
      vertex 1.46474 36.508 0
      vertex 0.839993 27.38 0
      vertex 1.17879 36.5911 0
    endloop
  endfacet
  facet normal 0 0 -1
    outer loop
      vertex 0.839993 27.38 0
      vertex 2.52 23.12 0
      vertex 0.839993 23.12 0
    endloop
  endfacet
  facet normal -0 0 -1
    outer loop
      vertex 1.17879 36.5911 0
      vertex 0.839993 27.38 0
      vertex 0.888187 36.656 0
    endloop
  endfacet
  facet normal 0 0 -1
    outer loop
      vertex 0.839993 27.38 0
      vertex 0.594079 36.7026 0
      vertex 0.888187 36.656 0
    endloop
  endfacet
  facet normal 0 0 -1
    outer loop
      vertex 0.839993 27.38 0
      vertex 0.297626 36.7306 0
      vertex 0.594079 36.7026 0
    endloop
  endfacet
  facet normal 0 0 -1
    outer loop
      vertex 0.839993 27.38 0
      vertex 0 36.74 0
      vertex 0.297626 36.7306 0
    endloop
  endfacet
  facet normal 0 0 -1
    outer loop
      vertex 0.839993 27.38 0
      vertex -0.297626 36.7306 0
      vertex 0 36.74 0
    endloop
  endfacet
  facet normal 0 0 -1
    outer loop
      vertex 0.839993 27.38 0
      vertex -0.594079 36.7026 0
      vertex -0.297626 36.7306 0
    endloop
  endfacet
  facet normal 0 0 -1
    outer loop
      vertex -0.839999 27.38 0
      vertex -0.594079 36.7026 0
      vertex 0.839993 27.38 0
    endloop
  endfacet
  facet normal 0 0 -1
    outer loop
      vertex -0.594079 36.7026 0
      vertex -0.839999 27.38 0
      vertex -0.888187 36.656 0
    endloop
  endfacet
  facet normal -0.562084 -0.82708 0
    outer loop
      vertex -2.7861 -35.8347 0
      vertex -2.53982 -36.0021 30
      vertex -2.7861 -35.8347 30
    endloop
  endfacet
  facet normal -0.562084 -0.82708 -0
    outer loop
      vertex -2.53982 -36.0021 30
      vertex -2.7861 -35.8347 0
      vertex -2.53982 -36.0021 0
    endloop
  endfacet
  facet normal -0.70711 -0.707104 0
    outer loop
      vertex -3.24475 -35.4553 0
      vertex -3.45531 -35.2448 30
      vertex -3.45531 -35.2448 0
    endloop
  endfacet
  facet normal -0.70711 -0.707104 0
    outer loop
      vertex -3.45531 -35.2448 30
      vertex -3.24475 -35.4553 0
      vertex -3.24475 -35.4553 30
    endloop
  endfacet
  facet normal -0.278992 -0.960294 0
    outer loop
      vertex -1.46474 -36.508 0
      vertex -1.17879 -36.5911 30
      vertex -1.46474 -36.508 30
    endloop
  endfacet
  facet normal -0.278992 -0.960294 -0
    outer loop
      vertex -1.17879 -36.5911 30
      vertex -1.46474 -36.508 0
      vertex -1.17879 -36.5911 0
    endloop
  endfacet
  facet normal -0.218142 -0.975917 0
    outer loop
      vertex -1.17879 -36.5911 0
      vertex -0.888187 -36.656 30
      vertex -1.17879 -36.5911 30
    endloop
  endfacet
  facet normal -0.218142 -0.975917 -0
    outer loop
      vertex -0.888187 -36.656 30
      vertex -1.17879 -36.5911 0
      vertex -0.888187 -36.656 0
    endloop
  endfacet
  facet normal -0.397146 -0.917755 0
    outer loop
      vertex -2.01819 -36.2889 0
      vertex -1.74491 -36.4071 30
      vertex -2.01819 -36.2889 30
    endloop
  endfacet
  facet normal -0.397146 -0.917755 -0
    outer loop
      vertex -1.74491 -36.4071 30
      vertex -2.01819 -36.2889 0
      vertex -1.74491 -36.4071 0
    endloop
  endfacet
  facet normal 0.995562 0.0941078 0
    outer loop
      vertex 4.73065 32.2976 30
      vertex 4.70262 32.5941 0
      vertex 4.70262 32.5941 30
    endloop
  endfacet
  facet normal 0.995562 0.0941078 0
    outer loop
      vertex 4.70262 32.5941 0
      vertex 4.73065 32.2976 30
      vertex 4.73065 32.2976 0
    endloop
  endfacet
  facet normal 0.987688 0.156434 0
    outer loop
      vertex 4.70262 32.5941 30
      vertex 4.65604 32.8882 0
      vertex 4.65604 32.8882 30
    endloop
  endfacet
  facet normal 0.987688 0.156434 0
    outer loop
      vertex 4.65604 32.8882 0
      vertex 4.70262 32.5941 30
      vertex 4.70262 32.5941 0
    endloop
  endfacet
  facet normal 0.940881 0.338737 0
    outer loop
      vertex 4.50801 33.4647 30
      vertex 4.40714 33.7449 0
      vertex 4.40714 33.7449 30
    endloop
  endfacet
  facet normal 0.940881 0.338737 0
    outer loop
      vertex 4.40714 33.7449 0
      vertex 4.50801 33.4647 30
      vertex 4.50801 33.4647 0
    endloop
  endfacet
  facet normal 0.960294 0.278989 0
    outer loop
      vertex 4.59108 33.1788 30
      vertex 4.50801 33.4647 0
      vertex 4.50801 33.4647 30
    endloop
  endfacet
  facet normal 0.960294 0.278989 0
    outer loop
      vertex 4.50801 33.4647 0
      vertex 4.59108 33.1788 30
      vertex 4.59108 33.1788 0
    endloop
  endfacet
  facet normal 0.790154 0.612908 0
    outer loop
      vertex 3.83474 34.7861 30
      vertex 3.65223 35.0214 0
      vertex 3.65223 35.0214 30
    endloop
  endfacet
  facet normal 0.790154 0.612908 0
    outer loop
      vertex 3.65223 35.0214 0
      vertex 3.83474 34.7861 30
      vertex 3.83474 34.7861 0
    endloop
  endfacet
  facet normal 0.750109 0.661314 0
    outer loop
      vertex 3.65223 35.0214 30
      vertex 3.45531 35.2448 0
      vertex 3.45531 35.2448 30
    endloop
  endfacet
  facet normal 0.750109 0.661314 0
    outer loop
      vertex 3.45531 35.2448 0
      vertex 3.65223 35.0214 30
      vertex 3.65223 35.0214 0
    endloop
  endfacet
  facet normal 0.891008 0.453988 0
    outer loop
      vertex 4.28888 34.0182 30
      vertex 4.15369 34.2835 0
      vertex 4.15369 34.2835 30
    endloop
  endfacet
  facet normal 0.891008 0.453988 0
    outer loop
      vertex 4.15369 34.2835 0
      vertex 4.28888 34.0182 30
      vertex 4.28888 34.0182 0
    endloop
  endfacet
  facet normal 0.612904 0.790157 -0
    outer loop
      vertex 3.02139 35.6522 0
      vertex 2.7861 35.8347 30
      vertex 3.02139 35.6522 30
    endloop
  endfacet
  facet normal 0.612904 0.790157 0
    outer loop
      vertex 2.7861 35.8347 30
      vertex 3.02139 35.6522 0
      vertex 2.7861 35.8347 0
    endloop
  endfacet
  facet normal 0.453987 0.891009 -0
    outer loop
      vertex 2.28351 36.1537 0
      vertex 2.01819 36.2889 30
      vertex 2.28351 36.1537 30
    endloop
  endfacet
  facet normal 0.453987 0.891009 0
    outer loop
      vertex 2.01819 36.2889 30
      vertex 2.28351 36.1537 0
      vertex 2.01819 36.2889 0
    endloop
  endfacet
  facet normal 0.33874 0.94088 -0
    outer loop
      vertex 1.74491 36.4071 0
      vertex 1.46474 36.508 30
      vertex 1.74491 36.4071 30
    endloop
  endfacet
  facet normal 0.33874 0.94088 0
    outer loop
      vertex 1.46474 36.508 30
      vertex 1.74491 36.4071 0
      vertex 1.46474 36.508 0
    endloop
  endfacet
  facet normal 0.0941075 0.995562 -0
    outer loop
      vertex 0.594079 36.7026 0
      vertex 0.297626 36.7306 30
      vertex 0.594079 36.7026 30
    endloop
  endfacet
  facet normal 0.0941075 0.995562 0
    outer loop
      vertex 0.297626 36.7306 30
      vertex 0.594079 36.7026 0
      vertex 0.297626 36.7306 0
    endloop
  endfacet
  facet normal 0.0314119 0.999507 -0
    outer loop
      vertex 0.297626 36.7306 0
      vertex 0 36.74 30
      vertex 0.297626 36.7306 30
    endloop
  endfacet
  facet normal 0.0314119 0.999507 0
    outer loop
      vertex 0 36.74 30
      vertex 0.297626 36.7306 0
      vertex 0 36.74 0
    endloop
  endfacet
  facet normal -0.0941075 0.995562 0
    outer loop
      vertex -0.297626 36.7306 0
      vertex -0.594079 36.7026 30
      vertex -0.297626 36.7306 30
    endloop
  endfacet
  facet normal -0.0941075 0.995562 0
    outer loop
      vertex -0.594079 36.7026 30
      vertex -0.297626 36.7306 0
      vertex -0.594079 36.7026 0
    endloop
  endfacet
  facet normal -0.278992 0.960294 0
    outer loop
      vertex -1.17879 36.5911 0
      vertex -1.46474 36.508 30
      vertex -1.17879 36.5911 30
    endloop
  endfacet
  facet normal -0.278992 0.960294 0
    outer loop
      vertex -1.46474 36.508 30
      vertex -1.17879 36.5911 0
      vertex -1.46474 36.508 0
    endloop
  endfacet
  facet normal -0.562084 0.82708 0
    outer loop
      vertex -2.53982 36.0021 0
      vertex -2.7861 35.8347 30
      vertex -2.53982 36.0021 30
    endloop
  endfacet
  facet normal -0.562084 0.82708 0
    outer loop
      vertex -2.7861 35.8347 30
      vertex -2.53982 36.0021 0
      vertex -2.7861 35.8347 0
    endloop
  endfacet
  facet normal -0.612904 0.790157 0
    outer loop
      vertex -2.7861 35.8347 0
      vertex -3.02139 35.6522 30
      vertex -2.7861 35.8347 30
    endloop
  endfacet
  facet normal -0.612904 0.790157 0
    outer loop
      vertex -3.02139 35.6522 30
      vertex -2.7861 35.8347 0
      vertex -3.02139 35.6522 0
    endloop
  endfacet
  facet normal -0.397146 0.917755 0
    outer loop
      vertex -1.74491 36.4071 0
      vertex -2.01819 36.2889 30
      vertex -1.74491 36.4071 30
    endloop
  endfacet
  facet normal -0.397146 0.917755 0
    outer loop
      vertex -2.01819 36.2889 30
      vertex -1.74491 36.4071 0
      vertex -2.01819 36.2889 0
    endloop
  endfacet
  facet normal -0.917753 0.397151 0
    outer loop
      vertex -4.40714 33.7449 0
      vertex -4.28888 34.0182 30
      vertex -4.28888 34.0182 0
    endloop
  endfacet
  facet normal -0.917753 0.397151 0
    outer loop
      vertex -4.28888 34.0182 30
      vertex -4.40714 33.7449 0
      vertex -4.40714 33.7449 30
    endloop
  endfacet
  facet normal -0.891008 0.453988 0
    outer loop
      vertex -4.28888 34.0182 0
      vertex -4.15369 34.2835 30
      vertex -4.15369 34.2835 0
    endloop
  endfacet
  facet normal -0.891008 0.453988 0
    outer loop
      vertex -4.15369 34.2835 30
      vertex -4.28888 34.0182 0
      vertex -4.28888 34.0182 30
    endloop
  endfacet
  facet normal -0.960294 0.278989 0
    outer loop
      vertex -4.59108 33.1788 0
      vertex -4.50801 33.4647 30
      vertex -4.50801 33.4647 0
    endloop
  endfacet
  facet normal -0.960294 0.278989 0
    outer loop
      vertex -4.50801 33.4647 30
      vertex -4.59108 33.1788 0
      vertex -4.59108 33.1788 30
    endloop
  endfacet
  facet normal -0.975916 0.218146 0
    outer loop
      vertex -4.65604 32.8882 0
      vertex -4.59108 33.1788 30
      vertex -4.59108 33.1788 0
    endloop
  endfacet
  facet normal -0.975916 0.218146 0
    outer loop
      vertex -4.59108 33.1788 30
      vertex -4.65604 32.8882 0
      vertex -4.65604 32.8882 30
    endloop
  endfacet
  facet normal -0.827081 0.562083 0
    outer loop
      vertex -4.00211 34.5398 0
      vertex -3.83474 34.7861 30
      vertex -3.83474 34.7861 0
    endloop
  endfacet
  facet normal -0.827081 0.562083 0
    outer loop
      vertex -3.83474 34.7861 30
      vertex -4.00211 34.5398 0
      vertex -4.00211 34.5398 30
    endloop
  endfacet
  facet normal -0.790154 0.612908 0
    outer loop
      vertex -3.83474 34.7861 0
      vertex -3.65223 35.0214 30
      vertex -3.65223 35.0214 0
    endloop
  endfacet
  facet normal -0.790154 0.612908 0
    outer loop
      vertex -3.65223 35.0214 30
      vertex -3.83474 34.7861 0
      vertex -3.83474 34.7861 30
    endloop
  endfacet
  facet normal 0.891008 -0.453988 0
    outer loop
      vertex 4.15369 -34.2835 30
      vertex 4.28888 -34.0182 0
      vertex 4.28888 -34.0182 30
    endloop
  endfacet
  facet normal 0.891008 -0.453988 0
    outer loop
      vertex 4.28888 -34.0182 0
      vertex 4.15369 -34.2835 30
      vertex 4.15369 -34.2835 0
    endloop
  endfacet
  facet normal 0.960294 -0.278989 0
    outer loop
      vertex 4.50801 -33.4647 30
      vertex 4.59108 -33.1788 0
      vertex 4.59108 -33.1788 30
    endloop
  endfacet
  facet normal 0.960294 -0.278989 0
    outer loop
      vertex 4.59108 -33.1788 0
      vertex 4.50801 -33.4647 30
      vertex 4.50801 -33.4647 0
    endloop
  endfacet
  facet normal 0.940881 -0.338737 0
    outer loop
      vertex 4.40714 -33.7449 30
      vertex 4.50801 -33.4647 0
      vertex 4.50801 -33.4647 30
    endloop
  endfacet
  facet normal 0.940881 -0.338737 0
    outer loop
      vertex 4.50801 -33.4647 0
      vertex 4.40714 -33.7449 30
      vertex 4.40714 -33.7449 0
    endloop
  endfacet
  facet normal 0.70711 -0.707104 0
    outer loop
      vertex 3.24475 -35.4553 30
      vertex 3.45531 -35.2448 0
      vertex 3.45531 -35.2448 30
    endloop
  endfacet
  facet normal 0.70711 -0.707104 0
    outer loop
      vertex 3.45531 -35.2448 0
      vertex 3.24475 -35.4553 30
      vertex 3.24475 -35.4553 0
    endloop
  endfacet
  facet normal 0.860742 -0.509042 0
    outer loop
      vertex 4.00211 -34.5398 30
      vertex 4.15369 -34.2835 0
      vertex 4.15369 -34.2835 30
    endloop
  endfacet
  facet normal 0.860742 -0.509042 0
    outer loop
      vertex 4.15369 -34.2835 0
      vertex 4.00211 -34.5398 30
      vertex 4.00211 -34.5398 0
    endloop
  endfacet
  facet normal 0.790154 -0.612908 0
    outer loop
      vertex 3.65223 -35.0214 30
      vertex 3.83474 -34.7861 0
      vertex 3.83474 -34.7861 30
    endloop
  endfacet
  facet normal 0.790154 -0.612908 0
    outer loop
      vertex 3.83474 -34.7861 0
      vertex 3.65223 -35.0214 30
      vertex 3.65223 -35.0214 0
    endloop
  endfacet
  facet normal 0.397146 -0.917755 0
    outer loop
      vertex 1.74491 -36.4071 0
      vertex 2.01819 -36.2889 30
      vertex 1.74491 -36.4071 30
    endloop
  endfacet
  facet normal 0.397146 -0.917755 0
    outer loop
      vertex 2.01819 -36.2889 30
      vertex 1.74491 -36.4071 0
      vertex 2.01819 -36.2889 0
    endloop
  endfacet
  facet normal 0.562084 -0.82708 0
    outer loop
      vertex 2.53982 -36.0021 0
      vertex 2.7861 -35.8347 30
      vertex 2.53982 -36.0021 30
    endloop
  endfacet
  facet normal 0.562084 -0.82708 0
    outer loop
      vertex 2.7861 -35.8347 30
      vertex 2.53982 -36.0021 0
      vertex 2.7861 -35.8347 0
    endloop
  endfacet
  facet normal 0.0314119 -0.999507 0
    outer loop
      vertex 0 -36.74 0
      vertex 0.297626 -36.7306 30
      vertex 0 -36.74 30
    endloop
  endfacet
  facet normal 0.0314119 -0.999507 0
    outer loop
      vertex 0.297626 -36.7306 30
      vertex 0 -36.74 0
      vertex 0.297626 -36.7306 0
    endloop
  endfacet
  facet normal 0.218142 -0.975917 0
    outer loop
      vertex 0.888187 -36.656 0
      vertex 1.17879 -36.5911 30
      vertex 0.888187 -36.656 30
    endloop
  endfacet
  facet normal 0.218142 -0.975917 0
    outer loop
      vertex 1.17879 -36.5911 30
      vertex 0.888187 -36.656 0
      vertex 1.17879 -36.5911 0
    endloop
  endfacet
  facet normal -0.917753 -0.397151 0
    outer loop
      vertex -4.28888 -34.0182 0
      vertex -4.40714 -33.7449 30
      vertex -4.40714 -33.7449 0
    endloop
  endfacet
  facet normal -0.917753 -0.397151 0
    outer loop
      vertex -4.40714 -33.7449 30
      vertex -4.28888 -34.0182 0
      vertex -4.28888 -34.0182 30
    endloop
  endfacet
  facet normal -0.860742 -0.509042 0
    outer loop
      vertex -4.00211 -34.5398 0
      vertex -4.15369 -34.2835 30
      vertex -4.15369 -34.2835 0
    endloop
  endfacet
  facet normal -0.860742 -0.509042 0
    outer loop
      vertex -4.15369 -34.2835 30
      vertex -4.00211 -34.5398 0
      vertex -4.00211 -34.5398 30
    endloop
  endfacet
  facet normal -0.827081 -0.562083 0
    outer loop
      vertex -3.83474 -34.7861 0
      vertex -4.00211 -34.5398 30
      vertex -4.00211 -34.5398 0
    endloop
  endfacet
  facet normal -0.827081 -0.562083 0
    outer loop
      vertex -4.00211 -34.5398 30
      vertex -3.83474 -34.7861 0
      vertex -3.83474 -34.7861 30
    endloop
  endfacet
  facet normal -0.750109 -0.661314 0
    outer loop
      vertex -3.45531 -35.2448 0
      vertex -3.65223 -35.0214 30
      vertex -3.65223 -35.0214 0
    endloop
  endfacet
  facet normal -0.750109 -0.661314 0
    outer loop
      vertex -3.65223 -35.0214 30
      vertex -3.45531 -35.2448 0
      vertex -3.45531 -35.2448 30
    endloop
  endfacet
  facet normal -0.960294 -0.278989 0
    outer loop
      vertex -4.50801 -33.4647 0
      vertex -4.59108 -33.1788 30
      vertex -4.59108 -33.1788 0
    endloop
  endfacet
  facet normal -0.960294 -0.278989 0
    outer loop
      vertex -4.59108 -33.1788 30
      vertex -4.50801 -33.4647 0
      vertex -4.50801 -33.4647 30
    endloop
  endfacet
  facet normal -0.987688 -0.156434 0
    outer loop
      vertex -4.65604 -32.8882 0
      vertex -4.70262 -32.5941 30
      vertex -4.70262 -32.5941 0
    endloop
  endfacet
  facet normal -0.987688 -0.156434 0
    outer loop
      vertex -4.70262 -32.5941 30
      vertex -4.65604 -32.8882 0
      vertex -4.65604 -32.8882 30
    endloop
  endfacet
  facet normal -0.999507 -0.0314119 0
    outer loop
      vertex -4.73065 -32.2976 0
      vertex -4.74 -32 30
      vertex -4.74 -32 0
    endloop
  endfacet
  facet normal -0.999507 -0.0314119 0
    outer loop
      vertex -4.74 -32 30
      vertex -4.73065 -32.2976 0
      vertex -4.73065 -32.2976 30
    endloop
  endfacet
  facet normal -0.509045 -0.86074 0
    outer loop
      vertex -2.53982 -36.0021 0
      vertex -2.28351 -36.1537 30
      vertex -2.53982 -36.0021 30
    endloop
  endfacet
  facet normal -0.509045 -0.86074 -0
    outer loop
      vertex -2.28351 -36.1537 30
      vertex -2.53982 -36.0021 0
      vertex -2.28351 -36.1537 0
    endloop
  endfacet
  facet normal -0.661313 -0.75011 0
    outer loop
      vertex -3.24475 -35.4553 0
      vertex -3.02139 -35.6522 30
      vertex -3.24475 -35.4553 30
    endloop
  endfacet
  facet normal -0.661313 -0.75011 -0
    outer loop
      vertex -3.02139 -35.6522 30
      vertex -3.24475 -35.4553 0
      vertex -3.02139 -35.6522 0
    endloop
  endfacet
  facet normal -0.33874 -0.94088 0
    outer loop
      vertex -1.74491 -36.4071 0
      vertex -1.46474 -36.508 30
      vertex -1.74491 -36.4071 30
    endloop
  endfacet
  facet normal -0.33874 -0.94088 -0
    outer loop
      vertex -1.46474 -36.508 30
      vertex -1.74491 -36.4071 0
      vertex -1.46474 -36.508 0
    endloop
  endfacet
  facet normal -0.156431 -0.987689 0
    outer loop
      vertex -0.888187 -36.656 0
      vertex -0.594079 -36.7026 30
      vertex -0.888187 -36.656 30
    endloop
  endfacet
  facet normal -0.156431 -0.987689 -0
    outer loop
      vertex -0.594079 -36.7026 30
      vertex -0.888187 -36.656 0
      vertex -0.594079 -36.7026 0
    endloop
  endfacet
  facet normal -0.0941075 -0.995562 0
    outer loop
      vertex -0.594079 -36.7026 0
      vertex -0.297626 -36.7306 30
      vertex -0.594079 -36.7026 30
    endloop
  endfacet
  facet normal -0.0941075 -0.995562 -0
    outer loop
      vertex -0.297626 -36.7306 30
      vertex -0.594079 -36.7026 0
      vertex -0.297626 -36.7306 0
    endloop
  endfacet
  facet normal 0.975916 -0.218146 0
    outer loop
      vertex 4.59108 -33.1788 30
      vertex 4.65604 -32.8882 0
      vertex 4.65604 -32.8882 30
    endloop
  endfacet
  facet normal 0.975916 -0.218146 0
    outer loop
      vertex 4.65604 -32.8882 0
      vertex 4.59108 -33.1788 30
      vertex 4.59108 -33.1788 0
    endloop
  endfacet
  facet normal 0.917753 -0.397151 0
    outer loop
      vertex 4.28888 -34.0182 30
      vertex 4.40714 -33.7449 0
      vertex 4.40714 -33.7449 30
    endloop
  endfacet
  facet normal 0.917753 -0.397151 0
    outer loop
      vertex 4.40714 -33.7449 0
      vertex 4.28888 -34.0182 30
      vertex 4.28888 -34.0182 0
    endloop
  endfacet
  facet normal 0.750109 -0.661314 0
    outer loop
      vertex 3.45531 -35.2448 30
      vertex 3.65223 -35.0214 0
      vertex 3.65223 -35.0214 30
    endloop
  endfacet
  facet normal 0.750109 -0.661314 0
    outer loop
      vertex 3.65223 -35.0214 0
      vertex 3.45531 -35.2448 30
      vertex 3.45531 -35.2448 0
    endloop
  endfacet
  facet normal 0.827081 -0.562083 0
    outer loop
      vertex 3.83474 -34.7861 30
      vertex 4.00211 -34.5398 0
      vertex 4.00211 -34.5398 30
    endloop
  endfacet
  facet normal 0.827081 -0.562083 0
    outer loop
      vertex 4.00211 -34.5398 0
      vertex 3.83474 -34.7861 30
      vertex 3.83474 -34.7861 0
    endloop
  endfacet
  facet normal 0.453987 -0.891009 0
    outer loop
      vertex 2.01819 -36.2889 0
      vertex 2.28351 -36.1537 30
      vertex 2.01819 -36.2889 30
    endloop
  endfacet
  facet normal 0.453987 -0.891009 0
    outer loop
      vertex 2.28351 -36.1537 30
      vertex 2.01819 -36.2889 0
      vertex 2.28351 -36.1537 0
    endloop
  endfacet
  facet normal -0.891008 -0.453988 0
    outer loop
      vertex -4.15369 -34.2835 0
      vertex -4.28888 -34.0182 30
      vertex -4.28888 -34.0182 0
    endloop
  endfacet
  facet normal -0.891008 -0.453988 0
    outer loop
      vertex -4.28888 -34.0182 30
      vertex -4.15369 -34.2835 0
      vertex -4.15369 -34.2835 30
    endloop
  endfacet
  facet normal -0.790154 -0.612908 0
    outer loop
      vertex -3.65223 -35.0214 0
      vertex -3.83474 -34.7861 30
      vertex -3.83474 -34.7861 0
    endloop
  endfacet
  facet normal -0.790154 -0.612908 0
    outer loop
      vertex -3.83474 -34.7861 30
      vertex -3.65223 -35.0214 0
      vertex -3.65223 -35.0214 30
    endloop
  endfacet
  facet normal -0.995562 -0.0941078 0
    outer loop
      vertex -4.70262 -32.5941 0
      vertex -4.73065 -32.2976 30
      vertex -4.73065 -32.2976 0
    endloop
  endfacet
  facet normal -0.995562 -0.0941078 0
    outer loop
      vertex -4.73065 -32.2976 30
      vertex -4.70262 -32.5941 0
      vertex -4.70262 -32.5941 30
    endloop
  endfacet
  facet normal 1 -0 0
    outer loop
      vertex -2.52 -33.64 4.06
      vertex -2.52 -26.88 0
      vertex -2.52 -26.88 4.06
    endloop
  endfacet
  facet normal 1 0 0
    outer loop
      vertex -2.52 -26.88 0
      vertex -2.52 -33.64 4.06
      vertex -2.52 -33.64 0
    endloop
  endfacet
  facet normal 0 0 -1
    outer loop
      vertex -2.52 -33.64 4.06
      vertex 2.52 -26.88 4.06
      vertex 2.52 -33.64 4.06
    endloop
  endfacet
  facet normal -0 0 -1
    outer loop
      vertex 2.52 -26.88 4.06
      vertex -2.52 -33.64 4.06
      vertex -2.52 -26.88 4.06
    endloop
  endfacet
  facet normal -1 0 0
    outer loop
      vertex 2.52 -33.64 0
      vertex 2.52 -26.88 4.06
      vertex 2.52 -26.88 0
    endloop
  endfacet
  facet normal -1 -0 0
    outer loop
      vertex 2.52 -26.88 4.06
      vertex 2.52 -33.64 0
      vertex 2.52 -33.64 4.06
    endloop
  endfacet
  facet normal 0 1 -0
    outer loop
      vertex 2.52 -33.64 0
      vertex -2.52 -33.64 4.06
      vertex 2.52 -33.64 4.06
    endloop
  endfacet
  facet normal 0 1 0
    outer loop
      vertex -2.52 -33.64 4.06
      vertex 2.52 -33.64 0
      vertex -2.52 -33.64 0
    endloop
  endfacet
  facet normal 0 -1 0
    outer loop
      vertex 0.839993 -26.88 2.28999
      vertex 0.839993 -26.88 0
      vertex 2.51999 -26.88 2.28999
    endloop
  endfacet
  facet normal 0 -1 0
    outer loop
      vertex -2.52 -26.88 4.06
      vertex -1.65 -26.88 4.06
      vertex 2.52 -26.88 4.06
    endloop
  endfacet
  facet normal 0 -1 0
    outer loop
      vertex -2.52 -26.88 4.06
      vertex -2.51999 -26.88 3.17
      vertex -1.65 -26.88 4.06
    endloop
  endfacet
  facet normal 0 -1 0
    outer loop
      vertex -2.52 -26.88 4.06
      vertex -2.51999 -26.88 2.28999
      vertex -2.51999 -26.88 3.17
    endloop
  endfacet
  facet normal 0 -1 0
    outer loop
      vertex -2.52 -26.88 0
      vertex -2.51999 -26.88 2.28999
      vertex -2.52 -26.88 4.06
    endloop
  endfacet
  facet normal 0 -1 0
    outer loop
      vertex -2.52 -26.88 0
      vertex -0.839999 -26.88 2.28999
      vertex -2.51999 -26.88 2.28999
    endloop
  endfacet
  facet normal 0 -1 -0
    outer loop
      vertex -0.839999 -26.88 2.28999
      vertex -2.52 -26.88 0
      vertex -0.839999 -26.88 0
    endloop
  endfacet
  facet normal 0 -1 0
    outer loop
      vertex 1.62999 -26.88 4.06
      vertex 2.52 -26.88 4.06
      vertex -1.65 -26.88 4.06
    endloop
  endfacet
  facet normal 0 -1 0
    outer loop
      vertex 2.51999 -26.88 3.17
      vertex 2.52 -26.88 4.06
      vertex 1.62999 -26.88 4.06
    endloop
  endfacet
  facet normal 0 -1 0
    outer loop
      vertex 2.51999 -26.88 2.28999
      vertex 2.52 -26.88 4.06
      vertex 2.51999 -26.88 3.17
    endloop
  endfacet
  facet normal 0 -1 0
    outer loop
      vertex 2.51999 -26.88 2.28999
      vertex 2.52 -26.88 0
      vertex 2.52 -26.88 4.06
    endloop
  endfacet
  facet normal 0 -1 0
    outer loop
      vertex 2.52 -26.88 0
      vertex 2.51999 -26.88 2.28999
      vertex 0.839993 -26.88 0
    endloop
  endfacet
  facet normal 1 -0 0
    outer loop
      vertex -2.52 16.36 4.06
      vertex -2.52 23.12 0
      vertex -2.52 23.12 4.06
    endloop
  endfacet
  facet normal 1 0 0
    outer loop
      vertex -2.52 23.12 0
      vertex -2.52 16.36 4.06
      vertex -2.52 16.36 0
    endloop
  endfacet
  facet normal 0 0 -1
    outer loop
      vertex -2.52 16.36 4.06
      vertex 2.52 23.12 4.06
      vertex 2.52 16.36 4.06
    endloop
  endfacet
  facet normal -0 0 -1
    outer loop
      vertex 2.52 23.12 4.06
      vertex -2.52 16.36 4.06
      vertex -2.52 23.12 4.06
    endloop
  endfacet
  facet normal -1 0 0
    outer loop
      vertex 2.52 16.36 0
      vertex 2.52 23.12 4.06
      vertex 2.52 23.12 0
    endloop
  endfacet
  facet normal -1 -0 0
    outer loop
      vertex 2.52 23.12 4.06
      vertex 2.52 16.36 0
      vertex 2.52 16.36 4.06
    endloop
  endfacet
  facet normal 0 -1 0
    outer loop
      vertex 0.839993 23.12 2.28999
      vertex 0.839993 23.12 0
      vertex 2.51999 23.12 2.28999
    endloop
  endfacet
  facet normal 0 -1 0
    outer loop
      vertex -2.52 23.12 4.06
      vertex -1.65 23.12 4.06
      vertex 2.52 23.12 4.06
    endloop
  endfacet
  facet normal 0 -1 0
    outer loop
      vertex -2.52 23.12 4.06
      vertex -2.51999 23.12 3.17
      vertex -1.65 23.12 4.06
    endloop
  endfacet
  facet normal 0 -1 0
    outer loop
      vertex -2.52 23.12 4.06
      vertex -2.51999 23.12 2.28999
      vertex -2.51999 23.12 3.17
    endloop
  endfacet
  facet normal 0 -1 0
    outer loop
      vertex -2.52 23.12 0
      vertex -2.51999 23.12 2.28999
      vertex -2.52 23.12 4.06
    endloop
  endfacet
  facet normal 0 -1 0
    outer loop
      vertex -2.52 23.12 0
      vertex -0.839999 23.12 2.28999
      vertex -2.51999 23.12 2.28999
    endloop
  endfacet
  facet normal 0 -1 -0
    outer loop
      vertex -0.839999 23.12 2.28999
      vertex -2.52 23.12 0
      vertex -0.839999 23.12 0
    endloop
  endfacet
  facet normal 0 -1 0
    outer loop
      vertex 1.62999 23.12 4.06
      vertex 2.52 23.12 4.06
      vertex -1.65 23.12 4.06
    endloop
  endfacet
  facet normal 0 -1 0
    outer loop
      vertex 2.51999 23.12 3.17
      vertex 2.52 23.12 4.06
      vertex 1.62999 23.12 4.06
    endloop
  endfacet
  facet normal 0 -1 0
    outer loop
      vertex 2.51999 23.12 2.28999
      vertex 2.52 23.12 4.06
      vertex 2.51999 23.12 3.17
    endloop
  endfacet
  facet normal 0 -1 0
    outer loop
      vertex 2.51999 23.12 2.28999
      vertex 2.52 23.12 0
      vertex 2.52 23.12 4.06
    endloop
  endfacet
  facet normal 0 -1 0
    outer loop
      vertex 2.52 23.12 0
      vertex 2.51999 23.12 2.28999
      vertex 0.839993 23.12 0
    endloop
  endfacet
  facet normal 0 1 -0
    outer loop
      vertex 2.52 16.36 0
      vertex -2.52 16.36 4.06
      vertex 2.52 16.36 4.06
    endloop
  endfacet
  facet normal 0 1 0
    outer loop
      vertex -2.52 16.36 4.06
      vertex 2.52 16.36 0
      vertex -2.52 16.36 0
    endloop
  endfacet
  facet normal 0 -1 0
    outer loop
      vertex -0.839999 -22.62 0
      vertex 0.839993 -22.62 2.28999
      vertex -0.839999 -22.62 2.28999
    endloop
  endfacet
  facet normal 0 -1 -0
    outer loop
      vertex 0.839993 -22.62 2.28999
      vertex -0.839999 -22.62 0
      vertex 0.839993 -22.62 0
    endloop
  endfacet
  facet normal 0 -1 0
    outer loop
      vertex -0.839999 -22.62 2.28999
      vertex -1.65 -22.62 4.06
      vertex -2.51999 -22.62 3.17
    endloop
  endfacet
  facet normal 0 -1 0
    outer loop
      vertex -1.65 -22.62 4.06
      vertex -0.839999 -22.62 2.28999
      vertex 1.62999 -22.62 4.06
    endloop
  endfacet
  facet normal 0 -1 0
    outer loop
      vertex -0.839999 -22.62 2.28999
      vertex -2.51999 -22.62 3.17
      vertex -2.51999 -22.62 2.28999
    endloop
  endfacet
  facet normal 0 -1 0
    outer loop
      vertex 0.839993 -22.62 2.28999
      vertex 1.62999 -22.62 4.06
      vertex -0.839999 -22.62 2.28999
    endloop
  endfacet
  facet normal 0 -1 -0
    outer loop
      vertex 1.62999 -22.62 4.06
      vertex 0.839993 -22.62 2.28999
      vertex 2.51999 -22.62 3.17
    endloop
  endfacet
  facet normal 0 -1 -0
    outer loop
      vertex 2.51999 -22.62 3.17
      vertex 0.839993 -22.62 2.28999
      vertex 2.51999 -22.62 2.28999
    endloop
  endfacet
  facet normal -0 0 1
    outer loop
      vertex 0.839993 -22.62 2.28999
      vertex 2.51999 -26.88 2.28999
      vertex 2.51999 -22.62 2.28999
    endloop
  endfacet
  facet normal 0 0 1
    outer loop
      vertex 2.51999 -26.88 2.28999
      vertex 0.839993 -22.62 2.28999
      vertex 0.839993 -26.88 2.28999
    endloop
  endfacet
  facet normal -1 0 0
    outer loop
      vertex 2.51999 -26.88 2.28999
      vertex 2.51999 -22.62 3.17
      vertex 2.51999 -22.62 2.28999
    endloop
  endfacet
  facet normal -1 -0 0
    outer loop
      vertex 2.51999 -22.62 3.17
      vertex 2.51999 -26.88 2.28999
      vertex 2.51999 -26.88 3.17
    endloop
  endfacet
  facet normal -0.707107 0 -0.707107
    outer loop
      vertex 2.51999 -26.88 3.17
      vertex 1.62999 -22.62 4.06
      vertex 2.51999 -22.62 3.17
    endloop
  endfacet
  facet normal -0.707107 -0 -0.707107
    outer loop
      vertex 1.62999 -22.62 4.06
      vertex 2.51999 -26.88 3.17
      vertex 1.62999 -26.88 4.06
    endloop
  endfacet
  facet normal 0 0 -1
    outer loop
      vertex -1.65 -26.88 4.06
      vertex 1.62999 -22.62 4.06
      vertex 1.62999 -26.88 4.06
    endloop
  endfacet
  facet normal -0 0 -1
    outer loop
      vertex 1.62999 -22.62 4.06
      vertex -1.65 -26.88 4.06
      vertex -1.65 -22.62 4.06
    endloop
  endfacet
  facet normal 0.715098 0 -0.699025
    outer loop
      vertex -1.65 -26.88 4.06
      vertex -2.51999 -22.62 3.17
      vertex -1.65 -22.62 4.06
    endloop
  endfacet
  facet normal 0.715098 0 -0.699025
    outer loop
      vertex -2.51999 -22.62 3.17
      vertex -1.65 -26.88 4.06
      vertex -2.51999 -26.88 3.17
    endloop
  endfacet
  facet normal 1 -0 0
    outer loop
      vertex -2.51999 -26.88 3.17
      vertex -2.51999 -22.62 2.28999
      vertex -2.51999 -22.62 3.17
    endloop
  endfacet
  facet normal 1 0 0
    outer loop
      vertex -2.51999 -22.62 2.28999
      vertex -2.51999 -26.88 3.17
      vertex -2.51999 -26.88 2.28999
    endloop
  endfacet
  facet normal -0 0 1
    outer loop
      vertex -2.51999 -22.62 2.28999
      vertex -0.839999 -26.88 2.28999
      vertex -0.839999 -22.62 2.28999
    endloop
  endfacet
  facet normal 0 0 1
    outer loop
      vertex -0.839999 -26.88 2.28999
      vertex -2.51999 -22.62 2.28999
      vertex -2.51999 -26.88 2.28999
    endloop
  endfacet
  facet normal 1 -0 0
    outer loop
      vertex -0.839999 -26.88 2.28999
      vertex -0.839999 -22.62 0
      vertex -0.839999 -22.62 2.28999
    endloop
  endfacet
  facet normal 1 0 0
    outer loop
      vertex -0.839999 -22.62 0
      vertex -0.839999 -26.88 2.28999
      vertex -0.839999 -26.88 0
    endloop
  endfacet
  facet normal -1 0 0
    outer loop
      vertex 0.839993 -26.88 0
      vertex 0.839993 -22.62 2.28999
      vertex 0.839993 -22.62 0
    endloop
  endfacet
  facet normal -1 -0 0
    outer loop
      vertex 0.839993 -22.62 2.28999
      vertex 0.839993 -26.88 0
      vertex 0.839993 -26.88 2.28999
    endloop
  endfacet
  facet normal 0 -1 0
    outer loop
      vertex -0.839999 27.38 0
      vertex 0.839993 27.38 2.28999
      vertex -0.839999 27.38 2.28999
    endloop
  endfacet
  facet normal 0 -1 -0
    outer loop
      vertex 0.839993 27.38 2.28999
      vertex -0.839999 27.38 0
      vertex 0.839993 27.38 0
    endloop
  endfacet
  facet normal 0 -1 0
    outer loop
      vertex -0.839999 27.38 2.28999
      vertex -1.65 27.38 4.06
      vertex -2.51999 27.38 3.17
    endloop
  endfacet
  facet normal 0 -1 0
    outer loop
      vertex -1.65 27.38 4.06
      vertex -0.839999 27.38 2.28999
      vertex 1.62999 27.38 4.06
    endloop
  endfacet
  facet normal 0 -1 0
    outer loop
      vertex -0.839999 27.38 2.28999
      vertex -2.51999 27.38 3.17
      vertex -2.51999 27.38 2.28999
    endloop
  endfacet
  facet normal 0 -1 0
    outer loop
      vertex 0.839993 27.38 2.28999
      vertex 1.62999 27.38 4.06
      vertex -0.839999 27.38 2.28999
    endloop
  endfacet
  facet normal 0 -1 -0
    outer loop
      vertex 1.62999 27.38 4.06
      vertex 0.839993 27.38 2.28999
      vertex 2.51999 27.38 3.17
    endloop
  endfacet
  facet normal 0 -1 -0
    outer loop
      vertex 2.51999 27.38 3.17
      vertex 0.839993 27.38 2.28999
      vertex 2.51999 27.38 2.28999
    endloop
  endfacet
  facet normal -0 0 1
    outer loop
      vertex 0.839993 27.38 2.28999
      vertex 2.51999 23.12 2.28999
      vertex 2.51999 27.38 2.28999
    endloop
  endfacet
  facet normal 0 0 1
    outer loop
      vertex 2.51999 23.12 2.28999
      vertex 0.839993 27.38 2.28999
      vertex 0.839993 23.12 2.28999
    endloop
  endfacet
  facet normal -1 0 0
    outer loop
      vertex 2.51999 23.12 2.28999
      vertex 2.51999 27.38 3.17
      vertex 2.51999 27.38 2.28999
    endloop
  endfacet
  facet normal -1 -0 0
    outer loop
      vertex 2.51999 27.38 3.17
      vertex 2.51999 23.12 2.28999
      vertex 2.51999 23.12 3.17
    endloop
  endfacet
  facet normal -0.707107 0 -0.707107
    outer loop
      vertex 2.51999 23.12 3.17
      vertex 1.62999 27.38 4.06
      vertex 2.51999 27.38 3.17
    endloop
  endfacet
  facet normal -0.707107 -0 -0.707107
    outer loop
      vertex 1.62999 27.38 4.06
      vertex 2.51999 23.12 3.17
      vertex 1.62999 23.12 4.06
    endloop
  endfacet
  facet normal 0 0 -1
    outer loop
      vertex -1.65 23.12 4.06
      vertex 1.62999 27.38 4.06
      vertex 1.62999 23.12 4.06
    endloop
  endfacet
  facet normal -0 0 -1
    outer loop
      vertex 1.62999 27.38 4.06
      vertex -1.65 23.12 4.06
      vertex -1.65 27.38 4.06
    endloop
  endfacet
  facet normal 0.715098 0 -0.699025
    outer loop
      vertex -1.65 23.12 4.06
      vertex -2.51999 27.38 3.17
      vertex -1.65 27.38 4.06
    endloop
  endfacet
  facet normal 0.715098 0 -0.699025
    outer loop
      vertex -2.51999 27.38 3.17
      vertex -1.65 23.12 4.06
      vertex -2.51999 23.12 3.17
    endloop
  endfacet
  facet normal 1 -0 0
    outer loop
      vertex -2.51999 23.12 3.17
      vertex -2.51999 27.38 2.28999
      vertex -2.51999 27.38 3.17
    endloop
  endfacet
  facet normal 1 0 0
    outer loop
      vertex -2.51999 27.38 2.28999
      vertex -2.51999 23.12 3.17
      vertex -2.51999 23.12 2.28999
    endloop
  endfacet
  facet normal -0 0 1
    outer loop
      vertex -2.51999 27.38 2.28999
      vertex -0.839999 23.12 2.28999
      vertex -0.839999 27.38 2.28999
    endloop
  endfacet
  facet normal 0 0 1
    outer loop
      vertex -0.839999 23.12 2.28999
      vertex -2.51999 27.38 2.28999
      vertex -2.51999 23.12 2.28999
    endloop
  endfacet
  facet normal 1 -0 0
    outer loop
      vertex -0.839999 23.12 2.28999
      vertex -0.839999 27.38 0
      vertex -0.839999 27.38 2.28999
    endloop
  endfacet
  facet normal 1 0 0
    outer loop
      vertex -0.839999 27.38 0
      vertex -0.839999 23.12 2.28999
      vertex -0.839999 23.12 0
    endloop
  endfacet
  facet normal -1 0 0
    outer loop
      vertex 0.839993 23.12 0
      vertex 0.839993 27.38 2.28999
      vertex 0.839993 27.38 0
    endloop
  endfacet
  facet normal -1 -0 0
    outer loop
      vertex 0.839993 27.38 2.28999
      vertex 0.839993 23.12 0
      vertex 0.839993 23.12 2.28999
    endloop
  endfacet
endsolid OpenSCAD_Model
