999
dxfrw 0.6.3
  0
SECTION
  2
HEADER
  9
$ACADVER
  1
AC1009
  9
$DWGCODEPAGE
  3
ANSI_1252
  9
$INSBASE
 10
0
 20
0
 30
0
  9
$EXTMIN
 10
0
 20
-250.5681138653854
 30
0
  9
$EXTMAX
 10
805
 20
250.5681138653854
 30
0
  9
$LIMMIN
 10
0
 20
0
  9
$LIMMAX
 10
12
 20
9
  9
$ORTHOMODE
 70
    0
  9
$REGENMODE
 70
    1
  9
$FILLMODE
 70
    1
  9
$QTEXTMODE
 70
    0
  9
$MIRRTEXT
 70
    1
  9
$DRAGMODE
 70
    2
  9
$LTSCALE
 40
1
  9
$OSMODE
 70
    0
  9
$ATTMODE
 70
    1
  9
$TEXTSIZE
 40
0.2
  9
$TRACEWID
 40
0.05
  9
$TEXTSTYLE
  7
STANDARD
  9
$CLAYER
  8
0
  9
$CELTYPE
  6
BYLAYER
  9
$CECOLOR
 62
  256
  9
$DIMSCALE
 40
1
  9
$DIMASZ
 40
0.18
  9
$DIMEXO
 40
0.0625
  9
$DIMDLI
 40
0.38
  9
$DIMRND
 40
0
  9
$DIMDLE
 40
0
  9
$DIMEXE
 40
0.18
  9
$DIMTP
 40
0
  9
$DIMTM
 40
0
  9
$DIMTXT
 40
0.18
  9
$DIMCEN
 40
0.09
  9
$DIMTSZ
 40
0
  9
$DIMTOL
 70
    0
  9
$DIMLIM
 70
    0
  9
$DIMTIH
 70
    1
  9
$DIMTOH
 70
    1
  9
$DIMSE1
 70
    0
  9
$DIMSE2
 70
    0
  9
$DIMTAD
 70
    0
  9
$DIMZIN
 70
    0
  9
$DIMBLK
  1

  9
$DIMASO
 70
    1
  9
$DIMSHO
 70
    1
  9
$DIMPOST
  1

  9
$DIMAPOST
  1

  9
$DIMALT
 70
    0
  9
$DIMALTD
 70
    2
  9
$DIMALTF
 40
25.4
  9
$DIMLFAC
 40
1
  9
$DIMTOFL
 70
    0
  9
$DIMTVP
 40
0
  9
$DIMTIX
 70
    0
  9
$DIMSOXD
 70
    0
  9
$DIMSAH
 70
    0
  9
$DIMBLK1
  1

  9
$DIMBLK2
  1

  9
$DIMSTYLE
  2
STANDARD
  9
$DIMCLRD
 70
    0
  9
$DIMCLRE
 70
    0
  9
$DIMCLRT
 70
    0
  9
$DIMTFAC
 40
1
  9
$DIMGAP
 40
0.09
  9
$LUNITS
 70
    2
  9
$LUPREC
 70
    3
  9
$SKETCHINC
 40
0.1
  9
$FILLETRAD
 40
0.5
  9
$AUNITS
 70
    0
  9
$AUPREC
 70
    0
  9
$MENU
  1
.
  9
$ELEVATION
 40
0
  9
$PELEVATION
 40
0
  9
$THICKNESS
 40
0
  9
$LIMCHECK
 70
    0
  9
$BLIPMODE
 70
    0
  9
$CHAMFERA
 40
0.5
  9
$CHAMFERB
 40
0.5
  9
$SKPOLY
 70
    0
  9
$USRTIMER
 70
    1
  9
$ANGBASE
 50
0
  9
$ANGDIR
 70
    0
  9
$PDMODE
 70
    0
  9
$PDSIZE
 40
0
  9
$PLINEWID
 40
0
  9
$COORDS
 70
    2
  9
$SPLFRAME
 70
    0
  9
$SPLINETYPE
 70
    6
  9
$SPLINESEGS
 70
    8
  9
$ATTDIA
 70
    1
  9
$ATTREQ
 70
    1
  9
$HANDLING
 70
    1
  9
$HANDSEED
  5
20000
  9
$SURFTAB1
 70
    6
  9
$SURFTAB2
 70
    6
  9
$SURFTYPE
 70
    6
  9
$SURFU
 70
    6
  9
$SURFV
 70
    6
  9
$UCSNAME
  2

  9
$UCSORG
 10
0
 20
0
 30
0
  9
$UCSXDIR
 10
1
 20
0
 30
0
  9
$UCSYDIR
 10
0
 20
1
 30
0
  9
$PUCSNAME
  2

  9
$PUCSORG
 10
0
 20
0
 30
0
  9
$PUCSXDIR
 10
1
 20
0
 30
0
  9
$PUCSYDIR
 10
0
 20
1
 30
0
  9
$USERI1
 70
    0
  9
$USERI2
 70
    0
  9
$USERI3
 70
    0
  9
$USERI4
 70
    0
  9
$USERI5
 70
    0
  9
$USERR1
 40
0
  9
$USERR2
 40
0
  9
$USERR3
 40
0
  9
$USERR4
 40
0
  9
$USERR5
 40
0
  9
$WORLDVIEW
 70
    1
  9
$SHADEDGE
 70
    3
  9
$SHADEDIF
 70
   70
  9
$TILEMODE
 70
    1
  9
$MAXACTVP
 70
   64
  9
$PLIMCHECK
 70
    0
  9
$PEXTMIN
 10
1e+20
 20
1e+20
 30
1e+20
  9
$PEXTMAX
 10
-1e+20
 20
-1e+20
 30
-1e+20
  9
$GRIDMODE
 70
    0
  9
$SNAPSTYLE
 70
    0
  9
$PLIMMIN
 10
0
 20
0
  9
$PLIMMAX
 10
12
 20
9
  9
$UNITMODE
 70
    0
  9
$VISRETAIN
 70
    1
  9
$PLINEGEN
 70
    0
  9
$PSLTSCALE
 70
    1
  0
ENDSEC
  0
SECTION
  2
TABLES
  0
TABLE
  2
VPORT
 70
    1
  0
VPORT
  2
*ACTIVE
 70
    0
 10
0
 20
0
 11
1
 21
1
 12
558.5057672217471
 22
250.3983825022194
 13
0
 23
0
 14
10
 24
10
 15
10
 25
10
 16
0
 26
0
 36
1
 17
0
 27
0
 37
0
 40
845.0945409449904
 41
1.703703703703704
 42
50
 43
0
 44
0
 50
0
 51
0
 71
    0
 72
  100
 73
    1
 74
    3
 75
    0
 76
    0
 77
    0
 78
    0
  0
ENDTAB
  0
TABLE
  2
LTYPE
 70
    4
  0
LTYPE
  2
BYBLOCK
 70
    0
  3

 72
   65
 73
    0
 40
0
  0
LTYPE
  2
BYLAYER
 70
    0
  3

 72
   65
 73
    0
 40
0
  0
LTYPE
  2
CONTINUOUS
 70
    0
  3
Solid line
 72
   65
 73
    0
 40
0
  0
LTYPE
  2
DOT
 70
    0
  3
Dot . . . . . . . . . . . . . . . . . . . . . .
 72
   65
 73
    2
 40
6.35
 49
0
 49
-6.35
  0
LTYPE
  2
DOTTINY
 70
    0
  3
Dot (.15x) .....................................
 72
   65
 73
    2
 40
0.9525
 49
0
 49
-0.9525
  0
LTYPE
  2
DOT2
 70
    0
  3
Dot (.5x) .....................................
 72
   65
 73
    2
 40
3.175
 49
0
 49
-3.175
  0
LTYPE
  2
DOTX2
 70
    0
  3
Dot (2x) .  .  .  .  .  .  .  .  .  .  .  .  .
 72
   65
 73
    2
 40
12.7
 49
0
 49
-12.7
  0
LTYPE
  2
DASHED
 70
    0
  3
Dashed _ _ _ _ _ _ _ _ _ _ _ _ _ _ _ _ _
 72
   65
 73
    2
 40
19.05
 49
12.7
 49
-6.35
  0
LTYPE
  2
DASHEDTINY
 70
    0
  3
Dashed (.15x) _ _ _ _ _ _ _ _ _ _ _ _ _ _ _ _ _
 72
   65
 73
    2
 40
2.8575
 49
1.905
 49
-0.9525
  0
LTYPE
  2
DASHED2
 70
    0
  3
Dashed (.5x) _ _ _ _ _ _ _ _ _ _ _ _ _ _ _ _ _
 72
   65
 73
    2
 40
9.524999999999999
 49
6.35
 49
-3.175
  0
LTYPE
  2
DASHEDX2
 70
    0
  3
Dashed (2x) ____  ____  ____  ____  ____  ___
 72
   65
 73
    2
 40
38.09999999999999
 49
25.4
 49
-12.7
  0
LTYPE
  2
DASHDOT
 70
    0
  3
Dash dot __ . __ . __ . __ . __ . __ . __ . __
 72
   65
 73
    4
 40
25.4
 49
12.7
 49
-6.35
 49
0
 49
-6.35
  0
LTYPE
  2
DASHDOTTINY
 70
    0
  3
Dash dot (.15x) _._._._._._._._._._._._._._._.
 72
   65
 73
    4
 40
3.81
 49
1.905
 49
-0.9525
 49
0
 49
-0.9525
  0
LTYPE
  2
DASHDOT2
 70
    0
  3
Dash dot (.5x) _._._._._._._._._._._._._._._.
 72
   65
 73
    4
 40
12.7
 49
6.35
 49
-3.175
 49
0
 49
-3.175
  0
LTYPE
  2
DASHDOTX2
 70
    0
  3
Dash dot (2x) ____  .  ____  .  ____  .  ___
 72
   65
 73
    4
 40
50.8
 49
25.4
 49
-12.7
 49
0
 49
-12.7
  0
LTYPE
  2
DIVIDE
 70
    0
  3
Divide ____ . . ____ . . ____ . . ____ . . ____
 72
   65
 73
    6
 40
31.75
 49
12.7
 49
-6.35
 49
0
 49
-6.35
 49
0
 49
-6.35
  0
LTYPE
  2
DIVIDETINY
 70
    0
  3
Divide (.15x) __..__..__..__..__..__..__..__.._
 72
   65
 73
    6
 40
4.7625
 49
1.905
 49
-0.9525
 49
0
 49
-0.9525
 49
0
 49
-0.9525
  0
LTYPE
  2
DIVIDE2
 70
    0
  3
Divide (.5x) __..__..__..__..__..__..__..__.._
 72
   65
 73
    6
 40
15.875
 49
6.35
 49
-3.175
 49
0
 49
-3.175
 49
0
 49
-3.175
  0
LTYPE
  2
DIVIDEX2
 70
    0
  3
Divide (2x) ________  .  .  ________  .  .  _
 72
   65
 73
    6
 40
63.5
 49
25.4
 49
-12.7
 49
0
 49
-12.7
 49
0
 49
-12.7
  0
LTYPE
  2
BORDER
 70
    0
  3
Border __ __ . __ __ . __ __ . __ __ . __ __ .
 72
   65
 73
    6
 40
44.45
 49
12.7
 49
-6.35
 49
12.7
 49
-6.35
 49
0
 49
-6.35
  0
LTYPE
  2
BORDERTINY
 70
    0
  3
Border (.15x) __.__.__.__.__.__.__.__.__.__.__.
 72
   65
 73
    6
 40
6.6675
 49
1.905
 49
-0.9525
 49
1.905
 49
-0.9525
 49
0
 49
-0.9525
  0
LTYPE
  2
BORDER2
 70
    0
  3
Border (.5x) __.__.__.__.__.__.__.__.__.__.__.
 72
   65
 73
    6
 40
22.225
 49
6.35
 49
-3.175
 49
6.35
 49
-3.175
 49
0
 49
-3.175
  0
LTYPE
  2
BORDERX2
 70
    0
  3
Border (2x) ____  ____  .  ____  ____  .  ___
 72
   65
 73
    6
 40
88.89999999999999
 49
25.4
 49
-12.7
 49
25.4
 49
-12.7
 49
0
 49
-12.7
  0
LTYPE
  2
CENTER
 70
    0
  3
Center ____ _ ____ _ ____ _ ____ _ ____ _ ____
 72
   65
 73
    4
 40
50.8
 49
31.75
 49
-6.35
 49
6.35
 49
-6.35
  0
LTYPE
  2
CENTERTINY
 70
    0
  3
Center (.15x) ___ _ ___ _ ___ _ ___ _ ___ _ ___
 72
   65
 73
    4
 40
7.619999999999999
 49
4.7625
 49
-0.9525
 49
0.9525
 49
-0.9525
  0
LTYPE
  2
CENTER2
 70
    0
  3
Center (.5x) ___ _ ___ _ ___ _ ___ _ ___ _ ___
 72
   65
 73
    4
 40
28.575
 49
19.05
 49
-3.175
 49
3.175
 49
-3.175
  0
LTYPE
  2
CENTERX2
 70
    0
  3
Center (2x) ________  __  ________  __  _____
 72
   65
 73
    4
 40
101.6
 49
63.5
 49
-12.7
 49
12.7
 49
-12.7
  0
ENDTAB
  0
TABLE
  2
LAYER
 70
    1
  0
LAYER
  2
0
 70
    1
 62
    7
  6
CONTINUOUS
  0
LAYER
  2
OUTLINE
 70
    0
 62
    4
  6
CONTINUOUS
  0
ENDTAB
  0
TABLE
  2
STYLE
 70
    3
  0
STYLE
  2
STANDARD
 70
    0
 40
0
 41
1
 50
0
 71
    0
 42
1
  3
TXT
  4

  0
ENDTAB
  0
TABLE
  2
VIEW
 70
    0
  0
ENDTAB
  0
TABLE
  2
UCS
 70
    0
  0
ENDTAB
  0
TABLE
  2
APPID
 70
    1
  0
APPID
  2
ACAD
 70
    0
  0
APPID
  2
LIBRECAD
 70
    0
  0
ENDTAB
  0
TABLE
  2
DIMSTYLE
 70
    1
  0
DIMSTYLE
  2
STANDARD
 70
    0
  3

  4

  5

  6

  7

 40
1
 41
0.18
 42
0.0625
 43
0.38
 44
0.18
 45
0
 46
0
 47
0
 48
0
 49
1
140
0.18
141
0.09
142
0
143
25.4
144
1
145
0
146
1
147
0.09
 71
    0
 72
    0
 73
    1
 74
    1
 75
    0
 76
    0
 77
    0
 78
    0
170
    0
171
    2
172
    0
173
    0
174
    0
175
    0
176
    0
177
    0
178
    0
  0
ENDTAB
  0
ENDSEC
  0
SECTION
  2
BLOCKS
  0
BLOCK
  8
0
  2
$MODEL_SPACE
 70
    0
 10
0
 20
0
 30
0
  3
$MODEL_SPACE
  1

  0
ENDBLK
  8
0
  0
BLOCK
  8
0
  2
$PAPER_SPACE
 70
    0
 10
0
 20
0
 30
0
  3
$PAPER_SPACE
  1

  0
ENDBLK
  8
0
  0
ENDSEC
  0
SECTION
  2
ENTITIES
  0
LINE
  5
31
  8
OUTLINE
  6
CONTINUOUS
 62
    4
 10
0
 20
0
 11
0
 21
250
  0
LINE
  5
32
  8
OUTLINE
  6
CONTINUOUS
 62
    4
 10
0
 20
250
 11
8.170748975402695
 21
250.3430988929286
  0
LINE
  5
33
  8
OUTLINE
  6
CONTINUOUS
 62
    7
 10
8.170748975402695
 20
250.3430988929286
 11
16.34583783862375
 21
250.5313982245715
  0
LINE
  5
34
  8
OUTLINE
  6
CONTINUOUS
 62
    7
 10
16.34583783862375
 20
250.5313982245715
 11
24.52382800852056
 21
250.5681138653854
  0
LINE
  5
35
  8
OUTLINE
  6
CONTINUOUS
 62
    7
 10
24.52382800852056
 20
250.5681138653854
 11
32.7032809039505
 21
250.456461685827
  0
LINE
  5
36
  8
OUTLINE
  6
CONTINUOUS
 62
    7
 10
32.7032809039505
 20
250.456461685827
 11
40.88275794377098
 21
250.1996575563531
  0
LINE
  5
37
  8
OUTLINE
  6
CONTINUOUS
 62
    7
 10
40.88275794377098
 20
250.1996575563531
 11
49.06082054683938
 21
249.8009173474207
  0
LINE
  5
38
  8
OUTLINE
  6
CONTINUOUS
 62
    7
 10
49.06082054683938
 20
249.8009173474207
 11
57.23603013201309
 21
249.2634569294864
  0
LINE
  5
39
  8
OUTLINE
  6
CONTINUOUS
 62
    7
 10
57.23603013201309
 20
249.2634569294864
 11
65.40694811814951
 21
248.5904921730071
  0
LINE
  5
3A
  8
OUTLINE
  6
CONTINUOUS
 62
    7
 10
65.40694811814951
 20
248.5904921730071
 11
73.57213592410604
 21
247.7852389484396
  0
LINE
  5
3B
  8
OUTLINE
  6
CONTINUOUS
 62
    7
 10
73.57213592410604
 20
247.7852389484396
 11
81.73015136836665
 21
246.8509055858025
  0
LINE
  5
3C
  8
OUTLINE
  6
CONTINUOUS
 62
    7
 10
81.73015136836665
 20
246.8509055858025
 11
89.87796808222011
 21
245.7873825743936
  0
LINE
  5
3D
  8
OUTLINE
  6
CONTINUOUS
 62
    7
 10
89.87796808222011
 20
245.7873825743936
 11
98.00849705755485
 21
244.5860518191227
  0
LINE
  5
3E
  8
OUTLINE
  6
CONTINUOUS
 62
    7
 10
98.00849705755485
 20
244.5860518191227
 11
106.1140071565197
 21
243.2369503811812
  0
LINE
  5
3F
  8
OUTLINE
  6
CONTINUOUS
 62
    7
 10
106.1140071565197
 20
243.2369503811812
 11
114.1867672412638
 21
241.7301153217607
  0
LINE
  5
40
  8
OUTLINE
  6
CONTINUOUS
 62
    7
 10
114.1867672412638
 20
241.7301153217607
 11
122.2190461739357
 21
240.055583702053
  0
LINE
  5
41
  8
OUTLINE
  6
CONTINUOUS
 62
    7
 10
122.2190461739357
 20
240.055583702053
 11
130.2031128166847
 21
238.2033925832494
  0
LINE
  5
42
  8
OUTLINE
  6
CONTINUOUS
 62
    7
 10
130.2031128166847
 20
238.2033925832494
 11
138.1312360316594
 21
236.1635790265416
  0
LINE
  5
43
  8
OUTLINE
  6
CONTINUOUS
 62
    7
 10
138.1312360316594
 20
236.1635790265416
 11
145.9956846810088
 21
233.9261800931209
  0
LINE
  5
44
  8
OUTLINE
  6
CONTINUOUS
 62
    7
 10
145.9956846810088
 20
233.9261800931209
 11
153.7887276268818
 21
231.4812328441793
  0
LINE
  5
45
  8
OUTLINE
  6
CONTINUOUS
 62
    7
 10
153.7887276268818
 20
231.4812328441793
 11
161.5026345618686
 21
228.8187760433833
  0
LINE
  5
46
  8
OUTLINE
  6
CONTINUOUS
 62
    7
 10
161.5026345618686
 20
228.8187760433833
 11
169.1332476565795
 21
225.9361723386777
  0
LINE
  5
47
  8
OUTLINE
  6
CONTINUOUS
 62
    7
 10
169.1332476565795
 20
225.9361723386777
 11
176.6881599507691
 21
222.8548746607987
  0
LINE
  5
48
  8
OUTLINE
  6
CONTINUOUS
 62
    7
 10
176.6881599507691
 20
222.8548746607987
 11
184.1773769916726
 21
219.6012817863377
  0
LINE
  5
49
  8
OUTLINE
  6
CONTINUOUS
 62
    7
 10
184.1773769916726
 20
219.6012817863377
 11
191.6109043265255
 21
216.2017924918861
  0
LINE
  5
4A
  8
OUTLINE
  6
CONTINUOUS
 62
    7
 10
191.6109043265255
 20
216.2017924918861
 11
198.9987475025628
 21
212.6828055540354
  0
LINE
  5
4B
  8
OUTLINE
  6
CONTINUOUS
 62
    7
 10
198.9987475025628
 20
212.6828055540354
 11
206.3509120670201
 21
209.0707197493768
  0
LINE
  5
4C
  8
OUTLINE
  6
CONTINUOUS
 62
    7
 10
206.3509120670201
 20
209.0707197493768
 11
213.6774035671326
 21
205.3919338545019
  0
LINE
  5
4D
  8
OUTLINE
  6
CONTINUOUS
 62
    7
 10
213.6774035671326
 20
205.3919338545019
 11
220.9882275501355
 21
201.6728466460019
  0
LINE
  5
4E
  8
OUTLINE
  6
CONTINUOUS
 62
    7
 10
220.9882275501355
 20
201.6728466460019
 11
228.2933895632644
 21
197.9398569004684
  0
LINE
  5
4F
  8
OUTLINE
  6
CONTINUOUS
 62
    7
 10
228.2933895632644
 20
197.9398569004684
 11
235.6028951537543
 21
194.2193633944927
  0
LINE
  5
50
  8
OUTLINE
  6
CONTINUOUS
 62
    7
 10
235.6028951537543
 20
194.2193633944927
 11
242.9267459405698
 21
190.5377541837953
  0
LINE
  5
51
  8
OUTLINE
  6
CONTINUOUS
 62
    7
 10
242.9267459405698
 20
190.5377541837953
 11
250.2721783184209
 21
186.9138705912104
  0
LINE
  5
52
  8
OUTLINE
  6
CONTINUOUS
 62
    7
 10
250.2721783184209
 20
186.9138705912104
 11
257.6388195735038
 21
183.3457874829742
  0
LINE
  5
53
  8
OUTLINE
  6
CONTINUOUS
 62
    7
 10
257.6388195735038
 20
183.3457874829742
 11
265.0249995276457
 21
179.8280387405325
  0
LINE
  5
54
  8
OUTLINE
  6
CONTINUOUS
 62
    7
 10
265.0249995276457
 20
179.8280387405325
 11
272.4290480026734
 21
176.3551582453312
  0
LINE
  5
55
  8
OUTLINE
  6
CONTINUOUS
 62
    7
 10
272.4290480026734
 20
176.3551582453312
 11
279.8492948204138
 21
172.9216798788162
  0
LINE
  5
56
  8
OUTLINE
  6
CONTINUOUS
 62
    7
 10
279.8492948204138
 20
172.9216798788162
 11
287.284069802694
 21
169.5221375224336
  0
LINE
  5
57
  8
OUTLINE
  6
CONTINUOUS
 62
    7
 10
287.284069802694
 20
169.5221375224336
 11
294.7317027713408
 21
166.1510650576292
  0
LINE
  5
58
  8
OUTLINE
  6
CONTINUOUS
 62
    7
 10
294.7317027713408
 20
166.1510650576292
 11
302.1905235481813
 21
162.8029963658489
  0
LINE
  5
59
  8
OUTLINE
  6
CONTINUOUS
 62
    7
 10
302.1905235481813
 20
162.8029963658489
 11
309.6588619550423
 21
159.4724653285387
  0
LINE
  5
5A
  8
OUTLINE
  6
CONTINUOUS
 62
    7
 10
309.6588619550423
 20
159.4724653285387
 11
317.1350478137508
 21
156.1540058271445
  0
LINE
  5
5B
  8
OUTLINE
  6
CONTINUOUS
 62
    7
 10
317.1350478137508
 20
156.1540058271445
 11
324.6174468095352
 21
152.8422688507162
  0
LINE
  5
5C
  8
OUTLINE
  6
CONTINUOUS
 62
    7
 10
324.6174468095352
 20
152.8422688507162
 11
332.1063427115756
 21
149.538168659676
  0
LINE
  5
5D
  8
OUTLINE
  6
CONTINUOUS
 62
    7
 10
332.1063427115756
 20
149.538168659676
 11
339.6048651932026
 21
146.2519124705663
  0
LINE
  5
5E
  8
OUTLINE
  6
CONTINUOUS
 62
    7
 10
339.6048651932026
 20
146.2519124705663
 11
347.1163744587109
 21
142.9944602709362
  0
LINE
  5
5F
  8
OUTLINE
  6
CONTINUOUS
 62
    7
 10
347.1163744587109
 20
142.9944602709362
 11
354.6442307123955
 21
139.7767720483352
  0
LINE
  5
60
  8
OUTLINE
  6
CONTINUOUS
 62
    7
 10
354.6442307123955
 20
139.7767720483352
 11
362.1917941585511
 21
136.6098077903124
  0
LINE
  5
61
  8
OUTLINE
  6
CONTINUOUS
 62
    7
 10
362.1917941585511
 20
136.6098077903124
 11
369.7624250014725
 21
133.5045274844171
  0
LINE
  5
62
  8
OUTLINE
  6
CONTINUOUS
 62
    7
 10
369.7624250014725
 20
133.5045274844171
 11
377.3594834454546
 21
130.4718911181985
  0
LINE
  5
63
  8
OUTLINE
  6
CONTINUOUS
 62
    7
 10
377.3594834454546
 20
130.4718911181985
 11
384.986329694792
 21
127.5228586792059
  0
LINE
  5
64
  8
OUTLINE
  6
CONTINUOUS
 62
    7
 10
384.986329694792
 20
127.5228586792059
 11
392.6463239537797
 21
124.6683901549885
  0
LINE
  5
65
  8
OUTLINE
  6
CONTINUOUS
 62
    7
 10
392.6463239537797
 20
124.6683901549885
 11
400.3428264267123
 21
121.9194455330955
  0
LINE
  5
66
  8
OUTLINE
  6
CONTINUOUS
 62
    7
 10
400.3428264267123
 20
121.9194455330955
 11
408.0788447995157
 21
119.2859332582619
  0
LINE
  5
67
  8
OUTLINE
  6
CONTINUOUS
 62
    7
 10
408.0788447995157
 20
119.2859332582619
 11
415.8531248669676
 21
116.7650487894421
  0
LINE
  5
68
  8
OUTLINE
  6
CONTINUOUS
 62
    7
 10
415.8531248669676
 20
116.7650487894421
 11
423.6615829525376
 21
114.3455474290378
  0
LINE
  5
69
  8
OUTLINE
  6
CONTINUOUS
 62
    7
 10
423.6615829525376
 20
114.3455474290378
 11
431.5000845003385
 21
112.0160327091393
  0
LINE
  5
6A
  8
OUTLINE
  6
CONTINUOUS
 62
    7
 10
431.5000845003385
 20
112.0160327091393
 11
439.3644949544828
 21
109.7651081618369
  0
LINE
  5
6B
  8
OUTLINE
  6
CONTINUOUS
 62
    7
 10
439.3644949544828
 20
109.7651081618369
 11
447.2506797590831
 21
107.5813773192212
  0
LINE
  5
6C
  8
OUTLINE
  6
CONTINUOUS
 62
    7
 10
447.2506797590831
 20
107.5813773192212
 11
455.1545043582517
 21
105.4534437133823
  0
LINE
  5
6D
  8
OUTLINE
  6
CONTINUOUS
 62
    7
 10
455.1545043582517
 20
105.4534437133823
 11
463.0718341961016
 21
103.3699108764108
  0
LINE
  5
6E
  8
OUTLINE
  6
CONTINUOUS
 62
    7
 10
463.0718341961016
 20
103.3699108764108
 11
470.9985347167449
 21
101.319382340397
  0
LINE
  5
6F
  8
OUTLINE
  6
CONTINUOUS
 62
    7
 10
470.9985347167449
 20
101.319382340397
 11
478.9304713642944
 21
99.29046163743125
  0
LINE
  5
70
  8
OUTLINE
  6
CONTINUOUS
 62
    7
 10
478.9304713642944
 20
99.29046163743125
 11
486.8635463902328
 21
97.27185055454714
  0
LINE
  5
71
  8
OUTLINE
  6
CONTINUOUS
 62
    7
 10
486.8635463902328
 20
97.27185055454714
 11
494.7954874617573
 21
95.25712371039828
  0
LINE
  5
72
  8
OUTLINE
  6
CONTINUOUS
 62
    7
 10
494.7954874617573
 20
95.25712371039828
 11
502.7266509616574
 21
93.24687291339914
  0
LINE
  5
73
  8
OUTLINE
  6
CONTINUOUS
 62
    7
 10
502.7266509616574
 20
93.24687291339914
 11
510.6575974684139
 21
91.2422350594255
  0
LINE
  5
74
  8
OUTLINE
  6
CONTINUOUS
 62
    7
 10
510.6575974684139
 20
91.2422350594255
 11
518.5888875605064
 21
89.24434704435295
  0
LINE
  5
75
  8
OUTLINE
  6
CONTINUOUS
 62
    7
 10
518.5888875605064
 20
89.24434704435295
 11
526.5210818164161
 21
87.25434576405735
  0
LINE
  5
76
  8
OUTLINE
  6
CONTINUOUS
 62
    7
 10
526.5210818164161
 20
87.25434576405735
 11
534.4547408146225
 21
85.27336811441427
  0
LINE
  5
77
  8
OUTLINE
  6
CONTINUOUS
 62
    7
 10
534.4547408146225
 20
85.27336811441427
 11
542.3904251336065
 21
83.30255099129948
  0
LINE
  5
78
  8
OUTLINE
  6
CONTINUOUS
 62
    7
 10
542.3904251336065
 20
83.30255099129948
 11
550.3286953518482
 21
81.3430312905887
  0
LINE
  5
79
  8
OUTLINE
  6
CONTINUOUS
 62
    7
 10
550.3286953518482
 20
81.3430312905887
 11
558.2701120478278
 21
79.39594590815759
  0
LINE
  5
7A
  8
OUTLINE
  6
CONTINUOUS
 62
    7
 10
558.2701120478278
 20
79.39594590815759
 11
566.2152318378828
 21
77.46242080439994
  0
LINE
  5
7B
  8
OUTLINE
  6
CONTINUOUS
 62
    7
 10
566.2152318378828
 20
77.46242080439994
 11
574.1642447289214
 21
75.54257010065473
  0
LINE
  5
7C
  8
OUTLINE
  6
CONTINUOUS
 62
    7
 10
574.1642447289214
 20
75.54257010065473
 11
582.116682525781
 21
73.63469128588311
  0
LINE
  5
7D
  8
OUTLINE
  6
CONTINUOUS
 62
    7
 10
582.116682525781
 20
73.63469128588311
 11
590.0720084151619
 21
71.73689246354178
  0
LINE
  5
7E
  8
OUTLINE
  6
CONTINUOUS
 62
    7
 10
590.0720084151619
 20
71.73689246354178
 11
598.0296855837638
 21
69.84728173708748
  0
LINE
  5
7F
  8
OUTLINE
  6
CONTINUOUS
 62
    7
 10
598.0296855837638
 20
69.84728173708748
 11
605.9891772182868
 21
67.96396720997687
  0
LINE
  5
80
  8
OUTLINE
  6
CONTINUOUS
 62
    7
 10
605.9891772182868
 20
67.96396720997687
 11
613.9499465054314
 21
66.0850569856667
  0
LINE
  5
81
  8
OUTLINE
  6
CONTINUOUS
 62
    7
 10
613.9499465054314
 20
66.0850569856667
 11
621.9114566318968
 21
64.20865916761366
  0
LINE
  5
82
  8
OUTLINE
  6
CONTINUOUS
 62
    7
 10
621.9114566318968
 20
64.20865916761366
 11
629.8731707843833
 21
62.33288185927442
  0
LINE
  5
83
  8
OUTLINE
  6
CONTINUOUS
 62
    7
 10
629.8731707843833
 20
62.33288185927442
 11
637.8345521495912
 21
60.45583316410575
  0
LINE
  5
84
  8
OUTLINE
  6
CONTINUOUS
 62
    7
 10
637.8345521495912
 20
60.45583316410575
 11
645.7950653804741
 21
58.57562646550776
  0
LINE
  5
85
  8
OUTLINE
  6
CONTINUOUS
 62
    7
 10
645.7950653804741
 20
58.57562646550776
 11
653.7544045892706
 21
56.69120142393075
  0
LINE
  5
86
  8
OUTLINE
  6
CONTINUOUS
 62
    7
 10
653.7544045892706
 20
56.69120142393075
 11
661.7127406945178
 21
54.80321466718979
  0
LINE
  5
87
  8
OUTLINE
  6
CONTINUOUS
 62
    7
 10
661.7127406945178
 20
54.80321466718979
 11
669.6703040119852
 21
52.91253671102064
  0
LINE
  5
88
  8
OUTLINE
  6
CONTINUOUS
 62
    7
 10
669.6703040119852
 20
52.91253671102064
 11
677.6273248574415
 21
51.02003807115909
  0
LINE
  5
89
  8
OUTLINE
  6
CONTINUOUS
 62
    7
 10
677.6273248574415
 20
51.02003807115909
 11
685.584033546656
 21
49.1265892633409
  0
LINE
  5
8A
  8
OUTLINE
  6
CONTINUOUS
 62
    7
 10
685.584033546656
 20
49.1265892633409
 11
693.5406603953974
 21
47.23306080330183
  0
LINE
  5
8B
  8
OUTLINE
  6
CONTINUOUS
 62
    7
 10
693.5406603953974
 20
47.23306080330183
 11
701.497435719435
 21
45.34032320677765
  0
LINE
  5
8C
  8
OUTLINE
  6
CONTINUOUS
 62
    7
 10
701.497435719435
 20
45.34032320677765
 11
709.4545898345376
 21
43.44924698950414
  0
LINE
  5
8D
  8
OUTLINE
  6
CONTINUOUS
 62
    7
 10
709.4545898345376
 20
43.44924698950414
 11
717.4123530564743
 21
41.56070266721707
  0
LINE
  5
8E
  8
OUTLINE
  6
CONTINUOUS
 62
    7
 10
717.4123530564743
 20
41.56070266721707
 11
725.370955439687
 21
39.67555977099817
  0
LINE
  5
8F
  8
OUTLINE
  6
CONTINUOUS
 62
    7
 10
725.370955439687
 20
39.67555977099817
 11
733.3305457167369
 21
37.79438141944814
  0
LINE
  5
90
  8
OUTLINE
  6
CONTINUOUS
 62
    7
 10
733.3305457167369
 20
37.79438141944814
 11
741.2910764116665
 21
35.91699143765376
  0
LINE
  5
91
  8
OUTLINE
  6
CONTINUOUS
 62
    7
 10
741.2910764116665
 20
35.91699143765376
 11
749.2524710493529
 21
34.04310438482751
  0
LINE
  5
92
  8
OUTLINE
  6
CONTINUOUS
 62
    7
 10
749.2524710493529
 20
34.04310438482751
 11
757.214653154673
 21
32.17243482018186
  0
LINE
  5
93
  8
OUTLINE
  6
CONTINUOUS
 62
    7
 10
757.214653154673
 20
32.17243482018186
 11
765.1775462525031
 21
30.30469730292932
  0
LINE
  5
94
  8
OUTLINE
  6
CONTINUOUS
 62
    7
 10
765.1775462525031
 20
30.30469730292932
 11
773.1410738677208
 21
28.43960639228236
  0
LINE
  5
95
  8
OUTLINE
  6
CONTINUOUS
 62
    7
 10
773.1410738677208
 20
28.43960639228236
 11
781.1051595252025
 21
26.57687664745348
  0
LINE
  5
96
  8
OUTLINE
  6
CONTINUOUS
 62
    7
 10
781.1051595252025
 20
26.57687664745348
 11
789.0697267498249
 21
24.71622262765514
  0
LINE
  5
97
  8
OUTLINE
  6
CONTINUOUS
 62
    7
 10
789.0697267498249
 20
24.71622262765514
 11
797.034699066465
 21
22.85735889209983
  0
LINE
  5
98
  8
OUTLINE
  6
CONTINUOUS
 62
    7
 10
797.034699066465
 20
22.85735889209983
 11
805
 21
21
  0
LINE
  5
99
  8
OUTLINE
  6
CONTINUOUS
 62
    4
 10
805
 20
21
 11
805
 21
0
  0
LINE
  5
9A
  8
OUTLINE
  6
CONTINUOUS
 62
    4
 10
0
 20
0
 11
0
 21
-250
  0
LINE
  5
9B
  8
OUTLINE
  6
CONTINUOUS
 62
    4
 10
0
 20
-250
 11
8.170748975402695
 21
-250.3430988929286
  0
LINE
  5
9C
  8
OUTLINE
  6
CONTINUOUS
 62
    7
 10
8.170748975402695
 20
-250.3430988929286
 11
16.34583783862375
 21
-250.5313982245715
  0
LINE
  5
9D
  8
OUTLINE
  6
CONTINUOUS
 62
    7
 10
16.34583783862375
 20
-250.5313982245715
 11
24.52382800852056
 21
-250.5681138653854
  0
LINE
  5
9E
  8
OUTLINE
  6
CONTINUOUS
 62
    7
 10
24.52382800852056
 20
-250.5681138653854
 11
32.7032809039505
 21
-250.456461685827
  0
LINE
  5
9F
  8
OUTLINE
  6
CONTINUOUS
 62
    7
 10
32.7032809039505
 20
-250.456461685827
 11
40.88275794377098
 21
-250.1996575563531
  0
LINE
  5
A0
  8
OUTLINE
  6
CONTINUOUS
 62
    7
 10
40.88275794377098
 20
-250.1996575563531
 11
49.06082054683938
 21
-249.8009173474207
  0
LINE
  5
A1
  8
OUTLINE
  6
CONTINUOUS
 62
    7
 10
49.06082054683938
 20
-249.8009173474207
 11
57.23603013201309
 21
-249.2634569294864
  0
LINE
  5
A2
  8
OUTLINE
  6
CONTINUOUS
 62
    7
 10
57.23603013201309
 20
-249.2634569294864
 11
65.40694811814951
 21
-248.5904921730071
  0
LINE
  5
A3
  8
OUTLINE
  6
CONTINUOUS
 62
    7
 10
65.40694811814951
 20
-248.5904921730071
 11
73.57213592410604
 21
-247.7852389484396
  0
LINE
  5
A4
  8
OUTLINE
  6
CONTINUOUS
 62
    7
 10
73.57213592410604
 20
-247.7852389484396
 11
81.73015136836665
 21
-246.8509055858025
  0
LINE
  5
A5
  8
OUTLINE
  6
CONTINUOUS
 62
    7
 10
81.73015136836665
 20
-246.8509055858025
 11
89.87796808222011
 21
-245.7873825743936
  0
LINE
  5
A6
  8
OUTLINE
  6
CONTINUOUS
 62
    7
 10
89.87796808222011
 20
-245.7873825743936
 11
98.00849705755485
 21
-244.5860518191227
  0
LINE
  5
A7
  8
OUTLINE
  6
CONTINUOUS
 62
    7
 10
98.00849705755485
 20
-244.5860518191227
 11
106.1140071565197
 21
-243.2369503811812
  0
LINE
  5
A8
  8
OUTLINE
  6
CONTINUOUS
 62
    7
 10
106.1140071565197
 20
-243.2369503811812
 11
114.1867672412638
 21
-241.7301153217607
  0
LINE
  5
A9
  8
OUTLINE
  6
CONTINUOUS
 62
    7
 10
114.1867672412638
 20
-241.7301153217607
 11
122.2190461739357
 21
-240.055583702053
  0
LINE
  5
AA
  8
OUTLINE
  6
CONTINUOUS
 62
    7
 10
122.2190461739357
 20
-240.055583702053
 11
130.2031128166847
 21
-238.2033925832494
  0
LINE
  5
AB
  8
OUTLINE
  6
CONTINUOUS
 62
    7
 10
130.2031128166847
 20
-238.2033925832494
 11
138.1312360316594
 21
-236.1635790265416
  0
LINE
  5
AC
  8
OUTLINE
  6
CONTINUOUS
 62
    7
 10
138.1312360316594
 20
-236.1635790265416
 11
145.9956846810088
 21
-233.9261800931209
  0
LINE
  5
AD
  8
OUTLINE
  6
CONTINUOUS
 62
    7
 10
145.9956846810088
 20
-233.9261800931209
 11
153.7887276268818
 21
-231.4812328441793
  0
LINE
  5
AE
  8
OUTLINE
  6
CONTINUOUS
 62
    7
 10
153.7887276268818
 20
-231.4812328441793
 11
161.5026345618686
 21
-228.8187760433833
  0
LINE
  5
AF
  8
OUTLINE
  6
CONTINUOUS
 62
    7
 10
161.5026345618686
 20
-228.8187760433833
 11
169.1332476565795
 21
-225.9361723386777
  0
LINE
  5
B0
  8
OUTLINE
  6
CONTINUOUS
 62
    7
 10
169.1332476565795
 20
-225.9361723386777
 11
176.6881599507691
 21
-222.8548746607987
  0
LINE
  5
B1
  8
OUTLINE
  6
CONTINUOUS
 62
    7
 10
176.6881599507691
 20
-222.8548746607987
 11
184.1773769916726
 21
-219.6012817863377
  0
LINE
  5
B2
  8
OUTLINE
  6
CONTINUOUS
 62
    7
 10
184.1773769916726
 20
-219.6012817863377
 11
191.6109043265255
 21
-216.2017924918861
  0
LINE
  5
B3
  8
OUTLINE
  6
CONTINUOUS
 62
    7
 10
191.6109043265255
 20
-216.2017924918861
 11
198.9987475025628
 21
-212.6828055540354
  0
LINE
  5
B4
  8
OUTLINE
  6
CONTINUOUS
 62
    7
 10
198.9987475025628
 20
-212.6828055540354
 11
206.3509120670201
 21
-209.0707197493768
  0
LINE
  5
B5
  8
OUTLINE
  6
CONTINUOUS
 62
    7
 10
206.3509120670201
 20
-209.0707197493768
 11
213.6774035671326
 21
-205.3919338545019
  0
LINE
  5
B6
  8
OUTLINE
  6
CONTINUOUS
 62
    7
 10
213.6774035671326
 20
-205.3919338545019
 11
220.9882275501355
 21
-201.6728466460019
  0
LINE
  5
B7
  8
OUTLINE
  6
CONTINUOUS
 62
    7
 10
220.9882275501355
 20
-201.6728466460019
 11
228.2933895632644
 21
-197.9398569004684
  0
LINE
  5
B8
  8
OUTLINE
  6
CONTINUOUS
 62
    7
 10
228.2933895632644
 20
-197.9398569004684
 11
235.6028951537543
 21
-194.2193633944927
  0
LINE
  5
B9
  8
OUTLINE
  6
CONTINUOUS
 62
    7
 10
235.6028951537543
 20
-194.2193633944927
 11
242.9267459405698
 21
-190.5377541837953
  0
LINE
  5
BA
  8
OUTLINE
  6
CONTINUOUS
 62
    7
 10
242.9267459405698
 20
-190.5377541837953
 11
250.2721783184209
 21
-186.9138705912104
  0
LINE
  5
BB
  8
OUTLINE
  6
CONTINUOUS
 62
    7
 10
250.2721783184209
 20
-186.9138705912104
 11
257.6388195735038
 21
-183.3457874829742
  0
LINE
  5
BC
  8
OUTLINE
  6
CONTINUOUS
 62
    7
 10
257.6388195735038
 20
-183.3457874829742
 11
265.0249995276457
 21
-179.8280387405325
  0
LINE
  5
BD
  8
OUTLINE
  6
CONTINUOUS
 62
    7
 10
265.0249995276457
 20
-179.8280387405325
 11
272.4290480026734
 21
-176.3551582453312
  0
LINE
  5
BE
  8
OUTLINE
  6
CONTINUOUS
 62
    7
 10
272.4290480026734
 20
-176.3551582453312
 11
279.8492948204138
 21
-172.9216798788162
  0
LINE
  5
BF
  8
OUTLINE
  6
CONTINUOUS
 62
    7
 10
279.8492948204138
 20
-172.9216798788162
 11
287.284069802694
 21
-169.5221375224336
  0
LINE
  5
C0
  8
OUTLINE
  6
CONTINUOUS
 62
    7
 10
287.284069802694
 20
-169.5221375224336
 11
294.7317027713408
 21
-166.1510650576292
  0
LINE
  5
C1
  8
OUTLINE
  6
CONTINUOUS
 62
    7
 10
294.7317027713408
 20
-166.1510650576292
 11
302.1905235481813
 21
-162.8029963658489
  0
LINE
  5
C2
  8
OUTLINE
  6
CONTINUOUS
 62
    7
 10
302.1905235481813
 20
-162.8029963658489
 11
309.6588619550423
 21
-159.4724653285387
  0
LINE
  5
C3
  8
OUTLINE
  6
CONTINUOUS
 62
    7
 10
309.6588619550423
 20
-159.4724653285387
 11
317.1350478137508
 21
-156.1540058271445
  0
LINE
  5
C4
  8
OUTLINE
  6
CONTINUOUS
 62
    7
 10
317.1350478137508
 20
-156.1540058271445
 11
324.6174468095352
 21
-152.8422688507162
  0
LINE
  5
C5
  8
OUTLINE
  6
CONTINUOUS
 62
    7
 10
324.6174468095352
 20
-152.8422688507162
 11
332.1063427115756
 21
-149.538168659676
  0
LINE
  5
C6
  8
OUTLINE
  6
CONTINUOUS
 62
    7
 10
332.1063427115756
 20
-149.538168659676
 11
339.6048651932026
 21
-146.2519124705663
  0
LINE
  5
C7
  8
OUTLINE
  6
CONTINUOUS
 62
    7
 10
339.6048651932026
 20
-146.2519124705663
 11
347.1163744587109
 21
-142.9944602709362
  0
LINE
  5
C8
  8
OUTLINE
  6
CONTINUOUS
 62
    7
 10
347.1163744587109
 20
-142.9944602709362
 11
354.6442307123955
 21
-139.7767720483352
  0
LINE
  5
C9
  8
OUTLINE
  6
CONTINUOUS
 62
    7
 10
354.6442307123955
 20
-139.7767720483352
 11
362.1917941585511
 21
-136.6098077903124
  0
LINE
  5
CA
  8
OUTLINE
  6
CONTINUOUS
 62
    7
 10
362.1917941585511
 20
-136.6098077903124
 11
369.7624250014725
 21
-133.5045274844171
  0
LINE
  5
CB
  8
OUTLINE
  6
CONTINUOUS
 62
    7
 10
369.7624250014725
 20
-133.5045274844171
 11
377.3594834454546
 21
-130.4718911181985
  0
LINE
  5
CC
  8
OUTLINE
  6
CONTINUOUS
 62
    7
 10
377.3594834454546
 20
-130.4718911181985
 11
384.986329694792
 21
-127.5228586792059
  0
LINE
  5
CD
  8
OUTLINE
  6
CONTINUOUS
 62
    7
 10
384.986329694792
 20
-127.5228586792059
 11
392.6463239537797
 21
-124.6683901549885
  0
LINE
  5
CE
  8
OUTLINE
  6
CONTINUOUS
 62
    7
 10
392.6463239537797
 20
-124.6683901549885
 11
400.3428264267123
 21
-121.9194455330955
  0
LINE
  5
CF
  8
OUTLINE
  6
CONTINUOUS
 62
    7
 10
400.3428264267123
 20
-121.9194455330955
 11
408.0788447995157
 21
-119.2859332582619
  0
LINE
  5
D0
  8
OUTLINE
  6
CONTINUOUS
 62
    7
 10
408.0788447995157
 20
-119.2859332582619
 11
415.8531248669676
 21
-116.7650487894421
  0
LINE
  5
D1
  8
OUTLINE
  6
CONTINUOUS
 62
    7
 10
415.8531248669676
 20
-116.7650487894421
 11
423.6615829525376
 21
-114.3455474290378
  0
LINE
  5
D2
  8
OUTLINE
  6
CONTINUOUS
 62
    7
 10
423.6615829525376
 20
-114.3455474290378
 11
431.5000845003385
 21
-112.0160327091393
  0
LINE
  5
D3
  8
OUTLINE
  6
CONTINUOUS
 62
    7
 10
431.5000845003385
 20
-112.0160327091393
 11
439.3644949544828
 21
-109.7651081618369
  0
LINE
  5
D4
  8
OUTLINE
  6
CONTINUOUS
 62
    7
 10
439.3644949544828
 20
-109.7651081618369
 11
447.2506797590831
 21
-107.5813773192212
  0
LINE
  5
D5
  8
OUTLINE
  6
CONTINUOUS
 62
    7
 10
447.2506797590831
 20
-107.5813773192212
 11
455.1545043582517
 21
-105.4534437133823
  0
LINE
  5
D6
  8
OUTLINE
  6
CONTINUOUS
 62
    7
 10
455.1545043582517
 20
-105.4534437133823
 11
463.0718341961016
 21
-103.3699108764108
  0
LINE
  5
D7
  8
OUTLINE
  6
CONTINUOUS
 62
    7
 10
463.0718341961016
 20
-103.3699108764108
 11
470.9985347167449
 21
-101.319382340397
  0
LINE
  5
D8
  8
OUTLINE
  6
CONTINUOUS
 62
    7
 10
470.9985347167449
 20
-101.319382340397
 11
478.9304713642944
 21
-99.29046163743125
  0
LINE
  5
D9
  8
OUTLINE
  6
CONTINUOUS
 62
    7
 10
478.9304713642944
 20
-99.29046163743125
 11
486.8635463902328
 21
-97.27185055454714
  0
LINE
  5
DA
  8
OUTLINE
  6
CONTINUOUS
 62
    7
 10
486.8635463902328
 20
-97.27185055454714
 11
494.7954874617573
 21
-95.25712371039828
  0
LINE
  5
DB
  8
OUTLINE
  6
CONTINUOUS
 62
    7
 10
494.7954874617573
 20
-95.25712371039828
 11
502.7266509616574
 21
-93.24687291339914
  0
LINE
  5
DC
  8
OUTLINE
  6
CONTINUOUS
 62
    7
 10
502.7266509616574
 20
-93.24687291339914
 11
510.6575974684139
 21
-91.2422350594255
  0
LINE
  5
DD
  8
OUTLINE
  6
CONTINUOUS
 62
    7
 10
510.6575974684139
 20
-91.2422350594255
 11
518.5888875605064
 21
-89.24434704435295
  0
LINE
  5
DE
  8
OUTLINE
  6
CONTINUOUS
 62
    7
 10
518.5888875605064
 20
-89.24434704435295
 11
526.5210818164161
 21
-87.25434576405735
  0
LINE
  5
DF
  8
OUTLINE
  6
CONTINUOUS
 62
    7
 10
526.5210818164161
 20
-87.25434576405735
 11
534.4547408146225
 21
-85.27336811441427
  0
LINE
  5
E0
  8
OUTLINE
  6
CONTINUOUS
 62
    7
 10
534.4547408146225
 20
-85.27336811441427
 11
542.3904251336065
 21
-83.30255099129948
  0
LINE
  5
E1
  8
OUTLINE
  6
CONTINUOUS
 62
    7
 10
542.3904251336065
 20
-83.30255099129948
 11
550.3286953518482
 21
-81.3430312905887
  0
LINE
  5
E2
  8
OUTLINE
  6
CONTINUOUS
 62
    7
 10
550.3286953518482
 20
-81.3430312905887
 11
558.2701120478278
 21
-79.39594590815759
  0
LINE
  5
E3
  8
OUTLINE
  6
CONTINUOUS
 62
    7
 10
558.2701120478278
 20
-79.39594590815759
 11
566.2152318378828
 21
-77.46242080439994
  0
LINE
  5
E4
  8
OUTLINE
  6
CONTINUOUS
 62
    7
 10
566.2152318378828
 20
-77.46242080439994
 11
574.1642447289214
 21
-75.54257010065473
  0
LINE
  5
E5
  8
OUTLINE
  6
CONTINUOUS
 62
    7
 10
574.1642447289214
 20
-75.54257010065473
 11
582.116682525781
 21
-73.63469128588311
  0
LINE
  5
E6
  8
OUTLINE
  6
CONTINUOUS
 62
    7
 10
582.116682525781
 20
-73.63469128588311
 11
590.0720084151619
 21
-71.73689246354178
  0
LINE
  5
E7
  8
OUTLINE
  6
CONTINUOUS
 62
    7
 10
590.0720084151619
 20
-71.73689246354178
 11
598.0296855837638
 21
-69.84728173708748
  0
LINE
  5
E8
  8
OUTLINE
  6
CONTINUOUS
 62
    7
 10
598.0296855837638
 20
-69.84728173708748
 11
605.9891772182868
 21
-67.96396720997687
  0
LINE
  5
E9
  8
OUTLINE
  6
CONTINUOUS
 62
    7
 10
605.9891772182868
 20
-67.96396720997687
 11
613.9499465054314
 21
-66.0850569856667
  0
LINE
  5
EA
  8
OUTLINE
  6
CONTINUOUS
 62
    7
 10
613.9499465054314
 20
-66.0850569856667
 11
621.9114566318968
 21
-64.20865916761366
  0
LINE
  5
EB
  8
OUTLINE
  6
CONTINUOUS
 62
    7
 10
621.9114566318968
 20
-64.20865916761366
 11
629.8731707843833
 21
-62.33288185927442
  0
LINE
  5
EC
  8
OUTLINE
  6
CONTINUOUS
 62
    7
 10
629.8731707843833
 20
-62.33288185927442
 11
637.8345521495912
 21
-60.45583316410575
  0
LINE
  5
ED
  8
OUTLINE
  6
CONTINUOUS
 62
    7
 10
637.8345521495912
 20
-60.45583316410575
 11
645.7950653804741
 21
-58.57562646550776
  0
LINE
  5
EE
  8
OUTLINE
  6
CONTINUOUS
 62
    7
 10
645.7950653804741
 20
-58.57562646550776
 11
653.7544045892706
 21
-56.69120142393075
  0
LINE
  5
EF
  8
OUTLINE
  6
CONTINUOUS
 62
    7
 10
653.7544045892706
 20
-56.69120142393075
 11
661.7127406945178
 21
-54.80321466718979
  0
LINE
  5
F0
  8
OUTLINE
  6
CONTINUOUS
 62
    7
 10
661.7127406945178
 20
-54.80321466718979
 11
669.6703040119852
 21
-52.91253671102064
  0
LINE
  5
F1
  8
OUTLINE
  6
CONTINUOUS
 62
    7
 10
669.6703040119852
 20
-52.91253671102064
 11
677.6273248574415
 21
-51.02003807115909
  0
LINE
  5
F2
  8
OUTLINE
  6
CONTINUOUS
 62
    7
 10
677.6273248574415
 20
-51.02003807115909
 11
685.584033546656
 21
-49.1265892633409
  0
LINE
  5
F3
  8
OUTLINE
  6
CONTINUOUS
 62
    7
 10
685.584033546656
 20
-49.1265892633409
 11
693.5406603953974
 21
-47.23306080330183
  0
LINE
  5
F4
  8
OUTLINE
  6
CONTINUOUS
 62
    7
 10
693.5406603953974
 20
-47.23306080330183
 11
701.497435719435
 21
-45.34032320677765
  0
LINE
  5
F5
  8
OUTLINE
  6
CONTINUOUS
 62
    7
 10
701.497435719435
 20
-45.34032320677765
 11
709.4545898345376
 21
-43.44924698950414
  0
LINE
  5
F6
  8
OUTLINE
  6
CONTINUOUS
 62
    7
 10
709.4545898345376
 20
-43.44924698950414
 11
717.4123530564743
 21
-41.56070266721707
  0
LINE
  5
F7
  8
OUTLINE
  6
CONTINUOUS
 62
    7
 10
717.4123530564743
 20
-41.56070266721707
 11
725.370955439687
 21
-39.67555977099817
  0
LINE
  5
F8
  8
OUTLINE
  6
CONTINUOUS
 62
    7
 10
725.370955439687
 20
-39.67555977099817
 11
733.3305457167369
 21
-37.79438141944814
  0
LINE
  5
F9
  8
OUTLINE
  6
CONTINUOUS
 62
    7
 10
733.3305457167369
 20
-37.79438141944814
 11
741.2910764116665
 21
-35.91699143765376
  0
LINE
  5
FA
  8
OUTLINE
  6
CONTINUOUS
 62
    7
 10
741.2910764116665
 20
-35.91699143765376
 11
749.2524710493529
 21
-34.04310438482751
  0
LINE
  5
FB
  8
OUTLINE
  6
CONTINUOUS
 62
    7
 10
749.2524710493529
 20
-34.04310438482751
 11
757.214653154673
 21
-32.17243482018186
  0
LINE
  5
FC
  8
OUTLINE
  6
CONTINUOUS
 62
    7
 10
757.214653154673
 20
-32.17243482018186
 11
765.1775462525031
 21
-30.30469730292932
  0
LINE
  5
FD
  8
OUTLINE
  6
CONTINUOUS
 62
    7
 10
765.1775462525031
 20
-30.30469730292932
 11
773.1410738677208
 21
-28.43960639228236
  0
LINE
  5
FE
  8
OUTLINE
  6
CONTINUOUS
 62
    7
 10
773.1410738677208
 20
-28.43960639228236
 11
781.1051595252025
 21
-26.57687664745348
  0
LINE
  5
FF
  8
OUTLINE
  6
CONTINUOUS
 62
    7
 10
781.1051595252025
 20
-26.57687664745348
 11
789.0697267498249
 21
-24.71622262765514
  0
LINE
  5
100
  8
OUTLINE
  6
CONTINUOUS
 62
    7
 10
789.0697267498249
 20
-24.71622262765514
 11
797.034699066465
 21
-22.85735889209983
  0
LINE
  5
101
  8
OUTLINE
  6
CONTINUOUS
 62
    7
 10
797.034699066465
 20
-22.85735889209983
 11
805
 21
-21
  0
LINE
  5
102
  8
OUTLINE
  6
CONTINUOUS
 62
    4
 10
805
 20
-21
 11
805
 21
0
  0
ENDSEC
  0
EOF
